<svg width="64" height="64" viewBox="0 0 64 64" fill="none" xmlns="http://www.w3.org/2000/svg">
<g clip-path="url(#clip0_296_1948)">
<path opacity="0.922" fill-rule="evenodd" clip-rule="evenodd" d="M29.1875 -0.0625C30.8125 -0.0625 32.4375 -0.0625 34.0625 -0.0625C37.2899 0.3675 40.3316 1.38834 43.1875 3C43.3826 3.11762 43.5494 3.26345 43.6875 3.4375C43.3579 3.99605 43.0037 4.53771 42.625 5.0625C35.7541 1.08447 28.775 0.8553 21.6875 4.375C21.0625 4.77084 20.4375 5.16666 19.8125 5.5625C19.2876 5.14195 18.8294 4.66279 18.4375 4.125C21.6534 1.78801 25.2366 0.392175 29.1875 -0.0625Z" fill="#F62E2E"/>
<path opacity="0.923" fill-rule="evenodd" clip-rule="evenodd" d="M14.4375 2.6875C16.781 4.84328 19.0728 7.07244 21.3125 9.375C19.0816 11.6267 16.8316 13.8559 14.5625 16.0625C12.2934 13.8559 10.0434 11.6267 7.8125 9.375C10.0461 7.16232 12.2544 4.93315 14.4375 2.6875ZM14.4375 5.5625C15.8225 6.75952 17.1559 8.03035 18.4375 9.375C17.1649 10.6684 15.8733 11.9393 14.5625 13.1875C13.2517 11.9393 11.9601 10.6684 10.6875 9.375C11.9628 8.12064 13.2127 6.8498 14.4375 5.5625Z" fill="#F62E2E"/>
<path opacity="0.926" fill-rule="evenodd" clip-rule="evenodd" d="M47.6877 3.68745C50.5001 3.5197 52.521 4.68636 53.7502 7.18745C54.6772 9.98922 53.9897 12.3017 51.6877 14.1249C49.3836 15.4348 47.1336 15.3514 44.9377 13.8749C43.1072 12.2423 42.4614 10.2215 43.0002 7.81245C43.7731 5.51762 45.3356 4.14262 47.6877 3.68745ZM47.8127 5.68745C50.6867 5.6657 52.1242 7.08236 52.1252 9.93745C51.4641 12.3477 49.9016 13.3269 47.4377 12.8749C45.5175 12.1397 44.6634 10.7439 44.8752 8.68745C45.2939 7.12311 46.273 6.12311 47.8127 5.68745Z" fill="#F62E2E"/>
<path opacity="0.882" fill-rule="evenodd" clip-rule="evenodd" d="M46.5625 8.3125C47.2291 8.3125 47.8959 8.3125 48.5625 8.3125C48.5625 8.97916 48.5625 9.64584 48.5625 10.3125C47.8959 10.3125 47.2291 10.3125 46.5625 10.3125C46.5625 9.64584 46.5625 8.97916 46.5625 8.3125Z" fill="#F62E2E"/>
<path opacity="0.928" fill-rule="evenodd" clip-rule="evenodd" d="M28.6875 14.0625C30.6041 14.0625 32.5209 14.0625 34.4375 14.0625C34.3962 14.9 34.4379 15.7333 34.5625 16.5625C34.8154 16.6925 35.0654 16.8175 35.3125 16.9375C36.0609 16.542 36.8109 16.1879 37.5625 15.875C38.5116 17.4399 39.4282 19.0233 40.3125 20.625C40.2801 20.7826 40.1968 20.9076 40.0625 21C39.4791 21.3334 38.8959 21.6666 38.3125 22C38.1521 22.3494 38.1521 22.7035 38.3125 23.0625C38.9686 23.4218 39.6144 23.7968 40.25 24.1875C40.2821 24.5021 40.1987 24.7937 40 25.0625C39.1976 26.3754 38.4268 27.7087 37.6875 29.0625C37.5346 29.2017 37.368 29.2226 37.1875 29.125C36.5821 28.7689 35.9779 28.4146 35.375 28.0625C35.0966 28.1704 34.8259 28.2954 34.5625 28.4375C34.4379 29.3085 34.3962 30.1835 34.4375 31.0625C32.5209 31.0625 30.6041 31.0625 28.6875 31.0625C28.7288 30.1835 28.6871 29.3085 28.5625 28.4375C28.3214 28.3275 28.0921 28.2025 27.875 28.0625C27.2211 28.3999 26.5753 28.754 25.9375 29.125C25.8125 29.2084 25.6875 29.2084 25.5625 29.125C24.6209 27.5369 23.7041 25.9327 22.8125 24.3125C23.4896 23.8801 24.1771 23.4635 24.875 23.0625C24.9776 22.6807 24.9569 22.3057 24.8125 21.9375C24.0993 21.5816 23.4326 21.165 22.8125 20.6875C23.7394 19.0419 24.6976 17.4169 25.6875 15.8125C26.4269 16.2134 27.156 16.63 27.875 17.0625C28.0724 16.8699 28.3016 16.724 28.5625 16.625C28.6849 15.782 28.7265 14.9277 28.6875 14.0625ZM30.6875 16.0625C31.2709 16.0625 31.8541 16.0625 32.4375 16.0625C32.3966 16.693 32.4382 17.318 32.5625 17.9375C33.5276 18.2632 34.3819 18.7632 35.125 19.4375C35.6654 19.1479 36.2071 18.8562 36.75 18.5625C37.0625 19.0416 37.375 19.5209 37.6875 20C37.1875 20.2916 36.6875 20.5834 36.1875 20.875C36.1149 20.9866 36.0731 21.1116 36.0625 21.25C36.2291 22.125 36.2291 23 36.0625 23.875C36.4055 24.3396 36.8639 24.673 37.4375 24.875C37.5028 24.9451 37.5444 25.0285 37.5625 25.125C37.3475 25.6187 37.0557 26.0562 36.6875 26.4375C36.1768 26.13 35.6559 25.8384 35.125 25.5625C34.3441 26.2758 33.4482 26.7758 32.4375 27.0625C32.4375 27.7291 32.4375 28.3959 32.4375 29.0625C31.8541 29.0625 31.2709 29.0625 30.6875 29.0625C30.7285 28.3906 30.6869 27.724 30.5625 27.0625C29.6089 26.7528 28.7755 26.2528 28.0625 25.5625C27.51 25.9435 26.9266 26.2144 26.3125 26.375C26.0782 25.9274 25.8282 25.4899 25.5625 25.0625C26.1306 24.7168 26.6723 24.3418 27.1875 23.9375C26.8541 22.9791 26.8541 22.0209 27.1875 21.0625C26.6504 20.71 26.1087 20.3559 25.5625 20C25.8071 19.4896 26.0988 19.0104 26.4375 18.5625C26.9503 18.8709 27.471 19.1625 28 19.4375C28.7743 18.8109 29.6284 18.3109 30.5625 17.9375C30.6867 17.318 30.7284 16.693 30.6875 16.0625Z" fill="#F62E2E"/>
<path opacity="0.924" fill-rule="evenodd" clip-rule="evenodd" d="M10.3127 14.3125C10.9181 14.8138 11.4597 15.3763 11.9377 16C10.8456 19.3255 10.554 22.7213 11.0627 26.1875C10.4435 26.3325 9.81845 26.395 9.18772 26.375C8.5068 22.261 8.8818 18.2401 10.3127 14.3125Z" fill="#F62E2E"/>
<path opacity="0.922" fill-rule="evenodd" clip-rule="evenodd" d="M52.9375 15.3125C53.0938 15.3221 53.1979 15.4055 53.25 15.5625C54.4654 19.643 54.6321 23.768 53.75 27.9375C53.6749 28.3296 53.5499 28.7046 53.375 29.0625C52.798 28.365 52.3189 27.615 51.9375 26.8125C52.5935 23.1975 52.3851 19.635 51.3125 16.125C51.3306 16.0285 51.3722 15.9451 51.4375 15.875C51.9644 15.7208 52.4644 15.5333 52.9375 15.3125Z" fill="#F62E2E"/>
<path opacity="0.927" fill-rule="evenodd" clip-rule="evenodd" d="M30.8124 19.6875C33.2838 19.4715 34.4713 20.5965 34.3749 23.0625C34.0319 24.5508 33.0944 25.3425 31.5624 25.4375C29.1452 24.9796 28.291 23.563 28.9999 21.1875C29.4248 20.4655 30.0289 19.9655 30.8124 19.6875ZM31.1874 21.6875C30.6023 22.1482 30.5607 22.6482 31.0624 23.1875C31.484 23.5025 31.8798 23.4608 32.2499 23.0625C32.6223 22.0597 32.2682 21.6013 31.1874 21.6875Z" fill="#F62E2E"/>
<path opacity="0.927" fill-rule="evenodd" clip-rule="evenodd" d="M49.5625 26.6875C50.4788 27.8556 51.3538 29.064 52.1875 30.3125C53.6565 30.794 55.1147 31.294 56.5625 31.8125C55.6906 32.997 54.7948 34.1636 53.875 35.3125C53.8541 36.8559 53.7916 38.3975 53.6875 39.9375C52.3401 39.4201 50.986 38.9201 49.625 38.4375C48.264 38.9201 46.9099 39.4201 45.5625 39.9375C45.4584 38.3975 45.3959 36.8559 45.375 35.3125C44.4553 34.1636 43.5594 32.997 42.6875 31.8125C44.1352 31.294 45.5935 30.794 47.0625 30.3125C47.899 29.1019 48.7324 27.8936 49.5625 26.6875ZM49.5625 30.1875C50.0641 30.792 50.5225 31.4379 50.9375 32.125C51.7101 32.327 52.4601 32.577 53.1875 32.875C52.7651 33.4488 52.3276 34.0113 51.875 34.5625C51.8539 35.3989 51.7914 36.2323 51.6875 37.0625C51.0126 36.7751 50.3251 36.5251 49.625 36.3125C48.9249 36.5251 48.2374 36.7751 47.5625 37.0625C47.4586 36.2323 47.3961 35.3989 47.375 34.5625C46.9224 34.0113 46.4849 33.4488 46.0625 32.875C46.7933 32.5876 47.5433 32.3376 48.3125 32.125C48.7474 31.4827 49.164 30.8369 49.5625 30.1875Z" fill="#F62E2E"/>
<path opacity="0.93" fill-rule="evenodd" clip-rule="evenodd" d="M10.3125 28.0625C12.3546 28.0416 14.3962 28.0625 16.4375 28.125C17.5171 29.8086 18.5171 31.5378 19.4375 33.3125C18.5129 35.0364 17.5546 36.7448 16.5625 38.4375C14.4375 38.6041 12.3125 38.6041 10.1875 38.4375C9.19544 36.7448 8.2371 35.0364 7.3125 33.3125C8.26125 31.5311 9.26125 29.7811 10.3125 28.0625ZM11.4375 30.0625C12.7319 30.021 14.0235 30.0626 15.3125 30.1875C15.9296 31.2136 16.5129 32.2553 17.0625 33.3125C16.5592 34.4196 15.9759 35.4821 15.3125 36.5C13.9904 36.6024 12.6779 36.5815 11.375 36.4375C10.7468 35.4311 10.1843 34.3894 9.6875 33.3125C10.2718 32.227 10.8552 31.1438 11.4375 30.0625Z" fill="#F62E2E"/>
<path opacity="0.882" fill-rule="evenodd" clip-rule="evenodd" d="M11.8125 32.3125C12.4792 32.3125 13.1459 32.3125 13.8125 32.3125C13.8125 32.9791 13.8125 33.6459 13.8125 34.3125C13.1459 34.3125 12.4792 34.3125 11.8125 34.3125C11.8125 33.6459 11.8125 32.9791 11.8125 32.3125Z" fill="#F62E2E"/>
<path opacity="0.939" fill-rule="evenodd" clip-rule="evenodd" d="M41.0625 63.9375C39.7709 63.9375 38.4791 63.9375 37.1875 63.9375C37.1875 63.3125 37.1875 62.6875 37.1875 62.0625C37.8125 62.0625 38.4375 62.0625 39.0625 62.0625C39.1001 60.5993 39.0376 59.1409 38.875 57.6875C37.8935 53.9562 35.4768 51.9562 31.625 51.6875C28.4378 51.8352 26.1461 53.3352 24.75 56.1875C24.5248 56.7969 24.3581 57.4219 24.25 58.0625C24.1875 59.3952 24.1666 60.7285 24.1875 62.0625C26.6875 62.0625 29.1875 62.0625 31.6875 62.0625C31.6875 62.6875 31.6875 63.3125 31.6875 63.9375C28.5209 63.9375 25.3541 63.9375 22.1875 63.9375C22.1666 61.8954 22.1875 59.8538 22.25 57.8125C22.8221 54.3665 24.6763 51.8874 27.8125 50.375C25.2904 48.3507 24.5195 45.7882 25.5 42.6875C27.075 39.3687 29.6793 38.0562 33.3125 38.75C36.3476 39.764 37.9309 41.8682 38.0625 45.0625C38.0208 47.2708 37.1458 49.0625 35.4375 50.4375C38.78 52.1212 40.6341 54.8295 41 58.5625C41.0625 60.3537 41.0834 62.1454 41.0625 63.9375ZM30.6875 40.5625C34.4328 40.4952 36.2036 42.3285 36 46.0625C35.176 48.5687 33.4469 49.7144 30.8125 49.5C27.9371 48.6655 26.7496 46.7697 27.25 43.8125C27.8598 42.1397 29.0056 41.0563 30.6875 40.5625Z" fill="#F62E2E"/>
<path opacity="0.899" fill-rule="evenodd" clip-rule="evenodd" d="M18.3125 38.6875C20.0304 39.9746 21.8846 41.058 23.875 41.9375C23.7362 42.5819 23.507 43.2069 23.1875 43.8125C20.9685 42.9746 18.9685 41.7871 17.1875 40.25C17.6109 39.7549 17.9859 39.2341 18.3125 38.6875Z" fill="#F62E2E"/>
<path opacity="0.897" fill-rule="evenodd" clip-rule="evenodd" d="M43.3125 39.6876C43.5487 39.6622 43.7362 39.7454 43.875 39.9376C44.1989 40.3784 44.4489 40.8368 44.625 41.3126C43.2105 42.3223 41.6896 43.1556 40.0625 43.8126C39.743 43.2069 39.5138 42.5819 39.375 41.9376C40.7626 41.2966 42.0751 40.5466 43.3125 39.6876Z" fill="#F62E2E"/>
<path opacity="0.882" fill-rule="evenodd" clip-rule="evenodd" d="M27.8125 54.3125C28.4791 54.3125 29.1459 54.3125 29.8125 54.3125C29.8125 54.9791 29.8125 55.6459 29.8125 56.3125C29.1459 56.3125 28.4791 56.3125 27.8125 56.3125C27.8125 55.6459 27.8125 54.9791 27.8125 54.3125Z" fill="#F62E2E"/>
<path opacity="0.881" fill-rule="evenodd" clip-rule="evenodd" d="M35.4375 63.9375C34.7709 63.9375 34.1041 63.9375 33.4375 63.9375C33.4375 63.2709 33.4375 62.6041 33.4375 61.9375C34.1041 61.9375 34.7709 61.9375 35.4375 61.9375C35.4375 62.6041 35.4375 63.2709 35.4375 63.9375Z" fill="#F62E2E"/>
</g>
<defs>
<clipPath id="clip0_296_1948">
<rect width="64" height="64" fill="white"/>
</clipPath>
</defs>
</svg>
