<svg width="64" height="64" viewBox="0 0 64 64" fill="none" xmlns="http://www.w3.org/2000/svg">
<g clip-path="url(#clip0_296_1866)">
<path opacity="0.926" fill-rule="evenodd" clip-rule="evenodd" d="M31.0623 2.43749C33.7696 2.24876 35.0612 3.51959 34.9373 6.24999C35.0601 7.48461 34.7267 8.56793 33.9373 9.49999C32.4926 10.4646 31.0968 10.4021 29.7498 9.31249C29.1207 8.41673 28.8498 7.41673 28.9373 6.31249C28.7118 4.46943 29.4201 3.17776 31.0623 2.43749ZM31.5623 4.43749C32.2906 4.31108 32.7281 4.60274 32.8748 5.31249C32.9582 5.97916 32.9582 6.64583 32.8748 7.31249C32.6868 8.00238 32.2493 8.27321 31.5623 8.12499C31.2736 7.92032 31.0861 7.64949 30.9998 7.31249C30.8607 6.41063 30.9441 5.53563 31.2498 4.68749C31.3742 4.61676 31.4783 4.53342 31.5623 4.43749Z" fill="#F62E2E"/>
<path opacity="0.927" fill-rule="evenodd" clip-rule="evenodd" d="M22.1876 4.3125C23.0409 4.24456 23.8325 4.43206 24.5626 4.875C25.426 5.65453 26.1968 6.50869 26.8751 7.4375C27.431 9.18788 26.9101 10.5004 25.3126 11.375C24.3594 11.6775 23.4426 11.5942 22.5626 11.125C21.6201 10.3909 20.8076 9.53676 20.1251 8.5625C19.5099 6.50145 20.1974 5.08479 22.1876 4.3125ZM22.5626 6.3125C22.832 6.2965 23.082 6.359 23.3126 6.5C23.8751 7.0625 24.4376 7.625 25.0001 8.1875C25.1175 9.32069 24.6384 9.71653 23.5626 9.375C22.8359 8.77438 22.2526 8.06604 21.8126 7.25C21.9529 6.84004 22.2029 6.52754 22.5626 6.3125Z" fill="#F62E2E"/>
<path opacity="0.926" fill-rule="evenodd" clip-rule="evenodd" d="M40.5625 4.31251C42.5824 4.26957 43.749 5.24873 44.0625 7.25001C44.006 7.9613 43.7769 8.60712 43.375 9.18751C42.8125 9.75001 42.25 10.3125 41.6875 10.875C40.0438 11.9413 38.5647 11.7538 37.25 10.3125C36.6667 9.18751 36.6667 8.06251 37.25 6.93751C37.9375 6.25001 38.625 5.56251 39.3125 4.87501C39.7269 4.64629 40.1437 4.45879 40.5625 4.31251ZM40.8125 6.31251C41.9115 6.4296 42.224 6.97126 41.75 7.93751C41.2709 8.41667 40.7917 8.89585 40.3125 9.37501C39.2368 9.71654 38.7577 9.3207 38.875 8.18751C39.5078 7.53368 40.1537 6.90868 40.8125 6.31251Z" fill="#F62E2E"/>
<path opacity="0.934" fill-rule="evenodd" clip-rule="evenodd" d="M63.9375 29.8126C63.9375 31.2292 63.9375 32.6459 63.9375 34.0626C62.7547 41.4757 58.6715 46.5798 51.6875 49.3751C44.137 51.6541 37.5536 50.0498 31.9375 44.5626C26.1884 50.1558 19.48 51.7183 11.8125 49.2501C5.0204 46.3914 1.06207 41.3289 -0.0625 34.0626C-0.0625 32.6459 -0.0625 31.2292 -0.0625 29.8126C0.937243 23.3338 4.31224 18.5213 10.0625 15.3751C10.4515 15.2118 10.8474 15.0661 11.25 14.9376C12.1731 15.2139 12.4231 15.7972 12 16.6876C4.26391 20.5757 1.01391 26.8257 2.25 35.4376C3.73404 41.2968 7.29654 45.3176 12.9375 47.5001C19.6869 49.4951 25.5411 48.0158 30.5 43.0626C30.5834 42.9376 30.5834 42.8126 30.5 42.6876C26.7323 37.0447 26.0656 31.0447 28.5 24.6876C29.0775 23.3857 29.765 22.1566 30.5625 21.0001C27.6209 17.6752 23.9125 15.8418 19.4375 15.5001C17.9339 15.4756 16.4339 15.5172 14.9375 15.6251C14.4059 15.1976 14.3016 14.6767 14.625 14.0626C21.331 12.6618 27.1019 14.4118 31.9375 19.3126C37.5536 13.8253 44.137 12.2211 51.6875 14.5001C55.557 15.8702 58.6195 18.2659 60.875 21.6876C61.0209 22.7084 60.5834 23.1459 59.5625 23.0001C58.5363 21.7231 57.4113 20.5147 56.1875 19.3751C50.7885 15.1556 44.9135 14.3639 38.5625 17.0001C36.5875 17.9331 34.8582 19.2038 33.375 20.8126C33.2916 20.9376 33.2916 21.0626 33.375 21.1876C37.1427 26.8303 37.8094 32.8303 35.375 39.1876C34.7975 40.4894 34.11 41.7186 33.3125 42.8751C36.572 46.4716 40.6553 48.3257 45.5625 48.4376C53.4919 47.9227 58.7627 43.9227 61.375 36.4376C62.237 32.8742 62.0911 29.3533 60.9375 25.8751C60.9263 25.1989 61.2596 24.8864 61.9375 24.9376C62.2906 24.8899 62.5614 25.0149 62.75 25.3126C63.3143 26.7841 63.71 28.2841 63.9375 29.8126ZM31.8125 22.8126C31.937 22.8018 32.0411 22.8436 32.125 22.9376C32.5682 23.5944 32.964 24.2819 33.3125 25.0001C32.3959 25.0834 31.4791 25.0834 30.5625 25.0001C30.9576 24.2527 31.3744 23.5234 31.8125 22.8126ZM29.8125 27.0626C31.2316 27.0211 32.6483 27.0627 34.0625 27.1876C34.2681 27.7603 34.4349 28.3437 34.5625 28.9376C32.8125 29.1042 31.0625 29.1042 29.3125 28.9376C29.4599 28.3062 29.6266 27.6812 29.8125 27.0626ZM29.0625 30.9376C30.9791 30.9376 32.8959 30.9376 34.8125 30.9376C34.8125 31.6042 34.8125 32.2709 34.8125 32.9376C32.8959 32.9376 30.9791 32.9376 29.0625 32.9376C29.0625 32.2709 29.0625 31.6042 29.0625 30.9376ZM29.3125 34.8126C31.0645 34.7709 32.8145 34.8127 34.5625 34.9376C34.4349 35.5314 34.2681 36.1148 34.0625 36.6876C32.6459 36.8542 31.2291 36.8542 29.8125 36.6876C29.5869 36.0767 29.4202 35.4517 29.3125 34.8126ZM30.5625 38.9376C31.4569 38.7932 32.3735 38.7723 33.3125 38.8751C32.924 39.6571 32.4658 40.3862 31.9375 41.0626C31.4266 40.3857 30.9683 39.6773 30.5625 38.9376Z" fill="#F62E2E"/>
<path opacity="0.925" fill-rule="evenodd" clip-rule="evenodd" d="M40.3129 24.9375C41.1331 24.8649 41.9248 24.969 42.6879 25.25C43.5817 26.0395 44.4567 26.852 45.3129 27.6875C46.1237 26.9394 46.9153 26.1685 47.6879 25.375C49.1039 24.6738 50.4164 24.8197 51.6254 25.8125C52.4908 27.0735 52.5324 28.3652 51.7504 29.6875C50.9986 30.4185 50.2694 31.1685 49.5629 31.9375C50.2694 32.7065 50.9986 33.4565 51.7504 34.1875C52.8517 36.2577 52.3726 37.8202 50.3129 38.875C49.3916 39.0388 48.5166 38.9138 47.6879 38.5C46.9153 37.7065 46.1237 36.9357 45.3129 36.1875C44.5439 36.894 43.7939 37.6232 43.0629 38.375C41.8129 39.125 40.5629 39.125 39.3129 38.375C38.0884 37.1645 37.9009 35.8104 38.7504 34.3125C39.5439 33.5399 40.3148 32.7483 41.0629 31.9375C40.3148 31.1268 39.5439 30.3352 38.7504 29.5625C37.7662 27.494 38.2871 25.9524 40.3129 24.9375ZM40.8129 26.9375C40.2778 27.272 40.1321 27.7303 40.3754 28.3125C41.3754 29.3125 42.3754 30.3125 43.3754 31.3125C43.6254 31.7292 43.6254 32.1459 43.3754 32.5625C42.3754 33.5625 41.3754 34.5625 40.3754 35.5625C40.3252 35.734 40.2627 35.9007 40.1879 36.0625C40.4604 36.9068 41.0021 37.1359 41.8129 36.75C42.7713 35.7917 43.7296 34.8334 44.6879 33.875C45.1046 33.625 45.5213 33.625 45.9379 33.875C46.9379 34.875 47.9379 35.875 48.9379 36.875C50.1452 37.0644 50.5411 36.5852 50.1254 35.4375C49.1254 34.4375 48.1254 33.4375 47.1254 32.4375C47.0421 32.1042 47.0421 31.7709 47.1254 31.4375C48.1254 30.4375 49.1254 29.4375 50.1254 28.4375C50.5411 27.2899 50.1452 26.8107 48.9379 27C47.9379 28 46.9379 29 45.9379 30C45.5213 30.25 45.1046 30.25 44.6879 30C43.7296 29.0417 42.7713 28.0834 41.8129 27.125C41.4987 26.9685 41.1654 26.906 40.8129 26.9375Z" fill="#F62E2E"/>
<path opacity="0.921" fill-rule="evenodd" clip-rule="evenodd" d="M21.5621 27.0625C24.018 26.956 25.2055 28.1226 25.1246 30.5625C25.0698 30.922 24.9448 31.2553 24.7496 31.5625C24.1912 32.246 23.5871 32.8918 22.9371 33.5C21.6238 33.835 21.1447 33.3558 21.4996 32.0625C21.9996 31.5625 22.4996 31.0625 22.9996 30.5625C23.3086 29.3715 22.8711 28.934 21.6871 29.25C20.2251 30.7537 18.7251 32.212 17.1871 33.625C16.8537 33.7083 16.5205 33.7083 16.1871 33.625C15.1417 32.5378 14.0583 31.4961 12.9371 30.5C11.8693 30.4473 11.5152 30.9265 11.8746 31.9375C13.2782 33.4247 14.7575 34.8206 16.3121 36.125C16.6037 36.2083 16.8955 36.2083 17.1871 36.125C17.7643 35.7562 18.3061 35.3395 18.8121 34.875C19.8381 34.8185 20.234 35.2976 19.9996 36.3125C18.698 38.1431 17.0105 38.6223 14.9371 37.75C13.3366 36.2745 11.774 34.7537 10.2496 33.1875C9.26142 31.4197 9.57392 29.9406 11.1871 28.75C12.314 28.2767 13.3973 28.36 14.4371 29C15.208 29.7708 15.9787 30.5416 16.7496 31.3125C17.9787 30.0833 19.208 28.8541 20.4371 27.625C20.8042 27.3998 21.1792 27.2123 21.5621 27.0625Z" fill="#F62E2E"/>
<path opacity="0.926" fill-rule="evenodd" clip-rule="evenodd" d="M23.4375 52.3125C25.1993 52.0781 26.3868 52.7865 27 54.4375C27.1601 55.3179 27.0351 56.1512 26.625 56.9375C25.9375 57.625 25.25 58.3125 24.5625 59C22.0135 60.1366 20.4302 59.3449 19.8125 56.625C19.869 55.9137 20.0981 55.2679 20.5 54.6875C21.3247 53.6722 22.3039 52.8806 23.4375 52.3125ZM23.8125 54.3125C24.7684 54.2891 25.1642 54.7475 25 55.6875C24.4375 56.25 23.875 56.8125 23.3125 57.375C22.5273 57.6695 22.0273 57.3986 21.8125 56.5625C22.3499 55.6921 23.0166 54.9421 23.8125 54.3125Z" fill="#F62E2E"/>
<path opacity="0.927" fill-rule="evenodd" clip-rule="evenodd" d="M38.9377 52.3125C39.7778 52.2189 40.5694 52.3647 41.3127 52.75C42.1668 53.4375 42.9377 54.2084 43.6252 55.0625C44.3963 56.7902 44.0005 58.1861 42.4377 59.25C41.3544 59.7084 40.3128 59.6251 39.3127 59C38.6252 58.3125 37.9377 57.625 37.2502 56.9375C36.2958 54.82 36.8583 53.2784 38.9377 52.3125ZM39.3127 54.3125C39.6652 54.281 39.9984 54.3435 40.3127 54.5C41.0133 55.0957 41.5967 55.7832 42.0627 56.5625C41.8479 57.3986 41.3479 57.6695 40.5627 57.375C40.0002 56.8125 39.4377 56.25 38.8752 55.6875C38.7079 55.12 38.8538 54.6616 39.3127 54.3125Z" fill="#F62E2E"/>
<path opacity="0.927" fill-rule="evenodd" clip-rule="evenodd" d="M31.1874 53.6875C33.8833 53.5906 35.1333 54.9031 34.9374 57.625C34.9537 60.7776 33.4537 61.9442 30.4374 61.125C29.2482 60.2489 28.7482 59.0614 28.9374 57.5625C28.765 55.6947 29.515 54.4031 31.1874 53.6875ZM31.5624 55.6875C32.2484 55.6021 32.6859 55.8939 32.8749 56.5625C32.9583 57.2291 32.9583 57.8959 32.8749 58.5625C32.6417 59.4184 32.1209 59.6475 31.3124 59.25C31.1603 59.044 31.0562 58.8149 30.9999 58.5625C30.9165 57.8959 30.9165 57.2291 30.9999 56.5625C31.068 56.1841 31.2555 55.8925 31.5624 55.6875Z" fill="#F62E2E"/>
</g>
<defs>
<clipPath id="clip0_296_1866">
<rect width="64" height="64" fill="white"/>
</clipPath>
</defs>
</svg>
