<svg width="64" height="64" viewBox="0 0 64 64" fill="none" xmlns="http://www.w3.org/2000/svg">
<g clip-path="url(#clip0_296_1820)">
<path opacity="0.944" fill-rule="evenodd" clip-rule="evenodd" d="M4.5625 -0.0625C19.6041 -0.0625 34.6459 -0.0625 49.6875 -0.0625C52.7609 0.996374 54.1359 3.16304 53.8125 6.4375C53.0625 6.4375 52.3125 6.4375 51.5625 6.4375C51.9367 4.41405 51.1867 3.01821 49.3125 2.25C34.5209 2.16666 19.7291 2.16666 4.9375 2.25C3.8249 2.65436 3.09574 3.4252 2.75 4.5625C2.66666 16.3959 2.66666 28.2291 2.75 40.0625C2.89026 40.6189 3.14026 41.1189 3.5 41.5625C4.01374 41.9334 4.53458 42.2876 5.0625 42.625C4.88474 43.3153 4.69724 44.0028 4.5 44.6875C2.31635 44.0696 0.983022 42.653 0.5 40.4375C0.416667 28.3959 0.416667 16.3541 0.5 4.3125C1.01598 2.06761 2.37015 0.609284 4.5625 -0.0625Z" fill="#F62E2E"/>
<path opacity="0.9" fill-rule="evenodd" clip-rule="evenodd" d="M4.6875 4.1875C5.4375 4.1875 6.1875 4.1875 6.9375 4.1875C6.9375 4.9375 6.9375 5.6875 6.9375 6.4375C6.1875 6.4375 5.4375 6.4375 4.6875 6.4375C4.6875 5.6875 4.6875 4.9375 4.6875 4.1875Z" fill="#F62E2E"/>
<path opacity="0.899" fill-rule="evenodd" clip-rule="evenodd" d="M8.9375 4.1875C9.6875 4.1875 10.4375 4.1875 11.1875 4.1875C11.1875 4.9375 11.1875 5.6875 11.1875 6.4375C10.4375 6.4375 9.6875 6.4375 8.9375 6.4375C8.9375 5.6875 8.9375 4.9375 8.9375 4.1875Z" fill="#F62E2E"/>
<path opacity="0.899" fill-rule="evenodd" clip-rule="evenodd" d="M13.1875 4.1875C13.9375 4.1875 14.6875 4.1875 15.4375 4.1875C15.4375 4.9375 15.4375 5.6875 15.4375 6.4375C14.6875 6.4375 13.9375 6.4375 13.1875 6.4375C13.1875 5.6875 13.1875 4.9375 13.1875 4.1875Z" fill="#F62E2E"/>
<path opacity="0.945" fill-rule="evenodd" clip-rule="evenodd" d="M11.1875 8.4375C26.0625 8.41666 40.9375 8.4375 55.8125 8.5C58.4345 9.12185 59.9136 10.7677 60.25 13.4375C60.3334 25.0625 60.3334 36.6875 60.25 48.3125C60.1554 49.5563 59.697 50.6396 58.875 51.5625C58.2908 51.0821 57.7283 50.5821 57.1875 50.0625C57.6898 49.4939 57.9606 48.8273 58 48.0625C58.0834 36.6041 58.0834 25.1459 58 13.6875C57.8285 12.1822 57.016 11.203 55.5625 10.75C40.8959 10.6667 26.2291 10.6667 11.5625 10.75C10.2511 11.0614 9.43862 11.8739 9.125 13.1875C9.0012 25.1096 9.04287 37.0262 9.25 48.9375C9.64798 50.0428 10.4188 50.7303 11.5625 51C16.4374 51.0625 21.3124 51.0834 26.1875 51.0625C26.1875 51.8125 26.1875 52.5625 26.1875 53.3125C21.229 53.3334 16.2706 53.3125 11.3125 53.25C8.83673 52.7743 7.35755 51.295 6.875 48.8125C6.79167 36.8541 6.79167 24.8959 6.875 12.9375C7.36214 10.5131 8.79964 9.01311 11.1875 8.4375Z" fill="#F62E2E"/>
<path opacity="0.899" fill-rule="evenodd" clip-rule="evenodd" d="M11.0625 12.6875C11.8125 12.6875 12.5625 12.6875 13.3125 12.6875C13.3125 13.4375 13.3125 14.1875 13.3125 14.9375C12.5625 14.9375 11.8125 14.9375 11.0625 14.9375C11.0625 14.1875 11.0625 13.4375 11.0625 12.6875Z" fill="#F62E2E"/>
<path opacity="0.899" fill-rule="evenodd" clip-rule="evenodd" d="M15.3125 12.6875C16.0625 12.6875 16.8125 12.6875 17.5625 12.6875C17.5625 13.4375 17.5625 14.1875 17.5625 14.9375C16.8125 14.9375 16.0625 14.9375 15.3125 14.9375C15.3125 14.1875 15.3125 13.4375 15.3125 12.6875Z" fill="#F62E2E"/>
<path opacity="0.899" fill-rule="evenodd" clip-rule="evenodd" d="M19.5625 12.6875C20.3125 12.6875 21.0625 12.6875 21.8125 12.6875C21.8125 13.4375 21.8125 14.1875 21.8125 14.9375C21.0625 14.9375 20.3125 14.9375 19.5625 14.9375C19.5625 14.1875 19.5625 13.4375 19.5625 12.6875Z" fill="#F62E2E"/>
<path opacity="0.942" fill-rule="evenodd" clip-rule="evenodd" d="M59.6875 63.9375C59.3125 63.9375 58.9375 63.9375 58.5625 63.9375C55.2335 60.546 51.8794 57.171 48.5 53.8125C43.2491 57.2018 37.8534 57.4309 32.3125 54.5C29.0186 52.4761 26.7686 49.6219 25.5625 45.9375C20.7299 45.8125 15.8965 45.7709 11.0625 45.8125C11.0625 45.0625 11.0625 44.3125 11.0625 43.5625C15.7291 43.5625 20.3959 43.5625 25.0625 43.5625C24.7394 40.9813 25.0519 38.4813 26 36.0625C26.0625 32.1877 26.0834 28.3127 26.0625 24.4375C26.8125 24.4375 27.5625 24.4375 28.3125 24.4375C28.2916 26.9379 28.3125 29.4379 28.375 31.9375C29 31.3125 29.625 30.6875 30.25 30.0625C30.3125 27.4795 30.3334 24.8961 30.3125 22.3125C31.0625 22.3125 31.8125 22.3125 32.5625 22.3125C32.5209 24.3559 32.5626 26.3975 32.6875 28.4375C33.2445 28.0986 33.8279 27.807 34.4375 27.5625C34.5624 26.1482 34.604 24.7316 34.5625 23.3125C35.3125 23.3125 36.0625 23.3125 36.8125 23.3125C36.8125 24.4791 36.8125 25.6459 36.8125 26.8125C37.4438 26.7655 38.0688 26.6823 38.6875 26.5625C38.8125 24.0639 38.8541 21.5639 38.8125 19.0625C39.5625 19.0625 40.3125 19.0625 41.0625 19.0625C41.0209 21.5639 41.0625 24.0639 41.1875 26.5625C41.8062 26.6823 42.4312 26.7655 43.0625 26.8125C43.0625 23.5209 43.0625 20.2291 43.0625 16.9375C43.8125 16.9375 44.5625 16.9375 45.3125 16.9375C45.2709 20.4801 45.3125 24.0219 45.4375 27.5625C46.0471 27.807 46.6305 28.0986 47.1875 28.4375C47.3125 26.0223 47.3541 23.6056 47.3125 21.1875C48.0625 21.1875 48.8125 21.1875 49.5625 21.1875C49.5416 24.1461 49.5625 27.1045 49.625 30.0625C50.25 30.6875 50.875 31.3125 51.5 31.9375C51.5625 29.7712 51.5834 27.6046 51.5625 25.4375C52.3125 25.4375 53.0625 25.4375 53.8125 25.4375C53.7916 28.9794 53.8125 32.5211 53.875 36.0625C54.8231 38.4813 55.1356 40.9813 54.8125 43.5625C55.1875 43.5625 55.5625 43.5625 55.9375 43.5625C55.9375 44.3125 55.9375 45.0625 55.9375 45.8125C55.3895 45.7717 54.8479 45.8135 54.3125 45.9375C54.0045 46.924 53.5879 47.8615 53.0625 48.75C56.5452 52.191 59.9827 55.6701 63.375 59.1875C63.505 59.6916 63.4217 60.1499 63.125 60.5625C61.9922 61.7163 60.8465 62.8413 59.6875 63.9375ZM38.5625 28.8125C44.4669 28.5443 48.7794 31.0026 51.5 36.1875C53.8504 42.3131 52.5379 47.5006 47.5625 51.75C42.4791 55.1666 37.3959 55.1666 32.3125 51.75C27.6408 47.8169 26.2032 42.9211 28 37.0625C30.0361 32.4094 33.5569 29.6594 38.5625 28.8125ZM51.6875 50.8125C54.7186 53.6559 57.6978 56.5726 60.625 59.5625C60.7084 59.6459 60.7084 59.7291 60.625 59.8125C60.1875 60.25 59.75 60.6875 59.3125 61.125C59.2291 61.2084 59.1459 61.2084 59.0625 61.125C56.1459 58.2084 53.2291 55.2916 50.3125 52.375C50.8434 51.9072 51.3018 51.3865 51.6875 50.8125Z" fill="#F62E2E"/>
<path opacity="0.943" fill-rule="evenodd" clip-rule="evenodd" d="M17.4375 28.6875C18.1875 28.6875 18.9375 28.6875 19.6875 28.6875C19.6875 32.9791 19.6875 37.2709 19.6875 41.5625C18.9375 41.5625 18.1875 41.5625 17.4375 41.5625C17.4375 37.2709 17.4375 32.9791 17.4375 28.6875Z" fill="#F62E2E"/>
<path opacity="0.943" fill-rule="evenodd" clip-rule="evenodd" d="M38.6871 30.8125C43.8892 30.5686 47.6183 32.777 49.8746 37.4375C51.5832 42.4586 50.4373 46.6878 46.4371 50.125C42.1037 53.0416 37.7704 53.0416 33.4371 50.125C29.4367 46.687 28.2908 42.4579 29.9996 37.4375C31.7317 33.6825 34.6276 31.4741 38.6871 30.8125ZM38.3121 33.1875C37.8323 33.3129 37.3532 33.4795 36.8746 33.6875C36.8121 36.3121 36.7912 38.9371 36.8121 41.5625C36.0621 41.5625 35.3121 41.5625 34.5621 41.5625C34.5829 39.3954 34.5621 37.2288 34.4996 35.0625C31.9512 37.3534 31.0137 40.1866 31.6871 43.5625C37.1871 43.5625 42.6871 43.5625 48.1871 43.5625C48.8618 40.1911 47.9243 37.3578 45.3746 35.0625C45.3121 37.2288 45.2912 39.3954 45.3121 41.5625C44.5621 41.5625 43.8121 41.5625 43.0621 41.5625C43.0829 38.9371 43.0621 36.3121 42.9996 33.6875C42.3863 33.4023 41.7404 33.2356 41.0621 33.1875C41.0621 35.9791 41.0621 38.7709 41.0621 41.5625C40.3121 41.5625 39.5621 41.5625 38.8121 41.5625C38.8121 38.7709 38.8121 35.9791 38.8121 33.1875C38.6454 33.1875 38.4787 33.1875 38.3121 33.1875ZM32.6871 45.9375C33.8442 47.6968 35.4274 48.926 37.4371 49.625C41.5592 50.6044 44.8092 49.3544 47.1871 45.875C42.3326 45.7711 37.4993 45.7919 32.6871 45.9375Z" fill="#F62E2E"/>
<path opacity="0.946" fill-rule="evenodd" clip-rule="evenodd" d="M21.6875 31.9375C22.4375 31.9375 23.1875 31.9375 23.9375 31.9375C23.9375 35.1459 23.9375 38.3541 23.9375 41.5625C23.1875 41.5625 22.4375 41.5625 21.6875 41.5625C21.6875 38.3541 21.6875 35.1459 21.6875 31.9375Z" fill="#F62E2E"/>
<path opacity="0.934" fill-rule="evenodd" clip-rule="evenodd" d="M13.1875 35.0625C13.9375 35.0625 14.6875 35.0625 15.4375 35.0625C15.4375 37.2291 15.4375 39.3959 15.4375 41.5625C14.6875 41.5625 13.9375 41.5625 13.1875 41.5625C13.1875 39.3959 13.1875 37.2291 13.1875 35.0625Z" fill="#F62E2E"/>
</g>
<defs>
<clipPath id="clip0_296_1820">
<rect width="64" height="64" fill="white"/>
</clipPath>
</defs>
</svg>
