<svg width="64" height="64" viewBox="0 0 64 64" fill="none" xmlns="http://www.w3.org/2000/svg">
<path opacity="0.938" fill-rule="evenodd" clip-rule="evenodd" d="M30.8129 12.8125C34.7428 12.5584 37.7219 14.1001 39.7504 17.4375C41.5144 21.4499 40.8686 25.0124 37.8129 28.125C34.0852 30.9404 30.2936 31.0237 26.4379 28.375C23.3804 25.5411 22.5263 22.1452 23.8754 18.1875C25.2616 15.1745 27.5741 13.3829 30.8129 12.8125ZM31.0629 15.1875C34.8602 15.0502 37.2559 16.8002 38.2504 20.4375C38.5309 24.53 36.6767 27.0092 32.6879 27.875C28.4881 27.884 26.1131 25.8007 25.5629 21.625C25.8607 18.1414 27.6941 15.9956 31.0629 15.1875Z" fill="#F62E2E"/>
<path opacity="0.936" fill-rule="evenodd" clip-rule="evenodd" d="M12.0629 20.9375C15.0654 20.6652 17.4195 21.7486 19.1254 24.1875C20.9835 27.8949 20.3376 31.0824 17.1879 33.75C14.9628 35.0844 12.6295 35.2927 10.1879 34.375C7.02941 32.6621 5.71691 30.0162 6.2504 26.4375C7.04032 23.3764 8.97782 21.543 12.0629 20.9375ZM12.3129 23.3125C14.9266 23.1289 16.6975 24.2539 17.6254 26.6875C18.0996 29.5942 16.9538 31.5317 14.1879 32.5C11.4011 32.8345 9.5469 31.6886 8.6254 29.0625C8.24711 26.11 9.47627 24.1934 12.3129 23.3125Z" fill="#F62E2E"/>
<path opacity="0.94" fill-rule="evenodd" clip-rule="evenodd" d="M49.6879 20.9375C52.7722 20.6362 55.168 21.7612 56.8754 24.3125C58.646 28.086 57.9168 31.2735 54.6879 33.875C50.846 35.84 47.5752 35.1525 44.8754 31.8125C43.0134 28.2606 43.5343 25.1149 46.4379 22.375C47.4315 21.663 48.5149 21.1839 49.6879 20.9375ZM49.9379 23.3125C53.6638 23.2675 55.4763 25.1009 55.3754 28.8125C54.5574 31.5869 52.7032 32.816 49.8129 32.5C47.1079 31.6266 45.9204 29.7725 46.2504 26.9375C46.8074 25.0262 48.0365 23.8179 49.9379 23.3125Z" fill="#F62E2E"/>
<path opacity="0.945" fill-rule="evenodd" clip-rule="evenodd" d="M23.6877 31.5625C24.522 31.5417 25.3554 31.5625 26.1877 31.625C30.0217 34.8748 33.855 34.8748 37.6877 31.625C41.0188 31.3322 43.602 32.5822 45.4377 35.375C45.771 35.4166 46.1043 35.4583 46.4377 35.5C49.3127 38.0833 52.1877 38.0833 55.0627 35.5C57.9717 35.194 60.1592 36.2982 61.6252 38.8125C63.1852 41.6472 63.4768 44.6055 62.5002 47.6875C61.6549 49.4913 60.259 50.5956 58.3127 51C53.271 51.0833 48.2293 51.0833 43.1877 51C42.646 50.75 42.1043 50.75 41.5627 51C35.146 51.0833 28.7293 51.0833 22.3127 51C21.771 50.75 21.2293 50.75 20.6877 51C15.646 51.0833 10.6043 51.0833 5.56267 51C2.92597 50.3211 1.36347 48.6336 0.875169 45.9375C0.368837 42.1628 1.51467 39.017 4.31267 36.5C5.67743 35.5756 7.17743 35.2422 8.81267 35.5C11.6866 38.0831 14.5615 38.0831 17.4377 35.5C17.8193 35.4776 18.1943 35.4151 18.5627 35.3125C19.7822 33.3832 21.4905 32.1332 23.6877 31.5625ZM24.8127 33.8125C25.0387 33.8113 25.247 33.8738 25.4377 34C28.273 36.3966 31.4813 37.0632 35.0627 36C36.4237 35.4493 37.6737 34.7202 38.8127 33.8125C40.953 34.1015 42.5572 35.1847 43.6252 37.0625C45.2247 39.8413 45.558 42.758 44.6252 45.8125C43.9093 47.5076 42.6385 48.4658 40.8127 48.6875C40.8335 46.6453 40.8127 44.6037 40.7502 42.5625C40.3707 41.7586 39.7664 41.5295 38.9377 41.875C38.744 42.0267 38.5983 42.2142 38.5002 42.4375C38.4377 44.5203 38.4168 46.6037 38.4377 48.6875C34.1043 48.6875 29.771 48.6875 25.4377 48.6875C25.4585 46.6037 25.4377 44.5203 25.3752 42.4375C24.8807 41.6551 24.2349 41.5092 23.4377 42C23.3177 42.1773 23.2135 42.3648 23.1252 42.5625C23.0627 44.6037 23.0418 46.6453 23.0627 48.6875C20.7419 48.2626 19.3462 46.8876 18.8752 44.5625C18.4227 41.4976 19.0893 38.706 20.8752 36.1875C21.8835 34.8616 23.196 34.07 24.8127 33.8125ZM16.8127 38.9375C16.0587 41.6397 16.1628 44.3063 17.1252 46.9375C17.4299 47.5333 17.784 48.0958 18.1877 48.625C14.8963 48.6875 11.6046 48.7083 8.31267 48.6875C8.33349 47.1036 8.31266 45.5202 8.25017 43.9375C8.04219 43.4895 7.68803 43.2811 7.18767 43.3125C6.50807 43.3043 6.11223 43.6376 6.00017 44.3125C5.93768 45.7285 5.91686 47.1452 5.93767 48.5625C4.42738 48.1975 3.53154 47.2392 3.25017 45.6875C2.84388 42.8645 3.65638 40.4686 5.68767 38.5C6.36018 37.9962 7.11018 37.7878 7.93767 37.875C10.6763 39.9977 13.6347 40.352 16.8127 38.9375ZM47.0627 38.9375C50.2392 40.3522 53.1974 39.9981 55.9377 37.875C57.2769 37.8048 58.3394 38.3257 59.1252 39.4375C60.8027 41.8063 61.136 44.348 60.1252 47.0625C59.6469 47.9377 58.9178 48.4377 57.9377 48.5625C57.9585 47.1452 57.9377 45.7285 57.8752 44.3125C57.5495 43.3235 56.9037 43.0526 55.9377 43.5C55.7875 43.6128 55.6833 43.7586 55.6252 43.9375C55.5627 45.5202 55.5418 47.1036 55.5627 48.6875C52.2708 48.7083 48.979 48.6875 45.6877 48.625C47.2092 46.5213 47.8133 44.1671 47.5002 41.5625C47.408 40.6766 47.2623 39.8016 47.0627 38.9375Z" fill="#F62E2E"/>
</svg>
