<svg width="64" height="64" viewBox="0 0 64 64" fill="none" xmlns="http://www.w3.org/2000/svg">
<g clip-path="url(#clip0_296_1886)">
<path opacity="0.946" fill-rule="evenodd" clip-rule="evenodd" d="M9.0625 -0.0625C26.1041 -0.0625 43.1459 -0.0625 60.1875 -0.0625C62.1816 0.579273 63.2858 1.95427 63.5 4.0625C63.5834 18.3959 63.5834 32.7291 63.5 47.0625C63.2901 49.2724 62.1026 50.6266 59.9375 51.125C52.1876 51.1875 44.4376 51.2084 36.6875 51.1875C36.6875 50.4375 36.6875 49.6875 36.6875 48.9375C44.3543 48.9584 52.021 48.9375 59.6875 48.875C60.6219 48.5653 61.1427 47.9195 61.25 46.9375C61.3334 32.6875 61.3334 18.4375 61.25 4.1875C61.15 3.25496 60.6709 2.60914 59.8125 2.25C43.0209 2.16666 26.2291 2.16666 9.4375 2.25C8.78031 2.53204 8.34281 3.0112 8.125 3.6875C8.0625 12.3957 8.04166 21.1041 8.0625 29.8125C7.3125 29.8125 6.5625 29.8125 5.8125 29.8125C5.79166 20.9791 5.8125 12.1457 5.875 3.3125C6.32656 1.59059 7.38906 0.46559 9.0625 -0.0625Z" fill="#F62E2E"/>
<path opacity="0.899" fill-rule="evenodd" clip-rule="evenodd" d="M10.0625 4.1875C10.8125 4.1875 11.5625 4.1875 12.3125 4.1875C12.3125 4.9375 12.3125 5.6875 12.3125 6.4375C11.5625 6.4375 10.8125 6.4375 10.0625 6.4375C10.0625 5.6875 10.0625 4.9375 10.0625 4.1875Z" fill="#F62E2E"/>
<path opacity="0.901" fill-rule="evenodd" clip-rule="evenodd" d="M14.3125 4.1875C15.0625 4.1875 15.8125 4.1875 16.5625 4.1875C16.5625 4.9375 16.5625 5.6875 16.5625 6.4375C15.8125 6.4375 15.0625 6.4375 14.3125 6.4375C14.3125 5.6875 14.3125 4.9375 14.3125 4.1875Z" fill="#F62E2E"/>
<path opacity="0.899" fill-rule="evenodd" clip-rule="evenodd" d="M18.5625 4.1875C19.3125 4.1875 20.0625 4.1875 20.8125 4.1875C20.8125 4.9375 20.8125 5.6875 20.8125 6.4375C20.0625 6.4375 19.3125 6.4375 18.5625 6.4375C18.5625 5.6875 18.5625 4.9375 18.5625 4.1875Z" fill="#F62E2E"/>
<path opacity="0.947" fill-rule="evenodd" clip-rule="evenodd" d="M10.0625 8.4375C26.4375 8.4375 42.8125 8.4375 59.1875 8.4375C59.1875 9.1875 59.1875 9.9375 59.1875 10.6875C42.8125 10.6875 26.4375 10.6875 10.0625 10.6875C10.0625 9.9375 10.0625 9.1875 10.0625 8.4375Z" fill="#F62E2E"/>
<path opacity="0.946" fill-rule="evenodd" clip-rule="evenodd" d="M11.0625 13.6875C12.8963 13.6666 14.7296 13.6875 16.5625 13.75C16.8971 13.7811 17.1888 13.9061 17.4375 14.125C18.0209 14.7084 18.6041 15.2916 19.1875 15.875C20.9791 15.9166 22.7709 15.9584 24.5625 16C24.7084 16.1459 24.8541 16.2916 25 16.4375C25.0834 19.6459 25.0834 22.8541 25 26.0625C24.8278 26.3885 24.5569 26.576 24.1875 26.625C19.6384 26.7476 15.0966 26.7059 10.5625 26.5C10.3689 26.3483 10.2231 26.1608 10.125 25.9375C10.0417 22.1041 10.0417 18.2709 10.125 14.4375C10.3384 14.0513 10.6509 13.8013 11.0625 13.6875ZM12.3125 15.9375C12.3125 18.7709 12.3125 21.6041 12.3125 24.4375C15.8125 24.4375 19.3125 24.4375 22.8125 24.4375C22.8125 22.3541 22.8125 20.2709 22.8125 18.1875C21.2215 18.24 19.6383 18.1775 18.0625 18C17.3959 17.3334 16.7291 16.6666 16.0625 16C14.8133 15.9375 13.5633 15.9168 12.3125 15.9375Z" fill="#F62E2E"/>
<path opacity="0.934" fill-rule="evenodd" clip-rule="evenodd" d="M28.1875 13.6875C30.0213 13.6666 31.8547 13.6875 33.6875 13.75C33.9058 13.8089 34.1142 13.8923 34.3125 14C34.9375 14.625 35.5625 15.25 36.1875 15.875C38.0742 15.879 39.9492 15.9623 41.8125 16.125C41.9325 16.3024 42.0367 16.4899 42.125 16.6875C42.2465 19.862 42.2048 23.0286 42 26.1875C41.8352 26.4359 41.606 26.5818 41.3125 26.625C36.8959 26.7084 32.4792 26.7084 28.0625 26.625C27.4474 26.5419 27.1349 26.1878 27.125 25.5625C27.0417 21.9791 27.0417 18.3959 27.125 14.8125C27.2519 14.2068 27.6062 13.8318 28.1875 13.6875ZM29.4375 15.9375C29.4375 18.7709 29.4375 21.6041 29.4375 24.4375C32.9375 24.4375 36.4375 24.4375 39.9375 24.4375C39.9375 22.3541 39.9375 20.2709 39.9375 18.1875C38.5203 18.2084 37.1035 18.1875 35.6875 18.125C35.424 18.08 35.174 17.9966 34.9375 17.875C34.3125 17.25 33.6875 16.625 33.0625 16C31.8549 15.9375 30.6465 15.9168 29.4375 15.9375Z" fill="#F62E2E"/>
<path opacity="0.947" fill-rule="evenodd" clip-rule="evenodd" d="M45.1875 13.6875C47.0213 13.6666 48.8547 13.6875 50.6875 13.75C51.0222 13.7811 51.3138 13.9061 51.5625 14.125C52.1459 14.7084 52.7292 15.2916 53.3125 15.875C55.1042 15.9166 56.8959 15.9584 58.6875 16C58.8334 16.1459 58.9792 16.2916 59.125 16.4375C59.2084 19.6459 59.2084 22.8541 59.125 26.0625C58.9528 26.3885 58.6819 26.576 58.3125 26.625C53.7634 26.7476 49.2217 26.7059 44.6875 26.5C44.4939 26.3483 44.3482 26.1608 44.25 25.9375C44.1667 22.1459 44.1667 18.3541 44.25 14.5625C44.4014 14.0833 44.7139 13.7916 45.1875 13.6875ZM46.4375 15.9375C46.4375 18.7709 46.4375 21.6041 46.4375 24.4375C49.9375 24.4375 53.4375 24.4375 56.9375 24.4375C56.9375 22.3541 56.9375 20.2709 56.9375 18.1875C55.5203 18.2084 54.1035 18.1875 52.6875 18.125C52.4693 18.0661 52.2609 17.9828 52.0625 17.875C51.4375 17.25 50.8125 16.625 50.1875 16C48.9383 15.9375 47.6883 15.9168 46.4375 15.9375Z" fill="#F62E2E"/>
<path opacity="0.939" fill-rule="evenodd" clip-rule="evenodd" d="M21.3121 63.9376C18.8121 63.9376 16.3121 63.9376 13.8121 63.9376C13.6923 63.7548 13.5466 63.5882 13.3746 63.4376C13.3121 62.3133 13.2913 61.1883 13.3121 60.0626C12.6208 59.8876 11.9541 59.6376 11.3121 59.3126C10.5848 59.9773 9.87642 60.6648 9.18709 61.3751C8.82884 61.5572 8.45384 61.5988 8.06209 61.5001C6.37821 59.9413 4.73237 58.3371 3.12459 56.6876C2.87459 56.1876 2.87459 55.6876 3.12459 55.1876C3.81209 54.5001 4.49959 53.8126 5.18709 53.1251C4.84711 52.5213 4.55543 51.8963 4.31209 51.2501C3.27043 51.2084 2.22876 51.1667 1.18709 51.1251C0.963841 51.0269 0.776341 50.8812 0.624593 50.6876C0.483314 49.4254 0.420814 48.1546 0.437093 46.8751C0.420814 45.5956 0.483314 44.3247 0.624593 43.0626C0.776341 42.8689 0.963841 42.7232 1.18709 42.6251C2.22876 42.5834 3.27043 42.5417 4.31209 42.5001C4.60376 41.8751 4.89543 41.2501 5.18709 40.6251C4.49959 39.9376 3.81209 39.2501 3.12459 38.5626C2.87459 38.0626 2.87459 37.5626 3.12459 37.0626C4.73237 35.4131 6.37821 33.8088 8.06209 32.2501C8.45384 32.1513 8.82884 32.1929 9.18709 32.3751C9.87642 33.0853 10.5848 33.7728 11.3121 34.4376C11.9541 34.1126 12.6208 33.8626 13.3121 33.6876C13.2913 32.5618 13.3121 31.4368 13.3746 30.3126C13.5948 29.9666 13.9073 29.7791 14.3121 29.7501C16.652 29.6316 18.9853 29.6733 21.3121 29.8751C21.6363 30.0424 21.8238 30.3133 21.8746 30.6876C21.8956 31.6902 21.9581 32.6902 22.0621 33.6876C22.6745 33.8687 23.2577 34.1187 23.8121 34.4376C24.5395 33.7728 25.2477 33.0853 25.9371 32.3751C26.2953 32.1929 26.6703 32.1513 27.0621 32.2501C28.7877 33.8506 30.4752 35.4964 32.1246 37.1876C32.3746 37.6042 32.3746 38.0209 32.1246 38.4376C31.3897 39.1304 30.7022 39.8597 30.0621 40.6251C30.3243 41.2242 30.5743 41.8283 30.8121 42.4376C31.8931 42.5416 32.9763 42.6041 34.0621 42.6251C34.2912 42.7709 34.4787 42.9584 34.6246 43.1876C34.708 45.6459 34.708 48.1042 34.6246 50.5626C34.4712 50.8408 34.242 51.0283 33.9371 51.1251C32.893 51.1461 31.8512 51.2086 30.8121 51.3126C30.5448 51.9096 30.2948 52.5138 30.0621 53.1251C30.7022 53.8904 31.3897 54.6197 32.1246 55.3126C32.3746 55.7292 32.3746 56.1459 32.1246 56.5626C30.4752 58.2537 28.7877 59.8996 27.0621 61.5001C26.6703 61.5988 26.2953 61.5572 25.9371 61.3751C25.2477 60.6648 24.5395 59.9773 23.8121 59.3126C23.2577 59.6314 22.6745 59.8814 22.0621 60.0626C21.9581 61.0599 21.8956 62.0599 21.8746 63.0626C21.8065 63.4409 21.619 63.7326 21.3121 63.9376ZM15.5621 31.9376C16.9371 31.9376 18.3121 31.9376 19.6871 31.9376C19.6663 32.9384 19.6871 33.9384 19.7496 34.9376C19.8077 35.1164 19.912 35.2622 20.0621 35.3751C21.4142 35.8642 22.7476 36.3851 24.0621 36.9376C24.3288 36.9357 24.5788 36.8732 24.8121 36.7501C25.4162 36.1459 26.0205 35.5417 26.6246 34.9376C27.5412 35.8542 28.458 36.7709 29.3746 37.6876C29.458 37.7709 29.458 37.8542 29.3746 37.9376C28.833 38.4792 28.2912 39.0209 27.7496 39.5626C27.6082 39.8407 27.5041 40.1323 27.4371 40.4376C28.0507 41.5906 28.5298 42.7989 28.8746 44.0626C29.0205 44.3751 29.2496 44.6042 29.5621 44.7501C30.5195 44.8126 31.4778 44.8333 32.4371 44.8126C32.4371 46.1876 32.4371 47.5626 32.4371 48.9376C31.4778 48.9168 30.5195 48.9376 29.5621 49.0001C29.2496 49.1459 29.0205 49.3751 28.8746 49.6876C28.5298 50.9512 28.0507 52.1596 27.4371 53.3126C27.4987 53.6857 27.6446 54.0191 27.8746 54.3126C28.3746 54.8126 28.8746 55.3126 29.3746 55.8126C29.458 55.8959 29.458 55.9792 29.3746 56.0626C28.458 56.9792 27.5412 57.8959 26.6246 58.8126C26.0205 58.2084 25.4162 57.6042 24.8121 57.0001C24.5788 56.8769 24.3288 56.8144 24.0621 56.8126C22.7476 57.3651 21.4142 57.8859 20.0621 58.3751C19.912 58.4879 19.8077 58.6337 19.7496 58.8126C19.6871 59.7699 19.6663 60.7283 19.6871 61.6876C18.3121 61.6876 16.9371 61.6876 15.5621 61.6876C15.6075 60.6787 15.545 59.6787 15.3746 58.6876C15.2287 58.5417 15.083 58.3959 14.9371 58.2501C13.7518 57.9383 12.6268 57.4801 11.5621 56.8751C11.2288 56.7917 10.8954 56.7917 10.5621 56.8751C9.83688 57.4751 9.14938 58.1209 8.49959 58.8126C7.53944 57.8733 6.60194 56.9149 5.68709 55.9376C6.26853 55.2936 6.87271 54.6686 7.49959 54.0626C7.61936 53.8502 7.68186 53.6209 7.68709 53.3751C7.11842 52.0866 6.59759 50.7741 6.12459 49.4376C5.97284 49.2439 5.78534 49.0982 5.56209 49.0001C4.60467 48.9376 3.64633 48.9168 2.68709 48.9376C2.68709 47.5626 2.68709 46.1876 2.68709 44.8126C3.64633 44.8333 4.60467 44.8126 5.56209 44.7501C5.96564 44.5547 6.23648 44.2422 6.37459 43.8126C6.76233 42.6423 7.19983 41.4966 7.68709 40.3751C7.68186 40.1292 7.61936 39.8999 7.49959 39.6876C6.91626 39.1042 6.33293 38.5209 5.74959 37.9376C5.66626 37.8542 5.66626 37.7709 5.74959 37.6876C6.66626 36.7709 7.58293 35.8542 8.49959 34.9376C9.06209 35.5001 9.62459 36.0626 10.1871 36.6251C10.4294 36.8591 10.721 36.9632 11.0621 36.9376C12.3217 36.3919 13.6133 35.9128 14.9371 35.5001C15.2831 35.2798 15.4706 34.9673 15.4996 34.5626C15.5621 33.6886 15.5828 32.8136 15.5621 31.9376Z" fill="#F62E2E"/>
<path opacity="0.939" fill-rule="evenodd" clip-rule="evenodd" d="M30.3125 30.8125C31.5215 30.7917 32.7299 30.8125 33.9375 30.875C34.7619 31.4488 35.5119 32.1155 36.1875 32.875C37.8959 32.9166 39.6041 32.9583 41.3125 33C41.606 33.0432 41.8351 33.1891 42 33.4375C42.1424 35.075 42.2049 36.7208 42.1875 38.375C42.1666 39.8958 42.1459 41.4166 42.125 42.9375C42.0282 43.2423 41.8407 43.4716 41.5625 43.625C39.938 43.6875 38.313 43.7083 36.6875 43.6875C36.6875 42.9375 36.6875 42.1875 36.6875 41.4375C37.7709 41.4375 38.8541 41.4375 39.9375 41.4375C39.9375 39.3541 39.9375 37.2708 39.9375 35.1875C38.3953 35.2083 36.8536 35.1875 35.3125 35.125C34.5664 34.5041 33.8581 33.8373 33.1875 33.125C32.2301 33.0625 31.2717 33.0417 30.3125 33.0625C30.3125 32.3125 30.3125 31.5625 30.3125 30.8125Z" fill="#F62E2E"/>
<path opacity="0.948" fill-rule="evenodd" clip-rule="evenodd" d="M44.9375 30.8125C46.9797 30.7916 49.0213 30.8125 51.0625 30.875C51.8087 31.4959 52.5169 32.1626 53.1875 32.875C54.9375 32.9166 56.6875 32.9584 58.4375 33C58.7572 33.0856 58.9864 33.2731 59.125 33.5625C59.2084 36.7709 59.2084 39.9791 59.125 43.1875C58.9733 43.3811 58.7858 43.5269 58.5625 43.625C53.9792 43.7084 49.3959 43.7084 44.8125 43.625C44.5343 43.4716 44.3468 43.2424 44.25 42.9375C44.1667 39.1459 44.1667 35.3541 44.25 31.5625C44.42 31.2471 44.6492 30.9971 44.9375 30.8125ZM46.4375 33.0625C47.6883 33.0418 48.9383 33.0625 50.1875 33.125C50.8632 33.8845 51.6132 34.5511 52.4375 35.125C53.9369 35.1875 55.4369 35.2084 56.9375 35.1875C56.9375 37.2709 56.9375 39.3541 56.9375 41.4375C53.4375 41.4375 49.9375 41.4375 46.4375 41.4375C46.4375 38.6459 46.4375 35.8541 46.4375 33.0625Z" fill="#F62E2E"/>
<path opacity="0.935" fill-rule="evenodd" clip-rule="evenodd" d="M16.9376 39.3125C21.2566 39.3215 23.9441 41.4049 25.0001 45.5625C25.4507 49.3079 24.0132 52.037 20.6876 53.75C17.2449 55.0402 14.2658 54.3527 11.7501 51.6875C9.50518 48.4784 9.50518 45.27 11.7501 42.0625C13.1311 40.466 14.8603 39.5494 16.9376 39.3125ZM17.4376 41.5625C16.7209 41.6545 16.0126 41.842 15.3126 42.125C12.6591 43.7099 11.8048 45.9808 12.7501 48.9375C14.1639 51.53 16.3098 52.5091 19.1876 51.875C21.5112 51.0106 22.7194 49.344 22.8126 46.875C22.4986 43.6235 20.7069 41.8528 17.4376 41.5625Z" fill="#F62E2E"/>
</g>
<defs>
<clipPath id="clip0_296_1886">
<rect width="64" height="64" fill="white"/>
</clipPath>
</defs>
</svg>
