<svg width="64" height="64" viewBox="0 0 64 64" fill="none" xmlns="http://www.w3.org/2000/svg">
<g clip-path="url(#clip0_296_1848)">
<path opacity="0.924" fill-rule="evenodd" clip-rule="evenodd" d="M8.31273 -0.0625C8.89607 -0.0625 9.47939 -0.0625 10.0627 -0.0625C10.3429 0.0775909 10.6346 0.223424 10.9377 0.375C11.8752 1.3125 12.8127 2.25 13.7502 3.1875C14.7622 5.16097 14.3247 6.72347 12.4377 7.875C11.2655 8.243 10.1821 8.07634 9.18773 7.375C8.15813 6.42916 7.22063 5.40833 6.37523 4.3125C5.68435 2.23365 6.33019 0.775312 8.31273 -0.0625ZM8.68773 1.9375C9.08138 1.90143 9.45638 1.96392 9.81273 2.125C10.5836 2.89584 11.3544 3.66666 12.1252 4.4375C12.4213 5.55883 11.9838 6.07966 10.8127 6C9.96242 5.27484 9.14992 4.50401 8.37523 3.6875C7.91983 3.00831 8.02399 2.42499 8.68773 1.9375Z" fill="#F62E2E"/>
<path opacity="0.925" fill-rule="evenodd" clip-rule="evenodd" d="M53.8121 -0.0625C54.3955 -0.0625 54.9788 -0.0625 55.5621 -0.0625C57.5446 0.775312 58.1905 2.23365 57.4996 4.3125C56.6543 5.40833 55.7168 6.42916 54.6871 7.375C53.6928 8.07634 52.6094 8.243 51.4371 7.875C49.5501 6.72347 49.1126 5.16097 50.1246 3.1875C51.0205 2.29166 51.9163 1.39584 52.8121 0.5C53.137 0.27562 53.4704 0.0881205 53.8121 -0.0625ZM54.3121 1.9375C55.593 1.94488 55.9888 2.52821 55.4996 3.6875C54.7249 4.50401 53.9124 5.27484 53.0621 6C51.889 6.0778 51.4515 5.55696 51.7496 4.4375C52.5908 3.57541 53.4449 2.74207 54.3121 1.9375Z" fill="#F62E2E"/>
<path opacity="0.927" fill-rule="evenodd" clip-rule="evenodd" d="M31.1871 4.0625C32.3571 3.86218 33.3364 4.1955 34.1246 5.0625C34.8726 6.55862 35.6226 8.05862 36.3746 9.5625C36.4787 9.66667 36.583 9.77084 36.6871 9.875C38.4336 10.1781 40.1836 10.4698 41.9371 10.75C43.3746 11.3957 43.9371 12.4999 43.6246 14.0625C43.534 14.3686 43.409 14.6604 43.2496 14.9375C41.9996 16.1875 40.7496 17.4375 39.4996 18.6875C39.7084 20.4611 39.9791 22.232 40.3121 24C39.9062 26.1965 38.6146 27.0298 36.4371 26.5C34.9527 25.6954 33.4527 24.9245 31.9371 24.1875C30.3121 25 28.6871 25.8125 27.0621 26.625C25.0296 26.9008 23.863 26.0258 23.5621 24C23.8951 22.232 24.1659 20.4611 24.3746 18.6875C23.1246 17.4375 21.8746 16.1875 20.6246 14.9375C19.8966 13.5213 20.0841 12.2504 21.1871 11.125C21.4371 11 21.6871 10.875 21.9371 10.75C23.6944 10.4931 25.4444 10.2014 27.1871 9.875C27.2912 9.77084 27.3955 9.66667 27.4996 9.5625C28.2516 8.05862 29.0016 6.55862 29.7496 5.0625C30.1434 4.58617 30.6225 4.25283 31.1871 4.0625ZM31.5621 6.0625C31.9202 6.00685 32.2327 6.09019 32.4996 6.3125C33.2496 7.8125 33.9996 9.3125 34.7496 10.8125C35.1232 11.3113 35.6024 11.6655 36.1871 11.875C37.8101 12.1366 39.4351 12.3866 41.0621 12.625C41.639 12.7596 41.8265 13.1138 41.6246 13.6875C40.1997 15.0288 38.8664 16.4454 37.6246 17.9375C37.5224 18.2634 37.4599 18.5968 37.4371 18.9375C37.6816 20.6338 37.9732 22.3213 38.3121 24C38.1411 24.5649 37.7661 24.7731 37.1871 24.625C35.8537 23.9166 34.5205 23.2084 33.1871 22.5C32.3537 22.0834 31.5205 22.0834 30.6871 22.5C29.3537 23.2084 28.0205 23.9166 26.6871 24.625C26.2064 24.7696 25.8522 24.6239 25.6246 24.1875C25.8737 22.4631 26.1446 20.734 26.4371 19C26.4176 18.4429 26.2719 17.922 25.9996 17.4375C24.7496 16.1875 23.4996 14.9375 22.2496 13.6875C22.0477 13.1138 22.2352 12.7596 22.8121 12.625C24.4391 12.3866 26.0641 12.1366 27.6871 11.875C28.2719 11.6655 28.751 11.3113 29.1246 10.8125C29.9069 9.20628 30.7194 7.62294 31.5621 6.0625Z" fill="#F62E2E"/>
<path opacity="0.927" fill-rule="evenodd" clip-rule="evenodd" d="M4.18725 18.5625C5.43795 18.5417 6.68795 18.5625 7.93725 18.625C10.0162 19.5545 10.6204 21.0752 9.74975 23.1875C9.22072 23.9657 8.49156 24.4448 7.56225 24.625C6.56225 24.7083 5.56225 24.7083 4.56225 24.625C3.17962 24.3673 2.32545 23.5548 1.99975 22.1875C1.7843 20.387 2.51346 19.1786 4.18725 18.5625ZM4.56225 20.5625C5.56311 20.5417 6.56311 20.5625 7.56225 20.625C8.42897 21.4086 8.34563 22.0752 7.31225 22.625C6.47891 22.7083 5.64558 22.7083 4.81225 22.625C3.76843 22.0538 3.6851 21.3663 4.56225 20.5625Z" fill="#F62E2E"/>
<path opacity="0.927" fill-rule="evenodd" clip-rule="evenodd" d="M55.9371 18.5625C57.1879 18.5417 58.4379 18.5625 59.6871 18.625C61.5804 19.3488 62.2679 20.703 61.7496 22.6875C61.3046 23.7955 60.4921 24.4412 59.3121 24.625C58.3121 24.7083 57.3121 24.7083 56.3121 24.625C54.2077 24.0595 53.3952 22.7053 53.8746 20.5625C54.3044 19.6116 54.9919 18.945 55.9371 18.5625ZM56.3121 20.5625C57.313 20.5417 58.313 20.5625 59.3121 20.625C60.179 21.408 60.0957 22.0746 59.0621 22.625C58.2287 22.7083 57.3955 22.7083 56.5621 22.625C55.5185 22.0545 55.4351 21.367 56.3121 20.5625Z" fill="#F62E2E"/>
<path opacity="0.938" fill-rule="evenodd" clip-rule="evenodd" d="M38.3125 63.9376C36.1459 63.9376 33.9792 63.9376 31.8125 63.9376C31.154 63.3329 31.154 62.7287 31.8125 62.1251C33.7593 62.1032 35.6968 62.0407 37.625 61.9376C37.6667 59.6042 37.7084 57.2709 37.75 54.9376C37.8924 54.4861 38.1008 54.0693 38.375 53.6876C42.0927 50.6414 43.5302 46.7248 42.6875 41.9376C41.2007 42.4836 39.8465 42.2336 38.625 41.1876C37.4672 42.2218 36.1547 42.4927 34.6875 42.0001C34.4267 41.9011 34.1974 41.7552 34 41.5626C33.5287 42.3671 32.8412 42.8879 31.9375 43.1251C30.7375 43.2989 29.5292 43.3614 28.3125 43.3126C28.277 43.7222 28.3187 44.1179 28.4375 44.5001C31.216 45.0708 33.1118 46.6749 34.125 49.3126C34.464 50.3067 34.5058 51.3067 34.25 52.3126C33.6762 52.6709 33.1345 52.6293 32.625 52.1876C32.545 49.5041 31.2743 47.6498 28.8125 46.6251C28.3608 46.5069 27.9024 46.4236 27.4375 46.3751C26.888 46.2838 26.5338 45.9713 26.375 45.4376C26.3127 44.7304 26.2918 44.0221 26.3125 43.3126C25.8523 43.3332 25.394 43.3124 24.9375 43.2501C24.422 43.1273 24.172 42.7941 24.1875 42.2501C24.2129 41.9493 24.3379 41.6993 24.5625 41.5001C26.8928 41.3734 29.226 41.2484 31.5625 41.1251C31.966 40.9297 32.2369 40.6172 32.375 40.1876C32.4374 39.4804 32.4583 38.7721 32.4375 38.0626C29.3904 38.0063 26.3488 38.0688 23.3125 38.2501C22.1967 38.6576 21.4674 39.4284 21.125 40.5626C21.0417 42.4792 21.0417 44.3959 21.125 46.3126C21.5893 49.3668 23.0477 51.8252 25.5 53.6876C25.6983 53.9588 25.865 54.2506 26 54.5626C26.1622 57.0128 26.2455 59.4712 26.25 61.9376C27.017 62.0233 27.7878 62.1067 28.5625 62.1876C29.0854 62.8171 29.0438 63.4004 28.4375 63.9376C27.4792 63.9376 26.5209 63.9376 25.5625 63.9376C24.9295 63.6166 24.492 63.1166 24.25 62.4376C24.2084 60.0626 24.1667 57.6876 24.125 55.3126C23.2114 54.4403 22.3364 53.5237 21.5 52.5626C20.2248 50.7608 19.4332 48.7608 19.125 46.5626C19.0417 44.4376 19.0417 42.3126 19.125 40.1876C19.527 38.5144 20.5062 37.3062 22.0625 36.5626C22.1665 35.2312 22.229 33.8978 22.25 32.5626C22.9772 30.5418 24.4147 29.6877 26.5625 30.0001C27.0202 30.1037 27.4369 30.2912 27.8125 30.5626C28.9782 29.0142 30.4782 28.5351 32.3125 29.1251C32.7427 29.3471 33.1385 29.6179 33.5 29.9376C34.9623 28.6988 36.5248 28.5531 38.1875 29.5001C39.1063 30.2129 39.6272 31.1504 39.75 32.3126C42.1699 31.5224 43.8365 32.3142 44.75 34.6876C44.8334 38.6459 44.8334 42.6042 44.75 46.5626C44.4204 49.0542 43.462 51.2626 41.875 53.1876C41.1599 53.9027 40.4517 54.6109 39.75 55.3126C39.7084 57.6876 39.6667 60.0626 39.625 62.4376C39.383 63.1166 38.9455 63.6166 38.3125 63.9376ZM30.8125 30.8126C31.5485 30.8984 32.0694 31.2734 32.375 31.9376C32.4375 33.3119 32.4584 34.6869 32.4375 36.0626C31.3959 36.0626 30.3542 36.0626 29.3125 36.0626C29.2917 34.7286 29.3125 33.3952 29.375 32.0626C29.6513 31.3891 30.1304 30.9724 30.8125 30.8126ZM36.0625 30.8126C36.7229 30.8826 37.202 31.2159 37.5 31.8126C37.6413 33.0538 37.7038 34.3038 37.6875 35.5626C37.7038 36.8213 37.6413 38.0713 37.5 39.3126C37.0432 40.1338 36.3557 40.4047 35.4375 40.1251C35.0834 39.9376 34.8125 39.6667 34.625 39.3126C34.4875 38.0686 34.425 36.8186 34.4375 35.5626C34.425 34.3066 34.4875 33.0566 34.625 31.8126C34.9779 31.2736 35.4572 30.9402 36.0625 30.8126ZM25.1875 31.9376C26.1593 31.8086 26.8468 32.1836 27.25 33.0626C27.3125 34.0617 27.3333 35.0617 27.3125 36.0626C26.2709 36.0626 25.2292 36.0626 24.1875 36.0626C24.1668 35.0201 24.1875 33.9784 24.25 32.9376C24.5035 32.5386 24.816 32.2052 25.1875 31.9376ZM40.9375 33.9376C41.7835 33.9306 42.3878 34.3056 42.75 35.0626C42.8334 36.4376 42.8334 37.8126 42.75 39.1876C42.2093 40.1807 41.4384 40.4516 40.4375 40.0001C40.1082 39.7549 39.8789 39.4424 39.75 39.0626C39.6667 37.7292 39.6667 36.3959 39.75 35.0626C39.8959 34.8334 40.0417 34.6042 40.1875 34.3751C40.4659 34.2574 40.7159 34.1116 40.9375 33.9376Z" fill="#F62E2E"/>
<path opacity="0.919" fill-rule="evenodd" clip-rule="evenodd" d="M10.6871 35.0625C13.639 35.2019 14.7431 36.7019 13.9996 39.5625C12.9679 41.0111 11.697 42.1986 10.1871 43.125C8.51583 43.5546 7.245 43.0338 6.3746 41.5625C5.91128 40.4774 5.9946 39.4358 6.6246 38.4375C7.5621 37.5 8.4996 36.5625 9.4371 35.625C9.85151 35.3963 10.2682 35.2087 10.6871 35.0625ZM10.9371 37.0625C12.0457 37.1064 12.4416 37.648 12.1246 38.6875C11.3121 39.5 10.4996 40.3125 9.6871 41.125C8.79011 41.4563 8.24845 41.1438 8.0621 40.1875C8.08946 40.0078 8.15196 39.8411 8.2496 39.6875C9.13233 38.7838 10.0282 37.9088 10.9371 37.0625Z" fill="#F62E2E"/>
<path opacity="0.919" fill-rule="evenodd" clip-rule="evenodd" d="M52.0623 35.0625C52.9156 34.9946 53.7072 35.1821 54.4373 35.625C55.3748 36.5625 56.3123 37.5 57.2498 38.4375C58.1719 40.1854 57.8594 41.6646 56.3123 42.875C55.1627 43.4865 54.0377 43.4447 52.9373 42.75C51.7868 41.8079 50.7659 40.7454 49.8748 39.5625C49.1722 37.3431 49.9013 35.8431 52.0623 35.0625ZM52.4373 37.0625C52.7067 37.0465 52.9567 37.109 53.1873 37.25C53.9998 38.0625 54.8123 38.875 55.6248 39.6875C55.9002 40.5525 55.5877 41.0941 54.6873 41.3125C54.5076 41.2851 54.3409 41.2226 54.1873 41.125C53.3748 40.3125 52.5623 39.5 51.7498 38.6875C51.4574 37.9174 51.6867 37.3757 52.4373 37.0625Z" fill="#F62E2E"/>
</g>
<defs>
<clipPath id="clip0_296_1848">
<rect width="64" height="64" fill="white"/>
</clipPath>
</defs>
</svg>
