<svg width="64" height="64" viewBox="0 0 64 64" fill="none" xmlns="http://www.w3.org/2000/svg">
<g clip-path="url(#clip0_296_1912)">
<path opacity="0.935" fill-rule="evenodd" clip-rule="evenodd" d="M7.1875 -0.0625C8.35416 -0.0625 9.52084 -0.0625 10.6875 -0.0625C15.8983 1.4778 18.2941 4.9778 17.875 10.4375C17.6261 11.9557 17.0219 13.3099 16.0625 14.5C17.3125 15.75 18.5625 17 19.8125 18.25C19.9375 18.3334 20.0625 18.3334 20.1875 18.25C23.2628 15.5784 26.8461 14.1409 30.9375 13.9375C30.9375 13.2291 30.9375 12.5209 30.9375 11.8125C29.3659 11.4701 28.3866 10.5118 28 8.9375C27.6291 5.92747 28.9416 4.21915 31.9375 3.8125C34.9334 4.21915 36.2459 5.92747 35.875 8.9375C35.4884 10.5118 34.5091 11.4701 32.9375 11.8125C32.9375 12.5209 32.9375 13.2291 32.9375 13.9375C38.1765 14.2966 42.489 16.4632 45.875 20.4375C46.5209 19.7916 47.1666 19.1459 47.8125 18.5C46.203 16.4163 45.5988 14.0621 46 11.4375C46.6022 8.16936 48.4147 5.85686 51.4375 4.5C55.4386 3.11664 58.9178 3.92914 61.875 6.9375C62.8684 8.21571 63.5559 9.63239 63.9375 11.1875C63.9375 12.3542 63.9375 13.5209 63.9375 14.6875C62.3914 19.9005 58.8914 22.2964 53.4375 21.875C51.9193 21.6261 50.5651 21.0219 49.375 20.0625C48.6666 20.7709 47.9584 21.4791 47.25 22.1875C48.6446 24.5252 49.5196 27.067 49.875 29.8125C49.9775 31.2595 49.9567 32.697 49.8125 34.125C50.7095 34.636 51.6261 35.1152 52.5625 35.5625C53.859 34.0406 55.484 33.5615 57.4375 34.125C59.659 35.2561 60.4297 37.0269 59.75 39.4375C58.6191 41.6589 56.8483 42.4297 54.4375 41.75C52.664 40.935 51.789 39.5391 51.8125 37.5625C51.0625 37.1875 50.3125 36.8125 49.5625 36.4375C49.209 37.349 48.8549 38.2658 48.5 39.1875C48.0089 40.2118 47.488 41.2118 46.9375 42.1875C47.0067 42.4512 47.111 42.7012 47.25 42.9375C52.625 48.3125 58 53.6875 63.375 59.0625C63.6001 59.4296 63.7876 59.8046 63.9375 60.1875C63.9375 60.7291 63.9375 61.2709 63.9375 61.8125C63.5209 62.8125 62.8125 63.5209 61.8125 63.9375C61.2291 63.9375 60.6459 63.9375 60.0625 63.9375C59.7824 63.7974 59.4906 63.6516 59.1875 63.5C53.7709 58.0834 48.3541 52.6666 42.9375 47.25C42.7012 47.111 42.4512 47.0067 42.1875 46.9375C40.0132 48.2531 37.68 49.1906 35.1875 49.75C35.4034 50.4258 35.5909 51.1133 35.75 51.8125C38.8148 52.1469 40.1898 53.8553 39.875 56.9375C39.0698 59.2055 37.4655 60.1846 35.0625 59.875C32.5057 58.9914 31.5265 57.2206 32.125 54.5625C32.2445 54.2029 32.4111 53.8695 32.625 53.5625C33.0103 53.1577 33.3644 52.7411 33.6875 52.3125C33.5075 51.53 33.2993 50.7591 33.0625 50C27.5637 50.1888 22.8554 48.3763 18.9375 44.5625C17.9601 45.4774 17.0018 46.4149 16.0625 47.375C17.672 49.4588 18.2763 51.8129 17.875 54.4375C17.1585 57.9876 15.096 60.3834 11.6875 61.625C7.24512 62.7281 3.72429 61.4156 1.125 57.6875C0.615692 56.7606 0.21986 55.8022 -0.0625 54.8125C-0.0625 53.6041 -0.0625 52.3959 -0.0625 51.1875C1.4726 45.9788 4.9726 43.5829 10.4375 44C11.9557 44.2489 13.3099 44.8531 14.5 45.8125C15.4584 44.8541 16.4166 43.8959 17.375 42.9375C17.4584 42.8125 17.4584 42.6875 17.375 42.5625C15.244 39.715 14.0981 36.5066 13.9375 32.9375C13.2291 32.9375 12.5209 32.9375 11.8125 32.9375C11.4701 34.5091 10.5118 35.4884 8.9375 35.875C5.92789 36.2461 4.21956 34.9336 3.8125 31.9375C4.21956 28.9414 5.92789 27.6289 8.9375 28C10.5118 28.3866 11.4701 29.3659 11.8125 30.9375C12.5209 30.9375 13.2291 30.9375 13.9375 30.9375C14.1407 26.8464 15.5782 23.2631 18.25 20.1875C18.3334 20.0625 18.3334 19.9375 18.25 19.8125C17 18.5625 15.75 17.3125 14.5 16.0625C12.4162 17.672 10.0621 18.2763 7.4375 17.875C4.17589 17.2808 1.86339 15.4683 0.5 12.4375C0.29479 11.8433 0.107289 11.2599 -0.0625 10.6875C-0.0625 9.52084 -0.0625 8.35416 -0.0625 7.1875C0.895834 3.3125 3.3125 0.895834 7.1875 -0.0625ZM8.9375 1.9375C13.1686 2.37694 15.4604 4.71028 15.8125 8.9375C15.7238 11.8372 14.3904 13.9414 11.8125 15.25C7.7934 16.6033 4.7309 15.4574 2.625 11.8125C1.27174 7.7934 2.41756 4.7309 6.0625 2.625C7.00095 2.24209 7.95928 2.01291 8.9375 1.9375ZM31.3125 6.0625C33.4706 6.03209 34.1997 7.03209 33.5 9.0625C32.7186 9.87634 31.8228 10.0222 30.8125 9.5C29.9986 8.7186 29.8529 7.82276 30.375 6.8125C30.6392 6.4849 30.9517 6.2349 31.3125 6.0625ZM53.6875 6.0625C56.8763 5.70925 59.3138 6.87593 61 9.5625C62.6765 13.4629 61.7806 16.6087 58.3125 19C54.4121 20.6765 51.2663 19.7806 48.875 16.3125C47.1985 12.4121 48.0944 9.26624 51.5625 6.875C52.2567 6.52626 52.9651 6.25544 53.6875 6.0625ZM31.6875 15.9375C39.509 16.3254 44.6965 20.2004 47.25 27.5625C48.515 32.4309 47.765 36.9725 45 41.1875C44.6869 42.2021 44.8119 43.1605 45.375 44.0625C50.7916 49.4791 56.2084 54.8959 61.625 60.3125C62.0209 61.5834 61.5834 62.0209 60.3125 61.625C54.8959 56.2084 49.4791 50.7916 44.0625 45.375C43.1605 44.8119 42.2021 44.6869 41.1875 45C34.8759 48.9785 28.6259 48.8951 22.4375 44.75C16.4646 39.7449 14.6939 33.5158 17.125 26.0625C19.962 19.7992 24.8161 16.4242 31.6875 15.9375ZM7.3125 30.0625C9.47061 30.0321 10.1998 31.0321 9.5 33.0625C8.7186 33.8764 7.82276 34.0221 6.8125 33.5C5.99866 32.7186 5.85284 31.8228 6.375 30.8125C6.63926 30.4849 6.95176 30.2349 7.3125 30.0625ZM55.3125 36.0625C57.4706 36.0321 58.1997 37.0321 57.5 39.0625C56.7186 39.8764 55.8228 40.0221 54.8125 39.5C53.9986 38.7186 53.8529 37.8228 54.375 36.8125C54.6393 36.4849 54.9518 36.2349 55.3125 36.0625ZM8.9375 45.9375C13.1686 46.377 15.4604 48.7103 15.8125 52.9375C15.7238 55.8372 14.3904 57.9414 11.8125 59.25C7.7934 60.6032 4.7309 59.4574 2.625 55.8125C1.27174 51.7934 2.41756 48.7309 6.0625 46.625C7.00095 46.2421 7.95928 46.0129 8.9375 45.9375ZM35.3125 54.0625C37.4706 54.0321 38.1997 55.0321 37.5 57.0625C36.7186 57.8764 35.8228 58.0221 34.8125 57.5C33.9986 56.7186 33.8529 55.8228 34.375 54.8125C34.6393 54.4849 34.9518 54.2349 35.3125 54.0625Z" fill="#F62E2E"/>
<path opacity="0.936" fill-rule="evenodd" clip-rule="evenodd" d="M8.0625 2.93747C10.3878 2.64051 11.6795 3.64051 11.9375 5.93747C11.9824 6.51963 11.8574 7.0613 11.5625 7.56247C13.631 8.98993 14.3185 10.9066 13.625 13.3125C13.3385 13.8485 12.901 14.2027 12.3125 14.375C10.7284 14.9047 9.1034 15.0713 7.4375 14.875C4.18426 14.4733 3.16342 12.7442 4.375 9.68747C4.82388 8.80102 5.46972 8.09268 6.3125 7.56247C5.42281 5.43765 6.00615 3.89598 8.0625 2.93747ZM8.5625 5.06247C8.35705 5.16452 8.21121 5.3312 8.125 5.56247C8.01536 6.68611 8.49452 7.04027 9.5625 6.62497C10.0646 5.56647 9.7313 5.04565 8.5625 5.06247ZM8.0625 9.06247C7.84092 9.23651 7.59092 9.38235 7.3125 9.49997C6.25288 10.2373 5.91955 11.1956 6.3125 12.375C8.15541 13.1085 9.96791 13.046 11.75 12.1875C11.8423 11.7173 11.8006 11.259 11.625 10.8125C10.8685 9.3822 9.68098 8.79886 8.0625 9.06247Z" fill="#F62E2E"/>
<path opacity="0.936" fill-rule="evenodd" clip-rule="evenodd" d="M54.0625 6.93747C56.3879 6.64051 57.6795 7.64051 57.9375 9.93747C57.9824 10.5196 57.8574 11.0613 57.5625 11.5625C59.631 12.99 60.3185 14.9066 59.625 17.3125C59.3385 17.8485 58.901 18.2027 58.3125 18.375C56.7284 18.9047 55.1034 19.0713 53.4375 18.875C50.1843 18.4733 49.1634 16.7442 50.375 13.6875C50.8239 12.801 51.4698 12.0927 52.3125 11.5625C51.4229 9.43765 52.0061 7.89598 54.0625 6.93747ZM54.5625 9.06247C54.357 9.16452 54.2113 9.3312 54.125 9.56247C54.0154 10.6861 54.4945 11.0403 55.5625 10.625C56.0646 9.56647 55.7313 9.04565 54.5625 9.06247ZM54.0625 13.0625C53.8409 13.2365 53.5909 13.3823 53.3125 13.5C52.2529 14.2372 51.9195 15.1956 52.3125 16.375C54.1554 17.1085 55.9679 17.046 57.75 16.1875C57.8423 15.7173 57.8006 15.259 57.625 14.8125C56.8685 13.3822 55.681 12.7988 54.0625 13.0625Z" fill="#F62E2E"/>
<path opacity="0.927" fill-rule="evenodd" clip-rule="evenodd" d="M30.0625 17.9375C33.426 17.5807 36.551 18.2682 39.4375 20C40.0494 20.5895 40.091 21.2145 39.5625 21.875C39.3708 21.9904 39.1624 22.0529 38.9375 22.0625C37.6538 21.4002 36.3204 20.8377 34.9375 20.375C29.7754 19.3179 25.5461 20.8386 22.25 24.9375C19.1119 29.9116 19.2785 34.7866 22.75 39.5625C26.5804 43.6607 31.1429 44.8065 36.4375 43C41.8003 40.4224 44.2378 36.1516 43.75 30.1875C43.602 29.2434 43.352 28.3267 43 27.4375C42.3981 26.2146 41.7524 25.0271 41.0625 23.875C41.379 22.8665 42.004 22.6165 42.9375 23.125C47.0126 28.8909 47.0751 34.7034 43.125 40.5625C39.2823 45.1075 34.4281 46.795 28.5625 45.625C21.8386 43.5452 18.2554 38.9827 17.8125 31.9375C18.4244 24.2039 22.5078 19.5371 30.0625 17.9375Z" fill="#F62E2E"/>
<path opacity="0.937" fill-rule="evenodd" clip-rule="evenodd" d="M30.9376 21.9375C34.4974 21.7264 36.1433 23.393 35.8751 26.9375C35.7515 27.539 35.4806 28.0599 35.0626 28.5C37.6845 29.706 39.2886 31.7267 39.8751 34.5625C39.9585 35.8959 39.9585 37.2291 39.8751 38.5625C39.6349 39.441 39.114 40.0867 38.3126 40.5C34.5073 42.2227 30.6323 42.3894 26.6876 41C26.007 40.764 25.382 40.4306 24.8126 40C24.4293 39.5879 24.1585 39.1086 24.0001 38.5625C23.2565 34.8395 24.319 31.777 27.1876 29.375C27.7094 29.0515 28.251 28.7599 28.8126 28.5C27.9888 27.4516 27.7179 26.2641 28.0001 24.9375C28.4188 23.3731 29.3979 22.3731 30.9376 21.9375ZM31.3126 24.0625C30.9519 24.2349 30.6394 24.4849 30.3751 24.8125C29.853 25.8227 29.9988 26.7186 30.8126 27.5C31.8229 28.0221 32.7188 27.8764 33.5001 27.0625C34.1999 25.0321 33.4708 24.0321 31.3126 24.0625ZM30.8126 30.0625C27.5435 31.0935 25.9185 33.3435 25.9376 36.8125C25.7489 37.8792 26.1655 38.5667 27.1876 38.875C29.8431 39.9887 32.5514 40.1554 35.3126 39.375C36.2119 39.1454 37.0244 38.7495 37.7501 38.1875C37.9709 37.0659 37.9709 35.9409 37.7501 34.8125C36.7154 31.3844 34.4029 29.801 30.8126 30.0625Z" fill="#F62E2E"/>
<path opacity="0.936" fill-rule="evenodd" clip-rule="evenodd" d="M8.0625 46.9375C10.3878 46.6405 11.6795 47.6405 11.9375 49.9375C11.9824 50.5196 11.8574 51.0614 11.5625 51.5625C13.631 52.99 14.3185 54.9066 13.625 57.3125C13.3385 57.8485 12.901 58.2027 12.3125 58.375C10.7284 58.9047 9.1034 59.0714 7.4375 58.875C4.18426 58.4734 3.16342 56.7442 4.375 53.6875C4.82388 52.801 5.46972 52.0927 6.3125 51.5625C5.42281 49.4376 6.00615 47.896 8.0625 46.9375ZM8.5625 49.0625C8.35705 49.1645 8.21121 49.3312 8.125 49.5625C8.01536 50.6861 8.49452 51.0402 9.5625 50.625C10.0646 49.5665 9.7313 49.0456 8.5625 49.0625ZM8.0625 53.0625C7.84092 53.2365 7.59092 53.3824 7.3125 53.5C6.25288 54.2372 5.91955 55.1956 6.3125 56.375C8.15541 57.1085 9.96791 57.046 11.75 56.1875C11.8423 55.7174 11.8006 55.259 11.625 54.8125C10.8685 53.3822 9.68098 52.7989 8.0625 53.0625Z" fill="#F62E2E"/>
</g>
<defs>
<clipPath id="clip0_296_1912">
<rect width="64" height="64" fill="white"/>
</clipPath>
</defs>
</svg>
