<svg width="64" height="64" viewBox="0 0 64 64" fill="none" xmlns="http://www.w3.org/2000/svg">
<path opacity="0.91" fill-rule="evenodd" clip-rule="evenodd" d="M18.6875 1.18749C20.1464 1.16667 21.6047 1.18751 23.0625 1.24999C24.1995 1.38702 24.9704 1.99118 25.375 3.06249C25.558 4.3093 25.7248 5.5593 25.875 6.81249C26.3604 7.62887 26.9646 7.73304 27.6875 7.12499C28.5834 6.15774 29.625 5.40774 30.8125 4.87499C31.9229 4.68362 32.8813 4.97528 33.6875 5.74999C34.666 6.6827 35.6035 7.66187 36.5 8.68749C37.0834 9.72915 37.0834 10.7708 36.5 11.8125C35.7916 12.6875 35.0834 13.5625 34.375 14.4375C34.1553 15.1437 34.3845 15.6229 35.0625 15.875C36.2309 15.9862 37.3975 16.1112 38.5625 16.25C39.9098 16.7544 40.5973 17.7335 40.625 19.1875C40.7603 20.7445 40.677 22.2862 40.375 23.8125C39.9539 24.6911 39.2664 25.2536 38.3125 25.5C37.1838 25.595 36.0588 25.72 34.9375 25.875C34.336 26.2662 34.1901 26.787 34.5 27.4375C35.2552 28.2341 35.9635 29.0675 36.625 29.9375C37.2923 31.4364 37.0423 32.7696 35.875 33.9375C35.0586 34.7956 34.2045 35.6081 33.3125 36.375C32.315 37.0122 31.2734 37.0956 30.1875 36.625C29.265 35.8272 28.3066 35.0772 27.3125 34.375C26.7157 34.2049 26.2782 34.3924 26 34.9375C25.8406 36.0579 25.7156 37.1829 25.625 38.3125C25.1852 39.8337 24.1645 40.6046 22.5625 40.625C21.1414 40.7241 19.7248 40.6825 18.3125 40.5C17.3334 40.1875 16.6875 39.5416 16.375 38.5625C16.2335 37.3976 16.1085 36.231 16 35.0625C15.6581 34.3597 15.1374 34.1722 14.4375 34.5C13.4669 35.3876 12.4252 36.1792 11.3125 36.875C10.1399 37.182 9.09823 36.932 8.1875 36.125C7.25 35.3541 6.39584 34.5 5.625 33.5625C4.84904 32.4539 4.74488 31.2872 5.3125 30.0625C6.01789 29.1279 6.74706 28.2111 7.5 27.3125C7.61986 26.4061 7.22403 25.9269 6.3125 25.875C5.22033 25.8157 4.137 25.6907 3.0625 25.5C1.99295 25.0967 1.38879 24.326 1.25 23.1875C1.16667 21.6875 1.16667 20.1875 1.25 18.6875C1.49474 17.5259 2.18224 16.755 3.3125 16.375C4.43655 16.2417 5.56155 16.1167 6.6875 16C7.47891 15.6259 7.66641 15.0634 7.25 14.3125C6.66666 13.6459 6.08334 12.9791 5.5 12.3125C4.58334 11.0208 4.58334 9.72915 5.5 8.43749C6.48371 7.24535 7.58789 6.18285 8.8125 5.24999C9.67028 4.88919 10.5453 4.84753 11.4375 5.12499C12.4317 5.82729 13.39 6.57729 14.3125 7.37499C15.0124 7.7027 15.5331 7.5152 15.875 6.81249C15.9862 5.64415 16.1112 4.47748 16.25 3.31249C16.6632 2.1274 17.4757 1.41907 18.6875 1.18749ZM20.6875 2.68749C21.4315 2.78094 22.1815 2.84344 22.9375 2.87499C23.2628 2.98542 23.5336 3.17292 23.75 3.43749C23.9434 4.81462 24.1518 6.18962 24.375 7.56249C25.2283 9.04068 26.4574 9.47818 28.0625 8.87499C29.0625 8.08333 30.0625 7.29165 31.0625 6.49999C31.3125 6.41665 31.5625 6.41665 31.8125 6.49999C33.3312 7.43493 34.4979 8.68493 35.3125 10.25C35.2614 10.5401 35.1571 10.8109 35 11.0625C34.2617 11.9146 33.5534 12.7896 32.875 13.6875C32.301 15.342 32.7801 16.5711 34.3125 17.375C35.6989 17.5354 37.0739 17.7437 38.4375 18C38.6311 18.1517 38.7769 18.3392 38.875 18.5625C39.125 20.1041 39.125 21.6459 38.875 23.1875C38.7186 23.5476 38.4479 23.7767 38.0625 23.875C36.8003 23.9669 35.5503 24.1336 34.3125 24.375C32.5281 25.4814 32.2156 26.9189 33.375 28.6875C34.2159 29.4967 34.9034 30.4134 35.4375 31.4375C35.3052 31.9104 35.0761 32.3271 34.75 32.6875C34.0625 33.375 33.375 34.0625 32.6875 34.75C32.1828 35.266 31.5994 35.391 30.9375 35.125C30.015 34.3272 29.0566 33.5772 28.0625 32.875C26.5035 32.3525 25.316 32.79 24.5 34.1875C24.2579 35.467 24.0911 36.7587 24 38.0625C23.8959 38.5 23.625 38.7709 23.1875 38.875C21.6868 39.1217 20.1868 39.1217 18.6875 38.875C18.4643 38.7769 18.2768 38.6311 18.125 38.4375C17.8974 36.9777 17.6474 35.5194 17.375 34.0625C16.535 32.8152 15.3892 32.4194 13.9375 32.875C12.9901 33.4886 12.1151 34.1969 11.3125 35C11.0363 35.2174 10.7238 35.3632 10.375 35.4375C8.85553 34.6271 7.60553 33.5021 6.625 32.0625C6.54166 31.7291 6.54166 31.3959 6.625 31.0625C7.50769 30.0882 8.29935 29.0465 9 27.9375C9.46315 26.2597 8.90065 25.0722 7.3125 24.375C6.01053 24.2701 4.71885 24.1034 3.4375 23.875C3.1383 23.631 2.9508 23.3185 2.875 22.9375C2.79166 21.6041 2.79166 20.2709 2.875 18.9375C2.96123 18.6005 3.14873 18.3296 3.4375 18.125C4.75879 17.8645 6.09211 17.6561 7.4375 17.5C8.87246 16.7811 9.3933 15.6352 9 14.0625C8.21486 12.9022 7.38153 11.7773 6.5 10.6875C6.41666 10.4792 6.41666 10.2708 6.5 10.0625C7.34398 8.80158 8.36481 7.69742 9.5625 6.74999C10.198 6.45982 10.7813 6.54315 11.3125 6.99999C12.026 7.67208 12.776 8.29708 13.5625 8.87499C15.2251 9.53825 16.496 9.10075 17.375 7.56249C17.5354 6.17608 17.7437 4.80108 18 3.43749C18.2046 3.14872 18.4755 2.96122 18.8125 2.87499C19.4605 2.85325 20.0855 2.79075 20.6875 2.68749Z" fill="#F62E2E"/>
<path opacity="0.909" fill-rule="evenodd" clip-rule="evenodd" d="M20.0625 11.5625C24.422 11.4388 27.5678 13.3138 29.5 17.1875C31.1513 22.0241 29.9222 25.92 25.8125 28.875C22.628 30.5789 19.4197 30.6205 16.1875 29C12.2588 26.3405 10.8629 22.6946 12 18.0625C13.4093 14.298 16.0968 12.1314 20.0625 11.5625ZM20.0625 13.1875C19.0204 13.3755 18.0204 13.7296 17.0625 14.25C13.2983 16.8776 12.3192 20.3151 14.125 24.5625C16.7813 28.5238 20.3022 29.5446 24.6875 27.625C28.1317 25.3358 29.2774 22.1899 28.125 18.1875C26.5409 14.7593 23.8534 13.0926 20.0625 13.1875Z" fill="#F62E2E"/>
<path opacity="0.909" fill-rule="evenodd" clip-rule="evenodd" d="M49.0625 25.5625C50.0634 25.5417 51.0634 25.5625 52.0625 25.625C52.73 25.8012 53.2092 26.1971 53.5 26.8125C53.6332 27.6022 53.7582 28.394 53.875 29.1875C53.9452 29.2527 54.0285 29.2943 54.125 29.3125C54.7695 28.8351 55.4154 28.356 56.0625 27.875C56.867 27.6382 57.617 27.7632 58.3125 28.25C59.1443 28.9553 59.8318 29.7678 60.375 30.6875C60.4584 31.1458 60.4584 31.6041 60.375 32.0625C60.0063 32.6397 59.5895 33.1815 59.125 33.6875C58.9767 33.8805 58.935 34.0888 59 34.3125C59.8543 34.4325 60.7084 34.5783 61.5625 34.75C62.1022 35.0393 62.4563 35.4768 62.625 36.0625C62.7084 37.1458 62.7084 38.2291 62.625 39.3125C62.4072 39.9887 61.9697 40.468 61.3125 40.75C60.6072 40.858 59.8988 40.9413 59.1875 41C59.0715 41.0485 58.9882 41.1318 58.9375 41.25C59.3255 41.8468 59.763 42.4093 60.25 42.9375C60.7224 43.9365 60.5974 44.8531 59.875 45.6875C59.3085 46.2958 58.7043 46.8583 58.0625 47.375C57.3125 47.7916 56.5625 47.7916 55.8125 47.375C55.3125 46.9583 54.8125 46.5416 54.3125 46.125C54.1255 46.0616 53.9797 46.1241 53.875 46.3125C53.8702 47.2645 53.7035 48.1812 53.375 49.0625C52.998 49.5115 52.5189 49.7822 51.9375 49.875C51.0209 49.9583 50.1042 49.9583 49.1875 49.875C48.483 49.7837 47.9622 49.4295 47.625 48.8125C47.4547 47.988 47.3297 47.1546 47.25 46.3125C47.1667 46.2291 47.0834 46.1458 47 46.0625C46.3687 46.6592 45.6812 47.18 44.9375 47.625C44.1712 47.7832 43.4628 47.6582 42.8125 47.25C42.2084 46.6458 41.6042 46.0416 41 45.4375C40.4849 44.6668 40.4433 43.8752 40.875 43.0625C41.2917 42.5625 41.7084 42.0625 42.125 41.5625C42.2084 41.4375 42.2084 41.3125 42.125 41.1875C41.1759 41.0612 40.2384 40.8737 39.3125 40.625C38.7188 40.1666 38.4063 39.5623 38.375 38.8125C38.2917 38.1041 38.2917 37.3958 38.375 36.6875C38.3937 35.7536 38.8312 35.1077 39.6875 34.75C40.3499 34.6337 41.0167 34.5503 41.6875 34.5C41.9108 34.4755 42.0774 34.3713 42.1875 34.1875C41.5943 33.5318 41.0735 32.8235 40.625 32.0625C40.472 31.337 40.597 30.6702 41 30.0625C41.5209 29.375 42.125 28.7708 42.8125 28.25C43.6164 27.7211 44.4498 27.6795 45.3125 28.125C45.8334 28.5625 46.3542 29 46.875 29.4375C47.0497 29.3467 47.1539 29.2008 47.1875 29C47.2365 28.1665 47.3823 27.354 47.625 26.5625C47.9892 26.0507 48.4683 25.7175 49.0625 25.5625ZM49.3125 27.1875C50.1533 27.1506 50.9865 27.1922 51.8125 27.3125C51.899 27.3781 51.9615 27.4615 52 27.5625C52.0348 28.469 52.2015 29.344 52.5 30.1875C53.121 30.8893 53.8919 31.1185 54.8125 30.875C55.5113 30.3693 56.1988 29.8485 56.875 29.3125C57.6313 29.881 58.277 30.5477 58.8125 31.3125C58.3133 32.0007 57.8342 32.709 57.375 33.4375C57.082 34.4955 57.3945 35.308 58.3125 35.875C59.1425 36.0163 59.9759 36.1413 60.8125 36.25C60.875 36.3125 60.9375 36.375 61 36.4375C61.0997 37.3187 61.0788 38.1937 60.9375 39.0625C60.1138 39.2492 59.2804 39.395 58.4375 39.5C57.4865 40.0482 57.1323 40.8607 57.375 41.9375C57.8142 42.6488 58.3142 43.3155 58.875 43.9375C58.9144 44.1135 58.8728 44.2801 58.75 44.4375C58.2018 45.0486 57.5975 45.5902 56.9375 46.0625C56.2534 45.6075 55.5868 45.1283 54.9375 44.625C53.7654 44.2238 52.9112 44.578 52.375 45.6875C52.25 46.4791 52.125 47.2708 52 48.0625C51.9063 48.1407 51.802 48.2032 51.6875 48.25C50.8405 48.365 50.0072 48.3232 49.1875 48.125C49.0329 47.2771 48.887 46.423 48.75 45.5625C48.1293 44.6105 47.275 44.298 46.1875 44.625C45.5683 45.0356 44.985 45.494 44.4375 46C44.2709 46.0833 44.1042 46.0833 43.9375 46C43.2474 45.4973 42.664 44.8932 42.1875 44.1875C42.7328 43.4547 43.2535 42.7047 43.75 41.9375C43.9729 40.9376 43.6604 40.1667 42.8125 39.625C41.988 39.4546 41.1547 39.3296 40.3125 39.25C40.1384 39.1036 40.0342 38.9161 40 38.6875C39.8924 37.9268 39.9342 37.1768 40.125 36.4375C40.2188 36.3592 40.323 36.2967 40.4375 36.25C41.3503 36.2546 42.2253 36.088 43.0625 35.75C43.7705 35.0636 43.958 34.2511 43.625 33.3125C43.1299 32.6756 42.6508 32.0297 42.1875 31.375C42.6667 30.5625 43.3125 29.9166 44.125 29.4375C44.7995 29.9313 45.487 30.4105 46.1875 30.875C47.1999 31.1898 48.0124 30.919 48.625 30.0625C48.8314 29.2428 48.9564 28.4095 49 27.5625C49.0873 27.4136 49.1914 27.2886 49.3125 27.1875Z" fill="#F62E2E"/>
<path opacity="0.91" fill-rule="evenodd" clip-rule="evenodd" d="M49.6872 31.8125C52.7424 31.6204 54.8882 32.912 56.1247 35.6875C56.9541 38.7002 56.1 41.0961 53.5622 42.875C51.2805 44.0464 49.0721 43.9214 46.9372 42.5C44.8161 40.6821 44.1494 38.4321 44.9372 35.75C45.8307 33.5841 47.414 32.2716 49.6872 31.8125ZM49.8122 33.4375C49.2591 33.6022 48.7174 33.8314 48.1872 34.125C46.4756 35.4265 45.9131 37.114 46.4997 39.1875C47.383 41.1604 48.9039 42.0979 51.0622 42C53.773 41.3907 55.0022 39.7032 54.7497 36.9375C54.0375 34.4659 52.3916 33.2992 49.8122 33.4375Z" fill="#F62E2E"/>
<path opacity="0.936" fill-rule="evenodd" clip-rule="evenodd" d="M5.93768 52.5625C23.2711 52.5416 40.6044 52.5625 57.9377 52.625C60.4151 52.8528 61.9776 54.1653 62.6252 56.5625C63.0204 58.964 62.2079 60.8181 60.1877 62.125C59.7567 62.3659 59.2983 62.5326 58.8127 62.625C40.8961 62.7084 22.9793 62.7084 5.06268 62.625C3.04185 62.1041 1.77102 60.8334 1.25018 58.8125C0.912098 55.2735 2.4746 53.1901 5.93768 52.5625ZM5.93768 54.1875C8.18807 54.1666 10.4381 54.1875 12.6877 54.25C10.4377 56.5 8.18768 58.75 5.93768 61C3.98417 60.7753 2.94251 59.6711 2.81268 57.6875C2.97692 55.7319 4.0186 54.5651 5.93768 54.1875ZM15.0627 54.1875C17.8547 54.1666 20.6463 54.1875 23.4377 54.25C21.1461 56.5416 18.8543 58.8334 16.5627 61.125C13.7711 61.2084 10.9793 61.2084 8.18768 61.125C10.5046 58.829 12.7962 56.5165 15.0627 54.1875ZM25.8127 54.1875C28.6047 54.1666 31.3963 54.1875 34.1877 54.25C31.8961 56.5416 29.6043 58.8334 27.3127 61.125C24.5211 61.2084 21.7293 61.2084 18.9377 61.125C21.2546 58.829 23.5462 56.5165 25.8127 54.1875ZM36.5627 54.1875C39.3547 54.1666 42.1463 54.1875 44.9377 54.25C42.6461 56.5416 40.3543 58.8334 38.0627 61.125C35.2711 61.2084 32.4793 61.2084 29.6877 61.125C32.0046 58.829 34.2962 56.5165 36.5627 54.1875ZM47.1877 54.1875C49.9797 54.1666 52.7713 54.1875 55.5627 54.25C53.2711 56.5416 50.9793 58.8334 48.6877 61.125C45.8961 61.2084 43.1043 61.2084 40.3127 61.125C42.6296 58.829 44.9212 56.5165 47.1877 54.1875ZM57.8127 54.3125C60.2687 54.6663 61.3312 56.0829 61.0002 58.5625C60.4672 60.1523 59.3631 61.0064 57.6877 61.125C55.4793 61.2084 53.2711 61.2084 51.0627 61.125C53.3379 58.8706 55.5879 56.5999 57.8127 54.3125Z" fill="#F62E2E"/>
</svg>
