<svg width="64" height="64" viewBox="0 0 64 64" fill="none" xmlns="http://www.w3.org/2000/svg">
<path fill-rule="evenodd" clip-rule="evenodd" d="M1.9375 1.9375C11.2708 1.9375 20.6041 1.9375 29.9375 1.9375C29.9375 3.27084 29.9375 4.60416 29.9375 5.9375C20.6041 5.9375 11.2708 5.9375 1.9375 5.9375C1.9375 4.60416 1.9375 3.27084 1.9375 1.9375Z" fill="#2ec7f6"/>
<path opacity="0.989" fill-rule="evenodd" clip-rule="evenodd" d="M47.1875 1.9375C52.9482 1.78569 57.3023 4.16069 60.25 9.0625C61.559 11.4406 62.1007 13.9823 61.875 16.6875C61.6459 17.25 61.25 17.6459 60.6875 17.875C56.1875 17.9584 51.6875 17.9584 47.1875 17.875C46.4995 17.52 46.1037 16.9575 46 16.1875C45.9167 11.8542 45.9167 7.52084 46 3.1875C46.2528 2.6225 46.6487 2.20584 47.1875 1.9375Z" fill="#2ec7f6"/>
<path fill-rule="evenodd" clip-rule="evenodd" d="M1.9375 9.9375C7.9375 9.9375 13.9375 9.9375 19.9375 9.9375C19.9375 11.2708 19.9375 12.6041 19.9375 13.9375C13.9375 13.9375 7.9375 13.9375 1.9375 13.9375C1.9375 12.6041 1.9375 11.2708 1.9375 9.9375Z" fill="#2ec7f6"/>
<path opacity="0.989" fill-rule="evenodd" clip-rule="evenodd" d="M38.0625 9.93747C38.9385 9.91669 39.8135 9.93752 40.6875 9.99997C41.25 10.2291 41.6459 10.625 41.875 11.1875C41.9166 13.7708 41.9584 16.3541 42 18.9375C42.1875 20.7083 43.1666 21.6875 44.9375 21.875C47.5209 21.9166 50.1041 21.9583 52.6875 22C53.25 22.2291 53.6459 22.625 53.875 23.1875C54.0875 28.9512 51.7332 33.3055 46.8125 36.25C43.3899 38.0112 39.8066 38.428 36.0625 37.5C29.6051 35.3093 26.1884 30.7885 25.8125 23.9375C26.4001 16.1847 30.4835 11.518 38.0625 9.93747Z" fill="#2ec7f6"/>
<path opacity="0.998" fill-rule="evenodd" clip-rule="evenodd" d="M10.0625 23.9375C12.6461 23.9166 15.2295 23.9375 17.8125 24C18.8334 24.3541 19.5209 25.0416 19.875 26.0625C19.9375 35.3541 19.9584 44.6458 19.9375 53.9375C15.9375 53.9375 11.9375 53.9375 7.9375 53.9375C7.91666 44.6458 7.9375 35.3541 8 26.0625C8.37739 25.0395 9.06489 24.3311 10.0625 23.9375Z" fill="#2ec7f6"/>
<path opacity="0.996" fill-rule="evenodd" clip-rule="evenodd" d="M28.0625 39.9375C30.6461 39.9166 33.2295 39.9375 35.8125 40C36.8334 40.3541 37.5209 41.0416 37.875 42.0625C37.9375 46.0206 37.9584 49.979 37.9375 53.9375C33.9375 53.9375 29.9375 53.9375 25.9375 53.9375C25.9166 49.979 25.9375 46.0206 26 42.0625C26.3774 41.0395 27.0649 40.3311 28.0625 39.9375Z" fill="#2ec7f6"/>
<path opacity="0.994" fill-rule="evenodd" clip-rule="evenodd" d="M46.0625 45.9375C48.6461 45.9166 51.2295 45.9375 53.8125 46C54.8334 46.3541 55.5209 47.0416 55.875 48.0625C55.9375 50.0204 55.9584 51.9788 55.9375 53.9375C51.9375 53.9375 47.9375 53.9375 43.9375 53.9375C43.9166 51.9788 43.9375 50.0204 44 48.0625C44.3774 47.0395 45.0649 46.3311 46.0625 45.9375Z" fill="#2ec7f6"/>
<path fill-rule="evenodd" clip-rule="evenodd" d="M1.9375 57.9375C21.9375 57.9375 41.9375 57.9375 61.9375 57.9375C61.9375 59.2709 61.9375 60.6041 61.9375 61.9375C41.9375 61.9375 21.9375 61.9375 1.9375 61.9375C1.9375 60.6041 1.9375 59.2709 1.9375 57.9375Z" fill="#2ec7f6"/>
</svg>
