<svg width="48" height="48" viewBox="0 0 48 48" fill="none" xmlns="http://www.w3.org/2000/svg">
<path fill-rule="evenodd" clip-rule="evenodd" d="M1.45312 1.45312C8.45313 1.45312 15.4531 1.45312 22.4531 1.45312C22.4531 2.45313 22.4531 3.45312 22.4531 4.45312C15.4531 4.45312 8.45313 4.45312 1.45312 4.45312C1.45312 3.45312 1.45312 2.45313 1.45312 1.45312Z" fill="#2DC7F6" fill-opacity="0.55"/>
<path opacity="0.989" fill-rule="evenodd" clip-rule="evenodd" d="M35.3906 1.45288C39.7111 1.33903 42.9767 3.12028 45.1875 6.79663C46.1693 8.58017 46.5755 10.4864 46.4063 12.5154C46.2344 12.9373 45.9375 13.2342 45.5156 13.406C42.1406 13.4685 38.7656 13.4685 35.3906 13.406C34.8746 13.1398 34.5777 12.7179 34.5 12.1404C34.4375 8.89038 34.4375 5.64039 34.5 2.39038C34.6896 1.96663 34.9865 1.65414 35.3906 1.45288Z" fill="#2DC7F6" fill-opacity="0.55"/>
<path fill-rule="evenodd" clip-rule="evenodd" d="M1.45312 7.45312C5.95312 7.45312 10.4531 7.45312 14.9531 7.45312C14.9531 8.45313 14.9531 9.45309 14.9531 10.4531C10.4531 10.4531 5.95312 10.4531 1.45312 10.4531C1.45312 9.45309 1.45312 8.45313 1.45312 7.45312Z" fill="#2DC7F6" fill-opacity="0.55"/>
<path opacity="0.989" fill-rule="evenodd" clip-rule="evenodd" d="M28.5469 7.45311C29.2039 7.43751 29.8601 7.45314 30.5156 7.49998C30.9375 7.67185 31.2344 7.96873 31.4062 8.39061C31.4375 10.3281 31.4688 12.2656 31.5 14.2031C31.6406 15.5313 32.375 16.2656 33.7031 16.4062C35.6407 16.4374 37.5781 16.4688 39.5156 16.5C39.9375 16.6718 40.2344 16.9687 40.4062 17.3906C40.5656 21.7134 38.7999 24.9791 35.1094 27.1875C32.5424 28.5084 29.855 28.821 27.0469 28.125C22.2038 26.482 19.6413 23.0914 19.3594 17.9531C19.8001 12.1385 22.8626 8.63851 28.5469 7.45311Z" fill="#2DC7F6" fill-opacity="0.55"/>
<path opacity="0.998" fill-rule="evenodd" clip-rule="evenodd" d="M7.54688 17.9531C9.4846 17.9375 11.4221 17.9531 13.3594 18C14.125 18.2656 14.6407 18.7812 14.9063 19.5469C14.9531 26.5156 14.9688 33.4843 14.9531 40.4531C11.9531 40.4531 8.95313 40.4531 5.95313 40.4531C5.9375 33.4843 5.95313 26.5156 6 19.5469C6.28304 18.7796 6.79867 18.2484 7.54688 17.9531Z" fill="#2DC7F6" fill-opacity="0.55"/>
<path opacity="0.996" fill-rule="evenodd" clip-rule="evenodd" d="M21.0469 29.9531C22.9846 29.9375 24.9221 29.9531 26.8594 30C27.625 30.2656 28.1407 30.7812 28.4063 31.5469C28.4531 34.5155 28.4688 37.4843 28.4531 40.4531C25.4531 40.4531 22.4531 40.4531 19.4531 40.4531C19.4375 37.4843 19.4531 34.5155 19.5 31.5469C19.783 30.7796 20.2987 30.2484 21.0469 29.9531Z" fill="#2DC7F6" fill-opacity="0.55"/>
<path opacity="0.994" fill-rule="evenodd" clip-rule="evenodd" d="M34.5469 34.4531C36.4846 34.4375 38.4221 34.4531 40.3594 34.5C41.125 34.7656 41.6407 35.2812 41.9063 36.0469C41.9531 37.5153 41.9688 38.9841 41.9531 40.4531C38.9531 40.4531 35.9531 40.4531 32.9531 40.4531C32.9375 38.9841 32.9531 37.5153 33 36.0469C33.283 35.2796 33.7987 34.7484 34.5469 34.4531Z" fill="#2DC7F6" fill-opacity="0.55"/>
<path fill-rule="evenodd" clip-rule="evenodd" d="M1.45312 43.4531C16.4531 43.4531 31.4531 43.4531 46.4531 43.4531C46.4531 44.4532 46.4531 45.4531 46.4531 46.4531C31.4531 46.4531 16.4531 46.4531 1.45312 46.4531C1.45312 45.4531 1.45312 44.4532 1.45312 43.4531Z" fill="#2DC7F6" fill-opacity="0.55"/>
</svg>
