<svg width="15" height="10" viewBox="0 0 15 10" fill="none" xmlns="http://www.w3.org/2000/svg">
    <path opacity="0.989" fill-rule="evenodd" clip-rule="evenodd"
        d="M2.17188 0.484379C4.88022 0.479161 7.58856 0.484379 10.2969 0.500004C10.9167 0.661473 11.3073 1.0521 11.4688 1.67188C11.4792 2.01563 11.4896 2.35938 11.5 2.70313C12.2113 2.39182 12.9248 2.0845 13.6406 1.78125C14.2891 1.63407 14.7318 1.86844 14.9688 2.48438C14.9896 4.15104 14.9896 5.81772 14.9688 7.48438C14.7659 8.05204 14.3648 8.29682 13.7656 8.21875C13.0023 7.91919 12.247 7.60147 11.5 7.26563C11.4896 7.60938 11.4792 7.95313 11.4688 8.29688C11.3073 8.91666 10.9167 9.30729 10.2969 9.46875C7.58853 9.4896 4.88022 9.4896 2.17188 9.46875C1.55209 9.30729 1.16146 8.91666 1 8.29688C0.979166 6.08854 0.979166 3.88022 1 1.67188C1.16715 1.05163 1.55778 0.655786 2.17188 0.484379ZM2.48438 1.48438C4.98441 1.47916 7.48441 1.48438 9.98438 1.5C10.2708 1.53647 10.4323 1.69791 10.4688 1.98438C10.4896 3.98438 10.4896 5.98438 10.4688 7.98438C10.4323 8.27085 10.2708 8.43229 9.98438 8.46875C7.48438 8.4896 4.98438 8.4896 2.48438 8.46875C2.19792 8.43229 2.03646 8.27085 2 7.98438C1.97917 5.98438 1.97917 3.98438 2 1.98438C2.04206 1.69757 2.20352 1.53091 2.48438 1.48438ZM13.9219 2.76563C13.9635 3.4945 13.9844 4.23407 13.9844 4.98438C13.974 5.72397 13.9635 6.46354 13.9531 7.20313C13.1406 6.84897 12.3281 6.49479 11.5156 6.14063C11.474 5.36979 11.474 4.59897 11.5156 3.82813C12.3242 3.48097 13.1263 3.12682 13.9219 2.76563Z"
        fill="white" />
</svg>