<svg width="16" height="16" viewBox="0 0 16 16" fill="none" xmlns="http://www.w3.org/2000/svg">
<g clip-path="url(#clip0_147_75)">
<path opacity="0.962" fill-rule="evenodd" clip-rule="evenodd" d="M7.29688 -0.015625C7.75522 -0.015625 8.21353 -0.015625 8.67188 -0.015625C11.4861 0.315447 13.6059 1.70086 15.0312 4.14062C15.558 5.13369 15.8757 6.18578 15.9844 7.29688C15.9844 7.75522 15.9844 8.21353 15.9844 8.67188C15.6533 11.4861 14.2679 13.6059 11.8281 15.0312C10.8351 15.558 9.78297 15.8757 8.67188 15.9844C8.21353 15.9844 7.75522 15.9844 7.29688 15.9844C4.48266 15.6533 2.36287 14.2679 0.9375 11.8281C0.410778 10.8351 0.0930694 9.78297 -0.015625 8.67188C-0.015625 8.21353 -0.015625 7.75522 -0.015625 7.29688C0.315447 4.48266 1.70086 2.36287 4.14062 0.9375C5.13369 0.410778 6.18578 0.0930694 7.29688 -0.015625ZM7.35938 0.921875C10.3977 0.802619 12.6842 2.0422 14.2188 4.64062C15.217 6.62972 15.3108 8.66097 14.5 10.7344C13.3347 13.2527 11.3711 14.685 8.60938 15.0312C5.57016 15.1657 3.28369 13.9313 1.75 11.3281C0.751744 9.33903 0.657994 7.30778 1.46875 5.23438C2.641 2.71834 4.60453 1.28084 7.35938 0.921875Z" fill="#F62E2E"/>
<path opacity="0.957" fill-rule="evenodd" clip-rule="evenodd" d="M4.73438 4.29688C4.85644 4.30919 4.971 4.34562 5.07812 4.40625C6.04209 5.37544 7.01084 6.33897 7.98438 7.29688C8.95791 6.33897 9.92666 5.37544 10.8906 4.40625C11.2989 4.21975 11.5593 4.34475 11.6719 4.78125C11.6521 4.88647 11.6156 4.98541 11.5625 5.07812C10.5933 6.04209 9.62978 7.01084 8.67188 7.98438C9.61938 8.9475 10.5725 9.90581 11.5312 10.8594C11.7596 11.2775 11.645 11.5483 11.1875 11.6719C11.0823 11.6521 10.9833 11.6156 10.8906 11.5625C9.92666 10.5933 8.95791 9.62978 7.98438 8.67188C7.01084 9.62978 6.04209 10.5933 5.07812 11.5625C4.66984 11.749 4.40941 11.624 4.29688 11.1875C4.31666 11.0823 4.35312 10.9833 4.40625 10.8906C5.37544 9.92666 6.33897 8.95791 7.29688 7.98438C6.33897 7.01084 5.37544 6.04209 4.40625 5.07812C4.22428 4.69234 4.33366 4.43191 4.73438 4.29688Z" fill="#F62E2E"/>
</g>
<defs>
<clipPath id="clip0_147_75">
<rect width="16" height="16" fill="white"/>
</clipPath>
</defs>
</svg>
