<svg width="16" height="16" viewBox="0 0 16 16" fill="none" xmlns="http://www.w3.org/2000/svg">
    <path opacity="0.964" fill-rule="evenodd" clip-rule="evenodd"
        d="M7.32801 0.984308C9.98707 0.837602 12.1173 1.81677 13.7186 3.92181C15.1493 6.10081 15.3785 8.4029 14.4061 10.8281C13.2365 13.2467 11.3146 14.6268 8.64051 14.9687C5.98072 15.1307 3.85054 14.1567 2.24988 12.0468C0.819137 9.86775 0.589971 7.56565 1.56238 5.14056C2.73699 2.7215 4.65888 1.33608 7.32801 0.984308ZM7.89051 1.98431C10.4448 2.07048 12.2938 3.24756 13.4374 5.51556C14.0894 7.07581 14.1207 8.64871 13.5311 10.2343C12.6862 12.152 11.2435 13.3552 9.20301 13.8437C6.65791 14.2561 4.61104 13.4384 3.06238 11.3906C1.95993 9.70653 1.72034 7.90443 2.34363 5.98431C3.1185 3.96984 4.55079 2.69379 6.64051 2.15618C7.05766 2.06764 7.47432 2.01035 7.89051 1.98431Z"
        fill="white" />
    <path opacity="0.975" fill-rule="evenodd" clip-rule="evenodd"
        d="M7.79688 4.48436C8.10501 4.41717 8.32898 4.52133 8.46876 4.79686C8.47916 5.78645 8.4896 6.77601 8.50001 7.76561C9.12501 8.39061 9.75001 9.01561 10.375 9.64061C10.5704 10.0936 10.4245 10.3748 9.93751 10.4844C9.83176 10.4665 9.73279 10.43 9.64063 10.375C8.94791 9.68226 8.25523 8.98958 7.56251 8.29686C7.54166 8.2552 7.52085 8.21351 7.50001 8.17186C7.47916 7.04686 7.47916 5.92186 7.50001 4.79686C7.5632 4.65561 7.66216 4.55145 7.79688 4.48436Z"
        fill="white" />
</svg>