<svg width="64" height="64" viewBox="0 0 64 64" fill="none" xmlns="http://www.w3.org/2000/svg">
    <path opacity="0.93" fill-rule="evenodd" clip-rule="evenodd"
        d="M27.8125 5.56249C30.0213 5.54167 32.2295 5.56251 34.4375 5.62499C35.7136 5.89709 36.6095 6.62626 37.125 7.81249C37.2375 8.94408 37.3625 10.0691 37.5 11.1875C37.7164 11.4521 37.9873 11.6396 38.3125 11.75C39.4438 12.1283 40.5271 12.6075 41.5625 13.1875C43.8279 11.1097 46.0363 8.96392 48.1875 6.74999C50.2291 5.33333 52.2709 5.33333 54.3125 6.74999C55.125 7.56249 55.9375 8.37499 56.75 9.18749C58 11.1042 58 13.0209 56.75 14.9375C54.5156 17.1301 52.3281 19.3592 50.1875 21.625C50.8338 22.8552 51.3963 24.1261 51.875 25.4375C52.0153 25.703 52.2028 25.9321 52.4375 26.125C53.4279 26.2794 54.4279 26.3627 55.4375 26.375C56.7084 26.7291 57.5209 27.5416 57.875 28.8125C57.9584 31.2291 57.9584 33.6459 57.875 36.0625C57.5293 37.1997 56.8001 37.9706 55.6875 38.375C54.5989 38.4916 53.5155 38.6166 52.4375 38.75C52.2028 38.9429 52.0153 39.172 51.875 39.4375C51.5691 40.3826 51.1941 41.2992 50.75 42.1875C50.6479 42.6205 50.6896 43.0372 50.875 43.4375C51.7316 44.1266 52.3984 44.9599 52.875 45.9375C53.1763 47.0559 53.0096 48.0975 52.375 49.0625C50.8125 50.625 49.25 52.1875 47.6875 53.75C46.1443 54.587 44.6859 54.462 43.3125 53.375C42.7685 52.7037 42.1228 52.183 41.375 51.8125C40.2526 52.3422 39.1068 52.8215 37.9375 53.25C37.6593 53.4034 37.4718 53.6326 37.375 53.9375C37.3334 54.7709 37.2916 55.6041 37.25 56.4375C36.9639 57.8071 36.1514 58.703 34.8125 59.125C32.3959 59.2084 29.9791 59.2084 27.5625 59.125C26.3586 58.838 25.5461 58.1089 25.125 56.9375C25.0125 55.8059 24.8875 54.6809 24.75 53.5625C23.6316 52.9946 22.4859 52.4739 21.3125 52C20.9791 51.9166 20.6459 51.9166 20.3125 52C19.7251 52.6292 19.1001 53.2125 18.4375 53.75C16.8943 54.587 15.4359 54.462 14.0625 53.375C12.75 52.0625 11.4375 50.75 10.125 49.4375C8.977 47.9952 8.89368 46.4952 9.875 44.9375C10.6487 44.3111 11.2528 43.5611 11.6875 42.6875C11.1322 41.4519 10.6113 40.2019 10.125 38.9375C9.94758 38.8175 9.76008 38.7134 9.5625 38.625C8.72917 38.5834 7.89584 38.5416 7.0625 38.5C5.6379 38.2004 4.74208 37.3462 4.375 35.9375C4.29167 33.5625 4.29167 31.1875 4.375 28.8125C4.7741 27.5801 5.5866 26.7676 6.8125 26.375C7.82209 26.3627 8.82209 26.2794 9.8125 26.125C10.0473 25.9321 10.2348 25.703 10.375 25.4375C10.7952 24.3264 11.2327 23.2221 11.6875 22.125C11.625 21.9375 11.5625 21.75 11.5 21.5625C10.8877 20.9614 10.3043 20.3364 9.75 19.6875C8.9416 18.2557 9.02494 16.8807 10 15.5625C11.4375 14.125 12.875 12.6875 14.3125 11.25C15.7709 10.1667 17.2291 10.1667 18.6875 11.25C19.1875 11.75 19.6875 12.25 20.1875 12.75C20.3793 12.8654 20.5876 12.9279 20.8125 12.9375C22.0183 12.4599 23.2266 11.9807 24.4375 11.5C24.6311 11.3482 24.7769 11.1607 24.875 10.9375C24.9166 10.1458 24.9584 9.35416 25 8.56249C25.3208 6.97131 26.2583 5.97131 27.8125 5.56249ZM28.0625 7.68749C30.1046 7.66667 32.1463 7.68751 34.1875 7.74999C34.7785 7.92444 35.091 8.32028 35.125 8.93749C35.1666 9.77083 35.2084 10.6042 35.25 11.4375C35.5023 12.2557 35.9815 12.9016 36.6875 13.375C37.8011 13.7945 38.8845 14.2736 39.9375 14.8125C39.3959 15.4375 38.8125 16.0209 38.1875 16.5625C31.8591 14.0576 25.9425 14.7867 20.4375 18.75C14.3121 24.1451 12.4997 30.7494 15 38.5625C17.6575 44.7997 22.345 48.4455 29.0625 49.5C36.5759 50.108 42.305 47.2121 46.25 40.8125C48.2278 37.1126 48.8528 33.196 48.125 29.0625C47.7723 27.6124 47.3555 26.1957 46.875 24.8125C47.4166 24.2709 47.9584 23.7291 48.5 23.1875C49.1496 24.4036 49.733 25.6536 50.25 26.9375C50.7051 27.5722 51.3094 28.0097 52.0625 28.25C53.0561 28.3945 54.0561 28.4777 55.0625 28.5C55.375 28.6459 55.6041 28.875 55.75 29.1875C55.8334 31.3541 55.8334 33.5209 55.75 35.6875C55.5936 36.0476 55.3229 36.2767 54.9375 36.375C54.0625 36.4166 53.1875 36.4584 52.3125 36.5C51.3734 36.7297 50.6441 37.2505 50.125 38.0625C49.7155 39.2076 49.2573 40.3326 48.75 41.4375C48.3886 42.6476 48.5553 43.7726 49.25 44.8125C49.75 45.3125 50.25 45.8125 50.75 46.3125C51 46.7709 51 47.2291 50.75 47.6875C49.3125 49.125 47.875 50.5625 46.4375 52C45.8856 52.3545 45.3439 52.3127 44.8125 51.875C44.3125 51.375 43.8125 50.875 43.3125 50.375C42.4254 49.8495 41.467 49.6829 40.4375 49.875C39.2074 50.4239 37.9574 50.9239 36.6875 51.375C36.0694 51.7432 35.6319 52.264 35.375 52.9375C35.2459 54.0606 35.1209 55.1856 35 56.3125C34.8541 56.625 34.625 56.8541 34.3125 57C32.1459 57.0834 29.9791 57.0834 27.8125 57C27.4766 56.7656 27.2474 56.4531 27.125 56.0625C27.0834 55.1875 27.0416 54.3125 27 53.4375C26.7629 52.5339 26.242 51.8464 25.4375 51.375C24.2924 50.9655 23.1674 50.5072 22.0625 50C21.1305 49.7235 20.2139 49.7652 19.3125 50.125C18.53 50.657 17.8216 51.282 17.1875 52C16.778 52.2984 16.3614 52.3401 15.9375 52.125C14.4584 50.6459 12.9791 49.1666 11.5 47.6875C11.2113 47.0894 11.2946 46.5476 11.75 46.0625C12.25 45.5625 12.75 45.0625 13.25 44.5625C13.8551 43.5162 13.9385 42.4329 13.5 41.3125C13.0099 40.3007 12.5933 39.259 12.25 38.1875C11.7416 37.3465 11.0124 36.784 10.0625 36.5C9.05292 36.4877 8.05292 36.4044 7.0625 36.25C6.82772 36.0571 6.64022 35.828 6.5 35.5625C6.3785 33.3427 6.42017 31.1345 6.625 28.9375C6.77675 28.7439 6.96425 28.5981 7.1875 28.5C8.02084 28.4584 8.85417 28.4166 9.6875 28.375C10.8223 28.1554 11.6764 27.5512 12.25 26.5625C12.5933 25.491 13.0099 24.4492 13.5 23.4375C13.8129 22.3589 13.7295 21.3172 13.25 20.3125C12.7125 19.6499 12.1292 19.0249 11.5 18.4375C11.2651 18.0167 11.2651 17.6 11.5 17.1875C12.9791 15.7084 14.4584 14.2291 15.9375 12.75C16.3614 12.5349 16.778 12.5766 17.1875 12.875C17.7333 13.4626 18.3166 14.0042 18.9375 14.5C19.7478 15.0017 20.6228 15.1685 21.5625 15C22.8403 14.4654 24.132 13.9654 25.4375 13.5C26.0968 13.0907 26.576 12.5282 26.875 11.8125C27.03 10.7803 27.1134 9.73867 27.125 8.68749C27.2941 8.20623 27.6066 7.87289 28.0625 7.68749ZM50.6875 7.81249C51.5045 7.73062 52.2545 7.91812 52.9375 8.37499C53.754 9.14968 54.5249 9.96218 55.25 10.8125C55.6666 11.6458 55.6666 12.4792 55.25 13.3125C54.7523 13.9561 54.1898 14.5394 53.5625 15.0625C51.6914 13.3997 49.8996 11.6497 48.1875 9.81249C48.8459 8.90177 49.6791 8.23511 50.6875 7.81249ZM46.5625 11.3125C48.3499 13.0372 50.1206 14.7872 51.875 16.5625C51.9584 16.6459 51.9584 16.7291 51.875 16.8125C45.3334 23.2709 38.7916 29.7291 32.25 36.1875C30.5 34.4375 28.75 32.6875 27 30.9375C26.9166 30.8541 26.9166 30.7709 27 30.6875C33.5459 24.2457 40.0668 17.7874 46.5625 11.3125ZM30.1875 17.1875C32.3446 17.1234 34.4279 17.4776 36.4375 18.25C32.4584 22.2291 28.4791 26.2084 24.5 30.1875C23.607 33.426 22.7529 36.676 21.9375 39.9375C22.1048 40.8549 22.6465 41.2091 23.5625 41C26.7043 40.2666 29.8293 39.475 32.9375 38.625C37.0383 34.6494 41.1008 30.6285 45.125 26.5625C47.4576 33.2107 46.1034 38.9816 41.0625 43.875C36.8538 47.3226 32.1038 48.3644 26.8125 47C21.2781 45.1739 17.7573 41.4447 16.25 35.8125C15.0343 28.5792 17.5134 23.0167 23.6875 19.125C25.7383 18.0311 27.905 17.3852 30.1875 17.1875ZM25.8125 33.0625C26.0319 33.134 26.2403 33.2382 26.4375 33.375C27.6685 34.5851 28.8768 35.8142 30.0625 37.0625C28.2381 37.5602 26.4048 38.0186 24.5625 38.4375C24.9989 36.6501 25.4156 34.8585 25.8125 33.0625Z"
        fill="#2ec7f6" />
    <path opacity="0.919" fill-rule="evenodd" clip-rule="evenodd"
        d="M46.0623 15.8124C47.3827 15.7368 47.8202 16.32 47.3748 17.5624C42.816 21.9129 38.2951 26.3087 33.8123 30.7499C32.2915 31.229 31.7707 30.7083 32.2498 29.1874C36.879 24.7457 41.4831 20.2874 46.0623 15.8124Z"
        fill="#2ec7f6" />
</svg>