<svg width="64" height="64" viewBox="0 0 64 64" fill="none" xmlns="http://www.w3.org/2000/svg">
<path opacity="0.972" fill-rule="evenodd" clip-rule="evenodd" d="M2.4375 3.5625C22.1041 3.5625 41.7709 3.5625 61.4375 3.5625C61.4375 5.6875 61.4375 7.8125 61.4375 9.9375C41.7709 9.9375 22.1041 9.9375 2.4375 9.9375C2.4375 7.8125 2.4375 5.6875 2.4375 3.5625ZM6.0625 5.5625C10.6044 5.54166 15.146 5.5625 19.6875 5.625C20.4334 6.04905 20.6209 6.65322 20.25 7.4375C20.0982 7.6311 19.9107 7.77694 19.6875 7.875C15.1875 7.95834 10.6875 7.95834 6.1875 7.875C5.06588 7.16269 5.02421 6.39185 6.0625 5.5625Z" fill="#2ec7f6"/>
<path opacity="0.986" fill-rule="evenodd" clip-rule="evenodd" d="M2.4375 12.4375C22.1041 12.4375 41.7709 12.4375 61.4375 12.4375C61.4375 24.6875 61.4375 36.9375 61.4375 49.1875C57.8115 49.2291 54.1865 49.1875 50.5625 49.0625C52.6305 41.3544 50.8805 34.6669 45.3125 29C39.0713 23.6021 32.0713 22.3521 24.3125 25.25C17.8431 28.2625 13.9473 33.2832 12.625 40.3125C12.2169 43.3229 12.4461 46.2812 13.3125 49.1875C9.6875 49.1875 6.0625 49.1875 2.4375 49.1875C2.4375 36.9375 2.4375 24.6875 2.4375 12.4375ZM6.6875 15.9375C9.93776 15.9166 13.1877 15.9375 16.4375 16C17.541 16.687 17.5826 17.437 16.5625 18.25C13.2709 18.3334 9.97916 18.3334 6.6875 18.25C5.69567 17.4798 5.69567 16.7089 6.6875 15.9375ZM47.4375 15.9375C50.6878 15.9166 53.9378 15.9375 57.1875 16C58.1875 16.75 58.1875 17.5 57.1875 18.25C53.9375 18.3334 50.6875 18.3334 47.4375 18.25C46.281 17.4868 46.281 16.716 47.4375 15.9375ZM7.0625 21.0625C8.85465 21.0416 10.6463 21.0625 12.4375 21.125C13.3158 21.3597 13.6283 21.9222 13.375 22.8125C13.2186 23.1726 12.9479 23.4017 12.5625 23.5C10.6875 23.5834 8.8125 23.5834 6.9375 23.5C6.03641 23.1771 5.76559 22.5729 6.125 21.6875C6.39624 21.3971 6.70874 21.1888 7.0625 21.0625ZM51.4375 21.0625C53.2296 21.0416 55.0214 21.0625 56.8125 21.125C57.6668 21.3118 58.021 21.8325 57.875 22.6875C57.6766 23.0945 57.3641 23.3654 56.9375 23.5C55.0625 23.5834 53.1875 23.5834 51.3125 23.5C50.4398 23.0984 50.2106 22.4525 50.625 21.5625C50.8766 21.344 51.1475 21.1772 51.4375 21.0625Z" fill="#2ec7f6"/>
<path opacity="0.973" fill-rule="evenodd" clip-rule="evenodd" d="M29.9374 26.1875C32.7173 25.9777 35.4257 26.311 38.0624 27.1875C37.1894 29.0373 36.231 30.8498 35.1874 32.625C29.8359 31.4377 25.6067 33.0836 22.4999 37.5625C20.1734 41.958 20.465 46.1663 23.3749 50.1875C26.0393 53.2378 29.3935 54.5712 33.4374 54.1875C34.0208 56.1458 34.604 58.1041 35.1874 60.0625C27.5235 61.1007 21.5443 58.434 17.2499 52.0625C14.311 46.7685 14.061 41.3518 16.4999 35.8125C19.3582 30.3512 23.8373 27.143 29.9374 26.1875Z" fill="#2ec7f6"/>
<path opacity="0.954" fill-rule="evenodd" clip-rule="evenodd" d="M40.3126 28.3125C43.278 29.9654 45.5488 32.2987 47.1251 35.3125C47.2106 35.473 47.1897 35.6189 47.0626 35.75C45.2406 36.3713 43.4281 37.017 41.6251 37.6875C40.7883 36.5996 39.8508 35.5789 38.8126 34.625C38.4172 34.323 38.0006 34.0522 37.5626 33.8125C37.4272 33.7044 37.4065 33.5794 37.5001 33.4375C38.4391 31.7257 39.3766 30.0175 40.3126 28.3125Z" fill="#2ec7f6"/>
<path opacity="0.983" fill-rule="evenodd" clip-rule="evenodd" d="M30.5625 34.6875C35.6823 34.3731 38.953 36.6649 40.375 41.5625C40.9259 45.7731 39.3634 48.919 35.6875 51C31.3883 52.6701 27.7842 51.7326 24.875 48.1875C22.7362 44.7157 22.8195 41.2991 25.125 37.9375C26.5547 36.1922 28.3672 35.109 30.5625 34.6875Z" fill="#2ec7f6"/>
<path opacity="0.969" fill-rule="evenodd" clip-rule="evenodd" d="M47.8125 37.9375C47.9777 37.9163 48.1236 37.9579 48.25 38.0625C50.1573 45.2475 48.3865 51.3516 42.9375 56.375C41.5364 57.5136 39.9948 58.4304 38.3125 59.125C38.0691 59.2489 37.8191 59.2906 37.5625 59.25C36.8708 57.3838 36.3083 55.488 35.875 53.5625C40.8506 51.292 43.1839 47.417 42.875 41.9375C42.8006 41.2944 42.6547 40.6694 42.4375 40.0625C44.2275 39.3274 46.0191 38.6191 47.8125 37.9375Z" fill="#2ec7f6"/>
</svg>
