<svg width="64" height="64" viewBox="0 0 64 64" fill="none" xmlns="http://www.w3.org/2000/svg">
    <g clip-path="url(#clip0_278_287)">
        <path opacity="0.948" fill-rule="evenodd" clip-rule="evenodd"
            d="M45.4375 -0.0625C50.8542 -0.0625 56.2709 -0.0625 61.6875 -0.0625C62.8334 0.416564 63.5834 1.2499 63.9375 2.4375C63.9375 5.60416 63.9375 8.77084 63.9375 11.9375C63.584 13.2284 62.7508 14.0409 61.4375 14.375C60.2709 14.4166 59.1042 14.4584 57.9375 14.5C54.6459 16.5625 51.3542 18.625 48.0625 20.6875C48.0209 20.6041 47.9792 20.5209 47.9375 20.4375C48.3252 18.4451 48.6585 16.4451 48.9375 14.4375C47.6775 14.4904 46.4275 14.4279 45.1875 14.25C44.185 13.8311 43.5392 13.102 43.25 12.0625C43.1667 8.77084 43.1667 5.47916 43.25 2.1875C43.5854 1.03975 44.3147 0.28975 45.4375 -0.0625ZM46.0625 2.0625C51.0627 2.04166 56.0627 2.0625 61.0625 2.125C61.2414 2.18315 61.3872 2.28732 61.5 2.4375C61.6437 4.0094 61.7062 5.59272 61.6875 7.1875C61.6667 8.6875 61.6459 10.1875 61.625 11.6875C61.4577 12.0118 61.1868 12.1993 60.8125 12.25C59.6042 12.2917 58.3959 12.3333 57.1875 12.375C55.1459 13.6459 53.1042 14.9166 51.0625 16.1875C51.0209 16.125 50.9792 16.0625 50.9375 16C51.1798 14.7759 51.388 13.5468 51.5625 12.3125C49.7704 12.3333 47.9787 12.3125 46.1875 12.25C45.894 12.2068 45.6649 12.0609 45.5 11.8125C45.2954 8.82039 45.2538 5.82039 45.375 2.8125C45.545 2.49717 45.7742 2.24717 46.0625 2.0625Z"
            fill="#2ec7f6" />
        <path opacity="0.93" fill-rule="evenodd" clip-rule="evenodd"
            d="M-0.0625 23.3124C-0.0625 23.229 -0.0625 23.1458 -0.0625 23.0624C0.554541 22.7592 1.15871 22.4258 1.75 22.0624C2.42561 23.0374 3.07145 24.0374 3.6875 25.0624C6.93103 13.7147 14.2644 6.56883 25.6875 3.62491C30.6499 2.60733 35.5665 2.79483 40.4375 4.1874C40.3221 4.90839 40.1555 5.61672 39.9375 6.3124C30.0435 3.67182 21.2519 5.69266 13.5625 12.3749C9.92819 15.8707 7.42819 20.0582 6.0625 24.9374C6.10416 25.0208 6.14584 25.104 6.1875 25.1874C6.95871 24.6975 7.75039 24.2392 8.5625 23.8124C9.11469 24.3393 9.46885 24.9643 9.625 25.6874C7.65626 26.9114 5.67709 28.1198 3.6875 29.3124C2.43614 27.3089 1.18614 25.3089 -0.0625 23.3124Z"
            fill="#2ec7f6" />
        <path opacity="0.963" fill-rule="evenodd" clip-rule="evenodd"
            d="M47.3125 4.0625C51.4791 4.0625 55.6459 4.0625 59.8125 4.0625C59.8125 4.77084 59.8125 5.47916 59.8125 6.1875C55.6459 6.1875 51.4791 6.1875 47.3125 6.1875C47.3125 5.47916 47.3125 4.77084 47.3125 4.0625Z"
            fill="#2ec7f6" />
        <path opacity="0.958" fill-rule="evenodd" clip-rule="evenodd"
            d="M47.3125 8.1875C50.1041 8.1875 52.8959 8.1875 55.6875 8.1875C55.6875 8.89584 55.6875 9.60416 55.6875 10.3125C52.8959 10.3125 50.1041 10.3125 47.3125 10.3125C47.3125 9.60416 47.3125 8.89584 47.3125 8.1875Z"
            fill="#2ec7f6" />
        <path opacity="0.892" fill-rule="evenodd" clip-rule="evenodd"
            d="M57.5625 8.1875C58.3125 8.1875 59.0625 8.1875 59.8125 8.1875C59.8125 8.89584 59.8125 9.60416 59.8125 10.3125C59.0625 10.3125 58.3125 10.3125 57.5625 10.3125C57.5625 9.60416 57.5625 8.89584 57.5625 8.1875Z"
            fill="#2ec7f6" />
        <path opacity="0.941" fill-rule="evenodd" clip-rule="evenodd"
            d="M22.5625 63.9374C21.6459 63.9374 20.7291 63.9374 19.8125 63.9374C18.688 63.6655 17.6464 63.1863 16.6875 62.4999C11.625 57.4374 6.5625 52.3749 1.5 47.3124C0.670609 46.1751 0.149775 44.9251 -0.0625 43.5624C-0.0625 43.0208 -0.0625 42.479 -0.0625 41.9374C0.150436 40.5721 0.67127 39.3221 1.5 38.1874C3.25 36.4374 5 34.6874 6.75 32.9374C9.33508 35.5016 11.8976 38.0849 14.4375 40.6874C13.0642 42.1231 11.6685 43.5398 10.25 44.9374C10 45.3124 10 45.6874 10.25 46.0624C11.4167 47.229 12.5834 48.3958 13.75 49.5624C14.4941 46.6104 16.3066 44.6729 19.1875 43.7499C21.6794 43.2556 24.1794 42.8181 26.6875 42.4374C26.7071 42.2658 26.6863 42.099 26.625 41.9374C23.9655 40.3294 22.3197 37.996 21.6875 34.9374C20.0054 34.6099 18.9429 33.6099 18.5 31.9374C18.4166 28.604 18.4166 25.2708 18.5 21.9374C19.6443 15.5849 23.3734 11.7307 29.6875 10.3749C36.3978 9.67695 41.2519 12.3228 44.25 18.3124C44.7785 19.5099 45.1119 20.7599 45.25 22.0624C45.3334 26.979 45.3334 31.8958 45.25 36.8124C44.969 37.8024 44.3649 38.5315 43.4375 38.9999C42.3618 39.1511 41.2784 39.2345 40.1875 39.2499C39.3058 40.3051 38.2849 41.201 37.125 41.9374C37.0638 42.099 37.0429 42.2658 37.0625 42.4374C39.5706 42.8181 42.0706 43.2556 44.5625 43.7499C46.8274 44.3899 48.4315 45.7858 49.375 47.9374C50.2169 50.4836 51.071 53.0254 51.9375 55.5624C44.6045 55.6665 37.2712 55.729 29.9375 55.7499C30.375 56.1874 30.8125 56.6249 31.25 57.0624C31.3334 57.1874 31.3334 57.3124 31.25 57.4374C29.3959 59.1249 27.5416 60.8124 25.6875 62.4999C24.7292 63.1878 23.6876 63.6669 22.5625 63.9374ZM30.3125 12.4374C35.538 12.0808 39.4338 14.1641 42 18.6874C43.1343 21.4154 43.4884 24.2486 43.0625 27.1874C42.7948 27.0498 42.524 26.9248 42.25 26.8124C42.1878 26.4396 42.1669 26.0646 42.1875 25.6874C39.346 25.8521 36.7627 25.123 34.4375 23.4999C33.5819 22.7274 32.7277 21.9566 31.875 21.1874C30.9342 22.0865 29.9551 22.9406 28.9375 23.7499C26.6541 25.2166 24.1541 25.8624 21.4375 25.6874C21.4375 26.104 21.4375 26.5208 21.4375 26.9374C21.1654 26.9481 20.9154 27.0315 20.6875 27.1874C19.8802 22.633 21.0469 18.6955 24.1875 15.3749C25.978 13.8545 28.0198 12.8753 30.3125 12.4374ZM31.8125 24.1874C34.1305 26.3456 36.8805 27.554 40.0625 27.8124C40.0834 29.8545 40.0625 31.8961 40 33.9374C39.8666 35.0041 39.5332 36.0041 39 36.9374C36.6138 37.0615 34.2179 37.1031 31.8125 37.0624C31.8125 37.7708 31.8125 38.479 31.8125 39.1874C33.563 39.1665 35.313 39.1874 37.0625 39.2499C33.8223 41.6816 30.4889 41.8066 27.0625 39.6249C25.2378 38.2054 24.1336 36.3511 23.75 34.0624C23.6875 31.9795 23.6666 29.8961 23.6875 27.8124C26.8535 27.5826 29.5619 26.3744 31.8125 24.1874ZM21.3125 29.3124C21.4571 30.3319 21.4779 31.3736 21.375 32.4374C20.3229 31.4168 20.302 30.3751 21.3125 29.3124ZM42.1875 29.3124C42.4214 29.3573 42.6089 29.4823 42.75 29.6874C43.4024 30.7865 43.2357 31.7449 42.25 32.5624C42.1875 31.4799 42.1668 30.3965 42.1875 29.3124ZM43.0625 34.5624C43.2393 35.2206 43.2185 35.8873 43 36.5624C42.5701 37.0463 42.0493 37.1713 41.4375 36.9374C41.7035 36.3319 41.9118 35.7069 42.0625 35.0624C42.4378 34.9581 42.771 34.7915 43.0625 34.5624ZM6.6875 36.0624C8.22481 37.5371 9.74564 39.0371 11.25 40.5624C11.0741 40.993 10.7824 41.368 10.375 41.6874C8.875 40.1874 7.375 38.6874 5.875 37.1874C5.79166 37.104 5.79166 37.0208 5.875 36.9374C6.17153 36.662 6.44236 36.3703 6.6875 36.0624ZM4.0625 38.6874C5.59981 40.1621 7.12064 41.6621 8.625 43.1874C8.43755 43.6343 8.22921 44.0926 8 44.5624C7.79836 45.5961 7.96502 46.5545 8.5 47.4374C11.1875 50.1249 13.875 52.8124 16.5625 55.4999C17.9955 56.3251 19.3498 56.221 20.625 55.1874C22.125 56.6874 23.625 58.1874 25.125 59.6874C24.9704 60.0969 24.6996 60.451 24.3125 60.7499C22.2285 62.1664 20.1451 62.1664 18.0625 60.7499C13.125 55.8124 8.1875 50.8749 3.25 45.9374C1.60948 43.3031 1.88031 40.8865 4.0625 38.6874ZM29.1875 43.0624C30.9791 43.3958 32.7709 43.3958 34.5625 43.0624C33.692 43.9955 32.7961 44.9121 31.875 45.8124C30.9539 44.9121 30.058 43.9955 29.1875 43.0624ZM27.1875 44.4374C28.7266 45.9348 30.2682 47.4348 31.8125 48.9374C33.3524 47.46 34.8732 45.96 36.375 44.4374C39.1525 44.9513 41.9234 45.5138 44.6875 46.1249C45.6789 46.568 46.4497 47.2555 47 48.1874C47.6956 49.9411 48.3415 51.712 48.9375 53.4999C41.8541 53.5833 34.7709 53.5833 27.6875 53.4999C26.3699 52.1404 25.0156 50.8279 23.625 49.5624C22.1056 50.9149 20.5847 52.2691 19.0625 53.6249C18.7463 53.8026 18.4129 53.8443 18.0625 53.7499C17.1443 52.9984 16.311 52.165 15.5625 51.2499C15.8853 49.8621 16.4478 48.5913 17.25 47.4374C17.9769 46.7093 18.831 46.1885 19.8125 45.8749C22.2925 45.4204 24.7509 44.9411 27.1875 44.4374ZM23.4375 52.5624C25.0726 54.0095 26.6559 55.5304 28.1875 57.1249C27.7916 57.5208 27.3959 57.9165 27 58.3124C25.5 56.8124 24 55.3124 22.5 53.8124C22.4166 53.729 22.4166 53.6458 22.5 53.5624C22.8381 53.2454 23.1506 52.912 23.4375 52.5624Z"
            fill="#2ec7f6" />
        <path opacity="0.929" fill-rule="evenodd" clip-rule="evenodd"
            d="M57.1875 19.0625C59.3054 20.2467 61.3886 21.4967 63.4375 22.8125C63.1305 23.4721 62.7346 24.0555 62.25 24.5625C61.302 24.0726 60.3854 23.531 59.5 22.9375C62.0059 31.5569 60.9643 39.7235 56.375 47.4375C55.7773 48.426 55.0898 49.3428 54.3125 50.1875C53.731 49.7724 53.1894 49.3141 52.6875 48.8125C58.5087 41.1425 60.0296 32.6841 57.25 23.4375C56.7066 24.4425 56.1024 25.4009 55.4375 26.3125C54.7779 26.0055 54.1945 25.6096 53.6875 25.125C54.884 23.1172 56.0506 21.0965 57.1875 19.0625Z"
            fill="#2ec7f6" />
    </g>
    <defs>
        <clipPath id="clip0_278_287">
            <rect width="64" height="64" fill="white" />
        </clipPath>
    </defs>
</svg>