<svg width="64" height="64" viewBox="0 0 64 64" fill="none" xmlns="http://www.w3.org/2000/svg">
<g clip-path="url(#clip0_1124_690)">
<path opacity="0.983" fill-rule="evenodd" clip-rule="evenodd" d="M26.4375 -0.0625C34.7709 -0.0625 43.1041 -0.0625 51.4375 -0.0625C51.4166 2.8128 51.4375 5.6878 51.5 8.5625C51.9095 10.0138 52.847 10.9096 54.3125 11.25C57.1455 11.3125 59.9789 11.3333 62.8125 11.3125C62.8334 24.1876 62.8125 37.0626 62.75 49.9375C62.4619 51.1425 61.7327 51.955 60.5625 52.375C58.236 52.556 55.9028 52.6185 53.5625 52.5625C53.6244 40.1356 53.5619 27.719 53.375 15.3125C49.434 11.3298 45.4549 7.39232 41.4375 3.5C35.6044 3.4375 29.771 3.41666 23.9375 3.4375C23.9492 1.67679 24.7826 0.510115 26.4375 -0.0625Z" fill="#2ec7f6"/>
<path opacity="0.932" fill-rule="evenodd" clip-rule="evenodd" d="M53.5625 1.5625C56.1786 3.97012 58.7203 6.47013 61.1875 9.0625C60.1041 9.10416 59.0209 9.14584 57.9375 9.1875C56.6805 9.20189 55.4305 9.13939 54.1875 9C53.8988 8.79532 53.7113 8.5245 53.625 8.1875C53.5625 5.97956 53.5416 3.77122 53.5625 1.5625Z" fill="#2ec7f6"/>
<path opacity="0.979" fill-rule="evenodd" clip-rule="evenodd" d="M15.5625 5.5625C23.6875 5.5625 31.8125 5.5625 39.9375 5.5625C39.9166 8.22949 39.9375 10.8962 40 13.5625C40.1664 15.5422 41.2289 16.6881 43.1875 17C45.9371 17.0625 48.6871 17.0834 51.4375 17.0625C51.4584 29.8542 51.4375 42.6459 51.375 55.4375C51.0854 56.8104 50.2729 57.7061 48.9375 58.125C46.6934 58.3039 44.4434 58.3664 42.1875 58.3125C42.2084 46.0208 42.1875 33.7291 42.125 21.4375C42.0416 21.2709 41.9584 21.1041 41.875 20.9375C37.9757 16.9965 34.0382 13.1006 30.0625 9.25C24.1876 9.1875 18.3126 9.16666 12.4375 9.1875C12.5501 7.15934 13.5918 5.951 15.5625 5.5625Z" fill="#2ec7f6"/>
<path opacity="0.955" fill-rule="evenodd" clip-rule="evenodd" d="M42.1875 7.1875C44.7456 9.68313 47.2874 12.204 49.8125 14.75C47.4791 14.8334 45.1459 14.8334 42.8125 14.75C42.5834 14.6041 42.3959 14.4166 42.25 14.1875C42.1875 11.8545 42.1666 9.5212 42.1875 7.1875Z" fill="#2ec7f6"/>
<path opacity="0.986" fill-rule="evenodd" clip-rule="evenodd" d="M37.4375 63.9375C26.1459 63.9375 14.8541 63.9375 3.56251 63.9375C2.30174 63.4889 1.48924 62.6139 1.12501 61.3125C1.00069 45.3889 1.04236 29.4723 1.25001 13.5625C1.73726 12.4114 2.59142 11.6822 3.81251 11.375C12.0624 11.3125 20.3124 11.2917 28.5625 11.3125C28.5416 14.1878 28.5625 17.0628 28.625 19.9375C28.9304 21.3635 29.7845 22.2593 31.1875 22.625C34.1039 22.6875 37.0205 22.7084 39.9375 22.6875C39.9584 35.6043 39.9375 48.5209 39.875 61.4375C39.4561 62.6688 38.6436 63.5021 37.4375 63.9375ZM4.56251 27.4375C6.06251 27.4375 7.56251 27.4375 9.06251 27.4375C9.06251 28.1459 9.06251 28.8541 9.06251 29.5625C7.56251 29.5625 6.06251 29.5625 4.56251 29.5625C4.56251 28.8541 4.56251 28.1459 4.56251 27.4375ZM11.4375 27.4375C12.1458 27.4375 12.8541 27.4375 13.5625 27.4375C13.5625 28.1459 13.5625 28.8541 13.5625 29.5625C12.8541 29.5625 12.1458 29.5625 11.4375 29.5625C11.4375 28.8541 11.4375 28.1459 11.4375 27.4375ZM15.9375 27.4375C22.7709 27.4375 29.6041 27.4375 36.4375 27.4375C36.4375 28.1459 36.4375 28.8541 36.4375 29.5625C29.6041 29.5625 22.7709 29.5625 15.9375 29.5625C15.9375 28.8541 15.9375 28.1459 15.9375 27.4375ZM4.56251 34.3125C9.10417 34.3125 13.6459 34.3125 18.1875 34.3125C18.1875 35.0209 18.1875 35.7291 18.1875 36.4375C13.6459 36.4375 9.10417 36.4375 4.56251 36.4375C4.56251 35.7291 4.56251 35.0209 4.56251 34.3125ZM20.5625 34.3125C22.0625 34.3125 23.5625 34.3125 25.0625 34.3125C25.0625 35.0209 25.0625 35.7291 25.0625 36.4375C23.5625 36.4375 22.0625 36.4375 20.5625 36.4375C20.5625 35.7291 20.5625 35.0209 20.5625 34.3125ZM27.4375 34.3125C30.4375 34.3125 33.4375 34.3125 36.4375 34.3125C36.4375 35.0209 36.4375 35.7291 36.4375 36.4375C33.4375 36.4375 30.4375 36.4375 27.4375 36.4375C27.4375 35.7291 27.4375 35.0209 27.4375 34.3125ZM4.56251 41.1875C7.56251 41.1875 10.5625 41.1875 13.5625 41.1875C13.5625 41.8959 13.5625 42.6041 13.5625 43.3125C10.5625 43.3125 7.56251 43.3125 4.56251 43.3125C4.56251 42.6041 4.56251 41.8959 4.56251 41.1875ZM15.9375 41.1875C18.9791 41.1875 22.0209 41.1875 25.0625 41.1875C25.0625 41.8959 25.0625 42.6041 25.0625 43.3125C22.0209 43.3125 18.9791 43.3125 15.9375 43.3125C15.9375 42.6041 15.9375 41.8959 15.9375 41.1875ZM27.4375 41.1875C28.1459 41.1875 28.8541 41.1875 29.5625 41.1875C29.5625 41.8959 29.5625 42.6041 29.5625 43.3125C28.8541 43.3125 28.1459 43.3125 27.4375 43.3125C27.4375 42.6041 27.4375 41.8959 27.4375 41.1875ZM31.9375 41.1875C33.4375 41.1875 34.9375 41.1875 36.4375 41.1875C36.4375 41.8959 36.4375 42.6041 36.4375 43.3125C34.9375 43.3125 33.4375 43.3125 31.9375 43.3125C31.9375 42.6041 31.9375 41.8959 31.9375 41.1875ZM4.56251 47.9375C9.10417 47.9375 13.6459 47.9375 18.1875 47.9375C18.1875 48.6875 18.1875 49.4375 18.1875 50.1875C13.6459 50.1875 9.10417 50.1875 4.56251 50.1875C4.56251 49.4375 4.56251 48.6875 4.56251 47.9375ZM20.5625 47.9375C22.8125 47.9375 25.0625 47.9375 27.3125 47.9375C27.3125 48.6875 27.3125 49.4375 27.3125 50.1875C25.0625 50.1875 22.8125 50.1875 20.5625 50.1875C20.5625 49.4375 20.5625 48.6875 20.5625 47.9375ZM29.6875 47.9375C31.9375 47.9375 34.1875 47.9375 36.4375 47.9375C36.4375 48.6875 36.4375 49.4375 36.4375 50.1875C34.1875 50.1875 31.9375 50.1875 29.6875 50.1875C29.6875 49.4375 29.6875 48.6875 29.6875 47.9375ZM4.56251 54.8125C7.56251 54.8125 10.5625 54.8125 13.5625 54.8125C13.5625 55.5625 13.5625 56.3125 13.5625 57.0625C10.5625 57.0625 7.56251 57.0625 4.56251 57.0625C4.56251 56.3125 4.56251 55.5625 4.56251 54.8125ZM15.9375 54.8125C18.9791 54.8125 22.0209 54.8125 25.0625 54.8125C25.0625 55.5625 25.0625 56.3125 25.0625 57.0625C22.0209 57.0625 18.9791 57.0625 15.9375 57.0625C15.9375 56.3125 15.9375 55.5625 15.9375 54.8125ZM27.4375 54.8125C28.1459 54.8125 28.8541 54.8125 29.5625 54.8125C29.5625 55.5625 29.5625 56.3125 29.5625 57.0625C28.8541 57.0625 28.1459 57.0625 27.4375 57.0625C27.4375 56.3125 27.4375 55.5625 27.4375 54.8125ZM31.9375 54.8125C33.4375 54.8125 34.9375 54.8125 36.4375 54.8125C36.4375 55.5625 36.4375 56.3125 36.4375 57.0625C34.9375 57.0625 33.4375 57.0625 31.9375 57.0625C31.9375 56.3125 31.9375 55.5625 31.9375 54.8125Z" fill="#2ec7f6"/>
<path opacity="0.93" fill-rule="evenodd" clip-rule="evenodd" d="M30.6875 12.9375C33.3036 15.3451 35.8453 17.8451 38.3125 20.4375C36.0636 20.5833 33.8136 20.6041 31.5625 20.5C31.0743 20.3784 30.8034 20.0659 30.75 19.5625C30.6875 17.3545 30.6666 15.1463 30.6875 12.9375Z" fill="#2ec7f6"/>
</g>
<defs>
<clipPath id="clip0_1124_690">
<rect width="64" height="64" fill="white"/>
</clipPath>
</defs>
</svg>
