<svg width="16" height="16" viewBox="0 0 16 16" fill="none" xmlns="http://www.w3.org/2000/svg">
    <g clip-path="url(#clip0_124_342)">
        <path opacity="0.946" fill-rule="evenodd" clip-rule="evenodd"
            d="M7.26562 -0.015625C7.72397 -0.015625 8.18228 -0.015625 8.64062 -0.015625C11.5214 0.319419 13.6725 1.7465 15.0938 4.26562C15.5785 5.22466 15.8754 6.23506 15.9844 7.29688C15.9844 7.75522 15.9844 8.21353 15.9844 8.67188C15.76 10.8238 14.8433 12.6207 13.2344 14.0625C13.1044 14.164 12.969 14.2577 12.8281 14.3438C12.4747 14.3408 12.3549 14.1689 12.4688 13.8281C14.5727 12.0983 15.5102 9.86919 15.2812 7.14062C15.1807 7.39778 15.0192 7.61131 14.7969 7.78125C14.5921 7.87156 14.4306 7.82469 14.3125 7.64062C14.1624 7.22153 14.0062 6.80487 13.8438 6.39062C13.7135 6.23959 13.5833 6.08853 13.4531 5.9375C13.3845 5.89459 13.3116 5.88419 13.2344 5.90625C13.3176 6.03813 13.3124 6.16834 13.2188 6.29688C12.7342 6.77637 12.1665 7.12531 11.5156 7.34375C11.3404 7.39319 11.1998 7.34631 11.0938 7.20312C10.8125 6.66147 10.5312 6.11978 10.25 5.57812C10.2396 5.47397 10.2292 5.36978 10.2188 5.26562C10.0885 5.13541 9.95834 5.00522 9.82812 4.875C9.63816 4.80822 9.45066 4.73528 9.26562 4.65625C9.09897 4.47916 9.09897 4.30209 9.26562 4.125C9.41059 4.06462 9.55644 4.06462 9.70312 4.125C9.88525 4.18572 10.0623 4.25863 10.2344 4.34375C10.4375 4.54688 10.6406 4.75 10.8438 4.95312C10.882 5.10581 10.9028 5.26206 10.9062 5.42188C11.1095 5.82866 11.3283 6.22447 11.5625 6.60938C11.9097 6.47753 12.2222 6.29003 12.5 6.04688C12.4657 5.93769 12.4397 5.82309 12.4219 5.70312C12.4313 5.43966 12.5667 5.28862 12.8281 5.25C13.1907 5.19322 13.5344 5.24528 13.8594 5.40625C14.0638 5.621 14.2565 5.84497 14.4375 6.07812C14.527 6.29444 14.6103 6.51319 14.6875 6.73438C14.7171 6.46647 14.8421 6.25812 15.0625 6.10938C14.5505 4.18041 13.4411 2.69605 11.7344 1.65625C10.7862 1.10057 9.76531 0.777656 8.67188 0.6875C8.37122 1.08197 8.05872 1.46739 7.73438 1.84375C7.03884 2.09991 6.34091 2.34991 5.64062 2.59375C5.48438 2.95833 5.32812 3.32291 5.17188 3.6875C5.31087 3.89944 5.46191 4.10256 5.625 4.29688C6.02491 3.76422 6.55094 3.57153 7.20312 3.71875C7.36978 3.89584 7.36978 4.07291 7.20312 4.25C6.98778 4.30706 6.76903 4.34872 6.54688 4.375C6.34469 4.45741 6.19884 4.59803 6.10938 4.79688C6.44137 4.79997 6.77472 4.80516 7.10938 4.8125C7.48772 4.85756 7.68044 5.07109 7.6875 5.45312C7.79166 5.51562 7.89584 5.57812 8 5.64062C8.13072 5.46581 8.30778 5.37206 8.53125 5.35938C8.93863 5.43962 9.32925 5.56981 9.70312 5.75C9.81275 5.84922 9.91172 5.95859 10 6.07812C10.2249 6.62166 10.4749 7.15291 10.75 7.67188C10.7969 7.71875 10.8438 7.76562 10.8906 7.8125C11.0765 7.86084 11.264 7.90253 11.4531 7.9375C11.7919 8.05778 11.9117 8.29216 11.8125 8.64062C11.7683 8.73941 11.7163 8.83316 11.6562 8.92188C11.3968 9.21262 11.126 9.49387 10.8438 9.76562C10.7111 9.91853 10.6695 10.0956 10.7188 10.2969C10.9173 10.8364 10.7923 11.2843 10.3438 11.6406C10.2429 11.9363 10.0867 12.1967 9.875 12.4219C9.74153 12.9931 9.40297 13.3941 8.85938 13.625C8.58525 13.7465 8.32484 13.7257 8.07812 13.5625C7.94169 13.42 7.83231 13.2585 7.75 13.0781C7.54341 12.5712 7.3455 12.0608 7.15625 11.5469C7.14353 11.4474 7.12791 11.3485 7.10938 11.25C7.14988 10.989 7.21238 10.7338 7.29688 10.4844C7.28019 10.3634 7.24375 10.2488 7.1875 10.1406C6.90184 9.88309 6.77166 9.56019 6.79688 9.17188C6.744 9.12597 6.6815 9.10516 6.60938 9.10938C5.98975 9.30728 5.396 9.25 4.82812 8.9375C4.13956 8.40316 3.90519 7.71044 4.125 6.85938C4.17531 6.70841 4.23781 6.56259 4.3125 6.42188C4.67338 5.98816 5.02231 5.54544 5.35938 5.09375C5.06909 4.69547 4.78263 4.29441 4.5 3.89062C4.47916 3.78647 4.47916 3.68228 4.5 3.57812C4.69791 3.10938 4.89584 2.64062 5.09375 2.17188C5.15125 2.08825 5.22937 2.03096 5.32812 2C5.99813 1.77434 6.66478 1.53996 7.32812 1.29688C7.49478 1.08854 7.66147 0.880209 7.82812 0.671875C6.19866 0.688969 4.74031 1.19418 3.45312 2.1875C4.14066 2.71884 4.28128 3.36987 3.875 4.14062C3.73022 4.31672 3.57397 4.48338 3.40625 4.64062C3.125 5.14062 2.84375 5.64062 2.5625 6.14062C2.35876 6.30284 2.15564 6.46431 1.95312 6.625C2.09483 6.81966 2.22504 7.02278 2.34375 7.23438C2.39188 7.51822 2.27209 7.66928 1.98438 7.6875C1.65674 7.74025 1.32862 7.78713 1 7.82812C0.858194 7.81453 0.743613 7.75203 0.65625 7.64062C0.640634 7.89041 0.635425 8.14041 0.640625 8.39062C0.904947 8.32859 1.16536 8.25047 1.42188 8.15625C1.48438 8.13541 1.54688 8.13541 1.60938 8.15625C2.09967 8.49516 2.57884 8.84934 3.04688 9.21875C3.35884 9.29163 3.67134 9.36453 3.98438 9.4375C4.497 9.73422 4.67409 10.1717 4.51562 10.75C4.56244 10.9321 4.60931 11.1144 4.65625 11.2969C4.71444 11.8886 4.45922 12.2741 3.89062 12.4531C3.781 12.9074 3.68725 13.3658 3.60938 13.8281C3.61978 13.8594 3.63022 13.8906 3.64062 13.9219C5.45353 15.2188 7.45353 15.6303 9.64062 15.1562C10.0146 15.0593 10.3844 14.95 10.75 14.8281C10.9995 14.8903 11.0933 15.0465 11.0312 15.2969C10.9948 15.375 10.9375 15.4323 10.8594 15.4688C10.1581 15.7308 9.43931 15.9026 8.70312 15.9844C8.23438 15.9844 7.76562 15.9844 7.29688 15.9844C4.43069 15.6377 2.29005 14.2107 0.875 11.7031C0.396797 10.7533 0.0999216 9.75325 -0.015625 8.70312C-0.015625 8.24478 -0.015625 7.78647 -0.015625 7.32812C0.379241 4.06381 2.08757 1.78776 5.10938 0.5C5.81063 0.238025 6.52938 0.0661497 7.26562 -0.015625ZM2.89062 2.67188C3.23209 2.77933 3.41959 3.0137 3.45312 3.375C3.43991 3.47716 3.41388 3.57612 3.375 3.67188C3.20963 3.88937 3.03255 4.09772 2.84375 4.29688C2.58333 4.75522 2.32292 5.21353 2.0625 5.67188C1.78125 5.89062 1.5 6.10938 1.21875 6.32812C1.15985 6.40356 1.13901 6.48691 1.15625 6.57812C1.23118 6.75925 1.33014 6.92594 1.45312 7.07812C1.33238 7.13034 1.20738 7.14597 1.07812 7.125C0.977609 7.01509 0.868234 6.91612 0.75 6.82812C1.00153 5.19994 1.71508 3.81453 2.89062 2.67188ZM6.39062 5.45312C6.55728 5.45312 6.72397 5.45312 6.89062 5.45312C6.87366 5.59497 6.91531 5.71478 7.01562 5.8125C7.25 5.96619 7.48959 6.112 7.73438 6.25C8.08184 6.4185 8.37872 6.35081 8.625 6.04688C8.85044 6.11856 9.07441 6.19669 9.29688 6.28125C9.36591 6.33978 9.42319 6.4075 9.46875 6.48438C9.62069 6.82556 9.7665 7.16931 9.90625 7.51562C10.0375 7.86534 10.2511 8.15181 10.5469 8.375C10.7169 8.45381 10.8939 8.51109 11.0781 8.54688C10.8279 8.84394 10.5623 9.12519 10.2812 9.39062C10.1136 9.60094 10.0355 9.84053 10.0469 10.1094C10.0795 10.3707 10.1056 10.6312 10.125 10.8906C9.85241 11.1427 9.6545 11.4447 9.53125 11.7969C9.31306 12.0249 9.17766 12.2957 9.125 12.6094C8.95238 12.7976 8.74925 12.9434 8.51562 13.0469C8.42219 12.9228 8.34406 12.7874 8.28125 12.6406C8.13113 12.2423 7.97487 11.8465 7.8125 11.4531C7.80084 11.3844 7.78522 11.3167 7.76562 11.25C7.87056 10.9607 7.92788 10.6639 7.9375 10.3594C7.921 10.2205 7.88975 10.0851 7.84375 9.95312C7.73681 9.79131 7.62222 9.63506 7.5 9.48438C7.50631 8.73494 7.1365 8.39641 6.39062 8.46875C5.83147 8.67519 5.34709 8.56581 4.9375 8.14062C4.61791 7.63487 4.62834 7.13487 4.96875 6.64062C5.26709 6.29025 5.55356 5.93087 5.82812 5.5625C6.01653 5.50841 6.20403 5.47194 6.39062 5.45312ZM1.35938 8.85938C1.41247 8.85437 1.46456 8.85956 1.51562 8.875C1.91624 9.19506 2.32249 9.50756 2.73438 9.8125C3.04149 9.90519 3.354 9.97812 3.67188 10.0312C3.79166 10.0677 3.86978 10.1458 3.90625 10.2656C3.90125 10.4322 3.88562 10.5988 3.85938 10.7656C3.87175 10.9714 3.91862 11.1693 4 11.3594C4.03363 11.519 3.98675 11.6492 3.85938 11.75C3.74719 11.7978 3.63259 11.8395 3.51562 11.875C3.43431 11.9026 3.36659 11.9495 3.3125 12.0156C3.20038 12.472 3.09622 12.9303 3 13.3906C1.75567 12.22 0.99005 10.7877 0.703125 9.09375C0.926831 9.01991 1.14558 8.94178 1.35938 8.85938ZM12.0156 11.2344C11.9215 11.6677 11.7809 12.0843 11.5938 12.4844C11.6021 12.3023 11.6438 12.1252 11.7188 11.9531C11.7292 11.7656 11.7396 11.5781 11.75 11.3906C11.8223 11.3103 11.9108 11.2582 12.0156 11.2344Z"
            fill="white" />
        <path opacity="0.904" fill-rule="evenodd" clip-rule="evenodd"
            d="M8.17182 3.6719C8.51188 3.62534 8.66292 3.77118 8.62495 4.1094C8.43488 4.39078 8.22657 4.40122 7.99995 4.14065C7.94017 3.93659 7.99745 3.78034 8.17182 3.6719Z"
            fill="white" />
        <path opacity="0.947" fill-rule="evenodd" clip-rule="evenodd"
            d="M12.2658 9.92182C12.4142 9.91044 12.534 9.96251 12.6252 10.0781C12.7325 10.3509 12.795 10.6321 12.8127 10.9218C12.6427 11.5603 12.4344 12.1853 12.1877 12.7968C11.9649 13.208 11.6472 13.3069 11.2346 13.0937C10.9678 12.8663 10.8688 12.5798 10.9377 12.2343C10.9649 12.0942 11.0066 11.9588 11.0627 11.8281C10.9473 11.2362 11.1713 10.8352 11.7346 10.6249C11.8715 10.4608 11.9808 10.2785 12.0627 10.0781C12.1191 10.0054 12.1868 9.95332 12.2658 9.92182ZM12.0158 11.2343C11.911 11.2581 11.8225 11.3102 11.7502 11.3906C11.7398 11.5781 11.7294 11.7656 11.719 11.9531C11.644 12.1252 11.6023 12.3023 11.594 12.4843C11.7811 12.0843 11.9217 11.6676 12.0158 11.2343Z"
            fill="white" />
        <path opacity="0.898" fill-rule="evenodd" clip-rule="evenodd"
            d="M11.7033 14.3281C12.0311 14.2964 12.1717 14.4423 12.1252 14.7656C11.9523 15.0273 11.7544 15.0481 11.5314 14.8281C11.4384 14.6081 11.4957 14.4415 11.7033 14.3281Z"
            fill="white" />
    </g>
    <defs>
        <clipPath id="clip0_124_342">
            <rect width="16" height="16" fill="white" />
        </clipPath>
    </defs>
</svg>