
<svg xmlns="http://www.w3.org/2000/svg" width="24" height="25" viewBox="0 0 24 25" fill="none">
    <g clip-path="url(#clip0_280_386)">
        <path opacity="0.958" fill-rule="evenodd" clip-rule="evenodd"
            d="M3.25781 0.476562C6.17967 0.476562 9.10158 0.476562 12.0234 0.476562C13.8517 2.31263 15.6407 4.18763 17.3906 6.10156C17.3985 7.67994 17.4219 9.25803 17.4609 10.8359C20.0541 11.515 21.7807 13.1244 22.6406 15.6641C23.3137 18.4026 22.6496 20.7541 20.6484 22.7188C19.5362 23.6733 18.2549 24.2593 16.8047 24.4766C16.2735 24.4766 15.7422 24.4766 15.2109 24.4766C13.0014 24.1534 11.2983 23.0518 10.1016 21.1719C7.83595 21.1563 5.5703 21.1406 3.30469 21.125C2.08352 20.8882 1.34134 20.1617 1.07813 18.9453C1.04687 13.5234 1.04687 8.10158 1.07813 2.67969C1.34567 1.48249 2.07223 0.748115 3.25781 0.476562ZM3.44531 1.50781C6.0547 1.50781 8.66405 1.50781 11.2734 1.50781C11.2537 2.71237 11.2771 3.9155 11.3438 5.11719C11.618 6.07953 12.2508 6.64981 13.2422 6.82812C14.289 6.85156 15.3358 6.85939 16.3828 6.85156C16.3828 8.1328 16.3828 9.41408 16.3828 10.6953C14.5159 10.6378 12.8753 11.2081 11.4609 12.4062C9.23827 12.4067 7.01953 12.4379 4.80469 12.5C4.54767 12.7229 4.50861 12.9807 4.6875 13.2734C4.76152 13.3457 4.84749 13.4004 4.94531 13.4375C6.78905 13.4531 8.63283 13.4688 10.4766 13.4844C10.1303 13.9184 9.84909 14.395 9.63281 14.9141C8.08617 14.9531 6.5393 14.9765 4.99219 14.9844C4.62286 15.1226 4.50568 15.3804 4.64063 15.7578C4.71295 15.8458 4.79888 15.9162 4.89844 15.9688C6.35147 15.9922 7.80459 16 9.25781 15.9922C9.03933 17.1887 9.07842 18.3762 9.375 19.5547C9.42717 19.7426 9.49749 19.9222 9.58594 20.0938C7.58592 20.125 5.58595 20.125 3.58594 20.0938C2.80279 19.9648 2.31061 19.5194 2.10938 18.7578C2.07812 13.4609 2.07812 8.16406 2.10938 2.86719C2.28194 2.13998 2.72725 1.68685 3.44531 1.50781ZM12.3516 2.35156C13.4516 3.4907 14.5453 4.63914 15.6328 5.79688C14.8984 5.82814 14.1641 5.82814 13.4297 5.79688C12.8889 5.70913 12.5373 5.40444 12.375 4.88281C12.3516 4.03921 12.3437 3.19546 12.3516 2.35156ZM15.3047 11.7734C17.7858 11.6116 19.6998 12.5648 21.0469 14.6328C22.241 16.9094 22.1003 19.0969 20.625 21.1953C18.9752 23.1306 16.9049 23.8103 14.4141 23.2344C12.065 22.4634 10.6666 20.8618 10.2188 18.4297C9.98377 16.2747 10.6791 14.4857 12.3047 13.0625C13.1918 12.3634 14.1917 11.9337 15.3047 11.7734Z"
            fill="white"></path>
        <path opacity="0.924" fill-rule="evenodd" clip-rule="evenodd"
            d="M4.99198 9.89844C6.74206 9.89062 8.49204 9.89844 10.242 9.92188C10.6111 10.0269 10.7439 10.2691 10.6404 10.6484C10.5529 10.8369 10.4044 10.9385 10.1951 10.9531C8.492 10.9844 6.78884 10.9844 5.08573 10.9531C4.60249 10.833 4.46968 10.5439 4.68729 10.0859C4.7855 10.0098 4.88703 9.94729 4.99198 9.89844Z"
            fill="white"></path>
        <path opacity="0.953" fill-rule="evenodd" clip-rule="evenodd"
            d="M15.8202 13.7423C16.1309 13.6828 16.3574 13.7922 16.4999 14.0704C16.5155 15.9298 16.5311 17.7891 16.5467 19.6485C17.2431 18.8741 17.9541 18.1163 18.6795 17.3751C19.1112 17.2469 19.3612 17.4032 19.4295 17.8438C19.4298 17.9517 19.4064 18.0532 19.3592 18.1485C18.3498 19.2048 17.3576 20.2751 16.3827 21.3595C16.1579 21.5427 15.9235 21.5584 15.6795 21.4063C14.6873 20.3517 13.6952 19.297 12.703 18.2423C12.4242 17.7661 12.5491 17.4536 13.078 17.3048C13.1629 17.3319 13.2488 17.3553 13.3358 17.3751C14.0467 18.1173 14.7577 18.8595 15.4686 19.6017C15.4842 17.7735 15.4999 15.9454 15.5155 14.1173C15.5753 13.9561 15.6769 13.8311 15.8202 13.7423Z"
            fill="white"></path>
    </g>
    <defs>
        <clipPath id="clip0_280_386">
            <rect width="24" height="24" fill="white" transform="translate(0 0.5)"></rect>
        </clipPath>
    </defs>
</svg> 