<svg width="64" height="30" viewBox="0 0 64 30" fill="none" xmlns="http://www.w3.org/2000/svg">
    <path opacity="0.944" fill-rule="evenodd" clip-rule="evenodd"
        d="M63.9375 13.1876C63.9375 14.3542 63.9375 15.521 63.9375 16.6876C62.6165 23.6543 58.4497 27.7585 51.4375 29.0001C45.9369 29.4171 41.2285 27.7087 37.3125 23.8751C36.0259 22.631 34.88 21.2767 33.875 19.8126C33.639 18.7563 34.0556 18.1313 35.125 17.9376C35.4056 18.0172 35.6765 18.1213 35.9375 18.2501C37.6507 20.5051 39.6507 22.4633 41.9375 24.1251C45.8534 26.5172 49.9784 26.9756 54.3125 25.5001C58.7539 23.391 61.0872 19.8702 61.3125 14.9376C60.9475 9.34446 58.1141 5.65696 52.8125 3.87508C47.894 2.89621 43.5606 4.06296 39.8125 7.37508C38.5104 8.67008 37.2811 10.0243 36.125 11.4376C34.4692 13.7073 32.8442 15.999 31.25 18.3126C29.5421 20.7711 27.563 23.0003 25.3125 25.0001C20.6423 28.7715 15.3923 29.8965 9.5625 28.3751C4.12869 26.2968 0.920351 22.401 -0.0625 16.6876C-0.0625 15.521 -0.0625 14.3542 -0.0625 13.1876C1.25853 6.22083 5.4252 2.11671 12.4375 0.875083C17.9381 0.458083 22.6465 2.16646 26.5625 6.00008C27.8491 7.24421 28.995 8.59846 30 10.0626C30.2274 11.1483 29.7899 11.7733 28.6875 11.9376C28.4324 11.8456 28.1824 11.7415 27.9375 11.6251C26.2243 9.37008 24.2243 7.41183 21.9375 5.75008C18.0216 3.35796 13.8966 2.89958 9.5625 4.37508C5.12114 6.48421 2.7878 10.005 2.5625 14.9376C2.92749 20.5307 5.76081 24.2182 11.0625 26.0001C15.981 26.979 20.3144 25.8122 24.0625 22.5001C25.3646 21.2051 26.5939 19.8508 27.75 18.4376C29.4058 16.1678 31.0308 13.8762 32.625 11.5626C34.3329 9.10408 36.312 6.87483 38.5625 4.87508C43.2327 1.10371 48.4827 -0.0212923 54.3125 1.50008C59.7464 3.57833 62.9546 7.47421 63.9375 13.1876Z"
        fill="#2ec7f6" />
</svg>