<svg width="64" height="64" viewBox="0 0 64 64" fill="none" xmlns="http://www.w3.org/2000/svg">
<path opacity="0.972" fill-rule="evenodd" clip-rule="evenodd" d="M28.5626 1.5625C30.7544 1.59117 32.6503 2.34117 34.2501 3.8125C38.1565 2.76595 41.0733 4.01595 43.0001 7.5625C43.2519 8.21319 43.4394 8.87985 43.5626 9.5625C46.4488 10.7511 47.5529 12.8761 46.8751 15.9375C46.017 18.1058 44.4129 19.2307 42.0626 19.3125C42.393 17.7225 41.8096 16.6391 40.3126 16.0625C40.2293 15.8541 40.146 15.6459 40.0626 15.4375C40.5805 14.5846 40.5598 13.7514 40.0001 12.9375C39.396 12.3333 38.7918 11.7292 38.1876 11.125C37.8011 10.892 37.3844 10.7462 36.9376 10.6875C36.4363 10.837 35.9363 10.9412 35.4376 11C35.0423 10.815 34.8131 10.5025 34.7501 10.0625C34.4143 9.60077 33.9768 9.28827 33.4376 9.125C32.4376 9.04166 31.4376 9.04166 30.4376 9.125C29.67 9.39259 29.1493 9.91343 28.8751 10.6875C28.7623 10.8377 28.6165 10.9418 28.4376 11C27.939 10.9412 27.439 10.837 26.9376 10.6875C26.4909 10.7462 26.0741 10.892 25.6876 11.125C24.9544 11.8164 24.2669 12.5456 23.6251 13.3125C23.3474 14.0495 23.4099 14.7577 23.8126 15.4375C23.7293 15.6459 23.646 15.8541 23.5626 16.0625C22.1413 16.6119 21.5163 17.6535 21.6876 19.1875C18.7591 18.1645 17.5716 16.1228 18.1251 13.0625C18.5878 11.5995 19.5045 10.5161 20.8751 9.8125C21.0019 5.82644 22.9394 3.18061 26.6876 1.875C27.3305 1.77021 27.9555 1.66605 28.5626 1.5625Z" fill="#2ec7f6"/>
<path opacity="0.957" fill-rule="evenodd" clip-rule="evenodd" d="M30.8124 10.9375C31.5636 10.9168 32.3136 10.9376 33.0624 11C33.2586 11.442 33.4668 11.8795 33.6874 12.3125C34.3761 12.5217 35.0219 12.8133 35.6249 13.1875C36.0781 12.8983 36.5573 12.7108 37.0624 12.625C37.5416 13.1042 38.0208 13.5834 38.4999 14.0625C38.4339 14.5533 38.2881 15.0324 38.0624 15.5C38.3817 16.0969 38.6317 16.7219 38.8124 17.375C39.2168 17.6503 39.6543 17.8795 40.1249 18.0625C40.2288 18.8574 40.2079 19.6492 40.0624 20.4375C39.6576 20.588 39.2617 20.7548 38.8749 20.9375C38.6737 21.5414 38.4237 22.1247 38.1249 22.6875C38.2138 23.2393 38.3388 23.7809 38.4999 24.3125C38.0208 24.7917 37.5416 25.2709 37.0624 25.75C36.5541 25.7337 36.0749 25.5878 35.6249 25.3125C35.0044 25.6329 34.3586 25.9037 33.6874 26.125C33.4587 26.5405 33.2921 26.978 33.1874 27.4375C32.3541 27.4375 31.5208 27.4375 30.6874 27.4375C30.5376 26.9877 30.4126 26.5294 30.3124 26.0625C29.5797 25.9358 28.8922 25.6858 28.2499 25.3125C27.7999 25.5878 27.3208 25.7337 26.8124 25.75C26.3333 25.2709 25.8541 24.7917 25.3749 24.3125C25.5361 23.7809 25.6611 23.2393 25.7499 22.6875C25.4512 22.1247 25.2012 21.5414 24.9999 20.9375C24.6132 20.7548 24.2173 20.588 23.8124 20.4375C23.6669 19.6492 23.6461 18.8574 23.7499 18.0625C24.1367 17.8798 24.5326 17.713 24.9374 17.5625C25.1923 16.8609 25.4839 16.1734 25.8124 15.5C25.6043 15.0262 25.4584 14.547 25.3749 14.0625C25.8768 13.5398 26.3977 13.0398 26.9374 12.5625C27.3932 12.7352 27.8307 12.9435 28.2499 13.1875C28.8529 12.8133 29.4988 12.5217 30.1874 12.3125C30.4206 11.8623 30.6288 11.4039 30.8124 10.9375ZM31.1874 15.4375C34.3089 15.413 35.7882 16.9548 35.6249 20.0625C35.0599 21.8549 33.8307 22.8549 31.9374 23.0625C30.0442 22.8549 28.8149 21.8549 28.2499 20.0625C27.9709 17.7008 28.9501 16.1592 31.1874 15.4375Z" fill="#2ec7f6"/>
<path opacity="0.938" fill-rule="evenodd" clip-rule="evenodd" d="M17.6876 20.6875C17.991 20.6904 18.2826 20.7529 18.5626 20.875C19.4376 21.3959 20.3126 21.9166 21.1876 22.4375C21.7307 23.1196 21.6474 23.7238 20.9376 24.25C20.1042 24.7084 19.271 25.1666 18.4376 25.625C17.2971 25.9097 16.7971 25.4722 16.9376 24.3125C16.021 24.3125 15.1042 24.3125 14.1876 24.3125C14.2085 26.2712 14.1876 28.2296 14.1251 30.1875C13.5554 30.9509 12.9304 30.9925 12.2501 30.3125C12.2085 30.1875 12.1668 30.0625 12.1251 29.9375C12.0048 27.5127 12.0465 25.096 12.2501 22.6875C12.396 22.5416 12.5417 22.3959 12.6876 22.25C14.1036 22.1875 15.5204 22.1666 16.9376 22.1875C16.7967 21.4691 17.0467 20.9691 17.6876 20.6875Z" fill="#2ec7f6"/>
<path opacity="0.938" fill-rule="evenodd" clip-rule="evenodd" d="M44.9375 20.6875C45.8979 20.6883 46.3145 21.1465 46.1875 22.0625C47.6024 22.1665 49.019 22.229 50.4375 22.25C50.6164 22.3081 50.7622 22.4124 50.875 22.5625C51.0788 25.0544 51.1205 27.5544 51 30.0625C50.3845 31.011 49.7179 31.0526 49 30.1875C48.9375 28.2296 48.9167 26.2712 48.9375 24.3125C48.0172 24.2711 47.1004 24.3129 46.1875 24.4375C46.2819 25.5009 45.7819 25.8967 44.6875 25.625C43.6753 25.0704 42.6962 24.4662 41.75 23.8125C41.5633 23.1842 41.7092 22.6635 42.1875 22.25C43.1323 21.7574 44.049 21.2365 44.9375 20.6875Z" fill="#2ec7f6"/>
<path opacity="0.917" fill-rule="evenodd" clip-rule="evenodd" d="M31.8125 29.3125C32.1632 29.3527 32.4757 29.4778 32.75 29.6875C33.3233 30.6255 33.865 31.5839 34.375 32.5625C34.5131 33.5703 34.0756 34.0285 33.0625 33.9375C33.0833 36.0212 33.0625 38.1046 33 40.1875C32.9253 40.8185 32.5712 41.1103 31.9375 41.0625C31.3037 41.1103 30.9496 40.8185 30.875 40.1875C30.8125 38.1046 30.7916 36.0212 30.8125 33.9375C29.7993 34.0285 29.3618 33.5703 29.5 32.5625C30.01 31.5839 30.5516 30.6255 31.125 29.6875C31.3398 29.5164 31.569 29.3914 31.8125 29.3125Z" fill="#2ec7f6"/>
<path opacity="0.954" fill-rule="evenodd" clip-rule="evenodd" d="M2.43748 33.4375C10.0626 33.4166 17.6876 33.4375 25.3125 33.5C25.6785 33.6575 25.9076 33.9284 26 34.3125C26.0625 35.3116 26.0832 36.3116 26.0625 37.3125C17.9791 37.3125 9.89582 37.3125 1.81248 37.3125C1.79168 36.2284 1.81251 35.145 1.87498 34.0625C2.00311 33.7891 2.19061 33.5808 2.43748 33.4375ZM4.43748 34.8125C5.06177 34.7911 5.29093 35.0828 5.12498 35.6875C4.63776 36.0806 4.32526 35.9765 4.18748 35.375C4.18981 35.1459 4.27313 34.9584 4.43748 34.8125ZM6.81248 34.8125C7.47049 34.8021 7.67882 35.0938 7.43748 35.6875C6.97761 36.0554 6.64427 35.9511 6.43748 35.375C6.54826 35.1731 6.67326 34.9856 6.81248 34.8125ZM9.18748 34.8125C9.79563 34.8355 10.004 35.1273 9.81248 35.6875C9.34988 36.0544 9.01654 35.9503 8.81248 35.375C8.91431 35.1696 9.03931 34.9821 9.18748 34.8125Z" fill="#2ec7f6"/>
<path opacity="0.954" fill-rule="evenodd" clip-rule="evenodd" d="M38.5625 33.4375C46.1876 33.4166 53.8126 33.4375 61.4375 33.5C61.7084 33.6041 61.8959 33.7916 62 34.0625C62.0625 35.145 62.0833 36.2284 62.0625 37.3125C53.9791 37.3125 45.8959 37.3125 37.8125 37.3125C37.7608 36.1773 37.8233 35.0523 38 33.9375C38.1746 33.7413 38.3621 33.5745 38.5625 33.4375ZM40.5625 34.8125C41.1706 34.8355 41.379 35.1273 41.1875 35.6875C40.7249 36.0544 40.3916 35.9503 40.1875 35.375C40.2894 35.1696 40.4144 34.9821 40.5625 34.8125ZM42.9375 34.8125C43.3474 34.7881 43.5974 34.9756 43.6875 35.375C43.3125 36.125 42.9375 36.125 42.5625 35.375C42.6196 35.1325 42.7446 34.945 42.9375 34.8125ZM45.3125 34.8125C46.2098 35.0644 46.2723 35.4394 45.5 35.9375C44.8416 35.6521 44.7791 35.2771 45.3125 34.8125Z" fill="#2ec7f6"/>
<path opacity="0.978" fill-rule="evenodd" clip-rule="evenodd" d="M1.8125 39.1875C9.89584 39.1875 17.9791 39.1875 26.0625 39.1875C26.0625 39.8125 26.0625 40.4375 26.0625 41.0625C24.312 41.0416 22.562 41.0625 20.8125 41.125C19.6666 41.4375 18.9375 42.1666 18.625 43.3125C18.5625 46.4789 18.5416 49.6455 18.5625 52.8125C13.229 52.8334 7.89568 52.8125 2.5625 52.75C2.24284 52.6644 2.01368 52.4769 1.875 52.1875C1.8125 47.8544 1.79166 43.521 1.8125 39.1875Z" fill="#2ec7f6"/>
<path opacity="0.979" fill-rule="evenodd" clip-rule="evenodd" d="M37.8125 39.1875C45.8959 39.1875 53.9791 39.1875 62.0625 39.1875C62.0834 43.521 62.0625 47.8544 62 52.1875C61.8614 52.4769 61.6321 52.6644 61.3125 52.75C56.396 52.8125 51.4794 52.8334 46.5625 52.8125C46.5834 49.7289 46.5625 46.6455 46.5 43.5625C46.2096 42.3555 45.4804 41.543 44.3125 41.125C42.1462 41.0625 39.9796 41.0416 37.8125 41.0625C37.8125 40.4375 37.8125 39.8125 37.8125 39.1875Z" fill="#2ec7f6"/>
<path opacity="0.953" fill-rule="evenodd" clip-rule="evenodd" d="M21.0625 42.9375C28.7292 42.9166 36.396 42.9375 44.0625 43C44.3407 43.1534 44.5282 43.3826 44.625 43.6875C44.6875 44.7284 44.7082 45.77 44.6875 46.8125C36.6041 46.8125 28.5208 46.8125 20.4375 46.8125C20.4167 45.7284 20.4375 44.645 20.5 43.5625C20.6281 43.2891 20.8156 43.0808 21.0625 42.9375ZM23.0625 44.3125C23.6867 44.2911 23.916 44.5828 23.75 45.1875C23.4583 45.5209 23.1666 45.5209 22.875 45.1875C22.7708 44.8536 22.8333 44.562 23.0625 44.3125ZM25.4375 44.3125C26.0617 44.2911 26.291 44.5828 26.125 45.1875C25.8333 45.5209 25.5416 45.5209 25.25 45.1875C25.1458 44.8536 25.2083 44.562 25.4375 44.3125ZM27.8125 44.3125C28.233 44.2341 28.483 44.4008 28.5625 44.8125C28.2448 45.6145 27.8698 45.6354 27.4375 44.875C27.5482 44.6731 27.6732 44.4856 27.8125 44.3125Z" fill="#2ec7f6"/>
<path opacity="0.984" fill-rule="evenodd" clip-rule="evenodd" d="M20.4375 48.6875C28.5209 48.6875 36.6041 48.6875 44.6875 48.6875C44.7475 53.0703 44.685 57.4452 44.5 61.8125C44.275 62.0396 44.0043 62.1855 43.6875 62.25C36.2709 62.3334 28.8541 62.3334 21.4375 62.25C21.0328 62.221 20.7203 62.0335 20.5 61.6875C20.4375 57.3544 20.4166 53.021 20.4375 48.6875Z" fill="#2ec7f6"/>
</svg>
