<svg width="58" height="58" viewBox="0 0 58 58" fill="none" xmlns="http://www.w3.org/2000/svg">
<g clip-path="url(#clip0_794_14324)">
<path opacity="0.986" fill-rule="evenodd" clip-rule="evenodd" d="M23.6222 0.0577911C27.9457 -0.327364 32.0238 0.484484 35.8566 2.49334C38.8786 4.15563 41.012 6.59117 42.257 9.79998C43.4242 14.4921 42.197 18.438 38.5753 21.6379C35.4441 24.1648 31.8568 25.5997 27.8136 25.9426C25.8074 26.0169 23.8061 25.979 21.8097 25.8293C19.1742 26.5637 16.531 27.2622 13.88 27.925C12.0716 27.5693 11.2975 26.4742 11.5577 24.6398C12.0754 23.5776 12.4342 22.4636 12.6339 21.298C10.8103 19.4827 9.62082 17.3115 9.06556 14.7844C8.59749 10.5621 9.97575 7.06929 13.2003 4.30584C16.2627 1.8816 19.7365 0.465587 23.6222 0.0577911ZM16.9386 11.1594C19.1555 11.0911 19.9296 12.1107 19.2609 14.2179C18.4676 15.0587 17.5424 15.2286 16.4855 14.7277C15.6006 13.8675 15.4684 12.9046 16.089 11.839C16.3697 11.5967 16.6529 11.3702 16.9386 11.1594ZM25.0949 11.1594C27.3118 11.0911 28.0858 12.1107 27.4171 14.2179C26.6238 15.0587 25.6986 15.2286 24.6417 14.7277C23.7569 13.8675 23.6247 12.9046 24.2452 11.839C24.526 11.5967 24.8092 11.3702 25.0949 11.1594ZM33.2511 11.1594C35.468 11.0911 36.2421 12.1107 35.5734 14.2179C34.7801 15.0587 33.8549 15.2286 32.798 14.7277C31.9131 13.8675 31.7809 12.9046 32.4015 11.839C32.6822 11.5967 32.9654 11.3702 33.2511 11.1594Z" fill="#2DC7F6"/>
<path opacity="0.967" fill-rule="evenodd" clip-rule="evenodd" d="M43.4458 7.75296C43.7128 7.73446 43.9771 7.75334 44.2387 7.8096C47.9086 10.1835 49.4001 13.5252 48.7134 17.835C48.2466 19.6194 47.3592 21.1487 46.0512 22.4229C46.2208 23.347 46.504 24.2345 46.9009 25.085C47.0604 26.6183 46.3807 27.4868 44.8618 27.6905C42.6431 27.1688 40.4341 26.6024 38.2348 25.9912C37.5222 26.1356 36.8048 26.1922 36.0825 26.1612C35.6529 25.9286 35.5208 25.5699 35.686 25.085C38.1489 23.7173 40.2256 21.9048 41.9165 19.6475C44.1991 16.132 44.5956 12.4126 43.1059 8.48929C43.1445 8.2048 43.2577 7.95936 43.4458 7.75296Z" fill="#2DC7F6"/>
<path opacity="0.974" fill-rule="evenodd" clip-rule="evenodd" d="M27.9248 27.1296C31.9434 26.9757 33.8503 28.9015 33.6455 32.907C32.7944 35.7414 30.8874 36.9686 27.9248 36.5886C25.0904 35.7375 23.8632 33.8306 24.2431 30.8679C24.7357 28.8839 25.963 27.6378 27.9248 27.1296Z" fill="#2DC7F6"/>
<path opacity="0.974" fill-rule="evenodd" clip-rule="evenodd" d="M11.8389 29.3953C15.8575 29.2413 17.7644 31.1671 17.5596 35.1726C16.7085 38.007 14.8015 39.2342 11.8389 38.8542C9.00445 38.0032 7.77723 36.0962 8.15722 33.1335C8.64979 31.1495 9.87701 29.9034 11.8389 29.3953Z" fill="#2DC7F6"/>
<path opacity="0.974" fill-rule="evenodd" clip-rule="evenodd" d="M44.0107 29.3953C48.0294 29.2413 49.9362 31.1671 49.7314 35.1726C48.8803 38.007 46.9734 39.2342 44.0107 38.8542C41.1763 38.0032 39.9491 36.0962 40.3291 33.1335C40.8216 31.1495 42.0489 29.9034 44.0107 29.3953Z" fill="#2DC7F6"/>
<path opacity="0.996" fill-rule="evenodd" clip-rule="evenodd" d="M4.25195 57.9453C3.08138 57.9453 1.9108 57.9453 0.740234 57.9453C0.438151 57.7188 0.173828 57.4545 -0.0527344 57.1524C-0.0527344 50.7331 -0.0527344 44.3139 -0.0527344 37.8946C0.152196 37.5956 0.41652 37.3501 0.740234 37.1582C1.72201 37.0827 2.70377 37.0827 3.68555 37.1582C4.00651 37.3282 4.25195 37.5736 4.42187 37.8946C4.4974 44.5026 4.4974 51.1107 4.42187 57.7188C4.34063 57.7804 4.28399 57.856 4.25195 57.9453Z" fill="#2DC7F6"/>
<path opacity="0.996" fill-rule="evenodd" clip-rule="evenodd" d="M57.9473 37.8946C57.9473 44.5026 57.9473 51.1107 57.9473 57.7188C57.834 57.7565 57.7585 57.8321 57.7207 57.9453C56.3614 57.9453 55.002 57.9453 53.6426 57.9453C53.6105 57.856 53.5539 57.7804 53.4727 57.7188C53.3971 51.1107 53.3971 44.5026 53.4727 37.8946C53.6426 37.5736 53.8881 37.3282 54.209 37.1582C55.1908 37.0827 56.1725 37.0827 57.1543 37.1582C57.4781 37.3501 57.7424 37.5956 57.9473 37.8946Z" fill="#2DC7F6"/>
<path opacity="0.982" fill-rule="evenodd" clip-rule="evenodd" d="M28.7187 37.5547C34.479 37.9908 37.6132 41.0871 38.121 46.8438C38.0843 47.1639 37.971 47.4471 37.7812 47.6934C36.5019 47.8343 35.218 47.9476 33.9296 48.0332C33.0447 48.2399 32.3462 48.7119 31.8339 49.4492C31.4742 50.2829 31.191 51.1325 30.9843 51.998C29.6249 52.0736 28.2655 52.0736 26.9062 51.998C26.6994 51.1325 26.4162 50.2829 26.0566 49.4492C25.5443 48.7119 24.8458 48.2399 23.9609 48.0332C22.8674 47.9356 21.7723 47.86 20.6757 47.8066C20.3917 47.7961 20.1462 47.7017 19.9394 47.5234C19.696 43.1935 21.5275 40.116 25.4335 38.291C26.5095 37.8911 27.6045 37.6457 28.7187 37.5547Z" fill="#2DC7F6"/>
<path opacity="0.988" fill-rule="evenodd" clip-rule="evenodd" d="M12.4082 57.9404C10.2936 57.9404 8.17904 57.9404 6.06446 57.9404C6.03242 57.8511 5.97578 57.7755 5.89453 57.7139C5.81901 52.3519 5.81901 46.9899 5.89453 41.6279C8.22933 39.7201 10.8159 39.2859 13.6543 40.3252C15.1762 41.3195 16.177 42.6977 16.6563 44.46C17.0053 45.799 17.2318 47.1583 17.3359 48.5381C17.4303 48.6325 17.5248 48.7269 17.6191 48.8213C19.6954 48.9765 21.7721 49.1275 23.8496 49.2744C25.1653 49.7901 25.5807 50.6963 25.0957 51.9932C21.8483 52.0309 18.601 52.0687 15.3535 52.1065C14.0725 52.2172 13.2229 52.878 12.8047 54.0889C12.6712 55.2925 12.5957 56.5007 12.5781 57.7139C12.4969 57.7755 12.4403 57.8511 12.4082 57.9404Z" fill="#2DC7F6"/>
<path opacity="0.988" fill-rule="evenodd" clip-rule="evenodd" d="M51.8229 57.9426C49.7082 57.9426 47.5937 57.9426 45.4791 57.9426C45.4471 57.8533 45.3904 57.7777 45.3092 57.7161C45.2916 56.5029 45.2161 55.2947 45.0826 54.0911C44.6629 52.8785 43.8133 52.2177 42.5338 52.1087C39.2864 52.0709 36.039 52.0331 32.7916 51.9954C32.3067 50.6985 32.7221 49.7923 34.0377 49.2766C36.1164 49.1465 38.1932 48.9955 40.2682 48.8235C40.3625 48.7291 40.457 48.6347 40.5514 48.5403C40.654 46.7053 41.0317 44.9305 41.6842 43.2161C43.0457 40.4679 45.2547 39.3539 48.3111 39.8743C49.6962 40.1422 50.9235 40.7274 51.9928 41.6301C52.0683 46.9921 52.0683 52.3541 51.9928 57.7161C51.9116 57.7777 51.8549 57.8533 51.8229 57.9426Z" fill="#2DC7F6"/>
<path opacity="0.997" fill-rule="evenodd" clip-rule="evenodd" d="M43.6739 57.9453C33.8561 57.9453 24.0385 57.9453 14.2207 57.9453C14.1887 57.856 14.132 57.7804 14.0508 57.7188C13.9753 56.5482 13.9753 55.3776 14.0508 54.2071C14.2207 53.8861 14.4662 53.6407 14.7871 53.4707C24.2272 53.3952 33.6674 53.3952 43.1075 53.4707C43.4284 53.6407 43.6739 53.8861 43.8438 54.2071C43.9193 55.3776 43.9193 56.5482 43.8438 57.7188C43.7626 57.7804 43.7059 57.856 43.6739 57.9453Z" fill="#2DC7F6"/>
</g>
<defs>
<clipPath id="clip0_794_14324">
<rect width="58" height="58" fill="white"/>
</clipPath>
</defs>
</svg>
