<svg width="64" height="64" viewBox="0 0 64 64" fill="none" xmlns="http://www.w3.org/2000/svg">
<g clip-path="url(#clip0_1124_770)">
<path opacity="0.979" fill-rule="evenodd" clip-rule="evenodd" d="M27.5625 -0.0625C28.0209 -0.0625 28.4791 -0.0625 28.9375 -0.0625C32.7913 2.26709 36.6663 4.57959 40.5625 6.875C41.33 7.6317 41.5175 8.52754 41.125 9.5625C40.8494 9.88002 40.5369 10.1509 40.1875 10.375C36.4375 12.5416 32.6875 14.7084 28.9375 16.875C27.9275 17.1495 27.115 16.8786 26.5 16.0625C26.3631 14.7778 26.259 13.4861 26.1875 12.1875C19.8519 14.315 15.3519 18.44 12.6875 24.5625C11.2747 23.0289 9.5247 22.4247 7.4375 22.75C6.55965 23.024 5.72631 23.3574 4.9375 23.75C8.49771 13.419 15.581 6.93979 26.1875 4.3125C26.2915 3.27332 26.354 2.23165 26.375 1.1875C26.5858 0.581231 26.9816 0.164565 27.5625 -0.0625Z" fill="#2ec7f6"/>
<path opacity="0.979" fill-rule="evenodd" clip-rule="evenodd" d="M63.9375 27.5625C63.9375 28.0209 63.9375 28.4791 63.9375 28.9375C61.6079 32.7913 59.2954 36.6663 57 40.5625C56.2432 41.33 55.3475 41.5175 54.3125 41.125C53.995 40.8494 53.7241 40.5369 53.5 40.1875C51.3334 36.4375 49.1666 32.6875 47 28.9375C46.7255 27.9275 46.9964 27.115 47.8125 26.5C49.0951 26.3425 50.3868 26.2591 51.6875 26.25C49.8953 20.7294 46.4786 16.5419 41.4375 13.6875C44.3068 12.3336 45.4525 10.0836 44.875 6.9375C52.6308 11.151 57.5266 17.5676 59.5625 26.1875C60.6016 26.2915 61.6434 26.354 62.6875 26.375C63.2938 26.5858 63.7104 26.9816 63.9375 27.5625Z" fill="#2ec7f6"/>
<path opacity="0.988" fill-rule="evenodd" clip-rule="evenodd" d="M23.6873 22.5625C29.1874 22.5416 34.6874 22.5625 40.1873 22.625C41.2391 23.1685 41.5933 24.0226 41.2498 25.1875C41.0623 25.7084 40.7081 26.0625 40.1873 26.25C34.6873 26.3334 29.1873 26.3334 23.6873 26.25C22.5654 25.606 22.2529 24.6685 22.7498 23.4375C23.0016 23.0735 23.3141 22.7819 23.6873 22.5625Z" fill="#2ec7f6"/>
<path opacity="0.979" fill-rule="evenodd" clip-rule="evenodd" d="M-0.0625 40.0625C-0.0625 39.6041 -0.0625 39.1459 -0.0625 38.6875C2.26709 34.8337 4.57959 30.9587 6.875 27.0625C7.6317 26.295 8.52754 26.1075 9.5625 26.5C9.88002 26.7756 10.1509 27.0881 10.375 27.4375C12.5416 31.1875 14.7084 34.9375 16.875 38.6875C17.195 39.9009 16.7991 40.755 15.6875 41.25C15.0209 41.2916 14.3541 41.3334 13.6875 41.375C15.7467 45.1635 18.6635 48.101 22.4375 50.1875C19.611 51.5175 18.486 53.7257 19.0625 56.8125C15.7719 55.195 12.9177 52.9866 10.5 50.1875C8.23286 47.5711 6.54536 44.6127 5.4375 41.3125C4.02023 41.3334 2.60355 41.3125 1.1875 41.25C0.581231 41.0392 0.164565 40.6434 -0.0625 40.0625Z" fill="#2ec7f6"/>
<path opacity="0.988" fill-rule="evenodd" clip-rule="evenodd" d="M23.6873 30.0625C29.1874 30.0416 34.6874 30.0625 40.1873 30.125C41.2391 30.6685 41.5933 31.5226 41.2498 32.6875C41.0623 33.2084 40.7081 33.5625 40.1873 33.75C34.6873 33.8334 29.1873 33.8334 23.6873 33.75C22.5654 33.106 22.2529 32.1685 22.7498 30.9375C23.0016 30.5735 23.3141 30.2819 23.6873 30.0625Z" fill="#2ec7f6"/>
<path opacity="0.988" fill-rule="evenodd" clip-rule="evenodd" d="M23.6873 37.5625C29.1874 37.5416 34.6874 37.5625 40.1873 37.625C41.2391 38.1685 41.5933 39.0226 41.2498 40.1875C41.0623 40.7084 40.7081 41.0625 40.1873 41.25C34.6873 41.3334 29.1873 41.3334 23.6873 41.25C22.5654 40.606 22.2529 39.6685 22.7498 38.4375C23.0016 38.0735 23.3141 37.7819 23.6873 37.5625Z" fill="#2ec7f6"/>
<path opacity="0.979" fill-rule="evenodd" clip-rule="evenodd" d="M36.3125 63.9375C35.8541 63.9375 35.3959 63.9375 34.9375 63.9375C31.0837 61.6079 27.2087 59.2954 23.3125 57C22.545 56.2432 22.3575 55.3475 22.75 54.3125C23.0256 53.995 23.3381 53.7241 23.6875 53.5C27.4375 51.3334 31.1875 49.1666 34.9375 47C35.9475 46.7255 36.76 46.9964 37.375 47.8125C37.5325 49.0951 37.6159 50.3868 37.625 51.6875C43.0999 49.9415 47.2457 46.5665 50.0625 41.5625C50.6295 42.2981 51.2127 43.0274 51.8125 43.75C53.3481 44.8802 55.0565 45.2552 56.9375 44.875C52.7136 52.6167 46.297 57.5126 37.6875 59.5625C37.5835 60.6016 37.521 61.6434 37.5 62.6875C37.2892 63.2938 36.8934 63.7104 36.3125 63.9375Z" fill="#2ec7f6"/>
</g>
<defs>
<clipPath id="clip0_1124_770">
<rect width="64" height="64" fill="white"/>
</clipPath>
</defs>
</svg>
