<svg width="64" height="64" viewBox="0 0 64 64" fill="none" xmlns="http://www.w3.org/2000/svg">
<g clip-path="url(#clip0_1124_906)">
<path opacity="0.986" fill-rule="evenodd" clip-rule="evenodd" d="M-0.0625 36.4375C-0.0625 33.4375 -0.0625 30.4375 -0.0625 27.4375C0.164351 26.9401 0.539351 26.586 1.0625 26.375C2.18673 26.3125 3.31173 26.2917 4.4375 26.3125C4.8454 24.7877 5.42874 23.3294 6.1875 21.9375C5.43533 21.1646 4.70616 20.3729 4 19.5625C3.73147 18.877 3.77315 18.2104 4.125 17.5625C6.10774 15.538 8.12856 13.5589 10.1875 11.625C10.8729 11.3565 11.5396 11.3981 12.1875 11.75C12.8769 12.4602 13.5851 13.1477 14.3125 13.8125C15.7044 13.0537 17.1628 12.4704 18.6875 12.0625C18.6667 10.9367 18.6875 9.81171 18.75 8.68748C18.92 8.28308 19.1909 7.97058 19.5625 7.74998C21.7591 7.56591 23.9674 7.50341 26.1875 7.56248C26.2084 11.396 26.1875 15.2294 26.125 19.0625C19.7054 18.502 15.0804 21.127 12.25 26.9375C10.0217 33.6692 11.7926 39.065 17.5625 43.125C20.2431 44.7029 23.0972 45.2654 26.125 44.8125C26.1875 48.6456 26.2084 52.479 26.1875 56.3125C23.9674 56.3716 21.7591 56.3091 19.5625 56.125C19.1909 55.9044 18.92 55.5919 18.75 55.1875C18.6875 54.0632 18.6667 52.9382 18.6875 51.8125C17.1628 51.4046 15.7044 50.8212 14.3125 50.0625C13.5396 50.8146 12.7479 51.5439 11.9375 52.25C11.2521 52.5185 10.5854 52.4769 9.9375 52.125C7.91304 50.1422 5.93386 48.1214 4 46.0625C3.73147 45.377 3.77315 44.7104 4.125 44.0625C4.8352 43.3731 5.5227 42.6649 6.1875 41.9375C5.42874 40.5456 4.8454 39.0872 4.4375 37.5625C3.31173 37.5832 2.18673 37.5625 1.0625 37.5C0.539351 37.289 0.164351 36.9349 -0.0625 36.4375Z" fill="#2ec7f6"/>
<path opacity="0.996" fill-rule="evenodd" clip-rule="evenodd" d="M63.9375 22.5625C63.9375 33.4375 63.9375 44.3125 63.9375 55.1875C63.7106 55.6849 63.3356 56.039 62.8125 56.25C51.8542 56.3125 40.8959 56.3334 29.9375 56.3125C29.9375 40.0625 29.9375 23.8125 29.9375 7.5625C36.2709 7.5625 42.6041 7.5625 48.9375 7.5625C48.9166 11.9377 48.9375 16.3127 49 20.6875C49.1041 21.7916 49.7084 22.3959 50.8125 22.5C55.1873 22.5625 59.5623 22.5834 63.9375 22.5625ZM35.5625 18.8125C38.3597 18.7568 41.1514 18.8193 43.9375 19C45.1821 19.7704 45.3905 20.7704 44.5625 22C44.203 22.3046 43.7863 22.4712 43.3125 22.5C40.5155 22.6182 37.7239 22.5765 34.9375 22.375C33.6929 21.6046 33.4845 20.6046 34.3125 19.375C34.6955 19.0787 35.1121 18.8912 35.5625 18.8125ZM35.5625 26.3125C41.896 26.2916 48.2292 26.3125 54.5625 26.375C55.9112 26.6334 56.4737 27.4459 56.25 28.8125C55.8984 29.4995 55.3359 29.8953 54.5625 30C48.2291 30.0834 41.8959 30.0834 35.5625 30C33.809 29.5546 33.3715 28.5339 34.25 26.9375C34.6434 26.6051 35.0809 26.3967 35.5625 26.3125ZM35.5625 33.8125C41.896 33.7916 48.2292 33.8125 54.5625 33.875C55.9112 34.1334 56.4737 34.9459 56.25 36.3125C55.8984 36.9995 55.3359 37.3953 54.5625 37.5C48.2291 37.5834 41.8959 37.5834 35.5625 37.5C33.809 37.0546 33.3715 36.0339 34.25 34.4375C34.6434 34.1051 35.0809 33.8967 35.5625 33.8125ZM35.5625 41.3125C41.896 41.2916 48.2292 41.3125 54.5625 41.375C55.9112 41.6334 56.4737 42.4459 56.25 43.8125C55.8984 44.4995 55.3359 44.8952 54.5625 45C48.2291 45.0834 41.8959 45.0834 35.5625 45C33.809 44.5546 33.3715 43.5339 34.25 41.9375C34.6434 41.6051 35.0809 41.3968 35.5625 41.3125Z" fill="#2ec7f6"/>
<path opacity="0.97" fill-rule="evenodd" clip-rule="evenodd" d="M52.6875 8.5625C56.1206 11.9331 59.5374 15.329 62.9375 18.75C59.5211 18.8125 56.1044 18.8334 52.6875 18.8125C52.6875 15.3959 52.6875 11.9792 52.6875 8.5625Z" fill="#2ec7f6"/>
<path opacity="0.964" fill-rule="evenodd" clip-rule="evenodd" d="M22.8126 22.5625C23.9426 22.5315 25.0676 22.5731 26.1876 22.6875C26.2291 24.0233 26.1875 25.3567 26.0626 26.6875C22.6896 25.926 20.3353 27.1343 19.0001 30.3125C18.3277 33.9067 19.7236 36.2608 23.1876 37.375C24.1617 37.4968 25.12 37.4343 26.0626 37.1875C26.1875 38.5182 26.2291 39.8516 26.1876 41.1875C21.3517 41.8427 17.8308 40.0093 15.6251 35.6875C14.0203 31.0422 15.1246 27.1881 18.9376 24.125C20.1488 23.368 21.4406 22.8471 22.8126 22.5625Z" fill="#2ec7f6"/>
<path opacity="0.93" fill-rule="evenodd" clip-rule="evenodd" d="M23.5624 30.0625C25.5816 29.8108 26.4358 30.6858 26.1249 32.6875C25.5814 33.7393 24.7273 34.0935 23.5624 33.75C22.5105 33.2065 22.1564 32.3523 22.4999 31.1875C22.7109 30.6643 23.065 30.2893 23.5624 30.0625Z" fill="#2ec7f6"/>
</g>
<defs>
<clipPath id="clip0_1124_906">
<rect width="64" height="64" fill="white"/>
</clipPath>
</defs>
</svg>
