<svg width="1300" height="430" viewBox="0 0 1300 430" fill="none" xmlns="http://www.w3.org/2000/svg">
<path d="M79.0664 24.6133C79.0664 29.3398 78.0117 33.5586 75.9023 37.2695C73.832 40.9805 71.1562 44.0664 67.875 46.5273C64.4375 49.1055 60.5898 51.0586 56.332 52.3867C52.0742 53.6758 47.6211 54.3203 42.9727 54.3203H32.8359L26.8594 79.9844C26.7812 80.3359 26.7227 80.707 26.6836 81.0977C26.6445 81.4883 26.625 81.8203 26.625 82.0938C26.625 82.9531 26.7812 83.7148 27.0938 84.3789C27.4062 85.043 28.0312 85.5703 28.9688 85.9609C29.5547 86.2344 30.7266 86.4883 32.4844 86.7227C34.2812 86.957 35.8828 87.0938 37.2891 87.1328L36.4102 91H0.726562L1.60547 87.1328C2.58203 87.0547 3.96875 86.918 5.76562 86.7227C7.5625 86.5273 8.87109 86.2734 9.69141 85.9609C11.0977 85.4141 12.1523 84.6328 12.8555 83.6172C13.5977 82.5625 14.1055 81.3516 14.3789 79.9844L28.3828 19.3984C28.4609 19.0469 28.5195 18.6562 28.5586 18.2266C28.6367 17.7969 28.6758 17.3867 28.6758 16.9961C28.6758 16.1758 28.5195 15.4336 28.207 14.7695C27.8945 14.1055 27.3086 13.5977 26.4492 13.2461C25.1992 12.7773 23.8711 12.4258 22.4648 12.1914C21.0586 11.957 19.7695 11.8008 18.5977 11.7227L19.4766 7.85547H56.4492C63.1289 7.85547 68.5586 9.35938 72.7383 12.3672C76.957 15.3359 79.0664 19.418 79.0664 24.6133ZM60.3164 40.4922C61.918 38.1875 63.0508 35.7461 63.7148 33.168C64.3789 30.5508 64.7109 28.1094 64.7109 25.8438C64.7109 24.0469 64.457 22.3477 63.9492 20.7461C63.4805 19.1445 62.6602 17.6992 61.4883 16.4102C60.3164 15.1602 58.8125 14.1836 56.9766 13.4805C55.1406 12.7383 52.8359 12.3672 50.0625 12.3672H42.4453L33.9492 49.5156H40.5703C45.1016 49.5156 49.0078 48.7734 52.2891 47.2891C55.5703 45.7656 58.2461 43.5 60.3164 40.4922ZM129.691 44.0664C129.691 48.207 128.383 51.7617 125.766 54.7305C123.188 57.6992 119.418 60.0625 114.457 61.8203C110.824 63.1484 107.152 64.2227 103.441 65.043C99.7305 65.8633 95.6289 66.5469 91.1367 67.0938C91.1367 73.2656 92.2695 77.9922 94.5352 81.2734C96.8398 84.5156 100.199 86.1367 104.613 86.1367C108.52 86.1367 111.957 85.1602 114.926 83.207C117.934 81.2539 120.883 78.3438 123.773 74.4766L127.113 76.9375C123.988 81.7031 120.082 85.5117 115.395 88.3633C110.707 91.2148 105.844 92.6406 100.805 92.6406C93.8906 92.6406 88.5977 90.707 84.9258 86.8398C81.293 82.9727 79.4766 77.4844 79.4766 70.375C79.4766 65.4531 80.2383 60.7656 81.7617 56.3125C83.3242 51.8203 85.5898 47.7188 88.5586 44.0078C91.4492 40.375 94.9844 37.4453 99.1641 35.2188C103.383 32.9922 108.031 31.8789 113.109 31.8789C118.734 31.8789 122.895 33.0312 125.59 35.3359C128.324 37.6016 129.691 40.5117 129.691 44.0664ZM118.91 42.6016C118.91 41.0781 118.695 39.8867 118.266 39.0273C117.836 38.1289 117.289 37.4648 116.625 37.0352C115.922 36.5664 115.18 36.2734 114.398 36.1562C113.617 36.0391 112.816 35.9805 111.996 35.9805C107.309 35.9805 102.973 38.5586 98.9883 43.7148C95.043 48.8711 92.543 55.2969 91.4883 62.9922C94.2227 62.6016 97.3086 62.0547 100.746 61.3516C104.184 60.6094 107.035 59.6523 109.301 58.4805C112.543 56.8008 114.945 54.6523 116.508 52.0352C118.109 49.3789 118.91 46.2344 118.91 42.6016ZM184.535 45.3555C184.535 46.8789 184.262 48.4219 183.715 49.9844C183.168 51.5078 182.309 52.8945 181.137 54.1445C179.848 55.5508 178.305 56.7617 176.508 57.7773C174.75 58.7539 172.348 59.5156 169.301 60.0625L169.066 60.8242C170.551 60.9023 172.074 61.1367 173.637 61.5273C175.199 61.918 176.625 62.543 177.914 63.4023C179.281 64.3008 180.375 65.4141 181.195 66.7422C182.016 68.0312 182.426 69.7695 182.426 71.957C182.426 78.1289 179.633 83.1094 174.047 86.8984C168.461 90.6875 161.41 92.582 152.895 92.582C146.723 92.582 141.879 91.3906 138.363 89.0078C134.848 86.5859 133.09 83.5 133.09 79.75C133.09 77.6797 133.695 75.8438 134.906 74.2422C136.156 72.6016 137.934 71.7812 140.238 71.7812C142.113 71.7812 143.52 72.3086 144.457 73.3633C145.395 74.3789 145.863 75.5117 145.863 76.7617C145.863 77.8164 145.512 79.1445 144.809 80.7461C144.145 82.3477 143.559 83.6758 143.051 84.7305C143.793 85.668 145.082 86.5273 146.918 87.3086C148.754 88.0898 150.98 88.4805 153.598 88.4805C158.285 88.4805 162.27 86.957 165.551 83.9102C168.832 80.8633 170.473 76.957 170.473 72.1914C170.473 69.3008 169.496 67.1523 167.543 65.7461C165.629 64.3008 162.895 63.5781 159.34 63.5781H152.367L153.48 58.3633H160.746C163.09 58.3633 165.082 57.9727 166.723 57.1914C168.363 56.3711 169.613 55.4141 170.473 54.3203C171.371 53.2266 172.016 52.0938 172.406 50.9219C172.797 49.75 172.992 48.6758 172.992 47.6992C172.992 45.0039 172.133 42.7969 170.414 41.0781C168.734 39.3203 166.234 38.4414 162.914 38.4414C159.281 38.4414 155.824 39.3984 152.543 41.3125C149.301 43.1875 146.137 46.0781 143.051 49.9844L139.594 47.5234C142.523 42.8359 146.195 39.0469 150.609 36.1562C155.062 33.2656 160.062 31.8203 165.609 31.8203C171.703 31.8203 176.371 33.0703 179.613 35.5703C182.895 38.0312 184.535 41.293 184.535 45.3555ZM230.883 82.5039H230.531C226.938 85.5117 223.52 87.875 220.277 89.5938C217.035 91.3125 213.344 92.1719 209.203 92.1719C205.453 92.1719 202.484 91.0977 200.297 88.9492C198.109 86.7617 197.016 83.9102 197.016 80.3945C197.016 79.457 197.094 78.3438 197.25 77.0547C197.406 75.7656 197.777 73.8516 198.363 71.3125L202.934 53.0312C203.363 51.2734 203.695 49.75 203.93 48.4609C204.164 47.1328 204.281 45.8633 204.281 44.6523C204.281 42.4648 203.91 41.0195 203.168 40.3164C202.465 39.5742 201 39.2031 198.773 39.2031C197.914 39.2031 196.82 39.3594 195.492 39.6719C194.164 39.9844 193.129 40.2383 192.387 40.4336L193.266 36.6836C196.312 35.3164 198.988 34.2812 201.293 33.5781C203.637 32.875 205.512 32.5234 206.918 32.5234C210.043 32.5234 212.348 33.2266 213.832 34.6328C215.355 36.0391 216.117 38.1484 216.117 40.9609C216.117 41.6641 216.039 42.6211 215.883 43.832C215.727 45.043 215.492 46.2539 215.18 47.4648L209.848 68.8516C209.457 70.4922 209.125 72.0352 208.852 73.4805C208.578 74.8867 208.441 75.9609 208.441 76.7031C208.441 79.3203 209.066 81.3906 210.316 82.9141C211.605 84.4375 213.48 85.1992 215.941 85.1992C218.793 85.1992 221.566 84.4961 224.262 83.0898C226.996 81.6836 229.555 79.75 231.938 77.2891L241.664 33.4609L251.801 32.7578L252.504 33.6367L242.426 79.5156C240.941 86.2344 239.047 91.9766 236.742 96.7422C234.438 101.508 231.742 105.355 228.656 108.285C225.414 111.371 221.918 113.598 218.168 114.965C214.418 116.332 210.141 117.016 205.336 117.016C202.016 117.016 199.379 116.781 197.426 116.312C195.473 115.844 193.93 115.199 192.797 114.379C191.664 113.598 190.902 112.719 190.512 111.742C190.121 110.766 189.926 109.789 189.926 108.812C189.926 107.133 190.434 105.648 191.449 104.359C192.465 103.07 193.93 102.426 195.844 102.426C197.289 102.426 198.52 102.836 199.535 103.656C200.551 104.477 201.371 105.375 201.996 106.352C202.699 107.406 203.344 108.598 203.93 109.926C204.516 111.254 204.984 112.309 205.336 113.09H206.742C208.969 113.09 211.312 112.543 213.773 111.449C216.273 110.355 218.559 108.656 220.629 106.352C222.855 103.852 224.848 100.629 226.605 96.6836C228.402 92.7383 229.828 88.0117 230.883 82.5039ZM319.359 87.9531C315.844 89.3594 313.129 90.375 311.215 91C309.301 91.6641 307.348 91.9961 305.355 91.9961C302.23 91.9961 299.887 91.1953 298.324 89.5938C296.801 87.9531 296.039 85.9414 296.039 83.5586C296.039 82.6992 296.117 81.7617 296.273 80.7461C296.43 79.6914 296.684 78.4609 297.035 77.0547L302.895 54.2031C303.832 50.4531 304.535 47.4844 305.004 45.2969C305.473 43.1094 305.707 41.3711 305.707 40.082C305.707 39.418 305.043 38.6953 303.715 37.9141C302.426 37.0938 300.961 36.6836 299.32 36.6836C295.844 36.6836 292.777 38.5977 290.121 42.4258C287.465 46.2148 284.633 52.5625 281.625 61.4688C280.453 64.9844 279.086 68.6367 277.523 72.4258C275.961 76.2148 274.32 79.4766 272.602 82.2109C270.648 85.2969 268.617 87.7188 266.508 89.4766C264.398 91.2344 262.016 92.1133 259.359 92.1133C257.367 92.1133 255.844 91.5078 254.789 90.2969C253.695 89.0469 253.148 87.543 253.148 85.7852C253.148 84.2617 253.715 82.7578 254.848 81.2734C255.98 79.7891 257.562 79.0469 259.594 79.0469C260.648 79.0469 261.742 79.2812 262.875 79.75C264.008 80.1797 265.219 80.7461 266.508 81.4492C268.227 79.6914 270.043 76.4688 271.957 71.7812C273.871 67.0547 275.258 63.3828 276.117 60.7656C277.133 57.6797 278.363 54.3203 279.809 50.6875C281.254 47.0156 282.875 43.8906 284.672 41.3125C286.664 38.4609 289.145 36.1758 292.113 34.457C295.121 32.7383 298.773 31.8789 303.07 31.8789C307.328 31.8789 310.688 32.582 313.148 33.9883C315.609 35.3945 316.84 37.0938 316.84 39.0859C316.84 40.1797 316.605 41.8789 316.137 44.1836C315.707 46.4883 315.219 48.6172 314.672 50.5703L309.105 71.5469C308.754 72.7969 308.402 74.2422 308.051 75.8828C307.699 77.4844 307.523 78.7344 307.523 79.6328C307.523 81.8594 308.012 83.3828 308.988 84.2031C310.004 84.9844 311.625 85.375 313.852 85.375C314.594 85.375 315.648 85.2578 317.016 85.0234C318.422 84.75 319.496 84.4766 320.238 84.2031L319.359 87.9531ZM366.469 70.9023C366.469 67.4258 365.512 64.7695 363.598 62.9336C361.684 61.0586 359.086 60.1211 355.805 60.1211C354.086 60.1211 352.289 60.3164 350.414 60.707C348.578 61.0586 347.27 61.332 346.488 61.5273L344.086 70.7266C343.734 71.9766 343.402 73.5391 343.09 75.4141C342.816 77.2891 342.68 78.8125 342.68 79.9844C342.68 82.9922 343.5 85.1797 345.141 86.5469C346.82 87.9141 348.812 88.5977 351.117 88.5977C354.125 88.5977 356.625 87.9727 358.617 86.7227C360.648 85.4727 362.211 83.9688 363.305 82.2109C364.359 80.5312 365.141 78.6758 365.648 76.6445C366.195 74.6133 366.469 72.6992 366.469 70.9023ZM378.539 70.375C378.539 76.9766 375.863 82.3672 370.512 86.5469C365.199 90.6875 358.07 92.7578 349.125 92.7578C343.539 92.7578 339.281 91.6445 336.352 89.418C333.422 87.1523 331.957 84.0469 331.957 80.1016C331.957 79.1641 332.016 78.1289 332.133 76.9961C332.25 75.8242 332.621 74.0078 333.246 71.5469L338.344 52.6211C338.734 51.0586 339.105 49.4766 339.457 47.875C339.809 46.2344 339.984 44.9453 339.984 44.0078C339.984 41.9375 339.594 40.5508 338.812 39.8477C338.031 39.1445 336.527 38.793 334.301 38.793C333.441 38.793 332.289 38.9297 330.844 39.2031C329.438 39.4766 328.363 39.7109 327.621 39.9062L328.5 36.1562C331.586 34.7891 334.34 33.7734 336.762 33.1094C339.184 32.4453 341.098 32.1133 342.504 32.1133C345.707 32.1133 347.973 32.875 349.301 34.3984C350.668 35.8828 351.352 37.9141 351.352 40.4922C351.352 41.2734 351.254 42.25 351.059 43.4219C350.902 44.5938 350.648 45.8047 350.297 47.0547L347.426 57.1328C348.52 56.9766 350.121 56.7617 352.23 56.4883C354.34 56.2148 356.137 56.0781 357.621 56.0781C364.262 56.0781 369.398 57.2891 373.031 59.7109C376.703 62.1328 378.539 65.6875 378.539 70.375ZM484.359 84.3789L483.48 88.1289C479.887 89.5742 477.016 90.5703 474.867 91.1172C472.719 91.7031 470.883 91.9961 469.359 91.9961C466.234 91.9961 463.891 91.1953 462.328 89.5938C460.766 87.9531 459.984 85.9414 459.984 83.5586C459.984 82.6992 460.062 81.7617 460.219 80.7461C460.375 79.6914 460.629 78.4609 460.98 77.0547L466.723 55.1992C467.152 53.5195 467.484 51.9961 467.719 50.6289C467.992 49.2617 468.129 48.168 468.129 47.3477C468.129 44.7305 467.562 42.6602 466.43 41.1367C465.297 39.6133 463.5 38.8516 461.039 38.8516C458.422 38.8516 455.844 39.4766 453.305 40.7266C450.805 41.9375 447.973 44.2227 444.809 47.582L434.613 91H423.715L432.914 51.8594C433.109 51 433.285 50.1016 433.441 49.1641C433.637 48.1875 433.734 47.4648 433.734 46.9961C433.734 44.457 433.09 42.4648 431.801 41.0195C430.551 39.5742 428.695 38.8516 426.234 38.8516C424.008 38.8516 421.547 39.418 418.852 40.5508C416.156 41.6445 413.031 44.125 409.477 47.9922L399.574 91H388.676L397.406 53.0312C397.719 51.6641 398.012 50.1992 398.285 48.6367C398.598 47.0742 398.754 45.7461 398.754 44.6523C398.754 42.3867 398.383 40.9023 397.641 40.1992C396.898 39.457 395.453 39.0859 393.305 39.0859C392.445 39.0859 391.332 39.2422 389.965 39.5547C388.637 39.8672 387.602 40.1211 386.859 40.3164L387.738 36.5664C390.785 35.1992 393.48 34.1836 395.824 33.5195C398.168 32.8555 400.18 32.5234 401.859 32.5234C404.984 32.5234 407.191 33.3828 408.48 35.1016C409.809 36.7812 410.512 39.0859 410.59 42.0156H410.941C415.551 38.3828 419.34 35.7852 422.309 34.2227C425.277 32.6602 428.812 31.8789 432.914 31.8789C436.391 31.8789 439.203 32.8945 441.352 34.9258C443.539 36.918 444.77 39.4375 445.043 42.4844H445.277C449.457 39.0078 453.168 36.3711 456.41 34.5742C459.691 32.7773 463.5 31.8789 467.836 31.8789C471.586 31.8789 474.457 32.9727 476.449 35.1602C478.48 37.3086 479.496 40.1406 479.496 43.6562C479.496 44.3594 479.379 45.6094 479.145 47.4062C478.949 49.2031 478.617 50.9805 478.148 52.7383L473.227 71.5469C472.875 72.7969 472.543 74.2422 472.23 75.8828C471.918 77.4844 471.762 78.7344 471.762 79.6328C471.762 81.8594 472.23 83.3828 473.168 84.2031C474.105 84.9844 475.688 85.375 477.914 85.375C478.656 85.375 479.73 85.2773 481.137 85.082C482.543 84.8867 483.617 84.6523 484.359 84.3789ZM528.598 83.2656H528.188C527.328 83.9688 526.293 84.8672 525.082 85.9609C523.91 87.0156 522.523 88.0312 520.922 89.0078C519.398 89.9844 517.738 90.8242 515.941 91.5273C514.145 92.2695 512.191 92.6406 510.082 92.6406C504.418 92.6406 499.965 90.6094 496.723 86.5469C493.52 82.4844 491.918 76.9375 491.918 69.9062C491.918 65.0625 492.816 60.3555 494.613 55.7852C496.41 51.2148 498.891 47.1133 502.055 43.4805C505.062 40.0039 508.637 37.2109 512.777 35.1016C516.918 32.9531 521.176 31.8789 525.551 31.8789C528.324 31.8789 530.961 32.25 533.461 32.9922C536 33.7344 537.992 34.5742 539.438 35.5117L550.16 32.7578L550.863 33.6367L541.957 71.4297C541.645 72.6406 541.312 74.125 540.961 75.8828C540.648 77.6016 540.492 78.8711 540.492 79.6914C540.492 81.918 540.961 83.4219 541.898 84.2031C542.836 84.9844 544.418 85.375 546.645 85.375C547.387 85.375 548.441 85.2578 549.809 85.0234C551.176 84.7891 552.23 84.5352 552.973 84.2617L552.094 88.0117C548.578 89.418 545.961 90.4336 544.242 91.0586C542.523 91.6836 540.434 91.9961 537.973 91.9961C535.16 91.9961 532.934 91.1758 531.293 89.5352C529.652 87.8945 528.754 85.8047 528.598 83.2656ZM536.977 46.2344C536.977 44.9453 536.84 43.7148 536.566 42.543C536.293 41.3711 535.727 40.2773 534.867 39.2617C534.086 38.2852 533.012 37.5039 531.645 36.918C530.277 36.332 528.559 36.0391 526.488 36.0391C523.637 36.0391 520.863 36.9766 518.168 38.8516C515.473 40.7266 513.051 43.2461 510.902 46.4102C508.871 49.3789 507.211 52.9727 505.922 57.1914C504.633 61.4102 503.988 65.6875 503.988 70.0234C503.988 72.4062 504.125 74.5156 504.398 76.3516C504.672 78.1875 505.199 79.8672 505.98 81.3906C506.723 82.875 507.797 84.0273 509.203 84.8477C510.609 85.668 512.387 86.0781 514.535 86.0781C516.723 86.0781 519.008 85.4727 521.391 84.2617C523.812 83.0117 526.527 80.8438 529.535 77.7578L536.977 46.2344ZM658.734 84.3789L657.855 88.1289C654.262 89.5742 651.391 90.5703 649.242 91.1172C647.094 91.7031 645.258 91.9961 643.734 91.9961C640.609 91.9961 638.266 91.1953 636.703 89.5938C635.141 87.9531 634.359 85.9414 634.359 83.5586C634.359 82.6992 634.438 81.7617 634.594 80.7461C634.75 79.6914 635.004 78.4609 635.355 77.0547L641.098 55.1992C641.527 53.5195 641.859 51.9961 642.094 50.6289C642.367 49.2617 642.504 48.168 642.504 47.3477C642.504 44.7305 641.938 42.6602 640.805 41.1367C639.672 39.6133 637.875 38.8516 635.414 38.8516C632.797 38.8516 630.219 39.4766 627.68 40.7266C625.18 41.9375 622.348 44.2227 619.184 47.582L608.988 91H598.09L607.289 51.8594C607.484 51 607.66 50.1016 607.816 49.1641C608.012 48.1875 608.109 47.4648 608.109 46.9961C608.109 44.457 607.465 42.4648 606.176 41.0195C604.926 39.5742 603.07 38.8516 600.609 38.8516C598.383 38.8516 595.922 39.418 593.227 40.5508C590.531 41.6445 587.406 44.125 583.852 47.9922L573.949 91H563.051L571.781 53.0312C572.094 51.6641 572.387 50.1992 572.66 48.6367C572.973 47.0742 573.129 45.7461 573.129 44.6523C573.129 42.3867 572.758 40.9023 572.016 40.1992C571.273 39.457 569.828 39.0859 567.68 39.0859C566.82 39.0859 565.707 39.2422 564.34 39.5547C563.012 39.8672 561.977 40.1211 561.234 40.3164L562.113 36.5664C565.16 35.1992 567.855 34.1836 570.199 33.5195C572.543 32.8555 574.555 32.5234 576.234 32.5234C579.359 32.5234 581.566 33.3828 582.855 35.1016C584.184 36.7812 584.887 39.0859 584.965 42.0156H585.316C589.926 38.3828 593.715 35.7852 596.684 34.2227C599.652 32.6602 603.188 31.8789 607.289 31.8789C610.766 31.8789 613.578 32.8945 615.727 34.9258C617.914 36.918 619.145 39.4375 619.418 42.4844H619.652C623.832 39.0078 627.543 36.3711 630.785 34.5742C634.066 32.7773 637.875 31.8789 642.211 31.8789C645.961 31.8789 648.832 32.9727 650.824 35.1602C652.855 37.3086 653.871 40.1406 653.871 43.6562C653.871 44.3594 653.754 45.6094 653.52 47.4062C653.324 49.2031 652.992 50.9805 652.523 52.7383L647.602 71.5469C647.25 72.7969 646.918 74.2422 646.605 75.8828C646.293 77.4844 646.137 78.7344 646.137 79.6328C646.137 81.8594 646.605 83.3828 647.543 84.2031C648.48 84.9844 650.062 85.375 652.289 85.375C653.031 85.375 654.105 85.2773 655.512 85.082C656.918 84.8867 657.992 84.6523 658.734 84.3789ZM716.039 58.0117H739.594L745.336 33.4609L755.531 32.7578L756.234 33.6367L747.504 71.3711C747.23 72.5039 746.898 73.9883 746.508 75.8242C746.156 77.6211 745.98 78.8906 745.98 79.6328C745.98 81.8594 746.469 83.3828 747.445 84.2031C748.422 84.9844 750.023 85.375 752.25 85.375C752.992 85.375 754.047 85.2578 755.414 85.0234C756.82 84.75 757.895 84.4766 758.637 84.2031L757.758 87.9531C754.242 89.3594 751.508 90.375 749.555 91C747.602 91.6641 745.629 91.9961 743.637 91.9961C740.512 91.9961 738.168 91.1953 736.605 89.5938C735.043 87.9531 734.262 85.9414 734.262 83.5586C734.262 82.6992 734.34 81.7617 734.496 80.7461C734.691 79.6914 734.945 78.4023 735.258 76.8789L738.539 62.6992H714.984L708.539 91H697.582L706.312 53.0312C706.586 51.7812 706.879 50.3555 707.191 48.7539C707.504 47.1133 707.66 45.7461 707.66 44.6523C707.66 42.4648 707.289 41.0195 706.547 40.3164C705.844 39.5742 704.379 39.2031 702.152 39.2031C701.293 39.2031 700.199 39.3594 698.871 39.6719C697.543 39.9844 696.508 40.2383 695.766 40.4336L696.645 36.6836C699.691 35.3164 702.367 34.2812 704.672 33.5781C707.016 32.875 708.891 32.5234 710.297 32.5234C713.422 32.5234 715.707 33.2656 717.152 34.75C718.637 36.1953 719.379 38.2656 719.379 40.9609C719.379 41.5859 719.301 42.543 719.145 43.832C718.988 45.082 718.734 46.4688 718.383 47.9922L716.039 58.0117ZM816.059 44.0664C816.059 48.207 814.75 51.7617 812.133 54.7305C809.555 57.6992 805.785 60.0625 800.824 61.8203C797.191 63.1484 793.52 64.2227 789.809 65.043C786.098 65.8633 781.996 66.5469 777.504 67.0938C777.504 73.2656 778.637 77.9922 780.902 81.2734C783.207 84.5156 786.566 86.1367 790.98 86.1367C794.887 86.1367 798.324 85.1602 801.293 83.207C804.301 81.2539 807.25 78.3438 810.141 74.4766L813.48 76.9375C810.355 81.7031 806.449 85.5117 801.762 88.3633C797.074 91.2148 792.211 92.6406 787.172 92.6406C780.258 92.6406 774.965 90.707 771.293 86.8398C767.66 82.9727 765.844 77.4844 765.844 70.375C765.844 65.4531 766.605 60.7656 768.129 56.3125C769.691 51.8203 771.957 47.7188 774.926 44.0078C777.816 40.375 781.352 37.4453 785.531 35.2188C789.75 32.9922 794.398 31.8789 799.477 31.8789C805.102 31.8789 809.262 33.0312 811.957 35.3359C814.691 37.6016 816.059 40.5117 816.059 44.0664ZM805.277 42.6016C805.277 41.0781 805.062 39.8867 804.633 39.0273C804.203 38.1289 803.656 37.4648 802.992 37.0352C802.289 36.5664 801.547 36.2734 800.766 36.1562C799.984 36.0391 799.184 35.9805 798.363 35.9805C793.676 35.9805 789.34 38.5586 785.355 43.7148C781.41 48.8711 778.91 55.2969 777.855 62.9922C780.59 62.6016 783.676 62.0547 787.113 61.3516C790.551 60.6094 793.402 59.6523 795.668 58.4805C798.91 56.8008 801.312 54.6523 802.875 52.0352C804.477 49.3789 805.277 46.2344 805.277 42.6016ZM859.828 82.7969H859.477C857.68 84.2422 855.961 85.5703 854.32 86.7812C852.68 87.9922 851.059 89.0078 849.457 89.8281C847.582 90.7656 845.883 91.4297 844.359 91.8203C842.836 92.25 840.844 92.4648 838.383 92.4648C834.633 92.4648 831.723 91.3906 829.652 89.2422C827.582 87.0547 826.547 84.2031 826.547 80.6875C826.547 79.75 826.625 78.6367 826.781 77.3477C826.938 76.0586 827.309 74.1445 827.895 71.6055L832.465 53.0312C832.855 51.3125 833.168 49.7891 833.402 48.4609C833.676 47.1328 833.812 45.8633 833.812 44.6523C833.812 42.4648 833.441 41.0195 832.699 40.3164C831.996 39.5742 830.531 39.2031 828.305 39.2031C827.445 39.2031 826.352 39.3594 825.023 39.6719C823.695 39.9844 822.66 40.2383 821.918 40.4336L822.797 36.6836C825.844 35.3164 828.52 34.2812 830.824 33.5781C833.168 32.875 835.043 32.5234 836.449 32.5234C839.574 32.5234 841.859 33.2656 843.305 34.75C844.789 36.1953 845.531 38.2656 845.531 40.9609C845.531 41.6641 845.453 42.6211 845.297 43.832C845.141 45.043 844.906 46.2539 844.594 47.4648L839.379 69.1445C838.988 70.7852 838.656 72.3281 838.383 73.7734C838.148 75.1797 838.031 76.2539 838.031 76.9961C838.031 79.6133 838.598 81.6836 839.73 83.207C840.863 84.7305 842.66 85.4922 845.121 85.4922C847.621 85.4922 850.18 84.8477 852.797 83.5586C855.453 82.2305 858.109 80.2383 860.766 77.582L871.02 33.4609L881.215 32.7578L881.918 33.6367L873.188 71.3711C872.797 72.9727 872.445 74.5938 872.133 76.2344C871.82 77.8359 871.664 78.9688 871.664 79.6328C871.664 81.8594 872.133 83.3828 873.07 84.2031C874.047 84.9844 875.648 85.375 877.875 85.375C878.617 85.375 879.672 85.2578 881.039 85.0234C882.406 84.7891 883.461 84.5352 884.203 84.2617L883.324 88.0117C880.082 89.3398 877.367 90.3359 875.18 91C873.031 91.6641 871.039 91.9961 869.203 91.9961C866.039 91.9961 863.676 91.0781 862.113 89.2422C860.59 87.4062 859.828 85.2578 859.828 82.7969ZM939.926 45.3555C939.926 46.8789 939.652 48.4219 939.105 49.9844C938.559 51.5078 937.699 52.8945 936.527 54.1445C935.238 55.5508 933.695 56.7617 931.898 57.7773C930.141 58.7539 927.738 59.5156 924.691 60.0625L924.457 60.8242C925.941 60.9023 927.465 61.1367 929.027 61.5273C930.59 61.918 932.016 62.543 933.305 63.4023C934.672 64.3008 935.766 65.4141 936.586 66.7422C937.406 68.0312 937.816 69.7695 937.816 71.957C937.816 78.1289 935.023 83.1094 929.438 86.8984C923.852 90.6875 916.801 92.582 908.285 92.582C902.113 92.582 897.27 91.3906 893.754 89.0078C890.238 86.5859 888.48 83.5 888.48 79.75C888.48 77.6797 889.086 75.8438 890.297 74.2422C891.547 72.6016 893.324 71.7812 895.629 71.7812C897.504 71.7812 898.91 72.3086 899.848 73.3633C900.785 74.3789 901.254 75.5117 901.254 76.7617C901.254 77.8164 900.902 79.1445 900.199 80.7461C899.535 82.3477 898.949 83.6758 898.441 84.7305C899.184 85.668 900.473 86.5273 902.309 87.3086C904.145 88.0898 906.371 88.4805 908.988 88.4805C913.676 88.4805 917.66 86.957 920.941 83.9102C924.223 80.8633 925.863 76.957 925.863 72.1914C925.863 69.3008 924.887 67.1523 922.934 65.7461C921.02 64.3008 918.285 63.5781 914.73 63.5781H907.758L908.871 58.3633H916.137C918.48 58.3633 920.473 57.9727 922.113 57.1914C923.754 56.3711 925.004 55.4141 925.863 54.3203C926.762 53.2266 927.406 52.0938 927.797 50.9219C928.188 49.75 928.383 48.6758 928.383 47.6992C928.383 45.0039 927.523 42.7969 925.805 41.0781C924.125 39.3203 921.625 38.4414 918.305 38.4414C914.672 38.4414 911.215 39.3984 907.934 41.3125C904.691 43.1875 901.527 46.0781 898.441 49.9844L894.984 47.5234C897.914 42.8359 901.586 39.0469 906 36.1562C910.453 33.2656 915.453 31.8203 921 31.8203C927.094 31.8203 931.762 33.0703 935.004 35.5703C938.285 38.0312 939.926 41.293 939.926 45.3555ZM1004.79 54.7305C1004.79 59.6914 1003.97 64.4766 1002.33 69.0859C1000.73 73.6562 998.422 77.6602 995.414 81.0977C992.328 84.7305 988.715 87.582 984.574 89.6523C980.434 91.7227 975.629 92.7578 970.16 92.7578C967.152 92.7578 964.301 92.2305 961.605 91.1758C958.91 90.1602 956.586 88.5781 954.633 86.4297C952.641 84.2812 951.059 81.5078 949.887 78.1094C948.754 74.7109 948.188 70.7461 948.188 66.2148C948.188 60.2773 949.125 53.6367 951 46.293C952.875 38.9492 955.238 32.3281 958.09 26.4297C959.223 24.0469 960.629 21.7227 962.309 19.457C963.988 17.1523 965.844 15.1602 967.875 13.4805C970.141 11.6445 972.543 10.2187 975.082 9.20312C977.621 8.14844 980.766 7.50391 984.516 7.26953C987.328 7.11328 990.082 6.95703 992.777 6.80078C995.512 6.64453 997.777 6.48828 999.574 6.33203C1001.25 6.21484 1002.82 5.76562 1004.26 4.98438C1005.75 4.16406 1007.43 2.71875 1009.3 0.648438L1012.29 3.05078C1011.04 4.41797 1009.73 5.94141 1008.36 7.62109C1007 9.30078 1005.65 10.8047 1004.32 12.1328C1002.17 14.3203 1000.55 15.5898 999.457 15.9414C998.402 16.293 996.391 16.5469 993.422 16.7031C991.391 16.7812 989.516 16.918 987.797 17.1133C986.117 17.2695 984.262 17.3867 982.23 17.4648C979.301 17.6211 976.684 18.2461 974.379 19.3398C972.113 20.4336 970.023 21.8789 968.109 23.6758C965.57 26.0195 963.266 29.418 961.195 33.8711C959.125 38.2852 957.465 43.0312 956.215 48.1094L957.035 48.2852C959.965 43.2461 963.578 39.2617 967.875 36.332C972.172 33.4023 976.918 31.9375 982.113 31.9375C989.262 31.9375 994.828 33.9688 998.812 38.0312C1002.8 42.0938 1004.79 47.6602 1004.79 54.7305ZM987.445 77.2305C989.281 73.6758 990.629 69.8281 991.488 65.6875C992.387 61.5469 992.836 57.1719 992.836 52.5625C992.836 47.1328 991.84 43.0312 989.848 40.2578C987.895 37.4453 985.023 36.0391 981.234 36.0391C977.406 36.0391 974.027 37.2305 971.098 39.6133C968.207 41.957 965.863 45.082 964.066 48.9883C962.504 52.2695 961.293 55.9805 960.434 60.1211C959.613 64.2617 959.203 68.1484 959.203 71.7812C959.203 77.2891 960.258 81.4688 962.367 84.3203C964.516 87.1719 967.582 88.5977 971.566 88.5977C975.082 88.5977 978.168 87.543 980.824 85.4336C983.52 83.2852 985.727 80.5508 987.445 77.2305ZM1062.97 44.0664C1062.97 48.207 1061.66 51.7617 1059.05 54.7305C1056.47 57.6992 1052.7 60.0625 1047.74 61.8203C1044.11 63.1484 1040.43 64.2227 1036.72 65.043C1033.01 65.8633 1028.91 66.5469 1024.42 67.0938C1024.42 73.2656 1025.55 77.9922 1027.82 81.2734C1030.12 84.5156 1033.48 86.1367 1037.89 86.1367C1041.8 86.1367 1045.24 85.1602 1048.21 83.207C1051.21 81.2539 1054.16 78.3438 1057.05 74.4766L1060.39 76.9375C1057.27 81.7031 1053.36 85.5117 1048.68 88.3633C1043.99 91.2148 1039.12 92.6406 1034.09 92.6406C1027.17 92.6406 1021.88 90.707 1018.21 86.8398C1014.57 82.9727 1012.76 77.4844 1012.76 70.375C1012.76 65.4531 1013.52 60.7656 1015.04 56.3125C1016.61 51.8203 1018.87 47.7188 1021.84 44.0078C1024.73 40.375 1028.27 37.4453 1032.45 35.2188C1036.66 32.9922 1041.31 31.8789 1046.39 31.8789C1052.02 31.8789 1056.18 33.0312 1058.87 35.3359C1061.61 37.6016 1062.97 40.5117 1062.97 44.0664ZM1052.19 42.6016C1052.19 41.0781 1051.98 39.8867 1051.55 39.0273C1051.12 38.1289 1050.57 37.4648 1049.91 37.0352C1049.2 36.5664 1048.46 36.2734 1047.68 36.1562C1046.9 36.0391 1046.1 35.9805 1045.28 35.9805C1040.59 35.9805 1036.25 38.5586 1032.27 43.7148C1028.32 48.8711 1025.82 55.2969 1024.77 62.9922C1027.5 62.6016 1030.59 62.0547 1034.03 61.3516C1037.46 60.6094 1040.32 59.6523 1042.58 58.4805C1045.82 56.8008 1048.23 54.6523 1049.79 52.0352C1051.39 49.3789 1052.19 46.2344 1052.19 42.6016ZM1173.77 38.7344C1173.77 40.5312 1173.21 41.9961 1172.07 43.1289C1170.98 44.2617 1169.46 44.8281 1167.5 44.8281C1165.79 44.8281 1164.14 44.2227 1162.58 43.0117C1161.06 41.7617 1159.54 40.043 1158.01 37.8555C1153.36 40.0039 1149.85 44.0469 1147.46 49.9844C1145.08 55.8828 1143.89 62.6211 1143.89 70.1992C1143.89 72.3867 1144.01 74.418 1144.24 76.293C1144.48 78.1289 1144.93 79.8477 1145.59 81.4492C1146.21 82.9336 1147.15 84.1641 1148.4 85.1406C1149.65 86.0781 1151.18 86.5469 1152.97 86.5469C1154.65 86.5469 1156.18 86.2344 1157.54 85.6094C1158.95 84.9453 1160.14 84.125 1161.12 83.1484C1162.05 82.2891 1162.93 81.3516 1163.75 80.3359C1164.61 79.2812 1165.45 78.2266 1166.27 77.1719L1169.2 79.8086C1166.12 84.0664 1162.97 87.2695 1159.77 89.418C1156.61 91.5664 1153.07 92.6406 1149.16 92.6406C1144.01 92.6406 1140.1 90.707 1137.45 86.8398C1134.79 82.9727 1133.46 77.7383 1133.46 71.1367C1133.46 69.9648 1133.56 68.4805 1133.75 66.6836C1133.95 64.8867 1134.14 63.5195 1134.34 62.582H1124.44L1118.05 91H1107.39L1114.01 62.6992H1104.34C1102 71.6836 1097.91 78.9297 1092.09 84.4375C1086.31 89.9062 1079.87 92.6406 1072.76 92.6406C1070.06 92.6406 1068.07 92.0547 1066.78 90.8828C1065.53 89.7109 1064.91 88.168 1064.91 86.2539C1064.91 84.457 1065.45 82.9922 1066.55 81.8594C1067.68 80.7266 1069.22 80.1602 1071.18 80.1602C1072.89 80.1602 1074.54 80.7852 1076.1 82.0352C1077.66 83.2852 1079.18 84.9844 1080.67 87.1328C1085.39 84.8672 1088.93 80.9219 1091.27 75.2969C1093.62 69.6328 1094.79 62.7969 1094.79 54.7891C1094.79 53.0703 1094.65 51.0977 1094.38 48.8711C1094.11 46.6055 1093.68 44.8281 1093.09 43.5391C1092.35 41.8984 1091.43 40.6484 1090.34 39.7891C1089.28 38.8906 1087.74 38.4414 1085.71 38.4414C1084.07 38.4414 1082.62 38.7539 1081.37 39.3789C1080.12 39.9648 1078.87 40.7852 1077.62 41.8398C1076.64 42.6992 1075.67 43.7539 1074.69 45.0039C1073.75 46.2539 1072.99 47.1914 1072.41 47.8164L1069.48 45.1797C1072.6 40.9219 1075.77 37.7188 1078.97 35.5703C1082.17 33.4219 1085.69 32.3477 1089.52 32.3477C1094.71 32.3477 1098.62 34.2812 1101.23 38.1484C1103.89 42.0156 1105.22 47.25 1105.22 53.8516C1105.22 54.2812 1105.18 55.0039 1105.1 56.0195C1105.06 57.0352 1105.02 57.7383 1104.98 58.1289H1115.06L1120.69 33.4609L1130.59 32.7578L1131.29 33.6367L1125.55 58.0117H1135.57C1138.3 50.3164 1142.43 44.125 1147.93 39.4375C1153.48 34.7109 1159.48 32.3477 1165.92 32.3477C1168.62 32.3477 1170.59 32.9336 1171.84 34.1055C1173.13 35.2773 1173.77 36.8203 1173.77 38.7344ZM1226.8 44.0664C1226.8 48.207 1225.49 51.7617 1222.88 54.7305C1220.3 57.6992 1216.53 60.0625 1211.57 61.8203C1207.93 63.1484 1204.26 64.2227 1200.55 65.043C1196.84 65.8633 1192.74 66.5469 1188.25 67.0938C1188.25 73.2656 1189.38 77.9922 1191.64 81.2734C1193.95 84.5156 1197.31 86.1367 1201.72 86.1367C1205.63 86.1367 1209.07 85.1602 1212.04 83.207C1215.04 81.2539 1217.99 78.3438 1220.88 74.4766L1224.22 76.9375C1221.1 81.7031 1217.19 85.5117 1212.5 88.3633C1207.82 91.2148 1202.95 92.6406 1197.91 92.6406C1191 92.6406 1185.71 90.707 1182.04 86.8398C1178.4 82.9727 1176.59 77.4844 1176.59 70.375C1176.59 65.4531 1177.35 60.7656 1178.87 56.3125C1180.43 51.8203 1182.7 47.7188 1185.67 44.0078C1188.56 40.375 1192.09 37.4453 1196.27 35.2188C1200.49 32.9922 1205.14 31.8789 1210.22 31.8789C1215.84 31.8789 1220 33.0312 1222.7 35.3359C1225.43 37.6016 1226.8 40.5117 1226.8 44.0664ZM1216.02 42.6016C1216.02 41.0781 1215.8 39.8867 1215.38 39.0273C1214.95 38.1289 1214.4 37.4648 1213.73 37.0352C1213.03 36.5664 1212.29 36.2734 1211.51 36.1562C1210.73 36.0391 1209.93 35.9805 1209.11 35.9805C1204.42 35.9805 1200.08 38.5586 1196.1 43.7148C1192.15 48.8711 1189.65 55.2969 1188.6 62.9922C1191.33 62.6016 1194.42 62.0547 1197.86 61.3516C1201.29 60.6094 1204.14 59.6523 1206.41 58.4805C1209.65 56.8008 1212.05 54.6523 1213.62 52.0352C1215.22 49.3789 1216.02 46.2344 1216.02 42.6016ZM1254.05 58.0117H1277.6L1283.34 33.4609L1293.54 32.7578L1294.24 33.6367L1285.51 71.3711C1285.24 72.5039 1284.91 73.9883 1284.52 75.8242C1284.16 77.6211 1283.99 78.8906 1283.99 79.6328C1283.99 81.8594 1284.48 83.3828 1285.45 84.2031C1286.43 84.9844 1288.03 85.375 1290.26 85.375C1291 85.375 1292.05 85.2578 1293.42 85.0234C1294.83 84.75 1295.9 84.4766 1296.64 84.2031L1295.77 87.9531C1292.25 89.3594 1289.52 90.375 1287.56 91C1285.61 91.6641 1283.64 91.9961 1281.64 91.9961C1278.52 91.9961 1276.18 91.1953 1274.61 89.5938C1273.05 87.9531 1272.27 85.9414 1272.27 83.5586C1272.27 82.6992 1272.35 81.7617 1272.5 80.7461C1272.7 79.6914 1272.95 78.4023 1273.27 76.8789L1276.55 62.6992H1252.99L1246.55 91H1235.59L1244.32 53.0312C1244.59 51.7812 1244.89 50.3555 1245.2 48.7539C1245.51 47.1133 1245.67 45.7461 1245.67 44.6523C1245.67 42.4648 1245.3 41.0195 1244.55 40.3164C1243.85 39.5742 1242.39 39.2031 1240.16 39.2031C1239.3 39.2031 1238.21 39.3594 1236.88 39.6719C1235.55 39.9844 1234.52 40.2383 1233.77 40.4336L1234.65 36.6836C1237.7 35.3164 1240.38 34.2812 1242.68 33.5781C1245.02 32.875 1246.9 32.5234 1248.3 32.5234C1251.43 32.5234 1253.71 33.2656 1255.16 34.75C1256.64 36.1953 1257.39 38.2656 1257.39 40.9609C1257.39 41.5859 1257.31 42.543 1257.15 43.832C1257 45.082 1256.74 46.4688 1256.39 47.9922L1254.05 58.0117Z" fill="#D3C879"/>
<path d="M97.582 210.672L95.8828 217.703H5.00391L6.70312 210.672H97.582ZM198.07 240.203L197.191 243.953C193.676 245.359 190.941 246.375 188.988 247C187.035 247.664 185.062 247.996 183.07 247.996C179.945 247.996 177.602 247.195 176.039 245.594C174.477 243.953 173.695 241.941 173.695 239.559C173.695 238.699 173.773 237.762 173.93 236.746C174.086 235.691 174.34 234.461 174.691 233.055L180.434 211.199C180.863 209.52 181.195 207.996 181.43 206.629C181.703 205.262 181.84 204.168 181.84 203.348C181.84 200.73 181.215 198.66 179.965 197.137C178.715 195.613 176.859 194.852 174.398 194.852C172.016 194.852 169.34 195.633 166.371 197.195C163.402 198.758 160.609 201.023 157.992 203.992L148.09 247H137.191L145.922 209.031C146.117 208.094 146.391 206.746 146.742 204.988C147.133 203.191 147.328 201.746 147.328 200.652C147.328 198.465 146.957 197 146.215 196.258C145.473 195.516 143.988 195.145 141.762 195.145C140.902 195.145 139.809 195.301 138.48 195.613C137.152 195.887 136.117 196.121 135.375 196.316L136.254 192.566C139.301 191.199 141.996 190.184 144.34 189.52C146.684 188.855 148.695 188.523 150.375 188.523C153.461 188.523 155.668 189.363 156.996 191.043C158.324 192.723 159.027 195.047 159.105 198.016H159.457C163.754 194.578 167.465 192.039 170.59 190.398C173.715 188.719 177.27 187.879 181.254 187.879C185.004 187.879 187.934 188.973 190.043 191.16C192.152 193.309 193.207 196.141 193.207 199.656C193.207 200.359 193.09 201.609 192.855 203.406C192.66 205.203 192.328 206.98 191.859 208.738L186.938 227.547C186.586 228.797 186.234 230.242 185.883 231.883C185.57 233.484 185.414 234.734 185.414 235.633C185.414 237.859 185.902 239.383 186.879 240.203C187.855 240.984 189.457 241.375 191.684 241.375C192.426 241.375 193.48 241.258 194.848 241.023C196.254 240.75 197.328 240.477 198.07 240.203ZM262.055 210.906C262.055 215.516 261.273 220.125 259.711 224.734C258.148 229.344 255.883 233.387 252.914 236.863C249.906 240.457 246.273 243.348 242.016 245.535C237.797 247.684 232.895 248.758 227.309 248.758C220.824 248.758 215.551 246.668 211.488 242.488C207.465 238.309 205.453 232.684 205.453 225.613C205.453 220.418 206.312 215.574 208.031 211.082C209.75 206.59 212.055 202.645 214.945 199.246C217.875 195.848 221.488 193.113 225.785 191.043C230.121 188.934 234.809 187.879 239.848 187.879C246.801 187.879 252.23 190.008 256.137 194.266C260.082 198.484 262.055 204.031 262.055 210.906ZM250.102 208.68C250.102 203.133 249.105 198.973 247.113 196.199C245.16 193.426 242.328 192.039 238.617 192.039C235.375 192.039 232.309 193.035 229.418 195.027C226.566 197.02 224.105 200.262 222.035 204.754C220.434 208.152 219.262 211.941 218.52 216.121C217.777 220.262 217.406 224.09 217.406 227.605C217.406 233.191 218.363 237.43 220.277 240.32C222.23 243.172 225.16 244.598 229.066 244.598C232.543 244.598 235.629 243.504 238.324 241.316C241.02 239.129 243.207 236.355 244.887 232.996C246.566 229.715 247.855 225.965 248.754 221.746C249.652 217.488 250.102 213.133 250.102 208.68ZM331.84 194.793C331.84 196.551 331.293 198.074 330.199 199.363C329.105 200.613 327.523 201.238 325.453 201.238C324.242 201.238 322.973 200.828 321.645 200.008C320.355 199.148 318.969 197.996 317.484 196.551C316.781 197.059 316.039 198.23 315.258 200.066C314.516 201.863 313.754 203.523 312.973 205.047C312.074 206.883 310.902 208.855 309.457 210.965C308.051 213.074 306.312 214.793 304.242 216.121V216.648C306.703 217.82 308.52 219.246 309.691 220.926C310.902 222.605 311.781 225.027 312.328 228.191C312.406 228.699 312.562 229.559 312.797 230.77C313.031 231.98 313.227 233.094 313.383 234.109C313.773 236.453 314.555 238.309 315.727 239.676C316.938 241.004 318.949 241.668 321.762 241.668C322.816 241.668 324.086 241.512 325.57 241.199C327.055 240.887 328.129 240.613 328.793 240.379L327.855 244.305C323.871 245.867 320.98 246.863 319.184 247.293C317.426 247.762 315.453 247.996 313.266 247.996C310.766 247.996 308.578 247.273 306.703 245.828C304.867 244.344 303.656 241.805 303.07 238.211C302.875 237.039 302.68 235.711 302.484 234.227C302.289 232.742 302.074 231.453 301.84 230.359C301.098 226.375 300.16 223.719 299.027 222.391C297.934 221.062 296 220.398 293.227 220.398C293.227 220.398 292.66 220.398 291.527 220.398C290.434 220.398 289.73 220.398 289.418 220.398L283.383 247H272.426L281.156 209.031C281.43 207.781 281.723 206.355 282.035 204.754C282.348 203.113 282.504 201.746 282.504 200.652C282.504 198.465 282.133 197.02 281.391 196.316C280.688 195.574 279.223 195.203 276.996 195.203C276.137 195.203 275.043 195.359 273.715 195.672C272.387 195.984 271.352 196.238 270.609 196.434L271.488 192.684C274.535 191.316 277.211 190.281 279.516 189.578C281.859 188.875 283.734 188.523 285.141 188.523C288.266 188.523 290.551 189.266 291.996 190.75C293.48 192.195 294.223 194.266 294.223 196.961C294.223 197.586 294.145 198.543 293.988 199.832C293.832 201.082 293.578 202.469 293.227 203.992L290.473 216.004H293.988C295.277 216.004 296.527 215.789 297.738 215.359C298.988 214.891 300.199 214.148 301.371 213.133C302.738 211.961 303.871 210.633 304.77 209.148C305.707 207.664 306.625 205.945 307.523 203.992C308.383 202.117 309.262 200.359 310.16 198.719C311.059 197.078 312.328 195.34 313.969 193.504C315.492 191.824 317.191 190.555 319.066 189.695C320.98 188.797 323.012 188.348 325.16 188.348C327.152 188.348 328.754 188.953 329.965 190.164C331.215 191.336 331.84 192.879 331.84 194.793ZM371.566 239.266H371.156C370.297 239.969 369.262 240.867 368.051 241.961C366.879 243.016 365.492 244.031 363.891 245.008C362.367 245.984 360.707 246.824 358.91 247.527C357.113 248.27 355.16 248.641 353.051 248.641C347.387 248.641 342.934 246.609 339.691 242.547C336.488 238.484 334.887 232.938 334.887 225.906C334.887 221.062 335.785 216.355 337.582 211.785C339.379 207.215 341.859 203.113 345.023 199.48C348.031 196.004 351.605 193.211 355.746 191.102C359.887 188.953 364.145 187.879 368.52 187.879C371.293 187.879 373.93 188.25 376.43 188.992C378.969 189.734 380.961 190.574 382.406 191.512L393.129 188.758L393.832 189.637L384.926 227.43C384.613 228.641 384.281 230.125 383.93 231.883C383.617 233.602 383.461 234.871 383.461 235.691C383.461 237.918 383.93 239.422 384.867 240.203C385.805 240.984 387.387 241.375 389.613 241.375C390.355 241.375 391.41 241.258 392.777 241.023C394.145 240.789 395.199 240.535 395.941 240.262L395.062 244.012C391.547 245.418 388.93 246.434 387.211 247.059C385.492 247.684 383.402 247.996 380.941 247.996C378.129 247.996 375.902 247.176 374.262 245.535C372.621 243.895 371.723 241.805 371.566 239.266ZM379.945 202.234C379.945 200.945 379.809 199.715 379.535 198.543C379.262 197.371 378.695 196.277 377.836 195.262C377.055 194.285 375.98 193.504 374.613 192.918C373.246 192.332 371.527 192.039 369.457 192.039C366.605 192.039 363.832 192.977 361.137 194.852C358.441 196.727 356.02 199.246 353.871 202.41C351.84 205.379 350.18 208.973 348.891 213.191C347.602 217.41 346.957 221.688 346.957 226.023C346.957 228.406 347.094 230.516 347.367 232.352C347.641 234.188 348.168 235.867 348.949 237.391C349.691 238.875 350.766 240.027 352.172 240.848C353.578 241.668 355.355 242.078 357.504 242.078C359.691 242.078 361.977 241.473 364.359 240.262C366.781 239.012 369.496 236.844 372.504 233.758L379.945 202.234ZM452.074 201.355C452.074 202.879 451.801 204.422 451.254 205.984C450.707 207.508 449.848 208.895 448.676 210.145C447.387 211.551 445.844 212.762 444.047 213.777C442.289 214.754 439.887 215.516 436.84 216.062L436.605 216.824C438.09 216.902 439.613 217.137 441.176 217.527C442.738 217.918 444.164 218.543 445.453 219.402C446.82 220.301 447.914 221.414 448.734 222.742C449.555 224.031 449.965 225.77 449.965 227.957C449.965 234.129 447.172 239.109 441.586 242.898C436 246.688 428.949 248.582 420.434 248.582C414.262 248.582 409.418 247.391 405.902 245.008C402.387 242.586 400.629 239.5 400.629 235.75C400.629 233.68 401.234 231.844 402.445 230.242C403.695 228.602 405.473 227.781 407.777 227.781C409.652 227.781 411.059 228.309 411.996 229.363C412.934 230.379 413.402 231.512 413.402 232.762C413.402 233.816 413.051 235.145 412.348 236.746C411.684 238.348 411.098 239.676 410.59 240.73C411.332 241.668 412.621 242.527 414.457 243.309C416.293 244.09 418.52 244.48 421.137 244.48C425.824 244.48 429.809 242.957 433.09 239.91C436.371 236.863 438.012 232.957 438.012 228.191C438.012 225.301 437.035 223.152 435.082 221.746C433.168 220.301 430.434 219.578 426.879 219.578H419.906L421.02 214.363H428.285C430.629 214.363 432.621 213.973 434.262 213.191C435.902 212.371 437.152 211.414 438.012 210.32C438.91 209.227 439.555 208.094 439.945 206.922C440.336 205.75 440.531 204.676 440.531 203.699C440.531 201.004 439.672 198.797 437.953 197.078C436.273 195.32 433.773 194.441 430.453 194.441C426.82 194.441 423.363 195.398 420.082 197.312C416.84 199.188 413.676 202.078 410.59 205.984L407.133 203.523C410.062 198.836 413.734 195.047 418.148 192.156C422.602 189.266 427.602 187.82 433.148 187.82C439.242 187.82 443.91 189.07 447.152 191.57C450.434 194.031 452.074 197.293 452.074 201.355ZM497.191 239.266H496.781C495.922 239.969 494.887 240.867 493.676 241.961C492.504 243.016 491.117 244.031 489.516 245.008C487.992 245.984 486.332 246.824 484.535 247.527C482.738 248.27 480.785 248.641 478.676 248.641C473.012 248.641 468.559 246.609 465.316 242.547C462.113 238.484 460.512 232.938 460.512 225.906C460.512 221.062 461.41 216.355 463.207 211.785C465.004 207.215 467.484 203.113 470.648 199.48C473.656 196.004 477.23 193.211 481.371 191.102C485.512 188.953 489.77 187.879 494.145 187.879C496.918 187.879 499.555 188.25 502.055 188.992C504.594 189.734 506.586 190.574 508.031 191.512L518.754 188.758L519.457 189.637L510.551 227.43C510.238 228.641 509.906 230.125 509.555 231.883C509.242 233.602 509.086 234.871 509.086 235.691C509.086 237.918 509.555 239.422 510.492 240.203C511.43 240.984 513.012 241.375 515.238 241.375C515.98 241.375 517.035 241.258 518.402 241.023C519.77 240.789 520.824 240.535 521.566 240.262L520.688 244.012C517.172 245.418 514.555 246.434 512.836 247.059C511.117 247.684 509.027 247.996 506.566 247.996C503.754 247.996 501.527 247.176 499.887 245.535C498.246 243.895 497.348 241.805 497.191 239.266ZM505.57 202.234C505.57 200.945 505.434 199.715 505.16 198.543C504.887 197.371 504.32 196.277 503.461 195.262C502.68 194.285 501.605 193.504 500.238 192.918C498.871 192.332 497.152 192.039 495.082 192.039C492.23 192.039 489.457 192.977 486.762 194.852C484.066 196.727 481.645 199.246 479.496 202.41C477.465 205.379 475.805 208.973 474.516 213.191C473.227 217.41 472.582 221.688 472.582 226.023C472.582 228.406 472.719 230.516 472.992 232.352C473.266 234.188 473.793 235.867 474.574 237.391C475.316 238.875 476.391 240.027 477.797 240.848C479.203 241.668 480.98 242.078 483.129 242.078C485.316 242.078 487.602 241.473 489.984 240.262C492.406 239.012 495.121 236.844 498.129 233.758L505.57 202.234ZM627.328 240.379L626.449 244.129C622.855 245.574 619.984 246.57 617.836 247.117C615.688 247.703 613.852 247.996 612.328 247.996C609.203 247.996 606.859 247.195 605.297 245.594C603.734 243.953 602.953 241.941 602.953 239.559C602.953 238.699 603.031 237.762 603.188 236.746C603.344 235.691 603.598 234.461 603.949 233.055L609.691 211.199C610.121 209.52 610.453 207.996 610.688 206.629C610.961 205.262 611.098 204.168 611.098 203.348C611.098 200.73 610.531 198.66 609.398 197.137C608.266 195.613 606.469 194.852 604.008 194.852C601.391 194.852 598.812 195.477 596.273 196.727C593.773 197.938 590.941 200.223 587.777 203.582L577.582 247H566.684L575.883 207.859C576.078 207 576.254 206.102 576.41 205.164C576.605 204.188 576.703 203.465 576.703 202.996C576.703 200.457 576.059 198.465 574.77 197.02C573.52 195.574 571.664 194.852 569.203 194.852C566.977 194.852 564.516 195.418 561.82 196.551C559.125 197.645 556 200.125 552.445 203.992L542.543 247H531.645L540.375 209.031C540.688 207.664 540.98 206.199 541.254 204.637C541.566 203.074 541.723 201.746 541.723 200.652C541.723 198.387 541.352 196.902 540.609 196.199C539.867 195.457 538.422 195.086 536.273 195.086C535.414 195.086 534.301 195.242 532.934 195.555C531.605 195.867 530.57 196.121 529.828 196.316L530.707 192.566C533.754 191.199 536.449 190.184 538.793 189.52C541.137 188.855 543.148 188.523 544.828 188.523C547.953 188.523 550.16 189.383 551.449 191.102C552.777 192.781 553.48 195.086 553.559 198.016H553.91C558.52 194.383 562.309 191.785 565.277 190.223C568.246 188.66 571.781 187.879 575.883 187.879C579.359 187.879 582.172 188.895 584.32 190.926C586.508 192.918 587.738 195.438 588.012 198.484H588.246C592.426 195.008 596.137 192.371 599.379 190.574C602.66 188.777 606.469 187.879 610.805 187.879C614.555 187.879 617.426 188.973 619.418 191.16C621.449 193.309 622.465 196.141 622.465 199.656C622.465 200.359 622.348 201.609 622.113 203.406C621.918 205.203 621.586 206.98 621.117 208.738L616.195 227.547C615.844 228.797 615.512 230.242 615.199 231.883C614.887 233.484 614.73 234.734 614.73 235.633C614.73 237.859 615.199 239.383 616.137 240.203C617.074 240.984 618.656 241.375 620.883 241.375C621.625 241.375 622.699 241.277 624.105 241.082C625.512 240.887 626.586 240.652 627.328 240.379ZM685.043 200.066C685.043 204.207 683.734 207.762 681.117 210.73C678.539 213.699 674.77 216.062 669.809 217.82C666.176 219.148 662.504 220.223 658.793 221.043C655.082 221.863 650.98 222.547 646.488 223.094C646.488 229.266 647.621 233.992 649.887 237.273C652.191 240.516 655.551 242.137 659.965 242.137C663.871 242.137 667.309 241.16 670.277 239.207C673.285 237.254 676.234 234.344 679.125 230.477L682.465 232.938C679.34 237.703 675.434 241.512 670.746 244.363C666.059 247.215 661.195 248.641 656.156 248.641C649.242 248.641 643.949 246.707 640.277 242.84C636.645 238.973 634.828 233.484 634.828 226.375C634.828 221.453 635.59 216.766 637.113 212.312C638.676 207.82 640.941 203.719 643.91 200.008C646.801 196.375 650.336 193.445 654.516 191.219C658.734 188.992 663.383 187.879 668.461 187.879C674.086 187.879 678.246 189.031 680.941 191.336C683.676 193.602 685.043 196.512 685.043 200.066ZM674.262 198.602C674.262 197.078 674.047 195.887 673.617 195.027C673.188 194.129 672.641 193.465 671.977 193.035C671.273 192.566 670.531 192.273 669.75 192.156C668.969 192.039 668.168 191.98 667.348 191.98C662.66 191.98 658.324 194.559 654.34 199.715C650.395 204.871 647.895 211.297 646.84 218.992C649.574 218.602 652.66 218.055 656.098 217.352C659.535 216.609 662.387 215.652 664.652 214.48C667.895 212.801 670.297 210.652 671.859 208.035C673.461 205.379 674.262 202.234 674.262 198.602ZM750.727 243.953C747.211 245.359 744.496 246.375 742.582 247C740.668 247.664 738.715 247.996 736.723 247.996C733.598 247.996 731.254 247.195 729.691 245.594C728.168 243.953 727.406 241.941 727.406 239.559C727.406 238.699 727.484 237.762 727.641 236.746C727.797 235.691 728.051 234.461 728.402 233.055L734.262 210.203C735.199 206.453 735.902 203.484 736.371 201.297C736.84 199.109 737.074 197.371 737.074 196.082C737.074 195.418 736.41 194.695 735.082 193.914C733.793 193.094 732.328 192.684 730.688 192.684C727.211 192.684 724.145 194.598 721.488 198.426C718.832 202.215 716 208.562 712.992 217.469C711.82 220.984 710.453 224.637 708.891 228.426C707.328 232.215 705.688 235.477 703.969 238.211C702.016 241.297 699.984 243.719 697.875 245.477C695.766 247.234 693.383 248.113 690.727 248.113C688.734 248.113 687.211 247.508 686.156 246.297C685.062 245.047 684.516 243.543 684.516 241.785C684.516 240.262 685.082 238.758 686.215 237.273C687.348 235.789 688.93 235.047 690.961 235.047C692.016 235.047 693.109 235.281 694.242 235.75C695.375 236.18 696.586 236.746 697.875 237.449C699.594 235.691 701.41 232.469 703.324 227.781C705.238 223.055 706.625 219.383 707.484 216.766C708.5 213.68 709.73 210.32 711.176 206.688C712.621 203.016 714.242 199.891 716.039 197.312C718.031 194.461 720.512 192.176 723.48 190.457C726.488 188.738 730.141 187.879 734.438 187.879C738.695 187.879 742.055 188.582 744.516 189.988C746.977 191.395 748.207 193.094 748.207 195.086C748.207 196.18 747.973 197.879 747.504 200.184C747.074 202.488 746.586 204.617 746.039 206.57L740.473 227.547C740.121 228.797 739.77 230.242 739.418 231.883C739.066 233.484 738.891 234.734 738.891 235.633C738.891 237.859 739.379 239.383 740.355 240.203C741.371 240.984 742.992 241.375 745.219 241.375C745.961 241.375 747.016 241.258 748.383 241.023C749.789 240.75 750.863 240.477 751.605 240.203L750.727 243.953ZM796.664 238.797H796.312C794.516 240.242 792.797 241.57 791.156 242.781C789.516 243.992 787.895 245.008 786.293 245.828C784.418 246.766 782.719 247.43 781.195 247.82C779.672 248.25 777.68 248.465 775.219 248.465C771.469 248.465 768.559 247.391 766.488 245.242C764.418 243.055 763.383 240.203 763.383 236.688C763.383 235.75 763.461 234.637 763.617 233.348C763.773 232.059 764.145 230.145 764.73 227.605L769.301 209.031C769.691 207.312 770.004 205.789 770.238 204.461C770.512 203.133 770.648 201.863 770.648 200.652C770.648 198.465 770.277 197.02 769.535 196.316C768.832 195.574 767.367 195.203 765.141 195.203C764.281 195.203 763.188 195.359 761.859 195.672C760.531 195.984 759.496 196.238 758.754 196.434L759.633 192.684C762.68 191.316 765.355 190.281 767.66 189.578C770.004 188.875 771.879 188.523 773.285 188.523C776.41 188.523 778.695 189.266 780.141 190.75C781.625 192.195 782.367 194.266 782.367 196.961C782.367 197.664 782.289 198.621 782.133 199.832C781.977 201.043 781.742 202.254 781.43 203.465L776.215 225.145C775.824 226.785 775.492 228.328 775.219 229.773C774.984 231.18 774.867 232.254 774.867 232.996C774.867 235.613 775.434 237.684 776.566 239.207C777.699 240.73 779.496 241.492 781.957 241.492C784.457 241.492 787.016 240.848 789.633 239.559C792.289 238.23 794.945 236.238 797.602 233.582L807.855 189.461L818.051 188.758L818.754 189.637L810.023 227.371C809.633 228.973 809.281 230.594 808.969 232.234C808.656 233.836 808.5 234.969 808.5 235.633C808.5 237.859 808.969 239.383 809.906 240.203C810.883 240.984 812.484 241.375 814.711 241.375C815.453 241.375 816.508 241.258 817.875 241.023C819.242 240.789 820.297 240.535 821.039 240.262L820.16 244.012C816.918 245.34 814.203 246.336 812.016 247C809.867 247.664 807.875 247.996 806.039 247.996C802.875 247.996 800.512 247.078 798.949 245.242C797.426 243.406 796.664 241.258 796.664 238.797ZM878.109 214.012H901.664L907.406 189.461L917.602 188.758L918.305 189.637L909.574 227.371C909.301 228.504 908.969 229.988 908.578 231.824C908.227 233.621 908.051 234.891 908.051 235.633C908.051 237.859 908.539 239.383 909.516 240.203C910.492 240.984 912.094 241.375 914.32 241.375C915.062 241.375 916.117 241.258 917.484 241.023C918.891 240.75 919.965 240.477 920.707 240.203L919.828 243.953C916.312 245.359 913.578 246.375 911.625 247C909.672 247.664 907.699 247.996 905.707 247.996C902.582 247.996 900.238 247.195 898.676 245.594C897.113 243.953 896.332 241.941 896.332 239.559C896.332 238.699 896.41 237.762 896.566 236.746C896.762 235.691 897.016 234.402 897.328 232.879L900.609 218.699H877.055L870.609 247H859.652L868.383 209.031C868.656 207.781 868.949 206.355 869.262 204.754C869.574 203.113 869.73 201.746 869.73 200.652C869.73 198.465 869.359 197.02 868.617 196.316C867.914 195.574 866.449 195.203 864.223 195.203C863.363 195.203 862.27 195.359 860.941 195.672C859.613 195.984 858.578 196.238 857.836 196.434L858.715 192.684C861.762 191.316 864.438 190.281 866.742 189.578C869.086 188.875 870.961 188.523 872.367 188.523C875.492 188.523 877.777 189.266 879.223 190.75C880.707 192.195 881.449 194.266 881.449 196.961C881.449 197.586 881.371 198.543 881.215 199.832C881.059 201.082 880.805 202.469 880.453 203.992L878.109 214.012ZM964.652 239.266H964.242C963.383 239.969 962.348 240.867 961.137 241.961C959.965 243.016 958.578 244.031 956.977 245.008C955.453 245.984 953.793 246.824 951.996 247.527C950.199 248.27 948.246 248.641 946.137 248.641C940.473 248.641 936.02 246.609 932.777 242.547C929.574 238.484 927.973 232.938 927.973 225.906C927.973 221.062 928.871 216.355 930.668 211.785C932.465 207.215 934.945 203.113 938.109 199.48C941.117 196.004 944.691 193.211 948.832 191.102C952.973 188.953 957.23 187.879 961.605 187.879C964.379 187.879 967.016 188.25 969.516 188.992C972.055 189.734 974.047 190.574 975.492 191.512L986.215 188.758L986.918 189.637L978.012 227.43C977.699 228.641 977.367 230.125 977.016 231.883C976.703 233.602 976.547 234.871 976.547 235.691C976.547 237.918 977.016 239.422 977.953 240.203C978.891 240.984 980.473 241.375 982.699 241.375C983.441 241.375 984.496 241.258 985.863 241.023C987.23 240.789 988.285 240.535 989.027 240.262L988.148 244.012C984.633 245.418 982.016 246.434 980.297 247.059C978.578 247.684 976.488 247.996 974.027 247.996C971.215 247.996 968.988 247.176 967.348 245.535C965.707 243.895 964.809 241.805 964.652 239.266ZM973.031 202.234C973.031 200.945 972.895 199.715 972.621 198.543C972.348 197.371 971.781 196.277 970.922 195.262C970.141 194.285 969.066 193.504 967.699 192.918C966.332 192.332 964.613 192.039 962.543 192.039C959.691 192.039 956.918 192.977 954.223 194.852C951.527 196.727 949.105 199.246 946.957 202.41C944.926 205.379 943.266 208.973 941.977 213.191C940.688 217.41 940.043 221.688 940.043 226.023C940.043 228.406 940.18 230.516 940.453 232.352C940.727 234.188 941.254 235.867 942.035 237.391C942.777 238.875 943.852 240.027 945.258 240.848C946.664 241.668 948.441 242.078 950.59 242.078C952.777 242.078 955.062 241.473 957.445 240.262C959.867 239.012 962.582 236.844 965.59 233.758L973.031 202.234ZM1006.9 200.066C1006.9 198.191 1006.62 196.902 1006.08 196.199C1005.53 195.496 1004.03 195.145 1001.57 195.145C1000.71 195.145 999.555 195.32 998.109 195.672C996.703 195.984 995.629 196.238 994.887 196.434L995.766 192.684C998.812 191.316 1001.53 190.281 1003.91 189.578C1006.33 188.875 1008.25 188.523 1009.65 188.523C1012.54 188.523 1014.67 189.227 1016.04 190.633C1017.45 192 1018.15 193.914 1018.15 196.375C1018.15 198.602 1017.7 201.551 1016.8 205.223C1015.9 208.895 1015.45 211.238 1015.45 212.254C1015.45 214.598 1016.04 216.434 1017.21 217.762C1018.38 219.09 1020.24 219.754 1022.78 219.754C1025.24 219.754 1027.74 219.148 1030.28 217.938C1032.86 216.688 1035.39 214.891 1037.89 212.547L1043.29 189.461L1053.48 188.758L1054.18 189.637L1045.39 227.371C1045.12 228.504 1044.79 229.988 1044.4 231.824C1044.05 233.621 1043.87 234.891 1043.87 235.633C1043.87 237.859 1044.36 239.383 1045.34 240.203C1046.31 240.984 1047.91 241.375 1050.14 241.375C1050.88 241.375 1051.94 241.258 1053.3 241.023C1054.71 240.75 1055.79 240.477 1056.53 240.203L1055.65 243.953C1052.13 245.359 1049.4 246.375 1047.45 247C1045.49 247.664 1043.52 247.996 1041.53 247.996C1038.4 247.996 1036.06 247.195 1034.5 245.594C1032.93 243.953 1032.15 241.941 1032.15 239.559C1032.15 238.699 1032.23 237.762 1032.39 236.746C1032.58 235.691 1032.84 234.402 1033.15 232.879L1036.66 218.113H1036.31C1033.11 220.809 1029.91 222.918 1026.7 224.441C1023.54 225.965 1020.02 226.727 1016.16 226.727C1012.41 226.727 1009.48 225.691 1007.37 223.621C1005.26 221.512 1004.2 218.895 1004.2 215.77C1004.2 214.246 1004.65 211.492 1005.55 207.508C1006.45 203.523 1006.9 201.043 1006.9 200.066ZM1084.59 214.012H1108.15L1113.89 189.461L1124.09 188.758L1124.79 189.637L1116.06 227.371C1115.79 228.504 1115.45 229.988 1115.06 231.824C1114.71 233.621 1114.54 234.891 1114.54 235.633C1114.54 237.859 1115.02 239.383 1116 240.203C1116.98 240.984 1118.58 241.375 1120.8 241.375C1121.55 241.375 1122.6 241.258 1123.97 241.023C1125.38 240.75 1126.45 240.477 1127.19 240.203L1126.31 243.953C1122.8 245.359 1120.06 246.375 1118.11 247C1116.16 247.664 1114.18 247.996 1112.19 247.996C1109.07 247.996 1106.72 247.195 1105.16 245.594C1103.6 243.953 1102.82 241.941 1102.82 239.559C1102.82 238.699 1102.89 237.762 1103.05 236.746C1103.25 235.691 1103.5 234.402 1103.81 232.879L1107.09 218.699H1083.54L1077.09 247H1066.14L1074.87 209.031C1075.14 207.781 1075.43 206.355 1075.75 204.754C1076.06 203.113 1076.21 201.746 1076.21 200.652C1076.21 198.465 1075.84 197.02 1075.1 196.316C1074.4 195.574 1072.93 195.203 1070.71 195.203C1069.85 195.203 1068.75 195.359 1067.43 195.672C1066.1 195.984 1065.06 196.238 1064.32 196.434L1065.2 192.684C1068.25 191.316 1070.92 190.281 1073.23 189.578C1075.57 188.875 1077.45 188.523 1078.85 188.523C1081.98 188.523 1084.26 189.266 1085.71 190.75C1087.19 192.195 1087.93 194.266 1087.93 196.961C1087.93 197.586 1087.86 198.543 1087.7 199.832C1087.54 201.082 1087.29 202.469 1086.94 203.992L1084.59 214.012ZM1172.37 238.504H1172.02C1168.42 241.512 1165 243.875 1161.76 245.594C1158.52 247.312 1154.83 248.172 1150.69 248.172C1146.94 248.172 1143.97 247.098 1141.78 244.949C1139.59 242.762 1138.5 239.91 1138.5 236.395C1138.5 235.457 1138.58 234.344 1138.73 233.055C1138.89 231.766 1139.26 229.852 1139.85 227.312L1144.42 209.031C1144.85 207.273 1145.18 205.75 1145.41 204.461C1145.65 203.133 1145.77 201.863 1145.77 200.652C1145.77 198.465 1145.39 197.02 1144.65 196.316C1143.95 195.574 1142.48 195.203 1140.26 195.203C1139.4 195.203 1138.3 195.359 1136.98 195.672C1135.65 195.984 1134.61 196.238 1133.87 196.434L1134.75 192.684C1137.8 191.316 1140.47 190.281 1142.78 189.578C1145.12 188.875 1147 188.523 1148.4 188.523C1151.53 188.523 1153.83 189.227 1155.32 190.633C1156.84 192.039 1157.6 194.148 1157.6 196.961C1157.6 197.664 1157.52 198.621 1157.37 199.832C1157.21 201.043 1156.98 202.254 1156.66 203.465L1151.33 224.852C1150.94 226.492 1150.61 228.035 1150.34 229.48C1150.06 230.887 1149.93 231.961 1149.93 232.703C1149.93 235.32 1150.55 237.391 1151.8 238.914C1153.09 240.438 1154.96 241.199 1157.43 241.199C1160.28 241.199 1163.05 240.496 1165.75 239.09C1168.48 237.684 1171.04 235.75 1173.42 233.289L1183.15 189.461L1193.29 188.758L1193.99 189.637L1183.91 235.516C1182.43 242.234 1180.53 247.977 1178.23 252.742C1175.92 257.508 1173.23 261.355 1170.14 264.285C1166.9 267.371 1163.4 269.598 1159.65 270.965C1155.9 272.332 1151.62 273.016 1146.82 273.016C1143.5 273.016 1140.86 272.781 1138.91 272.312C1136.96 271.844 1135.41 271.199 1134.28 270.379C1133.15 269.598 1132.39 268.719 1132 267.742C1131.61 266.766 1131.41 265.789 1131.41 264.812C1131.41 263.133 1131.92 261.648 1132.93 260.359C1133.95 259.07 1135.41 258.426 1137.33 258.426C1138.77 258.426 1140 258.836 1141.02 259.656C1142.04 260.477 1142.86 261.375 1143.48 262.352C1144.18 263.406 1144.83 264.598 1145.41 265.926C1146 267.254 1146.47 268.309 1146.82 269.09H1148.23C1150.45 269.09 1152.8 268.543 1155.26 267.449C1157.76 266.355 1160.04 264.656 1162.11 262.352C1164.34 259.852 1166.33 256.629 1168.09 252.684C1169.89 248.738 1171.31 244.012 1172.37 238.504ZM1299.63 240.379L1298.75 244.129C1295.16 245.574 1292.29 246.57 1290.14 247.117C1287.99 247.703 1286.16 247.996 1284.63 247.996C1281.51 247.996 1279.16 247.195 1277.6 245.594C1276.04 243.953 1275.26 241.941 1275.26 239.559C1275.26 238.699 1275.34 237.762 1275.49 236.746C1275.65 235.691 1275.9 234.461 1276.25 233.055L1282 211.199C1282.43 209.52 1282.76 207.996 1282.99 206.629C1283.27 205.262 1283.4 204.168 1283.4 203.348C1283.4 200.73 1282.84 198.66 1281.7 197.137C1280.57 195.613 1278.77 194.852 1276.31 194.852C1273.7 194.852 1271.12 195.477 1268.58 196.727C1266.08 197.938 1263.25 200.223 1260.08 203.582L1249.89 247H1238.99L1248.19 207.859C1248.38 207 1248.56 206.102 1248.71 205.164C1248.91 204.188 1249.01 203.465 1249.01 202.996C1249.01 200.457 1248.36 198.465 1247.07 197.02C1245.82 195.574 1243.97 194.852 1241.51 194.852C1239.28 194.852 1236.82 195.418 1234.12 196.551C1231.43 197.645 1228.3 200.125 1224.75 203.992L1214.85 247H1203.95L1212.68 209.031C1212.99 207.664 1213.29 206.199 1213.56 204.637C1213.87 203.074 1214.03 201.746 1214.03 200.652C1214.03 198.387 1213.66 196.902 1212.91 196.199C1212.17 195.457 1210.73 195.086 1208.58 195.086C1207.72 195.086 1206.61 195.242 1205.24 195.555C1203.91 195.867 1202.88 196.121 1202.13 196.316L1203.01 192.566C1206.06 191.199 1208.75 190.184 1211.1 189.52C1213.44 188.855 1215.45 188.523 1217.13 188.523C1220.26 188.523 1222.46 189.383 1223.75 191.102C1225.08 192.781 1225.79 195.086 1225.86 198.016H1226.21C1230.82 194.383 1234.61 191.785 1237.58 190.223C1240.55 188.66 1244.09 187.879 1248.19 187.879C1251.66 187.879 1254.48 188.895 1256.62 190.926C1258.81 192.918 1260.04 195.438 1260.32 198.484H1260.55C1264.73 195.008 1268.44 192.371 1271.68 190.574C1274.96 188.777 1278.77 187.879 1283.11 187.879C1286.86 187.879 1289.73 188.973 1291.72 191.16C1293.75 193.309 1294.77 196.141 1294.77 199.656C1294.77 200.359 1294.65 201.609 1294.42 203.406C1294.22 205.203 1293.89 206.98 1293.42 208.738L1288.5 227.547C1288.15 228.797 1287.82 230.242 1287.5 231.883C1287.19 233.484 1287.04 234.734 1287.04 235.633C1287.04 237.859 1287.5 239.383 1288.44 240.203C1289.38 240.984 1290.96 241.375 1293.19 241.375C1293.93 241.375 1295 241.277 1296.41 241.082C1297.82 240.887 1298.89 240.652 1299.63 240.379ZM92.1328 366.262C92.1328 371.496 91.2148 376.457 89.3789 381.145C87.543 385.832 85.1016 389.895 82.0547 393.332C78.6562 397.121 74.9648 399.934 70.9805 401.77C67.0352 403.605 62.9727 404.523 58.793 404.523C55.4336 404.523 52.6797 404.113 50.5312 403.293C48.3828 402.473 46.4688 401.457 44.7891 400.246L41.3906 415.598C41.1562 416.574 40.9609 417.492 40.8047 418.352C40.6875 419.211 40.6289 419.895 40.6289 420.402C40.6289 421.457 41 422.297 41.7422 422.922C42.5234 423.547 43.4023 423.996 44.3789 424.27C45.3555 424.582 46.4492 424.816 47.6602 424.973C48.8711 425.129 49.9648 425.246 50.9414 425.324L50.1211 429.016H17.8359L18.6562 425.324C19.9062 425.246 21.0781 425.148 22.1719 425.031C23.2656 424.914 24.3008 424.719 25.2773 424.445C26.4883 424.094 27.4453 423.43 28.1484 422.453C28.8906 421.516 29.418 420.344 29.7305 418.938L41.9766 365.031C42.2891 363.547 42.582 362.062 42.8555 360.578C43.1289 359.055 43.2656 357.746 43.2656 356.652C43.2656 354.465 42.9141 353 42.2109 352.258C41.5469 351.516 40.082 351.145 37.8164 351.145C36.957 351.145 35.8633 351.32 34.5352 351.672C33.207 351.984 32.1719 352.238 31.4297 352.434L32.3086 348.684C35.2773 347.355 37.9531 346.34 40.3359 345.637C42.7188 344.895 44.75 344.523 46.4297 344.523C49.1641 344.523 51.2344 345.227 52.6406 346.633C54.0469 348 54.9258 349.914 55.2773 352.375H55.7461C58.4023 349.914 61.2344 347.883 64.2422 346.281C67.2891 344.68 70.3164 343.879 73.3242 343.879C79.2617 343.879 83.8711 345.91 87.1523 349.973C90.4727 353.996 92.1328 359.426 92.1328 366.262ZM73.8516 390.461C75.8438 387.258 77.3672 383.625 78.4219 379.562C79.5156 375.461 80.0625 371.125 80.0625 366.555C80.0625 364.484 79.8672 362.414 79.4766 360.344C79.125 358.234 78.5391 356.496 77.7188 355.129C76.8594 353.605 75.6875 352.434 74.2031 351.613C72.7188 350.754 70.7656 350.324 68.3438 350.324C66.5469 350.324 64.5547 350.871 62.3672 351.965C60.2188 353.059 57.582 355.109 54.457 358.117L46.957 391.34C47.2305 393.566 48.4219 395.656 50.5312 397.609C52.6797 399.523 55.2578 400.48 58.2656 400.48C61.3516 400.48 64.2422 399.582 66.9375 397.785C69.6328 395.988 71.9375 393.547 73.8516 390.461ZM137.016 395.266H136.605C135.746 395.969 134.711 396.867 133.5 397.961C132.328 399.016 130.941 400.031 129.34 401.008C127.816 401.984 126.156 402.824 124.359 403.527C122.562 404.27 120.609 404.641 118.5 404.641C112.836 404.641 108.383 402.609 105.141 398.547C101.938 394.484 100.336 388.938 100.336 381.906C100.336 377.062 101.234 372.355 103.031 367.785C104.828 363.215 107.309 359.113 110.473 355.48C113.48 352.004 117.055 349.211 121.195 347.102C125.336 344.953 129.594 343.879 133.969 343.879C136.742 343.879 139.379 344.25 141.879 344.992C144.418 345.734 146.41 346.574 147.855 347.512L158.578 344.758L159.281 345.637L150.375 383.43C150.062 384.641 149.73 386.125 149.379 387.883C149.066 389.602 148.91 390.871 148.91 391.691C148.91 393.918 149.379 395.422 150.316 396.203C151.254 396.984 152.836 397.375 155.062 397.375C155.805 397.375 156.859 397.258 158.227 397.023C159.594 396.789 160.648 396.535 161.391 396.262L160.512 400.012C156.996 401.418 154.379 402.434 152.66 403.059C150.941 403.684 148.852 403.996 146.391 403.996C143.578 403.996 141.352 403.176 139.711 401.535C138.07 399.895 137.172 397.805 137.016 395.266ZM145.395 358.234C145.395 356.945 145.258 355.715 144.984 354.543C144.711 353.371 144.145 352.277 143.285 351.262C142.504 350.285 141.43 349.504 140.062 348.918C138.695 348.332 136.977 348.039 134.906 348.039C132.055 348.039 129.281 348.977 126.586 350.852C123.891 352.727 121.469 355.246 119.32 358.41C117.289 361.379 115.629 364.973 114.34 369.191C113.051 373.41 112.406 377.688 112.406 382.023C112.406 384.406 112.543 386.516 112.816 388.352C113.09 390.188 113.617 391.867 114.398 393.391C115.141 394.875 116.215 396.027 117.621 396.848C119.027 397.668 120.805 398.078 122.953 398.078C125.141 398.078 127.426 397.473 129.809 396.262C132.23 395.012 134.945 392.844 137.953 389.758L145.395 358.234ZM191.098 404.641C184.262 404.641 178.852 402.648 174.867 398.664C170.922 394.68 168.949 389.016 168.949 381.672C168.949 376.789 169.691 372.121 171.176 367.668C172.699 363.176 174.809 359.191 177.504 355.715C180.199 352.238 183.598 349.406 187.699 347.219C191.84 344.992 196.43 343.879 201.469 343.879C207.055 343.879 211.293 345.07 214.184 347.453C217.113 349.797 218.578 352.766 218.578 356.359C218.578 359.055 217.934 361.418 216.645 363.449C215.395 365.48 213.5 366.496 210.961 366.496C208.852 366.496 207.27 365.969 206.215 364.914C205.16 363.859 204.633 362.688 204.633 361.398C204.633 360.148 205.062 358.449 205.922 356.301C206.781 354.113 207.465 352.355 207.973 351.027C207.543 349.973 206.586 349.211 205.102 348.742C203.617 348.234 202.074 347.98 200.473 347.98C195.16 347.98 190.57 351.086 186.703 357.297C182.875 363.469 180.961 371.047 180.961 380.031C180.961 385.578 182.191 389.992 184.652 393.273C187.152 396.516 190.512 398.137 194.73 398.137C198.52 398.137 201.879 397.121 204.809 395.09C207.777 393.059 210.609 390.188 213.305 386.477L216.645 388.938C213.949 393.195 210.277 396.887 205.629 400.012C201.02 403.098 196.176 404.641 191.098 404.641ZM321.645 396.379L320.766 400.129C317.172 401.574 314.301 402.57 312.152 403.117C310.004 403.703 308.168 403.996 306.645 403.996C303.52 403.996 301.176 403.195 299.613 401.594C298.051 399.953 297.27 397.941 297.27 395.559C297.27 394.699 297.348 393.762 297.504 392.746C297.66 391.691 297.914 390.461 298.266 389.055L304.008 367.199C304.438 365.52 304.77 363.996 305.004 362.629C305.277 361.262 305.414 360.168 305.414 359.348C305.414 356.73 304.848 354.66 303.715 353.137C302.582 351.613 300.785 350.852 298.324 350.852C295.707 350.852 293.129 351.477 290.59 352.727C288.09 353.938 285.258 356.223 282.094 359.582L271.898 403H261L270.199 363.859C270.395 363 270.57 362.102 270.727 361.164C270.922 360.188 271.02 359.465 271.02 358.996C271.02 356.457 270.375 354.465 269.086 353.02C267.836 351.574 265.98 350.852 263.52 350.852C261.293 350.852 258.832 351.418 256.137 352.551C253.441 353.645 250.316 356.125 246.762 359.992L236.859 403H225.961L234.691 365.031C235.004 363.664 235.297 362.199 235.57 360.637C235.883 359.074 236.039 357.746 236.039 356.652C236.039 354.387 235.668 352.902 234.926 352.199C234.184 351.457 232.738 351.086 230.59 351.086C229.73 351.086 228.617 351.242 227.25 351.555C225.922 351.867 224.887 352.121 224.145 352.316L225.023 348.566C228.07 347.199 230.766 346.184 233.109 345.52C235.453 344.855 237.465 344.523 239.145 344.523C242.27 344.523 244.477 345.383 245.766 347.102C247.094 348.781 247.797 351.086 247.875 354.016H248.227C252.836 350.383 256.625 347.785 259.594 346.223C262.562 344.66 266.098 343.879 270.199 343.879C273.676 343.879 276.488 344.895 278.637 346.926C280.824 348.918 282.055 351.438 282.328 354.484H282.562C286.742 351.008 290.453 348.371 293.695 346.574C296.977 344.777 300.785 343.879 305.121 343.879C308.871 343.879 311.742 344.973 313.734 347.16C315.766 349.309 316.781 352.141 316.781 355.656C316.781 356.359 316.664 357.609 316.43 359.406C316.234 361.203 315.902 362.98 315.434 364.738L310.512 383.547C310.16 384.797 309.828 386.242 309.516 387.883C309.203 389.484 309.047 390.734 309.047 391.633C309.047 393.859 309.516 395.383 310.453 396.203C311.391 396.984 312.973 397.375 315.199 397.375C315.941 397.375 317.016 397.277 318.422 397.082C319.828 396.887 320.902 396.652 321.645 396.379ZM366.527 394.797H366.176C364.379 396.242 362.66 397.57 361.02 398.781C359.379 399.992 357.758 401.008 356.156 401.828C354.281 402.766 352.582 403.43 351.059 403.82C349.535 404.25 347.543 404.465 345.082 404.465C341.332 404.465 338.422 403.391 336.352 401.242C334.281 399.055 333.246 396.203 333.246 392.688C333.246 391.75 333.324 390.637 333.48 389.348C333.637 388.059 334.008 386.145 334.594 383.605L339.164 365.031C339.555 363.312 339.867 361.789 340.102 360.461C340.375 359.133 340.512 357.863 340.512 356.652C340.512 354.465 340.141 353.02 339.398 352.316C338.695 351.574 337.23 351.203 335.004 351.203C334.145 351.203 333.051 351.359 331.723 351.672C330.395 351.984 329.359 352.238 328.617 352.434L329.496 348.684C332.543 347.316 335.219 346.281 337.523 345.578C339.867 344.875 341.742 344.523 343.148 344.523C346.273 344.523 348.559 345.266 350.004 346.75C351.488 348.195 352.23 350.266 352.23 352.961C352.23 353.664 352.152 354.621 351.996 355.832C351.84 357.043 351.605 358.254 351.293 359.465L346.078 381.145C345.688 382.785 345.355 384.328 345.082 385.773C344.848 387.18 344.73 388.254 344.73 388.996C344.73 391.613 345.297 393.684 346.43 395.207C347.562 396.73 349.359 397.492 351.82 397.492C354.32 397.492 356.879 396.848 359.496 395.559C362.152 394.23 364.809 392.238 367.465 389.582L377.719 345.461L387.914 344.758L388.617 345.637L379.887 383.371C379.496 384.973 379.145 386.594 378.832 388.234C378.52 389.836 378.363 390.969 378.363 391.633C378.363 393.859 378.832 395.383 379.77 396.203C380.746 396.984 382.348 397.375 384.574 397.375C385.316 397.375 386.371 397.258 387.738 397.023C389.105 396.789 390.16 396.535 390.902 396.262L390.023 400.012C386.781 401.34 384.066 402.336 381.879 403C379.73 403.664 377.738 403.996 375.902 403.996C372.738 403.996 370.375 403.078 368.812 401.242C367.289 399.406 366.527 397.258 366.527 394.797ZM418.324 397.258C418.324 400.578 417.562 403.664 416.039 406.516C414.516 409.406 412.562 412.004 410.18 414.309C407.914 416.535 405.57 418.43 403.148 419.992C400.727 421.594 398.578 422.844 396.703 423.742L394.828 419.816C396.625 418.84 398.441 417.727 400.277 416.477C402.113 415.266 403.656 414.035 404.906 412.785C406.469 411.262 407.777 409.758 408.832 408.273C409.926 406.789 410.785 404.992 411.41 402.883H408.656C406.273 402.883 404.477 402.297 403.266 401.125C402.094 399.914 401.508 398.352 401.508 396.438C401.508 394.406 402.289 392.531 403.852 390.812C405.414 389.094 407.523 388.234 410.18 388.234C413.031 388.234 415.102 389.074 416.391 390.754C417.68 392.395 418.324 394.562 418.324 397.258ZM484.418 350.266C480.434 350.266 476.879 351.281 473.754 353.312C470.668 355.344 467.719 358.234 464.906 361.984L461.566 359.523C464.262 354.914 467.836 351.145 472.289 348.215C476.781 345.285 481.742 343.82 487.172 343.82C494.008 343.82 499.496 345.93 503.637 350.148C507.777 354.367 509.848 360.109 509.848 367.375C509.848 371.672 509.125 376.125 507.68 380.734C506.234 385.344 504.125 389.328 501.352 392.688C498.383 396.32 494.789 399.211 490.57 401.359C486.391 403.508 481.254 404.582 475.16 404.582C469.301 404.582 464.574 403.41 460.98 401.066C457.426 398.684 455.648 395.715 455.648 392.16C455.648 389.934 456.254 388.02 457.465 386.418C458.676 384.816 460.434 384.016 462.738 384.016C464.574 384.016 465.961 384.484 466.898 385.422C467.875 386.359 468.363 387.414 468.363 388.586C468.363 389.68 468.031 391.047 467.367 392.688C466.742 394.289 466.176 395.559 465.668 396.496C466.645 397.551 468.012 398.488 469.77 399.309C471.566 400.09 473.734 400.48 476.273 400.48C479.086 400.48 481.723 399.816 484.184 398.488C486.645 397.16 488.773 395.305 490.57 392.922C492.328 390.578 493.773 387.941 494.906 385.012C496.078 382.082 496.918 378.898 497.426 375.461H473.988L475.277 370.129H498.422C498.422 369.816 498.422 369.484 498.422 369.133C498.461 368.742 498.48 368.352 498.48 367.961C498.48 362.492 497.27 358.176 494.848 355.012C492.426 351.848 488.949 350.266 484.418 350.266ZM615.902 396.379L615.023 400.129C611.43 401.574 608.559 402.57 606.41 403.117C604.262 403.703 602.426 403.996 600.902 403.996C597.777 403.996 595.434 403.195 593.871 401.594C592.309 399.953 591.527 397.941 591.527 395.559C591.527 394.699 591.605 393.762 591.762 392.746C591.918 391.691 592.172 390.461 592.523 389.055L598.266 367.199C598.695 365.52 599.027 363.996 599.262 362.629C599.535 361.262 599.672 360.168 599.672 359.348C599.672 356.73 599.105 354.66 597.973 353.137C596.84 351.613 595.043 350.852 592.582 350.852C589.965 350.852 587.387 351.477 584.848 352.727C582.348 353.938 579.516 356.223 576.352 359.582L566.156 403H555.258L564.457 363.859C564.652 363 564.828 362.102 564.984 361.164C565.18 360.188 565.277 359.465 565.277 358.996C565.277 356.457 564.633 354.465 563.344 353.02C562.094 351.574 560.238 350.852 557.777 350.852C555.551 350.852 553.09 351.418 550.395 352.551C547.699 353.645 544.574 356.125 541.02 359.992L531.117 403H520.219L528.949 365.031C529.262 363.664 529.555 362.199 529.828 360.637C530.141 359.074 530.297 357.746 530.297 356.652C530.297 354.387 529.926 352.902 529.184 352.199C528.441 351.457 526.996 351.086 524.848 351.086C523.988 351.086 522.875 351.242 521.508 351.555C520.18 351.867 519.145 352.121 518.402 352.316L519.281 348.566C522.328 347.199 525.023 346.184 527.367 345.52C529.711 344.855 531.723 344.523 533.402 344.523C536.527 344.523 538.734 345.383 540.023 347.102C541.352 348.781 542.055 351.086 542.133 354.016H542.484C547.094 350.383 550.883 347.785 553.852 346.223C556.82 344.66 560.355 343.879 564.457 343.879C567.934 343.879 570.746 344.895 572.895 346.926C575.082 348.918 576.312 351.438 576.586 354.484H576.82C581 351.008 584.711 348.371 587.953 346.574C591.234 344.777 595.043 343.879 599.379 343.879C603.129 343.879 606 344.973 607.992 347.16C610.023 349.309 611.039 352.141 611.039 355.656C611.039 356.359 610.922 357.609 610.688 359.406C610.492 361.203 610.16 362.98 609.691 364.738L604.77 383.547C604.418 384.797 604.086 386.242 603.773 387.883C603.461 389.484 603.305 390.734 603.305 391.633C603.305 393.859 603.773 395.383 604.711 396.203C605.648 396.984 607.23 397.375 609.457 397.375C610.199 397.375 611.273 397.277 612.68 397.082C614.086 396.887 615.16 396.652 615.902 396.379ZM679.887 366.906C679.887 371.516 679.105 376.125 677.543 380.734C675.98 385.344 673.715 389.387 670.746 392.863C667.738 396.457 664.105 399.348 659.848 401.535C655.629 403.684 650.727 404.758 645.141 404.758C638.656 404.758 633.383 402.668 629.32 398.488C625.297 394.309 623.285 388.684 623.285 381.613C623.285 376.418 624.145 371.574 625.863 367.082C627.582 362.59 629.887 358.645 632.777 355.246C635.707 351.848 639.32 349.113 643.617 347.043C647.953 344.934 652.641 343.879 657.68 343.879C664.633 343.879 670.062 346.008 673.969 350.266C677.914 354.484 679.887 360.031 679.887 366.906ZM667.934 364.68C667.934 359.133 666.938 354.973 664.945 352.199C662.992 349.426 660.16 348.039 656.449 348.039C653.207 348.039 650.141 349.035 647.25 351.027C644.398 353.02 641.938 356.262 639.867 360.754C638.266 364.152 637.094 367.941 636.352 372.121C635.609 376.262 635.238 380.09 635.238 383.605C635.238 389.191 636.195 393.43 638.109 396.32C640.062 399.172 642.992 400.598 646.898 400.598C650.375 400.598 653.461 399.504 656.156 397.316C658.852 395.129 661.039 392.355 662.719 388.996C664.398 385.715 665.688 381.965 666.586 377.746C667.484 373.488 667.934 369.133 667.934 364.68ZM756.645 386.711C758.48 382.688 759.965 377.883 761.098 372.297C762.27 366.672 762.973 361.105 763.207 355.598C761.371 352.863 759.438 350.93 757.406 349.797C755.414 348.625 753.188 348.039 750.727 348.039C744.672 348.039 739.516 351.613 735.258 358.762C731.039 365.91 728.93 373.859 728.93 382.609C728.93 388.508 729.789 392.98 731.508 396.027C733.227 399.074 736.137 400.598 740.238 400.598C743.754 400.598 746.898 399.309 749.672 396.73C752.484 394.152 754.809 390.812 756.645 386.711ZM774.457 350.148C774.457 356.906 773.754 363.703 772.348 370.539C770.941 377.336 768.852 383.156 766.078 388C762.836 393.664 758.988 397.883 754.535 400.656C750.121 403.391 745.043 404.758 739.301 404.758C732.426 404.758 726.957 402.57 722.895 398.195C718.871 393.781 716.859 387.961 716.859 380.734C716.859 370.773 720.062 362.141 726.469 354.836C732.914 347.531 740.688 343.879 749.789 343.879C752.016 343.879 754.379 344.191 756.879 344.816C759.379 345.441 761.508 346.516 763.266 348.039C762.875 338.82 761.02 331.574 757.699 326.301C754.418 321.027 750.258 318.391 745.219 318.391C743.461 318.391 741.879 318.566 740.473 318.918C739.105 319.23 737.797 319.699 736.547 320.324C735.688 320.754 734.828 321.32 733.969 322.023C733.109 322.727 732.445 323.234 731.977 323.547L729.633 320.793C732.445 317.941 735.355 315.812 738.363 314.406C741.41 313 744.77 312.297 748.441 312.297C752.074 312.297 755.434 313.059 758.52 314.582C761.605 316.105 764.359 318.488 766.781 321.73C769.203 324.973 771.078 328.879 772.406 333.449C773.773 338.02 774.457 343.586 774.457 350.148ZM837.152 366.906C837.152 371.516 836.371 376.125 834.809 380.734C833.246 385.344 830.98 389.387 828.012 392.863C825.004 396.457 821.371 399.348 817.113 401.535C812.895 403.684 807.992 404.758 802.406 404.758C795.922 404.758 790.648 402.668 786.586 398.488C782.562 394.309 780.551 388.684 780.551 381.613C780.551 376.418 781.41 371.574 783.129 367.082C784.848 362.59 787.152 358.645 790.043 355.246C792.973 351.848 796.586 349.113 800.883 347.043C805.219 344.934 809.906 343.879 814.945 343.879C821.898 343.879 827.328 346.008 831.234 350.266C835.18 354.484 837.152 360.031 837.152 366.906ZM825.199 364.68C825.199 359.133 824.203 354.973 822.211 352.199C820.258 349.426 817.426 348.039 813.715 348.039C810.473 348.039 807.406 349.035 804.516 351.027C801.664 353.02 799.203 356.262 797.133 360.754C795.531 364.152 794.359 367.941 793.617 372.121C792.875 376.262 792.504 380.09 792.504 383.605C792.504 389.191 793.461 393.43 795.375 396.32C797.328 399.172 800.258 400.598 804.164 400.598C807.641 400.598 810.727 399.504 813.422 397.316C816.117 395.129 818.305 392.355 819.984 388.996C821.664 385.715 822.953 381.965 823.852 377.746C824.75 373.488 825.199 369.133 825.199 364.68ZM906.938 350.793C906.938 352.551 906.391 354.074 905.297 355.363C904.203 356.613 902.621 357.238 900.551 357.238C899.34 357.238 898.07 356.828 896.742 356.008C895.453 355.148 894.066 353.996 892.582 352.551C891.879 353.059 891.137 354.23 890.355 356.066C889.613 357.863 888.852 359.523 888.07 361.047C887.172 362.883 886 364.855 884.555 366.965C883.148 369.074 881.41 370.793 879.34 372.121V372.648C881.801 373.82 883.617 375.246 884.789 376.926C886 378.605 886.879 381.027 887.426 384.191C887.504 384.699 887.66 385.559 887.895 386.77C888.129 387.98 888.324 389.094 888.48 390.109C888.871 392.453 889.652 394.309 890.824 395.676C892.035 397.004 894.047 397.668 896.859 397.668C897.914 397.668 899.184 397.512 900.668 397.199C902.152 396.887 903.227 396.613 903.891 396.379L902.953 400.305C898.969 401.867 896.078 402.863 894.281 403.293C892.523 403.762 890.551 403.996 888.363 403.996C885.863 403.996 883.676 403.273 881.801 401.828C879.965 400.344 878.754 397.805 878.168 394.211C877.973 393.039 877.777 391.711 877.582 390.227C877.387 388.742 877.172 387.453 876.938 386.359C876.195 382.375 875.258 379.719 874.125 378.391C873.031 377.062 871.098 376.398 868.324 376.398C868.324 376.398 867.758 376.398 866.625 376.398C865.531 376.398 864.828 376.398 864.516 376.398L858.48 403H847.523L856.254 365.031C856.527 363.781 856.82 362.355 857.133 360.754C857.445 359.113 857.602 357.746 857.602 356.652C857.602 354.465 857.23 353.02 856.488 352.316C855.785 351.574 854.32 351.203 852.094 351.203C851.234 351.203 850.141 351.359 848.812 351.672C847.484 351.984 846.449 352.238 845.707 352.434L846.586 348.684C849.633 347.316 852.309 346.281 854.613 345.578C856.957 344.875 858.832 344.523 860.238 344.523C863.363 344.523 865.648 345.266 867.094 346.75C868.578 348.195 869.32 350.266 869.32 352.961C869.32 353.586 869.242 354.543 869.086 355.832C868.93 357.082 868.676 358.469 868.324 359.992L865.57 372.004H869.086C870.375 372.004 871.625 371.789 872.836 371.359C874.086 370.891 875.297 370.148 876.469 369.133C877.836 367.961 878.969 366.633 879.867 365.148C880.805 363.664 881.723 361.945 882.621 359.992C883.48 358.117 884.359 356.359 885.258 354.719C886.156 353.078 887.426 351.34 889.066 349.504C890.59 347.824 892.289 346.555 894.164 345.695C896.078 344.797 898.109 344.348 900.258 344.348C902.25 344.348 903.852 344.953 905.062 346.164C906.312 347.336 906.938 348.879 906.938 350.793ZM946.664 395.266H946.254C945.395 395.969 944.359 396.867 943.148 397.961C941.977 399.016 940.59 400.031 938.988 401.008C937.465 401.984 935.805 402.824 934.008 403.527C932.211 404.27 930.258 404.641 928.148 404.641C922.484 404.641 918.031 402.609 914.789 398.547C911.586 394.484 909.984 388.938 909.984 381.906C909.984 377.062 910.883 372.355 912.68 367.785C914.477 363.215 916.957 359.113 920.121 355.48C923.129 352.004 926.703 349.211 930.844 347.102C934.984 344.953 939.242 343.879 943.617 343.879C946.391 343.879 949.027 344.25 951.527 344.992C954.066 345.734 956.059 346.574 957.504 347.512L968.227 344.758L968.93 345.637L960.023 383.43C959.711 384.641 959.379 386.125 959.027 387.883C958.715 389.602 958.559 390.871 958.559 391.691C958.559 393.918 959.027 395.422 959.965 396.203C960.902 396.984 962.484 397.375 964.711 397.375C965.453 397.375 966.508 397.258 967.875 397.023C969.242 396.789 970.297 396.535 971.039 396.262L970.16 400.012C966.645 401.418 964.027 402.434 962.309 403.059C960.59 403.684 958.5 403.996 956.039 403.996C953.227 403.996 951 403.176 949.359 401.535C947.719 399.895 946.82 397.805 946.664 395.266ZM955.043 358.234C955.043 356.945 954.906 355.715 954.633 354.543C954.359 353.371 953.793 352.277 952.934 351.262C952.152 350.285 951.078 349.504 949.711 348.918C948.344 348.332 946.625 348.039 944.555 348.039C941.703 348.039 938.93 348.977 936.234 350.852C933.539 352.727 931.117 355.246 928.969 358.41C926.938 361.379 925.277 364.973 923.988 369.191C922.699 373.41 922.055 377.688 922.055 382.023C922.055 384.406 922.191 386.516 922.465 388.352C922.738 390.188 923.266 391.867 924.047 393.391C924.789 394.875 925.863 396.027 927.27 396.848C928.676 397.668 930.453 398.078 932.602 398.078C934.789 398.078 937.074 397.473 939.457 396.262C941.879 395.012 944.594 392.844 947.602 389.758L955.043 358.234ZM1027.17 357.355C1027.17 358.879 1026.9 360.422 1026.35 361.984C1025.8 363.508 1024.95 364.895 1023.77 366.145C1022.48 367.551 1020.94 368.762 1019.14 369.777C1017.39 370.754 1014.98 371.516 1011.94 372.062L1011.7 372.824C1013.19 372.902 1014.71 373.137 1016.27 373.527C1017.84 373.918 1019.26 374.543 1020.55 375.402C1021.92 376.301 1023.01 377.414 1023.83 378.742C1024.65 380.031 1025.06 381.77 1025.06 383.957C1025.06 390.129 1022.27 395.109 1016.68 398.898C1011.1 402.688 1004.05 404.582 995.531 404.582C989.359 404.582 984.516 403.391 981 401.008C977.484 398.586 975.727 395.5 975.727 391.75C975.727 389.68 976.332 387.844 977.543 386.242C978.793 384.602 980.57 383.781 982.875 383.781C984.75 383.781 986.156 384.309 987.094 385.363C988.031 386.379 988.5 387.512 988.5 388.762C988.5 389.816 988.148 391.145 987.445 392.746C986.781 394.348 986.195 395.676 985.688 396.73C986.43 397.668 987.719 398.527 989.555 399.309C991.391 400.09 993.617 400.48 996.234 400.48C1000.92 400.48 1004.91 398.957 1008.19 395.91C1011.47 392.863 1013.11 388.957 1013.11 384.191C1013.11 381.301 1012.13 379.152 1010.18 377.746C1008.27 376.301 1005.53 375.578 1001.98 375.578H995.004L996.117 370.363H1003.38C1005.73 370.363 1007.72 369.973 1009.36 369.191C1011 368.371 1012.25 367.414 1013.11 366.32C1014.01 365.227 1014.65 364.094 1015.04 362.922C1015.43 361.75 1015.63 360.676 1015.63 359.699C1015.63 357.004 1014.77 354.797 1013.05 353.078C1011.37 351.32 1008.87 350.441 1005.55 350.441C1001.92 350.441 998.461 351.398 995.18 353.312C991.938 355.188 988.773 358.078 985.688 361.984L982.23 359.523C985.16 354.836 988.832 351.047 993.246 348.156C997.699 345.266 1002.7 343.82 1008.25 343.82C1014.34 343.82 1019.01 345.07 1022.25 347.57C1025.53 350.031 1027.17 353.293 1027.17 357.355ZM1072.29 395.266H1071.88C1071.02 395.969 1069.98 396.867 1068.77 397.961C1067.6 399.016 1066.21 400.031 1064.61 401.008C1063.09 401.984 1061.43 402.824 1059.63 403.527C1057.84 404.27 1055.88 404.641 1053.77 404.641C1048.11 404.641 1043.66 402.609 1040.41 398.547C1037.21 394.484 1035.61 388.938 1035.61 381.906C1035.61 377.062 1036.51 372.355 1038.3 367.785C1040.1 363.215 1042.58 359.113 1045.75 355.48C1048.75 352.004 1052.33 349.211 1056.47 347.102C1060.61 344.953 1064.87 343.879 1069.24 343.879C1072.02 343.879 1074.65 344.25 1077.15 344.992C1079.69 345.734 1081.68 346.574 1083.13 347.512L1093.85 344.758L1094.55 345.637L1085.65 383.43C1085.34 384.641 1085 386.125 1084.65 387.883C1084.34 389.602 1084.18 390.871 1084.18 391.691C1084.18 393.918 1084.65 395.422 1085.59 396.203C1086.53 396.984 1088.11 397.375 1090.34 397.375C1091.08 397.375 1092.13 397.258 1093.5 397.023C1094.87 396.789 1095.92 396.535 1096.66 396.262L1095.79 400.012C1092.27 401.418 1089.65 402.434 1087.93 403.059C1086.21 403.684 1084.12 403.996 1081.66 403.996C1078.85 403.996 1076.62 403.176 1074.98 401.535C1073.34 399.895 1072.45 397.805 1072.29 395.266ZM1080.67 358.234C1080.67 356.945 1080.53 355.715 1080.26 354.543C1079.98 353.371 1079.42 352.277 1078.56 351.262C1077.78 350.285 1076.7 349.504 1075.34 348.918C1073.97 348.332 1072.25 348.039 1070.18 348.039C1067.33 348.039 1064.55 348.977 1061.86 350.852C1059.16 352.727 1056.74 355.246 1054.59 358.41C1052.56 361.379 1050.9 364.973 1049.61 369.191C1048.32 373.41 1047.68 377.688 1047.68 382.023C1047.68 384.406 1047.82 386.516 1048.09 388.352C1048.36 390.188 1048.89 391.867 1049.67 393.391C1050.41 394.875 1051.49 396.027 1052.89 396.848C1054.3 397.668 1056.08 398.078 1058.23 398.078C1060.41 398.078 1062.7 397.473 1065.08 396.262C1067.5 395.012 1070.22 392.844 1073.23 389.758L1080.67 358.234ZM1125.2 370.012H1148.75L1154.5 345.461L1164.69 344.758L1165.39 345.637L1156.66 383.371C1156.39 384.504 1156.06 385.988 1155.67 387.824C1155.32 389.621 1155.14 390.891 1155.14 391.633C1155.14 393.859 1155.63 395.383 1156.61 396.203C1157.58 396.984 1159.18 397.375 1161.41 397.375C1162.15 397.375 1163.21 397.258 1164.57 397.023C1165.98 396.75 1167.05 396.477 1167.8 396.203L1166.92 399.953C1163.4 401.359 1160.67 402.375 1158.71 403C1156.76 403.664 1154.79 403.996 1152.8 403.996C1149.67 403.996 1147.33 403.195 1145.77 401.594C1144.2 399.953 1143.42 397.941 1143.42 395.559C1143.42 394.699 1143.5 393.762 1143.66 392.746C1143.85 391.691 1144.11 390.402 1144.42 388.879L1147.7 374.699H1124.14L1117.7 403H1106.74L1115.47 365.031C1115.75 363.781 1116.04 362.355 1116.35 360.754C1116.66 359.113 1116.82 357.746 1116.82 356.652C1116.82 354.465 1116.45 353.02 1115.71 352.316C1115 351.574 1113.54 351.203 1111.31 351.203C1110.45 351.203 1109.36 351.359 1108.03 351.672C1106.7 351.984 1105.67 352.238 1104.93 352.434L1105.8 348.684C1108.85 347.316 1111.53 346.281 1113.83 345.578C1116.18 344.875 1118.05 344.523 1119.46 344.523C1122.58 344.523 1124.87 345.266 1126.31 346.75C1127.8 348.195 1128.54 350.266 1128.54 352.961C1128.54 353.586 1128.46 354.543 1128.3 355.832C1128.15 357.082 1127.89 358.469 1127.54 359.992L1125.2 370.012ZM1231.49 366.906C1231.49 371.516 1230.71 376.125 1229.14 380.734C1227.58 385.344 1225.32 389.387 1222.35 392.863C1219.34 396.457 1215.71 399.348 1211.45 401.535C1207.23 403.684 1202.33 404.758 1196.74 404.758C1190.26 404.758 1184.98 402.668 1180.92 398.488C1176.9 394.309 1174.89 388.684 1174.89 381.613C1174.89 376.418 1175.75 371.574 1177.46 367.082C1179.18 362.59 1181.49 358.645 1184.38 355.246C1187.31 351.848 1190.92 349.113 1195.22 347.043C1199.55 344.934 1204.24 343.879 1209.28 343.879C1216.23 343.879 1221.66 346.008 1225.57 350.266C1229.52 354.484 1231.49 360.031 1231.49 366.906ZM1219.54 364.68C1219.54 359.133 1218.54 354.973 1216.55 352.199C1214.59 349.426 1211.76 348.039 1208.05 348.039C1204.81 348.039 1201.74 349.035 1198.85 351.027C1196 353.02 1193.54 356.262 1191.47 360.754C1189.87 364.152 1188.7 367.941 1187.95 372.121C1187.21 376.262 1186.84 380.09 1186.84 383.605C1186.84 389.191 1187.8 393.43 1189.71 396.32C1191.66 399.172 1194.59 400.598 1198.5 400.598C1201.98 400.598 1205.06 399.504 1207.76 397.316C1210.45 395.129 1212.64 392.355 1214.32 388.996C1216 385.715 1217.29 381.965 1218.19 377.746C1219.09 373.488 1219.54 369.133 1219.54 364.68ZM1274.5 323.547C1274.5 324.25 1274.38 325.188 1274.14 326.359C1273.91 327.492 1273.48 328.977 1272.86 330.812C1271.02 336.359 1268.75 342.922 1266.06 350.5C1263.4 358.078 1260.36 367.141 1256.92 377.688H1252.35C1253.68 368.664 1255.04 358.254 1256.45 346.457C1257.89 334.621 1258.83 327.668 1259.26 325.598C1259.77 323.215 1260.9 321.301 1262.66 319.855C1264.46 318.41 1266.43 317.688 1268.58 317.688C1270.45 317.688 1271.9 318.234 1272.91 319.328C1273.97 320.422 1274.5 321.828 1274.5 323.547ZM1259.44 396.262C1259.44 398.449 1258.64 400.324 1257.04 401.887C1255.47 403.41 1253.6 404.172 1251.41 404.172C1249.22 404.172 1247.33 403.41 1245.73 401.887C1244.16 400.324 1243.38 398.449 1243.38 396.262C1243.38 394.074 1244.16 392.199 1245.73 390.637C1247.33 389.035 1249.22 388.234 1251.41 388.234C1253.6 388.234 1255.47 389.035 1257.04 390.637C1258.64 392.199 1259.44 394.074 1259.44 396.262Z" fill="white"/>
</svg>
