<svg width="16" height="16" viewBox="0 0 16 16" fill="none" xmlns="http://www.w3.org/2000/svg">
<path opacity="0.995" fill-rule="evenodd" clip-rule="evenodd" d="M2.17188 0.984375C5.00522 0.979166 7.83856 0.984375 10.6719 1C10.8902 1.08771 10.9944 1.24917 10.9844 1.48438C10.9944 1.71958 10.8902 1.88104 10.6719 1.96875C7.94272 1.97917 5.21353 1.98958 2.48438 2C2.19792 2.03646 2.03646 2.19792 2 2.48438C1.97917 6.15103 1.97917 9.81772 2 13.4844C2.03646 13.7708 2.19792 13.9323 2.48438 13.9688C6.15103 13.9896 9.81772 13.9896 13.4844 13.9688C13.7708 13.9323 13.9323 13.7708 13.9688 13.4844C13.9792 10.7552 13.9896 8.02603 14 5.29688C14.0877 5.07853 14.2492 4.97438 14.4844 4.98438C14.7196 4.97438 14.881 5.07853 14.9688 5.29688C14.9896 8.13022 14.9896 10.9635 14.9688 13.7969C14.8073 14.4167 14.4167 14.8073 13.7969 14.9688C9.92188 14.9896 6.04688 14.9896 2.17188 14.9688C1.55209 14.8073 1.16146 14.4167 1 13.7969C0.979166 9.92188 0.979166 6.04688 1 2.17188C1.16715 1.55162 1.55778 1.15579 2.17188 0.984375Z" fill="url(#paint0_linear_134_1480)"/>
<path opacity="0.961" fill-rule="evenodd" clip-rule="evenodd" d="M14.3907 0.984375C14.8987 1.03959 15.0706 1.31042 14.9064 1.79688C12.7397 4.63022 10.573 7.46353 8.40637 10.2969C8.18934 10.5022 7.94456 10.5386 7.67199 10.4062C6.30221 9.03647 4.9324 7.66666 3.56262 6.29688C3.36903 5.85072 3.50965 5.56947 3.98449 5.45312C4.09474 5.47206 4.1989 5.5085 4.29699 5.5625C5.51053 6.77603 6.72409 7.98959 7.93762 9.20312C9.97171 6.52041 12.0134 3.84334 14.0626 1.17188C14.1585 1.07983 14.2679 1.01733 14.3907 0.984375Z" fill="url(#paint1_linear_134_1480)"/>
<defs>
<linearGradient id="paint0_linear_134_1480" x1="6.72635" y1="10.0191" x2="6.93201" y2="18.0831" gradientUnits="userSpaceOnUse">
<stop stop-color="#2EC7F6"/>
<stop offset="1" stop-color="#0065A0"/>
</linearGradient>
<linearGradient id="paint1_linear_134_1480" x1="8.19024" y1="7.1154" x2="8.30562" y2="12.5876" gradientUnits="userSpaceOnUse">
<stop stop-color="#2EC7F6"/>
<stop offset="1" stop-color="#0065A0"/>
</linearGradient>
</defs>
</svg>
