<svg width="64" height="64" viewBox="0 0 64 64" fill="none" xmlns="http://www.w3.org/2000/svg">
    <g clip-path="url(#clip0_278_304)">
        <path opacity="0.936" fill-rule="evenodd" clip-rule="evenodd"
            d="M-0.0625 20.4375C-0.0625 17.2291 -0.0625 14.0209 -0.0625 10.8125C0.359991 9.49397 1.23499 8.59814 2.5625 8.12502C5.55848 7.92572 8.55848 7.88406 11.5625 8.00002C12.2885 8.06836 12.9551 8.29752 13.5625 8.68752C14.4108 7.69295 15.2858 6.71377 16.1875 5.75002C18.5893 4.47082 20.3184 5.07499 21.375 7.56252C21.5803 8.61605 21.3719 9.57439 20.75 10.4375C18.9218 12.6411 17.0468 14.8078 15.125 16.9375C15.0834 18.0625 15.0416 19.1875 15 20.3125C14.549 21.8051 13.5699 22.7426 12.0625 23.125C9.02084 23.2084 5.97916 23.2084 2.9375 23.125C1.39988 22.816 0.399871 21.9201 -0.0625 20.4375ZM18.0625 7.06252C19.3583 7.32069 19.7125 8.02902 19.125 9.18752C16.4106 12.3867 13.6815 15.5741 10.9375 18.75C10.4226 19.1101 9.92261 19.1101 9.4375 18.75C8.28818 17.3883 7.18401 15.9925 6.125 14.5625C5.7236 13.532 6.05693 12.8653 7.125 12.5625C7.57466 12.6414 7.94966 12.8498 8.25 13.1875C8.68159 13.8276 9.16076 14.4318 9.6875 15C10.0671 15.2313 10.4421 15.2313 10.8125 15C12.9194 12.6391 14.9819 10.2433 17 7.81252C17.2903 7.45061 17.6444 7.20061 18.0625 7.06252ZM3.4375 9.93752C5.97951 9.9167 8.52118 9.93752 11.0625 10C11.4283 10.0272 11.7824 10.0897 12.125 10.1875C12.0316 10.497 11.8649 10.7886 11.625 11.0625C11.1864 11.5261 10.7489 11.9844 10.3125 12.4375C9.82864 11.808 9.24531 11.2871 8.5625 10.875C6.75509 10.2553 5.31759 10.7344 4.25 12.3125C3.79991 13.4183 3.84159 14.5015 4.375 15.5625C5.57059 17.2235 6.84143 18.8278 8.1875 20.375C9.50171 21.2433 10.835 21.2433 12.1875 20.375C12.505 20.0994 12.7759 19.7869 13 19.4375C13.0073 20.2664 12.6115 20.8289 11.8125 21.125C8.9375 21.2084 6.0625 21.2084 3.1875 21.125C2.34753 20.8853 1.91003 20.3228 1.875 19.4375C1.79166 16.8541 1.79166 14.2709 1.875 11.6875C2.02898 10.7634 2.5498 10.18 3.4375 9.93752Z"
            fill="#2ec7f6" />
        <path opacity="0.94" fill-rule="evenodd" clip-rule="evenodd"
            d="M63.9372 10.8125C63.9372 14.0209 63.9372 17.2291 63.9372 20.4375C63.4748 21.9201 62.4748 22.816 60.9372 23.125C49.2706 23.2084 37.6038 23.2084 25.9372 23.125C24.2621 22.7 23.283 21.6375 22.9997 19.9375C22.9788 18.4791 22.9581 17.0209 22.9372 15.5625C22.9223 13.8903 22.9848 12.2236 23.1247 10.5625C23.7296 9.0012 24.8753 8.14704 26.5622 8C31.5206 7.91667 36.4788 7.91667 41.4372 8C42.3956 8.45834 42.5206 9.08334 41.8122 9.875C36.7288 9.91667 31.6456 9.95834 26.5622 10C25.7332 10.0795 25.2125 10.517 24.9997 11.3125C24.9163 14.1459 24.9163 16.9791 24.9997 19.8125C25.1755 20.4466 25.5712 20.8841 26.1872 21.125C37.6872 21.2084 49.1872 21.2084 60.6872 21.125C61.5272 20.8853 61.9647 20.3228 61.9997 19.4375C62.0831 16.8541 62.0831 14.2709 61.9997 11.6875C61.8691 10.7652 61.3483 10.2027 60.4372 10C55.3538 9.95834 50.2706 9.91667 45.1872 9.875C44.627 9.41189 44.5436 8.87023 44.9372 8.25C45.1356 8.1422 45.344 8.05887 45.5622 8C50.5206 7.91667 55.4788 7.91667 60.4372 8C62.2241 8.18423 63.3908 9.12173 63.9372 10.8125Z"
            fill="#2ec7f6" />
        <path opacity="0.933" fill-rule="evenodd" clip-rule="evenodd"
            d="M29.1873 14.5625C38.7291 14.5416 48.2707 14.5625 57.8123 14.625C58.7582 15.1975 58.7999 15.8225 57.9373 16.5C48.2707 16.5834 38.6039 16.5834 28.9373 16.5C28.4057 16.0725 28.3014 15.5516 28.6248 14.9375C28.8009 14.7774 28.9884 14.6524 29.1873 14.5625Z"
            fill="#2ec7f6" />
        <path opacity="0.936" fill-rule="evenodd" clip-rule="evenodd"
            d="M-0.0625 38.1875C-0.0625 34.9791 -0.0625 31.7709 -0.0625 28.5625C0.369797 27.1929 1.28646 26.297 2.6875 25.875C5.85416 25.7916 9.02084 25.7916 12.1875 25.875C12.673 25.9926 13.1314 26.1801 13.5625 26.4375C14.3787 25.6421 15.1287 24.7879 15.8125 23.875C17.2481 22.7249 18.7481 22.6416 20.3125 23.625C21.5853 24.9575 21.7728 26.4366 20.875 28.0625C18.9584 30.3125 17.0416 32.5625 15.125 34.8125C15.0834 35.8959 15.0416 36.9791 15 38.0625C14.6585 39.529 13.7626 40.4665 12.3125 40.875C9.10416 40.9584 5.89584 40.9584 2.6875 40.875C1.28971 40.4563 0.373046 39.5604 -0.0625 38.1875ZM17.8125 24.9375C19.4241 25.0355 19.82 25.7855 19 27.1875C16.2709 30.3334 13.5416 33.4791 10.8125 36.625C10.3883 36.8369 9.97169 36.8369 9.5625 36.625C8.36914 35.2235 7.2233 33.786 6.125 32.3125C5.72205 31.0073 6.20121 30.403 7.5625 30.5C7.76008 30.5884 7.94757 30.6925 8.125 30.8125C8.64398 31.5394 9.20648 32.2269 9.8125 32.875C10.3896 33.0371 10.8688 32.8913 11.25 32.4375C13.3348 29.833 15.5223 27.333 17.8125 24.9375ZM3.0625 27.8125C6.02112 27.7916 8.97946 27.8125 11.9375 27.875C12.0385 27.9135 12.1218 27.976 12.1875 28.0625C11.5625 28.8125 10.9375 29.5625 10.3125 30.3125C9.01415 28.3319 7.30581 27.8944 5.1875 29C3.90422 30.1699 3.59172 31.5658 4.25 33.1875C5.50924 34.9473 6.86341 36.6348 8.3125 38.25C10.1295 39.2178 11.692 38.9053 13 37.3125C13.0376 38.0894 12.6835 38.6103 11.9375 38.875C8.97916 38.9584 6.02084 38.9584 3.0625 38.875C2.34875 38.5924 1.95291 38.0715 1.875 37.3125C1.79166 34.7291 1.79166 32.1459 1.875 29.5625C1.93326 28.7343 2.3291 28.151 3.0625 27.8125Z"
            fill="#2ec7f6" />
        <path opacity="0.941" fill-rule="evenodd" clip-rule="evenodd"
            d="M63.9375 28.5625C63.9375 31.7709 63.9375 34.9792 63.9375 38.1875C63.502 39.5604 62.5853 40.4563 61.1875 40.875C49.3959 40.9584 37.6042 40.9584 25.8125 40.875C24.2325 40.444 23.295 39.4233 23 37.8125C22.9167 34.8959 22.9167 31.9792 23 29.0625C23.2743 27.4133 24.2118 26.3508 25.8125 25.875C37.6042 25.7917 49.3959 25.7917 61.1875 25.875C62.5885 26.297 63.5053 27.1929 63.9375 28.5625ZM26.1875 27.8125C37.7293 27.7917 49.2709 27.8125 60.8125 27.875C61.5609 28.1828 61.9568 28.7453 62 29.5625C62.1183 32.3595 62.0765 35.1512 61.875 37.9375C61.6385 38.3823 61.2844 38.6948 60.8125 38.875C49.2292 38.9584 37.6459 38.9584 26.0625 38.875C25.5509 38.6242 25.1967 38.2284 25 37.6875C24.9167 34.8542 24.9167 32.0209 25 29.1875C25.1999 28.5508 25.5958 28.0924 26.1875 27.8125Z"
            fill="#2ec7f6" />
        <path opacity="0.933" fill-rule="evenodd" clip-rule="evenodd"
            d="M28.9373 32.4375C38.6456 32.4166 48.354 32.4375 58.0623 32.5C58.8024 33.2994 58.6774 33.9244 57.6873 34.375C48.2289 34.4584 38.7706 34.4584 29.3123 34.375C28.5431 34.1919 28.2723 33.7128 28.4998 32.9375C28.6288 32.7466 28.7746 32.58 28.9373 32.4375Z"
            fill="#2ec7f6" />
        <path opacity="0.947" fill-rule="evenodd" clip-rule="evenodd"
            d="M-0.0625 57.0625C-0.0625 53.1459 -0.0625 49.2291 -0.0625 45.3125C0.311523 44.4186 0.97819 43.8561 1.9375 43.625C5.8185 43.5039 9.6935 43.5455 13.5625 43.75C14.3115 44.0824 14.7906 44.6449 15 45.4375C15.0834 49.2709 15.0834 53.1041 15 56.9375C14.783 57.7796 14.2621 58.3421 13.4375 58.625C9.65185 58.8294 5.86018 58.8711 2.0625 58.75C1.0349 58.5754 0.32657 58.0129 -0.0625 57.0625ZM2.1875 45.5625C5.68775 45.5416 9.18775 45.5625 12.6875 45.625C12.802 45.6717 12.9062 45.7342 13 45.8125C13.1035 49.4256 13.0828 53.0299 12.9375 56.625C11.1362 56.7689 9.32374 56.8314 7.5 56.8125C5.77084 56.7916 4.04166 56.7709 2.3125 56.75C2.19797 56.7032 2.0938 56.6407 2 56.5625C1.79485 53.0702 1.75319 49.5702 1.875 46.0625C1.95778 45.877 2.06194 45.7104 2.1875 45.5625Z"
            fill="#2ec7f6" />
        <path opacity="0.939" fill-rule="evenodd" clip-rule="evenodd"
            d="M63.9372 46.3125C63.9372 49.5625 63.9372 52.8125 63.9372 56.0625C63.3688 57.5674 62.2855 58.4633 60.6872 58.75C55.6038 58.8334 50.5206 58.8334 45.4372 58.75C44.7592 58.4979 44.53 58.0188 44.7497 57.3125C44.8956 57.1667 45.0413 57.0209 45.1872 56.875C50.3122 56.8334 55.4372 56.7917 60.5622 56.75C61.4358 56.5235 61.915 55.961 61.9997 55.0625C62.0831 52.4792 62.0831 49.8959 61.9997 47.3125C61.9075 46.4825 61.47 45.92 60.6872 45.625C49.2288 45.5417 37.7706 45.5417 26.3122 45.625C25.6247 45.8125 25.1872 46.25 24.9997 46.9375C24.9163 49.7709 24.9163 52.6042 24.9997 55.4375C25.1872 56.125 25.6247 56.5625 26.3122 56.75C31.4372 56.7917 36.5622 56.8334 41.6872 56.875C42.3118 57.2708 42.4368 57.7917 42.0622 58.4375C41.8857 58.6008 41.6773 58.705 41.4372 58.75C36.3956 58.8334 31.3538 58.8334 26.3122 58.75C24.7331 58.5339 23.6706 57.6798 23.1247 56.1875C22.9848 54.5264 22.9223 52.8598 22.9372 51.1875C22.9581 49.7292 22.9788 48.2709 22.9997 46.8125C23.3122 45 24.3747 43.9375 26.1872 43.625C37.7288 43.5417 49.2706 43.5417 60.8122 43.625C62.3675 43.9415 63.4091 44.8374 63.9372 46.3125Z"
            fill="#2ec7f6" />
        <path opacity="0.933" fill-rule="evenodd" clip-rule="evenodd"
            d="M29.0625 50.1875C38.6876 50.1666 48.3126 50.1875 57.9375 50.25C58.8001 50.9275 58.7584 51.5525 57.8125 52.125C48.2291 52.2084 38.6459 52.2084 29.0625 52.125C28.4914 51.8074 28.3039 51.3281 28.5 50.6875C28.6746 50.4913 28.8621 50.3245 29.0625 50.1875Z"
            fill="#2ec7f6" />
    </g>
    <defs>
        <clipPath id="clip0_278_304">
            <rect width="64" height="64" fill="white" />
        </clipPath>
    </defs>
</svg>