<svg width="48" height="48" viewBox="0 0 48 48" fill="none" xmlns="http://www.w3.org/2000/svg">
<g clip-path="url(#clip0_121_1983)">
<path opacity="0.943" fill-rule="evenodd" clip-rule="evenodd" d="M22.2656 -0.046875C23.3906 -0.046875 24.5156 -0.046875 25.6406 -0.046875C31.549 0.907621 35.5646 4.18887 37.6875 9.79688C38.1966 11.3823 38.4309 13.0072 38.3906 14.6719C39.5112 15.0894 40.2768 15.8707 40.6875 17.0156C41.169 18.4913 41.669 19.9601 42.1875 21.4219C42.6257 21.0232 43.1413 20.7888 43.7344 20.7188C44.6853 20.617 45.6228 20.6796 46.5469 20.9062C47.2207 21.2407 47.6895 21.7563 47.9531 22.4531C47.9531 22.9219 47.9531 23.3906 47.9531 23.8594C47.2662 25.2972 46.1099 25.9066 44.4844 25.6875C45.5 26.7031 46.5157 27.7188 47.5312 28.7344C47.6995 28.978 47.8402 29.2281 47.9531 29.4844C47.9531 33.4531 47.9531 37.4219 47.9531 41.3906C47.6881 42.1717 47.1725 42.7342 46.4062 43.0781C46.4006 44.2409 46.3381 45.3972 46.2188 46.5469C45.8604 47.2028 45.3448 47.6715 44.6719 47.9531C42.3281 47.9531 39.9844 47.9531 37.6406 47.9531C36.9677 47.6715 36.4521 47.2028 36.0938 46.5469C35.9589 45.429 35.9121 44.304 35.9531 43.1719C27.9532 43.1719 19.9531 43.1719 11.9531 43.1719C11.9942 44.304 11.9473 45.429 11.8125 46.5469C11.4542 47.2028 10.9386 47.6715 10.2656 47.9531C7.92188 47.9531 5.57812 47.9531 3.23438 47.9531C2.45498 47.6267 1.9081 47.0642 1.59375 46.2656C1.5625 45.2032 1.53125 44.1406 1.5 43.0781C0.773742 42.7426 0.258117 42.2114 -0.046875 41.4844C-0.046875 37.4843 -0.046875 33.4844 -0.046875 29.4844C0.0660904 29.2281 0.206715 28.978 0.375 28.7344C1.39062 27.7188 2.40625 26.7031 3.42188 25.6875C1.79633 25.9066 0.640076 25.2972 -0.046875 23.8594C-0.046875 23.3906 -0.046875 22.9219 -0.046875 22.4531C0.335706 21.4779 1.05445 20.8998 2.10938 20.7188C3.06027 20.617 3.99777 20.6796 4.92188 20.9062C5.21274 21.0412 5.47837 21.2131 5.71875 21.4219C6.23726 19.9601 6.73726 18.4913 7.21875 17.0156C7.6187 15.9128 8.35307 15.1315 9.42188 14.6719C9.59091 8.87128 12.1535 4.51191 17.1094 1.59375C18.752 0.770017 20.4707 0.223141 22.2656 -0.046875ZM22.5469 1.64062C27.9399 1.31361 32.0806 3.40736 34.9688 7.92188C37.645 13.1149 37.2076 18.0211 33.6562 22.6406C29.6618 26.8619 24.8962 28.065 19.3594 26.25C15.5415 24.651 12.9946 21.8854 11.7188 17.9531C10.4581 12.8225 11.7237 8.43183 15.5156 4.78125C17.5627 3.07022 19.9064 2.02334 22.5469 1.64062ZM9.51562 16.5469C9.61744 16.5581 9.67997 16.6207 9.70312 16.7344C10.1728 19.4703 11.329 21.8609 13.1719 23.9062C11.0156 23.9688 8.85938 23.9688 6.70312 23.9062C7.42426 21.8366 8.12738 19.7585 8.8125 17.6719C8.97752 17.2469 9.21189 16.8719 9.51562 16.5469ZM38.2031 16.5469C38.3785 16.5805 38.5192 16.6743 38.625 16.8281C38.805 17.0943 38.9613 17.3755 39.0938 17.6719C39.7789 19.7585 40.482 21.8366 41.2031 23.9062C39.0469 23.9688 36.8906 23.9688 34.7344 23.9062C36.6319 21.8138 37.7882 19.3607 38.2031 16.5469ZM2.29688 22.3594C2.86024 22.3438 3.42274 22.3595 3.98438 22.4062C4.36192 22.4463 4.59629 22.6494 4.6875 23.0156C4.73422 23.3266 4.74984 23.6391 4.73438 23.9531C3.82191 23.9898 2.91565 23.9429 2.01562 23.8125C1.45386 23.1973 1.54761 22.7129 2.29688 22.3594ZM43.9219 22.3594C44.5865 22.3234 45.2427 22.3703 45.8906 22.5C46.3906 22.9375 46.3906 23.375 45.8906 23.8125C44.9906 23.9429 44.0843 23.9898 43.1719 23.9531C43.1095 23.4624 43.2033 23.0093 43.4531 22.5938C43.6233 22.5228 43.7795 22.4447 43.9219 22.3594ZM5.85938 25.6406C8.89079 25.625 11.922 25.6406 14.9531 25.6875C19.2113 28.8362 23.8676 29.5862 28.9219 27.9375C30.3816 27.3816 31.7253 26.6316 32.9531 25.6875C35.9843 25.625 39.0157 25.625 42.0469 25.6875C43.4375 27.0781 44.8282 28.4688 46.2188 29.8594C46.2813 33.6094 46.2813 37.3594 46.2188 41.1094C46.1049 41.2546 45.9643 41.3639 45.7969 41.4375C31.2344 41.5 16.6718 41.5 2.10938 41.4375C1.94194 41.3639 1.80131 41.2546 1.6875 41.1094C1.625 37.3594 1.625 33.6094 1.6875 29.8594C3.09705 28.4655 4.48767 27.0592 5.85938 25.6406ZM3.23438 43.1719C5.57812 43.1719 7.92188 43.1719 10.2656 43.1719C10.2812 44.0786 10.2656 44.9849 10.2188 45.8906C10.1093 46 10 46.1093 9.89062 46.2188C7.79688 46.2813 5.70312 46.2813 3.60938 46.2188C3.5 46.1093 3.39063 46 3.28125 45.8906C3.23439 44.9849 3.21877 44.0786 3.23438 43.1719ZM37.6406 43.1719C39.9844 43.1719 42.3281 43.1719 44.6719 43.1719C44.6874 44.0786 44.6719 44.9849 44.625 45.8906C44.5156 46 44.4063 46.1093 44.2969 46.2188C42.2032 46.2813 40.1093 46.2813 38.0156 46.2188C37.9062 46.1093 37.7969 46 37.6875 45.8906C37.6406 44.9849 37.6251 44.0786 37.6406 43.1719Z" fill="#D3C879"/>
<path opacity="0.935" fill-rule="evenodd" clip-rule="evenodd" d="M18.2344 5.48438C19.6514 5.6355 21.0263 5.96363 22.3594 6.46875C23.1288 7.23293 23.2069 8.06106 22.5938 8.95312C22.3594 9.1875 22.125 9.42188 21.8906 9.65625C22.4375 10.2031 22.9844 10.75 23.5313 11.2969C23.9063 10.9219 24.2813 10.5469 24.6563 10.1719C24.5978 8.5239 25.2072 7.19577 26.4844 6.1875C27.3537 5.55705 28.2912 5.4008 29.2969 5.71875C30.0185 6.39536 30.1434 7.17662 29.6719 8.0625C29.6853 8.26416 29.779 8.4204 29.9531 8.53125C30.5078 8.43052 31.0703 8.36801 31.6406 8.34375C32.5463 8.6703 32.9057 9.31092 32.7188 10.2656C32.0362 12.5347 30.5205 13.6442 28.1719 13.5938C27.7798 13.9702 27.4048 14.3608 27.0469 14.7656C28.5456 16.3112 30.0612 17.8424 31.5938 19.3594C31.9845 20.0002 32.0157 20.6565 31.6875 21.3281C31.1407 21.875 30.5937 22.4219 30.0469 22.9688C29.4532 23.2812 28.8593 23.2812 28.2656 22.9688C26.6576 21.4389 25.0639 19.8921 23.4844 18.3281C23.1538 18.4649 23.0601 18.6837 23.2031 18.9844C23.0569 21.1766 21.9319 22.5672 19.8281 23.1562C19.1767 23.3036 18.6298 23.1318 18.1875 22.6406C17.8736 21.9653 17.8893 21.2933 18.2344 20.625C18.1452 20.317 17.9422 20.1452 17.625 20.1094C16.7966 20.5605 16.0466 20.4668 15.375 19.8281C14.9884 17.8359 15.7227 16.3828 17.5781 15.4688C18.2719 15.2062 18.9906 15.0812 19.7344 15.0938C19.8281 15 19.9219 14.9062 20.0156 14.8125C19.4688 14.2657 18.9218 13.7187 18.375 13.1719C17.7259 13.9709 16.929 14.174 15.9844 13.7812C15.2528 13.1436 14.5497 12.4717 13.875 11.7656C13.3125 11.0156 13.3125 10.2656 13.875 9.51562C15.0781 8.3125 16.2813 7.10937 17.4844 5.90625C17.728 5.73797 17.9781 5.59734 18.2344 5.48438ZM18.6094 7.17188C17.4863 8.32618 16.3613 9.48244 15.2344 10.6406C15.7343 11.2031 16.2656 11.7344 16.8281 12.2344C18.3112 10.7982 19.7799 9.34507 21.2344 7.875C20.3669 7.61125 19.4918 7.37688 18.6094 7.17188ZM27.7969 7.35938C27.5801 7.55962 27.3458 7.74712 27.0938 7.92188C26.667 8.43593 26.4326 9.02968 26.3906 9.70312C26.5252 10.1186 26.5095 10.5249 26.3438 10.9219C24.3907 12.875 22.4375 14.8282 20.4844 16.7812C20.3177 16.8472 20.1458 16.8941 19.9688 16.9219C18.5536 16.606 17.5379 17.106 16.9219 18.4219C19.0451 18.2326 20.0138 19.2014 19.8281 21.3281C20.5055 21.0729 20.9899 20.6042 21.2813 19.9219C21.3715 19.2006 21.4653 18.4818 21.5625 17.7656C23.4844 15.8438 25.4063 13.9219 27.3281 12C27.5118 11.9127 27.6993 11.8346 27.8906 11.7656C29.3446 12.1012 30.3758 11.5855 30.9844 10.2188C30.5228 10.2705 30.0541 10.2705 29.5781 10.2188C28.2648 9.717 27.7648 8.77951 28.0781 7.40625C27.9893 7.36099 27.8955 7.34536 27.7969 7.35938ZM20.5781 10.9219C20.2677 11.2638 19.9552 11.6075 19.6406 11.9531C20.1406 12.5156 20.6719 13.0469 21.2344 13.5469C21.6094 13.2344 21.9532 12.8906 22.2656 12.5156C21.7584 11.9143 21.1959 11.383 20.5781 10.9219ZM25.7344 15.9844C25.4097 16.356 25.0659 16.7154 24.7031 17.0625C26.159 18.5496 27.6433 20.0027 29.1563 21.4219C29.4687 21.1094 29.7813 20.7968 30.0938 20.4844C30.1563 20.4218 30.1563 20.3594 30.0938 20.2969C28.653 18.8405 27.1999 17.403 25.7344 15.9844Z" fill="#D3C879"/>
<path opacity="0.943" fill-rule="evenodd" clip-rule="evenodd" d="M4.26563 30.3281C5.82844 30.3125 7.39094 30.3281 8.95313 30.375C9.14063 30.4688 9.32813 30.5625 9.51563 30.6563C10.5916 31.4825 11.6072 32.3731 12.5625 33.3281C12.9875 34.2533 12.8155 35.0501 12.0469 35.7188C11.8981 35.7996 11.7418 35.8621 11.5781 35.9063C9.10938 35.9688 6.64062 35.9688 4.17188 35.9063C3.71876 35.7031 3.39063 35.375 3.1875 34.9219C3.125 33.7657 3.125 32.6094 3.1875 31.4531C3.37676 30.9047 3.73615 30.5297 4.26563 30.3281ZM4.82813 32.0156C4.82813 32.7656 4.82813 33.5156 4.82813 34.2656C6.92211 34.2813 9.01586 34.2656 11.1094 34.2188C10.2617 33.4645 9.38663 32.7459 8.48438 32.0625C7.26603 32.0156 6.04728 32 4.82813 32.0156Z" fill="#D3C879"/>
<path opacity="0.944" fill-rule="evenodd" clip-rule="evenodd" d="M14.7658 30.3281C20.8908 30.3125 27.0159 30.3281 33.1408 30.375C34.1859 30.7931 34.5765 31.5587 34.3127 32.6719C34.055 33.1174 33.7269 33.508 33.3283 33.8438C32.6095 34.4375 31.8908 35.0313 31.172 35.625C30.9845 35.7188 30.797 35.8125 30.6095 35.9063C26.1721 35.9688 21.7345 35.9688 17.297 35.9063C16.1067 35.1075 14.9817 34.2169 13.922 33.2344C13.2013 31.9601 13.4825 30.9914 14.7658 30.3281ZM15.2345 32.1094C16.0902 32.7927 16.9339 33.4959 17.7658 34.2188C21.8908 34.2813 26.0158 34.2813 30.1408 34.2188C30.9845 33.5156 31.8283 32.8125 32.672 32.1094C26.8441 31.9845 21.0316 31.9845 15.2345 32.1094Z" fill="#D3C879"/>
<path opacity="0.942" fill-rule="evenodd" clip-rule="evenodd" d="M38.9532 30.3281C40.516 30.3125 42.0785 30.3281 43.6407 30.375C44.1875 30.5469 44.5469 30.9063 44.7188 31.4531C44.7813 32.6094 44.7813 33.7657 44.7188 34.9219C44.5156 35.375 44.1875 35.7031 43.7344 35.9063C41.2344 35.9688 38.7344 35.9688 36.2344 35.9063C35.1725 35.3143 34.8756 34.4549 35.3438 33.3281C35.4508 33.1304 35.5914 32.9586 35.7657 32.8125C36.7919 31.9255 37.8544 31.0975 38.9532 30.3281ZM39.4219 32.0156C38.5709 32.7706 37.6959 33.505 36.7969 34.2188C38.8904 34.2656 40.9842 34.2813 43.0782 34.2656C43.0782 33.5156 43.0782 32.7656 43.0782 32.0156C41.8594 32.0156 40.6407 32.0156 39.4219 32.0156Z" fill="#D3C879"/>
<path opacity="0.932" fill-rule="evenodd" clip-rule="evenodd" d="M4.4532 38.2969C6.51594 38.2812 8.57844 38.2969 10.6407 38.3438C11.3523 38.8327 11.3835 39.364 10.7345 39.9375C8.64071 40 6.54695 40 4.4532 39.9375C3.72068 39.3948 3.72068 38.848 4.4532 38.2969Z" fill="#D3C879"/>
<path opacity="0.941" fill-rule="evenodd" clip-rule="evenodd" d="M16.4532 38.2969C21.4533 38.2812 26.4534 38.2969 31.4532 38.3438C31.9687 38.64 32.1093 39.0619 31.8751 39.6094C31.7613 39.7546 31.6207 39.8639 31.4532 39.9375C26.4533 40 21.4532 40 16.4532 39.9375C15.7207 39.3948 15.7207 38.848 16.4532 38.2969Z" fill="#D3C879"/>
<path opacity="0.932" fill-rule="evenodd" clip-rule="evenodd" d="M37.2658 38.2969C39.3286 38.2812 41.3911 38.2969 43.4533 38.3438C43.9687 38.64 44.1093 39.0619 43.8752 39.6094C43.7613 39.7546 43.6207 39.8639 43.4533 39.9375C41.3596 40 39.2657 40 37.172 39.9375C36.5281 39.3491 36.5594 38.8023 37.2658 38.2969Z" fill="#D3C879"/>
</g>
<defs>
<clipPath id="clip0_121_1983">
<rect width="48" height="48" fill="white"/>
</clipPath>
</defs>
</svg>
