<svg width="48" height="48" viewBox="0 0 48 48" fill="none" xmlns="http://www.w3.org/2000/svg">
<path opacity="0.92" fill-rule="evenodd" clip-rule="evenodd" d="M2.10938 1.26563C16.6719 1.25 31.2344 1.26563 45.7969 1.3125C46.8265 1.52971 47.4983 2.13909 47.8125 3.14063C47.875 15.2969 47.875 27.4531 47.8125 39.6094C47.4916 40.7163 46.7572 41.357 45.6094 41.5312C44.7968 41.5625 43.9844 41.5938 43.1719 41.625C44.2821 43.1116 44.6571 44.7522 44.2969 46.5469C30.7694 46.6561 17.2381 46.6717 3.70312 46.5938C3.62737 46.5649 3.56487 46.518 3.51562 46.4531C3.26784 44.6786 3.6741 43.0692 4.73438 41.625C3.92187 41.5938 3.10938 41.5625 2.29688 41.5312C1.14907 41.357 0.414687 40.7163 0.09375 39.6094C0.03125 27.4531 0.03125 15.2969 0.09375 3.14063C0.42431 2.13786 1.09618 1.51285 2.10938 1.26563ZM2.20312 2.39063C16.7032 2.375 31.2032 2.39063 45.7031 2.4375C46.1811 2.57184 46.5092 2.8687 46.6875 3.32813C46.819 4.32209 46.8659 5.3221 46.8281 6.32813C31.5781 6.32813 16.3282 6.32813 1.07812 6.32813C1.04037 5.3221 1.08725 4.32209 1.21875 3.32813C1.41383 2.86722 1.74195 2.55473 2.20312 2.39063ZM1.07812 7.45313C16.3282 7.45313 31.5781 7.45313 46.8281 7.45313C46.8438 18.0157 46.8281 28.5782 46.7812 39.1406C46.6638 39.6647 46.367 40.0553 45.8906 40.3125C45.2415 40.4166 44.5853 40.4634 43.9219 40.4531C43.3594 40.4375 42.7969 40.4219 42.2344 40.4062C41.7679 39.9856 41.2679 39.6106 40.7344 39.2812C41.9837 37.3351 41.9368 35.4132 40.5938 33.5156C38.8999 31.7118 36.9155 31.3212 34.6406 32.3438C32.4867 33.8049 31.7836 35.7893 32.5312 38.2969C32.6756 38.6643 32.8788 38.9924 33.1406 39.2812C32.6071 39.6106 32.1071 39.9856 31.6406 40.4062C31.5469 40.4688 31.4531 40.4688 31.3594 40.4062C30.5486 39.3607 29.5799 38.5013 28.4531 37.8281C29.8212 35.7732 29.9306 33.6483 28.7812 31.4531C26.8656 28.7903 24.3812 28.0871 21.3281 29.3438C18.6271 31.1027 17.7677 33.5245 18.75 36.6094C18.9656 37.0278 19.2 37.434 19.4531 37.8281C18.3263 38.5013 17.3576 39.3607 16.5469 40.4062C16.4531 40.4688 16.3594 40.4688 16.2656 40.4062C15.7991 39.9856 15.2992 39.6106 14.7656 39.2812C15.9632 37.5217 16.0101 35.7248 14.9062 33.8906C13.3141 31.8323 11.2985 31.2853 8.85938 32.25C6.71234 33.5649 5.91547 35.4555 6.46875 37.9219C6.6419 38.4088 6.87627 38.862 7.17188 39.2812C6.63833 39.6106 6.13833 39.9856 5.67188 40.4062C4.54688 40.4688 3.42188 40.4688 2.29688 40.4062C1.67839 40.1941 1.28776 39.7722 1.125 39.1406C1.07812 28.5782 1.0625 18.0157 1.07812 7.45313ZM23.2969 29.8594C26.0515 29.7443 27.7547 31.0256 28.4062 33.7031C28.5896 36.3937 27.3864 38.0967 24.7969 38.8125C22.7935 39.0369 21.2153 38.3338 20.0625 36.7031C18.9176 34.2672 19.4019 32.2204 21.5156 30.5625C22.0879 30.2422 22.6816 30.0078 23.2969 29.8594ZM10.8281 32.8594C12.8556 32.9959 14.0899 34.0584 14.5312 36.0469C14.6482 38.1408 13.695 39.4688 11.6719 40.0312C9.76163 40.2249 8.40224 39.4594 7.59375 37.7344C7.09223 35.9742 7.57659 34.5523 9.04688 33.4688C9.61744 33.1588 10.2113 32.9557 10.8281 32.8594ZM36.7969 32.8594C39.0724 33.0724 40.3224 34.3224 40.5469 36.6094C40.3553 38.4168 39.3864 39.5573 37.6406 40.0312C35.4344 40.2291 34.0125 39.2759 33.375 37.1719C33.2492 34.7203 34.3898 33.2828 36.7969 32.8594ZM20.2969 38.6719C22.0903 40.0435 24.0591 40.3404 26.2031 39.5625C26.6963 39.3239 27.1494 39.027 27.5625 38.6719C30.2689 40.1447 31.7532 42.4259 32.0156 45.5156C26.6407 45.5156 21.2656 45.5156 15.8906 45.5156C16.1599 42.4424 17.6287 40.1611 20.2969 38.6719ZM7.92188 40.1719C9.94884 41.5418 11.9801 41.5418 14.0156 40.1719C14.7103 40.539 15.304 41.0234 15.7969 41.625C15.1821 42.85 14.8383 44.1469 14.7656 45.5156C11.3594 45.5156 7.95312 45.5156 4.54688 45.5156C4.74857 43.142 5.87357 41.3607 7.92188 40.1719ZM33.7969 40.1719C35.4036 41.2728 37.1224 41.4758 38.9531 40.7812C39.2816 40.6014 39.5941 40.3984 39.8906 40.1719C42.0131 41.3225 43.1693 43.1037 43.3594 45.5156C39.9532 45.5156 36.5468 45.5156 33.1406 45.5156C33.068 44.1469 32.7242 42.85 32.1094 41.625C32.6012 41.0548 33.1637 40.5704 33.7969 40.1719Z" fill="#D3C879"/>
<path opacity="0.865" fill-rule="evenodd" clip-rule="evenodd" d="M35.672 3.7969C36.4883 3.75347 36.8164 4.12847 36.6563 4.9219C36.5828 5.08934 36.4734 5.22996 36.3282 5.34377C35.4272 5.53641 35.0365 5.17704 35.1563 4.26565C35.2831 4.05481 35.4549 3.89856 35.672 3.7969Z" fill="#D3C879"/>
<path opacity="0.865" fill-rule="evenodd" clip-rule="evenodd" d="M39.2345 3.7969C40.0508 3.75347 40.3789 4.12847 40.2188 4.9219C40.1453 5.08934 40.0359 5.22996 39.8907 5.34377C38.9897 5.53641 38.599 5.17704 38.7188 4.26565C38.8456 4.05481 39.0174 3.89856 39.2345 3.7969Z" fill="#D3C879"/>
<path opacity="0.861" fill-rule="evenodd" clip-rule="evenodd" d="M42.797 3.7969C43.6133 3.75347 43.9415 4.12847 43.7814 4.9219C43.7078 5.08934 43.5985 5.22996 43.4533 5.34377C42.5473 5.53132 42.1567 5.17195 42.2814 4.26565C42.4082 4.05481 42.58 3.89856 42.797 3.7969Z" fill="#D3C879"/>
<path opacity="0.903" fill-rule="evenodd" clip-rule="evenodd" d="M11.8596 9.89063C16.2048 9.85078 19.3454 11.757 21.2815 15.6094C23.0065 20.5273 21.772 24.5117 17.5783 27.5625C14.6692 29.1588 11.6692 29.3463 8.57833 28.125C5.48444 26.58 3.65631 24.0956 3.09395 20.6719C2.74098 16.6126 4.25661 13.472 7.64083 11.25C8.96575 10.5009 10.372 10.0478 11.8596 9.89063ZM11.8596 11.0156C11.3423 11.1188 10.811 11.2126 10.2658 11.2969C10.496 12.2532 10.7929 13.1907 11.1565 14.1094C11.2876 14.0412 11.4282 13.9943 11.5783 13.9688C12.2034 13.9062 12.8283 13.9062 13.4533 13.9688C16.5565 14.7434 18.0878 16.7278 18.0471 19.9219C18.9085 20.0276 19.7679 20.1526 20.6252 20.2969C20.729 20.2889 20.8227 20.2576 20.9065 20.2031C20.9868 19.2873 20.9243 18.381 20.719 17.4844C19.3348 13.1899 16.3817 11.0336 11.8596 11.0156ZM9.04708 11.7656C7.10632 12.7222 5.68445 14.1909 4.78145 16.1719C3.53548 19.8907 4.30109 23.1251 7.07833 25.875C9.46708 27.7278 12.1234 28.259 15.0471 27.4688C17.9796 26.4272 19.8546 24.4116 20.6721 21.4219C19.7388 21.255 18.8013 21.1456 17.8596 21.0938C17.1402 23.0631 15.7652 24.313 13.7346 24.8438C10.7883 25.3005 8.67896 24.1912 7.40645 21.5156C6.47531 18.4802 7.33469 16.1051 9.98458 14.3906C9.76108 13.4693 9.44861 12.5942 9.04708 11.7656ZM12.3283 14.9531C9.81011 15.3465 8.40389 16.8153 8.10958 19.3594C8.32754 22.1242 9.81189 23.6242 12.5627 23.8594C15.2349 23.5623 16.7192 22.0778 17.0158 19.4062C16.6295 16.692 15.067 15.2076 12.3283 14.9531Z" fill="#D3C879"/>
<path opacity="0.925" fill-rule="evenodd" clip-rule="evenodd" d="M40.0783 11.9531C41.0788 11.9375 42.0789 11.9531 43.0783 12C43.2502 12.0469 43.3596 12.1563 43.4065 12.3281C43.4533 16.453 43.469 20.578 43.4533 24.7031C44.204 24.6876 44.954 24.7031 45.7033 24.75C46.0783 25.0625 46.0783 25.375 45.7033 25.6875C38.3596 25.75 31.0158 25.75 23.6721 25.6875C23.399 25.3369 23.4302 25.0243 23.7658 24.75C24.5152 24.7031 25.2652 24.6876 26.0158 24.7031C26.0002 23.4528 26.0158 22.2027 26.0627 20.9531C26.1096 20.8437 26.1877 20.7656 26.2971 20.7188C27.3595 20.6562 28.4221 20.6562 29.4846 20.7188C29.5433 20.7891 29.5901 20.8673 29.6252 20.9531C29.6721 22.2027 29.6877 23.4528 29.6721 24.7031C29.9845 24.7031 30.2971 24.7031 30.6096 24.7031C30.5939 22.6717 30.6096 20.6404 30.6565 18.6094C30.7345 18.5313 30.8127 18.4531 30.8908 18.375C31.9221 18.3125 32.9533 18.3125 33.9846 18.375C34.0627 18.4531 34.1409 18.5313 34.219 18.6094C34.2658 20.6404 34.2815 22.6717 34.2658 24.7031C34.5783 24.7031 34.8909 24.7031 35.2033 24.7031C35.1877 21.703 35.2033 18.703 35.2502 15.7031C35.3283 15.625 35.4065 15.5469 35.4846 15.4688C36.5158 15.4062 37.5471 15.4062 38.5783 15.4688C38.6909 15.5534 38.7691 15.6627 38.8127 15.7969C38.8596 18.7655 38.8752 21.7343 38.8596 24.7031C39.172 24.7031 39.4846 24.7031 39.7971 24.7031C39.7814 20.5467 39.7971 16.3905 39.844 12.2344C39.9094 12.1227 39.9875 12.029 40.0783 11.9531ZM40.9221 13.0781C40.9221 16.9531 40.9221 20.8282 40.9221 24.7031C41.3908 24.7031 41.8596 24.7031 42.3283 24.7031C42.3283 20.8282 42.3283 16.9531 42.3283 13.0781C41.8596 13.0781 41.3908 13.0781 40.9221 13.0781ZM36.3283 16.5469C36.3283 19.2656 36.3283 21.9844 36.3283 24.7031C36.7971 24.7031 37.2658 24.7031 37.7346 24.7031C37.7346 21.9844 37.7346 19.2656 37.7346 16.5469C37.2658 16.5469 36.7971 16.5469 36.3283 16.5469ZM31.7346 19.4531C31.7346 21.2032 31.7346 22.9531 31.7346 24.7031C32.2033 24.7031 32.6721 24.7031 33.1408 24.7031C33.1408 22.9531 33.1408 21.2032 33.1408 19.4531C32.6721 19.4531 32.2033 19.4531 31.7346 19.4531ZM27.1408 21.7031C27.1408 22.7032 27.1408 23.7031 27.1408 24.7031C27.6096 24.7031 28.0783 24.7031 28.5471 24.7031C28.5471 23.7031 28.5471 22.7032 28.5471 21.7031C28.0783 21.7031 27.6096 21.7031 27.1408 21.7031Z" fill="#D3C879"/>
</svg>
