<svg width="48" height="48" viewBox="0 0 48 48" fill="none" xmlns="http://www.w3.org/2000/svg">
<path opacity="0.99" fill-rule="evenodd" clip-rule="evenodd" d="M41.4844 1.45314C41.7673 1.43771 42.0486 1.45333 42.3281 1.50001C42.5 1.54689 42.6094 1.65627 42.6563 1.82814C42.7031 3.20279 42.7188 4.57778 42.7031 5.95314C43.9883 5.69806 44.9414 6.13556 45.5625 7.26564C46.0242 8.76352 45.5398 9.81039 44.1094 10.4063C43.6417 10.453 43.1729 10.4687 42.7031 10.4531C42.7031 10.7032 42.7031 10.9531 42.7031 11.2031C43.5234 11.1647 44.3359 11.2116 45.1406 11.3438C45.764 11.6545 46.1858 12.1389 46.4063 12.7969C46.4688 21.2344 46.4688 29.6719 46.4063 38.1094C46.1407 38.875 45.625 39.3907 44.8594 39.6563C38.8907 39.7031 32.922 39.7188 26.9531 39.7031C26.9531 40.4531 26.9531 41.2031 26.9531 41.9531C28.6494 41.9088 30.3369 41.9557 32.0156 42.0938C32.0743 42.1641 32.1212 42.2423 32.1563 42.3281C32.1719 42.9532 32.1875 43.5781 32.2031 44.2031C32.2156 44.9001 32.1687 45.5875 32.0625 46.2656C31.9922 46.3243 31.914 46.3712 31.8281 46.4063C26.5781 46.4688 21.3281 46.4688 16.0781 46.4063C15.9923 46.3712 15.9141 46.3243 15.8438 46.2656C15.7375 45.5875 15.6907 44.9001 15.7031 44.2031C15.7188 43.5781 15.7343 42.9532 15.75 42.3281C15.7851 42.2423 15.8319 42.1641 15.8906 42.0938C17.5693 41.9557 19.2568 41.9088 20.9531 41.9531C20.9531 41.2031 20.9531 40.4531 20.9531 39.7031C14.9843 39.7188 9.01555 39.7031 3.04688 39.6563C2.28125 39.3907 1.76562 38.875 1.5 38.1094C1.4375 29.6719 1.4375 21.2344 1.5 12.7969C1.72044 12.1389 2.14231 11.6545 2.76563 11.3438C3.57034 11.2116 4.38283 11.1647 5.20313 11.2031C5.18751 8.82794 5.20313 6.45293 5.25 4.07814C5.28508 3.99225 5.33196 3.91411 5.39063 3.84376C8.07021 3.7351 10.7577 3.68822 13.4531 3.70314C16.1485 3.68822 18.8361 3.7351 21.5156 3.84376C21.5743 3.91411 21.6212 3.99225 21.6563 4.07814C21.7031 6.45293 21.7188 8.82794 21.7031 11.2031C23.2031 11.2031 24.7031 11.2031 26.2031 11.2031C26.2031 10.9531 26.2031 10.7032 26.2031 10.4531C25.505 10.4934 24.8174 10.4465 24.1406 10.3125C24.0819 10.2422 24.0351 10.164 24 10.0781C23.9843 9.45311 23.9688 8.82814 23.9531 8.20314C23.9407 7.50624 23.9875 6.81873 24.0938 6.14064C24.1641 6.08197 24.2423 6.0351 24.3281 6.00001C24.9523 5.95318 25.5773 5.93755 26.2031 5.95314C26.1876 5.57685 26.2032 5.20185 26.25 4.82814C26.2969 4.65627 26.4063 4.54689 26.5781 4.50001C28.4219 4.46877 30.2656 4.43751 32.1094 4.40626C35.2478 3.42762 38.3729 2.44324 41.4844 1.45314ZM40.9219 3.32814C41.0156 3.32814 41.1094 3.32814 41.2031 3.32814C41.2031 6.57814 41.2031 9.82811 41.2031 13.0781C38.4537 12.2658 35.7038 11.4533 32.9531 10.6406C32.9531 9.01564 32.9531 7.39064 32.9531 5.76564C35.6317 4.99493 38.2879 4.18243 40.9219 3.32814ZM6.70313 5.20314C11.2031 5.20314 15.7031 5.20314 20.2031 5.20314C20.2031 8.70314 20.2031 12.2032 20.2031 15.7031C15.7031 15.7031 11.2031 15.7031 6.70313 15.7031C6.70313 12.2032 6.70313 8.70314 6.70313 5.20314ZM27.7031 5.95314C28.9531 5.95314 30.2032 5.95314 31.4531 5.95314C31.4531 7.45314 31.4531 8.95314 31.4531 10.4531C30.2032 10.4531 28.9531 10.4531 27.7031 10.4531C27.7031 8.95314 27.7031 7.45314 27.7031 5.95314ZM25.4531 7.45314C25.7032 7.45314 25.9531 7.45314 26.2031 7.45314C26.2031 7.95314 26.2031 8.45314 26.2031 8.95314C25.9531 8.95314 25.7032 8.95314 25.4531 8.95314C25.4531 8.45314 25.4531 7.95314 25.4531 7.45314ZM42.7031 7.45314C43.1325 7.4169 43.5388 7.49503 43.9219 7.68751C44.2742 8.29758 44.118 8.70383 43.4531 8.90626C43.2051 8.9529 42.955 8.96852 42.7031 8.95314C42.7031 8.45314 42.7031 7.95314 42.7031 7.45314ZM28.4531 11.9531C28.8907 11.9531 29.3281 11.9531 29.7656 11.9531C29.5918 13.201 29.4355 14.451 29.2969 15.7031C29.0156 15.7031 28.7344 15.7031 28.4531 15.7031C28.4531 14.4532 28.4531 13.2031 28.4531 11.9531ZM31.3594 11.9531C31.7107 11.943 32.0544 11.9899 32.3906 12.0938C35.5494 13.0982 38.7213 14.0514 41.9063 14.9531C42.2501 15 42.5001 14.875 42.6563 14.5781C42.7031 13.954 42.7187 13.3289 42.7031 12.7031C43.3055 12.6685 43.8992 12.7153 44.4844 12.8438C44.7276 12.9693 44.8682 13.1725 44.9063 13.4531C44.9531 20.7031 44.9688 27.9531 44.9531 35.2031C30.9532 35.2031 16.9531 35.2031 2.95313 35.2031C2.9375 27.9531 2.95313 20.7031 3 13.4531C3.03804 13.1725 3.17866 12.9693 3.42188 12.8438C4.00703 12.7153 4.60077 12.6685 5.20313 12.7031C5.18751 14.0785 5.20314 15.4535 5.25 16.8281C5.28508 16.914 5.33196 16.9922 5.39063 17.0625C8.07021 17.1712 10.7577 17.218 13.4531 17.2031C16.1485 17.218 18.8361 17.1712 21.5156 17.0625C21.5743 16.9922 21.6212 16.914 21.6563 16.8281C21.7031 15.4535 21.7188 14.0785 21.7031 12.7031C23.4532 12.7031 25.2031 12.7031 26.9531 12.7031C26.9093 14.1497 26.9561 15.5872 27.0938 17.0156C27.1641 17.0743 27.2423 17.1212 27.3281 17.1563C28.3282 17.2188 29.3281 17.2188 30.3281 17.1563C30.5713 17.0307 30.7119 16.8276 30.75 16.5469C30.9839 15.0188 31.1871 13.4875 31.3594 11.9531ZM2.95313 36.7031C16.9531 36.7031 30.9532 36.7031 44.9531 36.7031C44.9894 37.1325 44.9112 37.5388 44.7188 37.9219C44.5643 38.036 44.3924 38.1141 44.2031 38.1563C30.7031 38.2188 17.2031 38.2188 3.70313 38.1563C3.28125 38.1094 3.04688 37.875 3 37.4531C2.95337 37.2051 2.93774 36.955 2.95313 36.7031ZM22.4531 39.7031C23.4532 39.7031 24.4531 39.7031 25.4531 39.7031C25.4531 40.4531 25.4531 41.2031 25.4531 41.9531C24.4531 41.9531 23.4532 41.9531 22.4531 41.9531C22.4531 41.2031 22.4531 40.4531 22.4531 39.7031ZM17.2031 43.4531C21.7031 43.4531 26.2031 43.4531 30.7031 43.4531C30.7031 43.9531 30.7031 44.4532 30.7031 44.9531C26.2031 44.9531 21.7031 44.9531 17.2031 44.9531C17.2031 44.4532 17.2031 43.9531 17.2031 43.4531Z" fill="#D3C879"/>
<path opacity="0.959" fill-rule="evenodd" clip-rule="evenodd" d="M11.5781 7.45311C11.8301 7.43773 12.0801 7.45336 12.3281 7.49999C13.8907 8.28123 15.4531 9.06249 17.0156 9.84374C17.2446 10.2236 17.2602 10.6143 17.0625 11.0156C15.4916 11.8245 13.9136 12.6214 12.3281 13.4062C12.0034 13.4828 11.6908 13.4515 11.3906 13.3125C11.332 13.2422 11.2851 13.164 11.25 13.0781C11.1875 11.3281 11.1875 9.57814 11.25 7.82811C11.3147 7.65466 11.424 7.52965 11.5781 7.45311ZM12.7031 9.51561C12.6722 10.1437 12.7034 10.7687 12.7969 11.3906C13.4054 11.102 13.9992 10.7895 14.5781 10.4531C13.9772 10.0901 13.3522 9.77764 12.7031 9.51561Z" fill="#D3C879"/>
<path opacity="0.996" fill-rule="evenodd" clip-rule="evenodd" d="M27.3281 18.7031C32.0783 18.6875 36.8282 18.7031 41.5781 18.75C41.75 18.7969 41.8594 18.9063 41.9063 19.0781C41.9531 19.9525 41.9687 20.8276 41.9531 21.7031C42.3295 21.6876 42.7045 21.7032 43.0781 21.75C43.25 21.7969 43.3594 21.9063 43.4063 22.0781C43.4688 25.3282 43.4688 28.5781 43.4063 31.8281C43.3712 31.914 43.3243 31.9922 43.2656 32.0625C38.711 32.2179 34.1485 32.2491 29.5781 32.1563C29.4063 32.1094 29.2969 32 29.25 31.8281C29.2031 30.9537 29.1876 30.0787 29.2031 29.2031C28.5774 29.2187 27.9523 29.2031 27.3281 29.1563C27.1563 29.1094 27.0469 29 27 28.8281C26.9375 25.5781 26.9375 22.3282 27 19.0781C27.0647 18.9047 27.174 18.7796 27.3281 18.7031ZM28.4531 20.2031C28.4531 22.7032 28.4531 25.2031 28.4531 27.7031C28.7032 27.7031 28.9531 27.7031 29.2031 27.7031C29.1875 25.8279 29.2031 23.9529 29.25 22.0781C29.2851 21.9923 29.332 21.9141 29.3906 21.8438C33.0701 21.7043 36.7576 21.6574 40.4531 21.7031C40.4531 21.2032 40.4531 20.7031 40.4531 20.2031C36.4531 20.2031 32.4532 20.2031 28.4531 20.2031ZM30.7031 23.2031C30.7031 25.7032 30.7031 28.2031 30.7031 30.7031C34.4531 30.7031 38.2031 30.7031 41.9531 30.7031C41.9531 28.2031 41.9531 25.7032 41.9531 23.2031C38.2031 23.2031 34.4531 23.2031 30.7031 23.2031Z" fill="#D3C879"/>
<path opacity="0.98" fill-rule="evenodd" clip-rule="evenodd" d="M4.82813 20.2031C11.6483 20.1568 18.4609 20.2037 25.2656 20.3437C25.3243 20.4141 25.3712 20.4922 25.4063 20.5781C25.4219 22.7031 25.4375 24.8281 25.4531 26.9531C25.4678 29.1486 25.421 31.3361 25.3125 33.5156C25.2422 33.5743 25.164 33.6212 25.0781 33.6562C21.7031 33.6719 18.3281 33.6875 14.9531 33.7031C11.5078 33.7182 8.07033 33.6713 4.64063 33.5625C4.58196 33.4922 4.53508 33.414 4.5 33.3281C4.4375 29.0781 4.4375 24.8281 4.5 20.5781C4.56466 20.4047 4.67404 20.2796 4.82813 20.2031ZM8.01563 21.7969C10.3541 23.1539 12.6667 24.5601 14.9531 26.0156C17.2499 24.5703 19.5624 23.1484 21.8906 21.75C17.2498 21.672 12.6248 21.6876 8.01563 21.7969ZM5.95313 22.3594C5.95313 25.6406 5.95313 28.9219 5.95313 32.2031C11.9531 32.2031 17.9531 32.2031 23.9531 32.2031C23.9688 28.9217 23.9531 25.6404 23.9063 22.3594C21.164 24.0507 18.4297 25.7539 15.7031 27.4687C15.2032 27.7812 14.7031 27.7812 14.2031 27.4687C11.4662 25.7411 8.71622 24.038 5.95313 22.3594Z" fill="#D3C879"/>
<path fill-rule="evenodd" clip-rule="evenodd" d="M32.2031 24.7031C32.7031 24.7031 33.2032 24.7031 33.7031 24.7031C33.7031 25.2031 33.7031 25.7032 33.7031 26.2031C33.2032 26.2031 32.7031 26.2031 32.2031 26.2031C32.2031 25.7032 32.2031 25.2031 32.2031 24.7031Z" fill="#D3C879"/>
<path fill-rule="evenodd" clip-rule="evenodd" d="M35.2031 24.7031C36.9532 24.7031 38.7031 24.7031 40.4531 24.7031C40.4531 25.2031 40.4531 25.7032 40.4531 26.2031C38.7031 26.2031 36.9532 26.2031 35.2031 26.2031C35.2031 25.7032 35.2031 25.2031 35.2031 24.7031Z" fill="#D3C879"/>
<path fill-rule="evenodd" clip-rule="evenodd" d="M32.2031 27.7031C33.2032 27.7031 34.2031 27.7031 35.2031 27.7031C35.2031 28.2031 35.2031 28.7032 35.2031 29.2031C34.2031 29.2031 33.2032 29.2031 32.2031 29.2031C32.2031 28.7032 32.2031 28.2031 32.2031 27.7031Z" fill="#D3C879"/>
<path fill-rule="evenodd" clip-rule="evenodd" d="M36.7031 27.7031C37.9531 27.7031 39.2032 27.7031 40.4531 27.7031C40.4531 28.2031 40.4531 28.7032 40.4531 29.2031C39.2032 29.2031 37.9531 29.2031 36.7031 29.2031C36.7031 28.7032 36.7031 28.2031 36.7031 27.7031Z" fill="#D3C879"/>
</svg>
