<svg width="48" height="48" viewBox="0 0 48 48" fill="none" xmlns="http://www.w3.org/2000/svg">
<path opacity="0.978" fill-rule="evenodd" clip-rule="evenodd" d="M29.2969 1.45312C32.2345 1.4375 35.172 1.45312 38.1094 1.5C38.875 1.76562 39.3907 2.28124 39.6563 3.04687C39.7188 4.39062 39.7188 5.73438 39.6563 7.07812C39.6094 7.24999 39.5 7.35937 39.3281 7.40625C38.9544 7.45301 38.5794 7.46864 38.2031 7.45312C38.1876 8.11011 38.2031 8.76636 38.25 9.42187C42.1584 13.3962 44.3771 18.1775 44.9063 23.7656C44.9688 29.3594 44.9688 34.9531 44.9063 40.5469C44.5725 41.912 43.7443 42.8338 42.4219 43.3125C41.5212 43.4273 40.6149 43.4899 39.7031 43.5C39.2969 45.0312 38.3281 46 36.7969 46.4062C28.2344 46.4688 19.6718 46.4688 11.1094 46.4062C9.59372 46.0156 8.64063 45.0625 8.25 43.5469C8.20314 42.0159 8.18751 40.4847 8.20313 38.9531C6.98397 38.9688 5.76522 38.9531 4.54688 38.9062C3.78125 38.6407 3.26562 38.125 3 37.3594C2.9375 31.7969 2.9375 26.2343 3 20.6719C3.40973 18.8368 4.48785 17.5712 6.23438 16.875C6.99637 16.6039 7.77762 16.4164 8.57813 16.3125C8.89575 15.9219 9.02075 15.4688 8.95313 14.9531C8.57683 14.9687 8.20183 14.953 7.82813 14.9062C7.65626 14.8594 7.54688 14.75 7.5 14.5781C7.41076 13.1343 7.44202 11.6967 7.59375 10.2656C7.90445 9.64228 8.38883 9.22043 9.04688 9C10.9844 8.93749 12.9218 8.93749 14.8594 9C15.625 9.26562 16.1407 9.78122 16.4063 10.5469C16.4688 11.8906 16.4688 13.2344 16.4063 14.5781C16.3594 14.75 16.25 14.8594 16.0781 14.9062C15.7044 14.953 15.3294 14.9687 14.9531 14.9531C14.8855 15.4642 15.0105 15.9173 15.3281 16.3125C18.2489 16.4341 20.1083 17.8872 20.9063 20.6719C20.9531 23.7654 20.9688 26.8592 20.9531 29.9531C21.4531 29.9531 21.9532 29.9531 22.4531 29.9531C21.8211 24.2944 22.8679 18.9818 25.5938 14.0156C26.602 12.3503 27.7896 10.8191 29.1563 9.42187C29.2031 8.76636 29.2187 8.11011 29.2031 7.45312C28.8268 7.46864 28.4518 7.45301 28.0781 7.40625C27.9923 7.37117 27.9141 7.32429 27.8438 7.26562C27.7373 6.54053 27.6904 5.80615 27.7031 5.0625C27.6919 4.29004 27.7388 3.52442 27.8438 2.76562C28.1711 2.14072 28.6555 1.70323 29.2969 1.45312ZM29.9531 2.95312C32.5529 2.90864 35.1466 2.95551 37.7344 3.09375C37.9776 3.21928 38.1182 3.4224 38.1563 3.70312C38.2031 4.45248 38.2187 5.20248 38.2031 5.95312C35.2031 5.95312 32.2031 5.95312 29.2031 5.95312C29.1876 5.20248 29.2031 4.45248 29.25 3.70312C29.3138 3.28026 29.5481 3.03026 29.9531 2.95312ZM30.7031 7.45312C32.7031 7.45312 34.7032 7.45312 36.7031 7.45312C36.7031 7.95312 36.7031 8.45313 36.7031 8.95312C34.7032 8.95312 32.7031 8.95312 30.7031 8.95312C30.7031 8.45313 30.7031 7.95312 30.7031 7.45312ZM9.70313 10.4531C11.2034 10.4375 12.7034 10.4531 14.2031 10.5C14.625 10.5469 14.8594 10.7812 14.9063 11.2031C14.9531 11.9525 14.9687 12.7025 14.9531 13.4531C12.9532 13.4531 10.9531 13.4531 8.95313 13.4531C8.93753 12.7025 8.95316 11.9525 9 11.2031C9.06379 10.7802 9.29816 10.5303 9.70313 10.4531ZM30.3281 10.4531C32.5783 10.4375 34.8283 10.4531 37.0781 10.5C38.7631 12.2323 40.138 14.1854 41.2031 16.3594C36.2032 16.4843 31.2031 16.4843 26.2031 16.3594C27.2884 14.1817 28.6634 12.2129 30.3281 10.4531ZM10.4531 14.9531C11.4532 14.9531 12.4531 14.9531 13.4531 14.9531C13.3086 17.0745 14.3086 18.1214 16.4531 18.0937C18.296 18.593 19.2803 19.7961 19.4063 21.7031C19.4531 24.4529 19.4688 27.203 19.4531 29.9531C18.4531 29.9531 17.4532 29.9531 16.4531 29.9531C16.4688 27.5779 16.4531 25.2029 16.4063 22.8281C16.3712 22.7422 16.3243 22.6641 16.2656 22.5937C12.3361 22.4542 8.39861 22.4073 4.45313 22.4531C4.30416 20.5468 5.08541 19.1874 6.79688 18.375C7.49993 18.1495 8.21868 17.9932 8.95313 17.9062C10.2065 17.3217 10.7064 16.3373 10.4531 14.9531ZM25.4531 17.9531C30.9532 17.9531 36.4531 17.9531 41.9531 17.9531C42.5507 19.5935 42.9726 21.281 43.2188 23.0156C43.4104 25.3238 43.4886 27.6363 43.4531 29.9531C36.9532 29.9531 30.4531 29.9531 23.9531 29.9531C23.9177 27.6363 23.9959 25.3238 24.1875 23.0156C24.4334 21.2821 24.8553 19.5946 25.4531 17.9531ZM4.45313 23.9531C7.95312 23.9531 11.4532 23.9531 14.9531 23.9531C14.9531 25.9531 14.9531 27.9532 14.9531 29.9531C13.5414 29.9124 12.1352 29.9593 10.7344 30.0937C9.39647 30.5878 8.55273 31.5253 8.20313 32.9062C6.95352 32.9531 5.70352 32.9688 4.45313 32.9531C4.45313 29.9531 4.45313 26.9531 4.45313 23.9531ZM11.9531 31.4531C19.9532 31.4375 27.9532 31.4531 35.9531 31.5C37.25 31.6718 37.9844 32.4063 38.1563 33.7031C38.2188 36.7031 38.2188 39.7031 38.1563 42.7031C37.9844 44 37.25 44.7344 35.9531 44.9062C27.9532 44.9688 19.9531 44.9688 11.9531 44.9062C10.6563 44.7344 9.92185 44 9.75 42.7031C9.68747 39.7031 9.68747 36.7031 9.75 33.7031C9.93863 32.4052 10.673 31.6552 11.9531 31.4531ZM39.0469 31.5469C40.4992 31.4535 41.9679 31.4222 43.4531 31.4531C43.4688 34.2033 43.4531 36.9533 43.4063 39.7031C43.2344 41 42.5 41.7344 41.2031 41.9062C40.7041 41.953 40.2041 41.9687 39.7031 41.9531C39.7188 38.9217 39.7031 35.8905 39.6563 32.8594C39.5503 32.3662 39.3472 31.9287 39.0469 31.5469ZM4.45313 34.4531C5.70312 34.4531 6.95313 34.4531 8.20313 34.4531C8.20313 35.4532 8.20313 36.4531 8.20313 37.4531C7.20264 37.4688 6.20264 37.4531 5.20313 37.4062C4.78125 37.3594 4.54688 37.125 4.5 36.7031C4.45316 35.9538 4.43753 35.2038 4.45313 34.4531Z" fill="#D3C879"/>
<path opacity="0.986" fill-rule="evenodd" clip-rule="evenodd" d="M31.8281 19.4531C33.1498 19.4095 34.4623 19.4564 35.7656 19.5938C35.8243 19.6641 35.8712 19.7423 35.9063 19.8281C35.9531 20.4523 35.9687 21.0774 35.9531 21.7031C36.6513 21.6629 37.3389 21.7098 38.0156 21.8438C38.0743 21.9141 38.1212 21.9923 38.1563 22.0781C38.1719 22.7032 38.1875 23.3281 38.2031 23.9531C38.2156 24.6501 38.1687 25.3375 38.0625 26.0156C37.9922 26.0743 37.914 26.1212 37.8281 26.1563C37.2039 26.2031 36.5789 26.2187 35.9531 26.2031C35.9934 26.9013 35.9465 27.5889 35.8125 28.2656C35.7422 28.3243 35.664 28.3712 35.5781 28.4063C34.9531 28.4219 34.3282 28.4375 33.7031 28.4531C33.0062 28.4656 32.3187 28.4187 31.6406 28.3125C31.5819 28.2422 31.5351 28.164 31.5 28.0781C31.4531 27.4539 31.4376 26.8289 31.4531 26.2031C30.755 26.2434 30.0674 26.1965 29.3906 26.0625C29.3319 25.9922 29.2851 25.914 29.25 25.8281C29.2344 25.2031 29.2188 24.5782 29.2031 23.9531C29.1907 23.2562 29.2375 22.5687 29.3438 21.8906C29.4141 21.8319 29.4923 21.7851 29.5781 21.75C30.2023 21.7031 30.8274 21.6876 31.4531 21.7031C31.4376 21.0774 31.4531 20.4523 31.5 19.8281C31.5647 19.6547 31.674 19.5296 31.8281 19.4531ZM32.9531 20.9531C32.9687 21.5789 32.9531 22.2039 32.9063 22.8281C32.8712 22.914 32.8243 22.9922 32.7656 23.0625C32.0889 23.1965 31.4013 23.2434 30.7031 23.2031C30.7031 23.7031 30.7031 24.2032 30.7031 24.7031C31.3289 24.6876 31.9539 24.7031 32.5781 24.75C32.664 24.7851 32.7422 24.8319 32.8125 24.8906C32.9465 25.5674 32.9934 26.255 32.9531 26.9531C33.4531 26.9531 33.9532 26.9531 34.4531 26.9531C34.4376 26.3274 34.4531 25.7023 34.5 25.0781C34.5351 24.9923 34.5819 24.9141 34.6406 24.8438C35.3174 24.7098 36.005 24.6629 36.7031 24.7031C36.7031 24.2032 36.7031 23.7031 36.7031 23.2031C36.0774 23.2187 35.4523 23.2031 34.8281 23.1563C34.7423 23.1212 34.6641 23.0743 34.5938 23.0156C34.4598 22.3389 34.4129 21.6513 34.4531 20.9531C33.9532 20.9531 33.4531 20.9531 32.9531 20.9531Z" fill="#D3C879"/>
<path opacity="0.982" fill-rule="evenodd" clip-rule="evenodd" d="M5.57834 25.4531C8.07853 25.4375 10.5785 25.4531 13.0783 25.5C13.3611 25.6434 13.4861 25.8777 13.4533 26.2031C13.4861 26.5285 13.3611 26.7629 13.0783 26.9063C10.5783 26.9688 8.07835 26.9688 5.57834 26.9063C5.29559 26.7629 5.17059 26.5285 5.20334 26.2031C5.18294 25.8688 5.30794 25.6189 5.57834 25.4531Z" fill="#D3C879"/>
<path opacity="0.972" fill-rule="evenodd" clip-rule="evenodd" d="M5.57834 28.4531C7.07867 28.4375 8.57867 28.4531 10.0783 28.5C10.2502 28.5469 10.3596 28.6563 10.4065 28.8281C10.469 29.0782 10.469 29.3281 10.4065 29.5781C10.3596 29.75 10.2502 29.8594 10.0783 29.9063C8.57834 29.9688 7.07834 29.9688 5.57834 29.9063C5.29559 29.7629 5.17059 29.5285 5.20334 29.2031C5.18294 28.8688 5.30794 28.6189 5.57834 28.4531Z" fill="#D3C879"/>
<path opacity="0.932" fill-rule="evenodd" clip-rule="evenodd" d="M14.2971 32.9531C15.6909 32.7198 16.644 33.251 17.1564 34.5468C17.436 35.9415 16.9204 36.8946 15.6096 37.4062C14.2149 37.6858 13.2618 37.1702 12.7502 35.8593C12.4826 34.4562 12.9983 33.4874 14.2971 32.9531ZM14.6721 34.5468C14.5179 34.6233 14.4086 34.7484 14.3439 34.9218C14.2617 35.7646 14.6211 36.0302 15.4221 35.7187C15.7987 34.9248 15.5486 34.5342 14.6721 34.5468Z" fill="#D3C879"/>
<path opacity="0.932" fill-rule="evenodd" clip-rule="evenodd" d="M20.2971 32.9531C21.6909 32.7198 22.644 33.251 23.1564 34.5468C23.436 35.9415 22.9204 36.8946 21.6096 37.4062C20.2149 37.6858 19.2618 37.1702 18.7502 35.8593C18.4826 34.4562 18.9983 33.4874 20.2971 32.9531ZM20.6721 34.5468C20.5179 34.6233 20.4086 34.7484 20.3439 34.9218C20.2617 35.7646 20.6211 36.0302 21.4221 35.7187C21.7987 34.9248 21.5486 34.5342 20.6721 34.5468Z" fill="#D3C879"/>
<path opacity="0.932" fill-rule="evenodd" clip-rule="evenodd" d="M26.2971 32.9531C27.6909 32.7198 28.644 33.251 29.1564 34.5468C29.436 35.9415 28.9204 36.8946 27.6096 37.4062C26.2149 37.6858 25.2618 37.1702 24.7502 35.8593C24.4826 34.4562 24.9983 33.4874 26.2971 32.9531ZM26.6721 34.5468C26.5179 34.6233 26.4086 34.7484 26.3439 34.9218C26.2617 35.7646 26.6211 36.0302 27.4221 35.7187C27.7987 34.9248 27.5486 34.5342 26.6721 34.5468Z" fill="#D3C879"/>
<path opacity="0.932" fill-rule="evenodd" clip-rule="evenodd" d="M32.2971 32.9531C33.6909 32.7198 34.644 33.251 35.1564 34.5468C35.436 35.9415 34.9204 36.8946 33.6096 37.4062C32.2149 37.6858 31.2618 37.1702 30.7502 35.8593C30.4826 34.4562 30.9983 33.4874 32.2971 32.9531ZM32.6721 34.5468C32.5179 34.6233 32.4086 34.7484 32.3439 34.9218C32.2617 35.7646 32.6211 36.0302 33.4221 35.7187C33.7987 34.9248 33.5486 34.5342 32.6721 34.5468Z" fill="#D3C879"/>
<path opacity="0.932" fill-rule="evenodd" clip-rule="evenodd" d="M14.2971 38.9531C15.6909 38.7198 16.644 39.251 17.1564 40.5468C17.436 41.9415 16.9204 42.8946 15.6096 43.4062C14.2149 43.6858 13.2618 43.1702 12.7502 41.8593C12.4826 40.4562 12.9983 39.4874 14.2971 38.9531ZM14.6721 40.5468C14.5179 40.6233 14.4086 40.7484 14.3439 40.9218C14.2617 41.7646 14.6211 42.0302 15.4221 41.7187C15.7987 40.9248 15.5486 40.5342 14.6721 40.5468Z" fill="#D3C879"/>
<path opacity="0.932" fill-rule="evenodd" clip-rule="evenodd" d="M20.2971 38.9531C21.6909 38.7198 22.644 39.251 23.1564 40.5468C23.436 41.9415 22.9204 42.8946 21.6096 43.4062C20.2149 43.6858 19.2618 43.1702 18.7502 41.8593C18.4826 40.4562 18.9983 39.4874 20.2971 38.9531ZM20.6721 40.5468C20.5179 40.6233 20.4086 40.7484 20.3439 40.9218C20.2617 41.7646 20.6211 42.0302 21.4221 41.7187C21.7987 40.9248 21.5486 40.5342 20.6721 40.5468Z" fill="#D3C879"/>
<path opacity="0.932" fill-rule="evenodd" clip-rule="evenodd" d="M26.2971 38.9531C27.6909 38.7198 28.644 39.251 29.1564 40.5468C29.436 41.9415 28.9204 42.8946 27.6096 43.4062C26.2149 43.6858 25.2618 43.1702 24.7502 41.8593C24.4826 40.4562 24.9983 39.4874 26.2971 38.9531ZM26.6721 40.5468C26.5179 40.6233 26.4086 40.7484 26.3439 40.9218C26.2617 41.7646 26.6211 42.0302 27.4221 41.7187C27.7987 40.9248 27.5486 40.5342 26.6721 40.5468Z" fill="#D3C879"/>
<path opacity="0.932" fill-rule="evenodd" clip-rule="evenodd" d="M32.2971 38.9531C33.6909 38.7198 34.644 39.251 35.1564 40.5468C35.436 41.9415 34.9204 42.8946 33.6096 43.4062C32.2149 43.6858 31.2618 43.1702 30.7502 41.8593C30.4826 40.4562 30.9983 39.4874 32.2971 38.9531ZM32.6721 40.5468C32.5179 40.6233 32.4086 40.7484 32.3439 40.9218C32.2617 41.7646 32.6211 42.0302 33.4221 41.7187C33.7987 40.9248 33.5486 40.5342 32.6721 40.5468Z" fill="#D3C879"/>
</svg>
