<svg width="48" height="48" viewBox="0 0 48 48" fill="none" xmlns="http://www.w3.org/2000/svg">
<g clip-path="url(#clip0_121_1967)">
<path opacity="0.934" fill-rule="evenodd" clip-rule="evenodd" d="M47.9531 25.0781C47.9531 25.3282 47.9531 25.5781 47.9531 25.8281C44.0683 29.7598 40.162 33.6818 36.2344 37.5938C35.9531 37.6563 35.6719 37.6563 35.3906 37.5938C30.8125 33.0157 26.2343 28.4375 21.6562 23.8594C21.3928 23.4888 21.2053 23.0825 21.0938 22.6406C20.9409 21.3939 20.8315 20.144 20.7656 18.8906C19.9224 19.2264 19.0474 19.4452 18.1406 19.5469C16.9999 22.4529 14.9218 24.3279 11.9062 25.1719C10.4062 30.3594 8.90625 35.5469 7.40625 40.7344C5.92976 41.7381 4.39852 42.6443 2.8125 43.4531C2.47463 43.3784 2.22462 43.1909 2.0625 42.8906C1.40435 41.5734 0.701223 40.2923 -0.046875 39.0469C-0.046875 38.7656 -0.046875 38.4844 -0.046875 38.2031C0.465757 37.837 0.997003 37.4933 1.54688 37.1719C1.23171 36.6199 0.981712 36.0418 0.796875 35.4375C0.827417 35.2046 0.921167 35.0015 1.07812 34.8281C1.56159 34.5158 2.03034 34.1876 2.48438 33.8438C2.23716 33.3337 2.00278 32.818 1.78125 32.2969C1.70332 31.9057 1.81268 31.5775 2.10938 31.3125C2.59425 31.0233 3.063 30.7107 3.51562 30.375C3.17214 29.7669 2.92215 29.1263 2.76562 28.4531C3.19523 26.5702 3.66398 24.6952 4.17188 22.8281C1.22402 19.5135 0.73964 15.8573 2.71875 11.8594C4.74954 8.75046 7.62455 7.37545 11.3438 7.73439C11.8539 7.19334 12.4008 6.67771 12.9844 6.18751C15.2671 4.552 17.7358 4.20825 20.3906 5.15626C22.6094 6.07761 24.0469 7.68699 24.7031 9.98439C27.3908 10.2102 30.0783 10.4446 32.7656 10.6875C33.2002 10.7699 33.6065 10.9261 33.9844 11.1563C38.6907 15.7532 43.3469 20.3938 47.9531 25.0781ZM16.9219 6.23439C19.7802 6.13138 21.8115 7.36576 23.0156 9.93751C21.6422 10.2485 20.7516 11.0767 20.3438 12.4219C20.2609 12.7606 20.214 13.1044 20.2031 13.4531C20.2975 14.6332 20.4225 15.805 20.5781 16.9688C20.0335 17.3347 19.4397 17.6003 18.7969 17.7656C19.1778 14.014 17.834 11.0609 14.7656 8.90626C14.2657 8.65626 13.7656 8.40626 13.2656 8.15626C14.2821 7.11695 15.5008 6.47633 16.9219 6.23439ZM9.42188 9.32814C9.82931 9.3126 10.2355 9.32823 10.6406 9.37501C10.4628 9.8462 10.3222 10.3306 10.2188 10.8281C8.22202 11.7246 7.69078 13.162 8.625 15.1406C9.73678 16.3601 11.0337 16.5945 12.5156 15.8438C13.8487 14.6483 14.0518 13.2889 13.125 11.7656C12.7551 11.3958 12.3332 11.099 11.8594 10.875C11.9679 10.5494 12.0772 10.2213 12.1875 9.89064C12.2239 9.80364 12.2864 9.7411 12.375 9.70314C14.9691 10.6723 16.5315 12.5161 17.0625 15.2344C17.1269 16.1115 17.1113 16.9865 17.0156 17.8594C15.8573 17.7391 14.8261 17.3172 13.9219 16.5938C13.1951 16.3936 12.7888 16.6592 12.7031 17.3906C12.7084 17.6354 12.8021 17.8386 12.9844 18C14.0037 18.7411 15.1287 19.2567 16.3594 19.5469C15.2008 21.846 13.3571 23.2367 10.8281 23.7188C10.7187 23.8282 10.6094 23.9375 10.5 24.0469C9.01249 29.3062 7.49686 34.5562 5.95312 39.7969C5.06269 40.2889 4.18769 40.8045 3.32812 41.3438C3.23915 41.4016 3.16102 41.386 3.09375 41.2969C2.68377 40.5237 2.2619 39.7581 1.82812 39C2.28134 38.6951 2.75009 38.4139 3.23438 38.1563C3.55076 37.8036 3.59764 37.413 3.375 36.9844C3.1591 36.5682 2.95598 36.1464 2.76562 35.7188C3.28676 35.3404 3.80239 34.9497 4.3125 34.5469C4.35938 34.4063 4.40625 34.2656 4.45312 34.125C4.20312 33.5313 3.95313 32.9375 3.70312 32.3438C4.09022 32.0404 4.49648 31.7591 4.92188 31.5C5.31215 31.2355 5.45277 30.8761 5.34375 30.4219C5.0208 29.7448 4.72392 29.0574 4.45312 28.3594C4.97532 26.3799 5.47532 24.3956 5.95312 22.4063C5.9492 22.2219 5.90232 22.0499 5.8125 21.8906C3.29784 19.6575 2.5791 16.9388 3.65625 13.7344C4.78601 11.2106 6.70789 9.74185 9.42188 9.32814ZM23.2969 11.4844C26.2033 11.7415 29.1096 12.0071 32.0156 12.2813C32.3845 12.2891 32.7283 12.3829 33.0469 12.5625C37.3724 16.7943 41.6693 21.0599 45.9375 25.3594C46 25.4219 46 25.4844 45.9375 25.5469C42.5625 28.9219 39.1875 32.2969 35.8125 35.6719C31.4662 31.3568 27.1537 27.013 22.875 22.6406C22.7942 22.4919 22.7317 22.3356 22.6875 22.1719C22.4106 19.3134 22.145 16.4541 21.8906 13.5938C21.818 12.8328 22.0992 12.2391 22.7344 11.8125C22.9155 11.6757 23.103 11.5664 23.2969 11.4844ZM10.6406 12.4219C11.8139 12.4254 12.2358 12.9879 11.9062 14.1094C11.4534 14.6979 10.9066 14.8072 10.2656 14.4375C9.59513 13.6201 9.72019 12.9483 10.6406 12.4219Z" fill="#D3C879"/>
<path opacity="0.915" fill-rule="evenodd" clip-rule="evenodd" d="M33.3279 18.7031C34.4729 18.7126 34.7698 19.2126 34.2186 20.2031C33.0155 21.4062 31.8123 22.6094 30.6092 23.8125C30.225 24.0831 29.8188 24.1143 29.3904 23.9062C29.0989 23.5745 29.052 23.2151 29.2498 22.8281C30.6281 21.4655 31.9875 20.0905 33.3279 18.7031Z" fill="#D3C879"/>
<path opacity="0.915" fill-rule="evenodd" clip-rule="evenodd" d="M37.6406 23.1094C38.6777 23.0052 39.0371 23.4427 38.7187 24.4219C37.4219 25.7187 36.1249 27.0157 34.8281 28.3125C33.75 28.6094 33.3593 28.2188 33.6562 27.1407C35.0033 25.8093 36.3314 24.4655 37.6406 23.1094Z" fill="#D3C879"/>
</g>
<defs>
<clipPath id="clip0_121_1967">
<rect width="48" height="48" fill="white"/>
</clipPath>
</defs>
</svg>
