<svg width="48" height="48" viewBox="0 0 48 48" fill="none" xmlns="http://www.w3.org/2000/svg">
<path opacity="0.94" fill-rule="evenodd" clip-rule="evenodd" d="M21.1406 1.35937C23.0159 1.34375 24.8909 1.35937 26.7656 1.40625C27.5847 1.63158 28.1317 2.1472 28.4063 2.95312C28.4531 4.14021 28.4688 5.32771 28.4531 6.51562C29.5032 6.76659 30.4876 7.17285 31.4063 7.73437C32.2404 6.83738 33.1311 6.00926 34.0781 5.25C35.0284 4.86874 35.9034 4.99374 36.7031 5.625C37.8125 6.73437 38.9219 7.84375 40.0313 8.95312C40.6388 9.85228 40.7014 10.7898 40.2188 11.7656C39.4703 12.5923 38.7047 13.4047 37.9219 14.2031C38.4082 15.1311 38.7832 16.0998 39.0469 17.1094C40.2036 17.0937 41.3598 17.1094 42.5156 17.1562C43.3347 17.3816 43.8817 17.8972 44.1563 18.7031C44.2188 20.6407 44.2188 22.5781 44.1563 24.5156C43.7908 25.5522 43.0565 26.1147 41.9531 26.2031C41.9376 25.671 41.9532 25.1397 42 24.6094C42.3859 24.5047 42.6046 24.2548 42.6563 23.8594C42.7188 22.3906 42.7188 20.9219 42.6563 19.4531C42.6453 19.1333 42.5047 18.899 42.2344 18.75C40.766 18.7031 39.2972 18.6875 37.8281 18.7031C37.4831 16.9805 36.8269 15.3867 35.8594 13.9219C36.8268 12.9076 37.8112 11.9076 38.8125 10.9219C39 10.6406 39 10.3594 38.8125 10.0781C37.7032 8.96875 36.5937 7.85937 35.4844 6.75C35.1564 6.56562 34.8439 6.59687 34.5469 6.84375C33.5924 7.81384 32.6237 8.76696 31.6406 9.70312C30.2486 8.817 28.7486 8.17638 27.1406 7.78125C26.971 6.44437 26.8929 5.085 26.9063 3.70312C26.8953 3.38329 26.7547 3.14892 26.4844 3C24.7969 2.93749 23.1094 2.93749 21.4219 3C21.1516 3.14892 21.011 3.38329 21 3.70312C21.0133 5.085 20.9352 6.44437 20.7656 7.78125C19.1576 8.17638 17.6576 8.817 16.2656 9.70312C15.2826 8.76696 14.3138 7.81384 13.3594 6.84375C13.0624 6.59687 12.7498 6.56562 12.4219 6.75C11.3125 7.85937 10.2031 8.96875 9.09375 10.0781C8.90625 10.3594 8.90625 10.6406 9.09375 10.9219C10.0951 11.9076 11.0795 12.9076 12.0469 13.9219C11.0796 15.3862 10.4233 16.9799 10.0781 18.7031C8.60905 18.6875 7.14029 18.7031 5.67188 18.75C5.4016 18.899 5.26097 19.1333 5.25 19.4531C5.1875 20.9219 5.1875 22.3906 5.25 23.8594C5.30162 24.2548 5.52037 24.5047 5.90625 24.6094C5.95307 25.1397 5.9687 25.671 5.95313 26.2031C4.84979 26.1147 4.11542 25.5522 3.75 24.5156C3.6875 22.5781 3.6875 20.6407 3.75 18.7031C3.97044 18.0451 4.39231 17.5607 5.01563 17.25C6.29127 17.1162 7.57253 17.0693 8.85938 17.1094C9.10249 16.0915 9.47747 15.1228 9.98438 14.2031C9.36075 13.5326 8.72013 12.8764 8.0625 12.2344C7.20092 11.1894 7.13842 10.0957 7.875 8.95312C9.11512 7.6503 10.412 6.41592 11.7656 5.25C12.6072 4.9098 13.4197 4.9723 14.2031 5.4375C14.9688 6.20313 15.7343 6.96874 16.5 7.73437C17.4187 7.17285 18.403 6.76659 19.4531 6.51562C19.4375 5.32771 19.4531 4.14021 19.5 2.95312C19.7923 2.14498 20.3392 1.61373 21.1406 1.35937Z" fill="#D3C879"/>
<path opacity="0.928" fill-rule="evenodd" clip-rule="evenodd" d="M22.7344 11.1094C27.9045 10.8408 31.5763 13.0283 33.75 17.6719C34.2679 18.9667 34.5023 20.3104 34.4531 21.7031C33.9288 21.7319 33.4132 21.7006 32.9062 21.6094C32.5597 16.81 30.0442 13.8726 25.3594 12.7969C20.9438 12.3577 17.7407 14.1078 15.75 18.0469C15.2627 19.1837 15.0128 20.3711 15 21.6094C14.4931 21.7006 13.9775 21.7319 13.4531 21.7031C13.6091 16.9083 15.8903 13.5802 20.2969 11.7187C21.1069 11.4537 21.9194 11.2507 22.7344 11.1094Z" fill="#D3C879"/>
<path opacity="0.931" fill-rule="evenodd" clip-rule="evenodd" d="M23.1093 18.6094C25.8517 18.3702 27.6173 19.5577 28.4062 22.1719C28.721 24.9032 27.5803 26.7001 24.9843 27.5625C22.1494 27.9443 20.3213 26.7724 19.4999 24.0469C19.1965 21.2133 20.3996 19.4008 23.1093 18.6094ZM23.2968 20.2031C22.142 20.5298 21.4076 21.2798 21.0937 22.4531C20.8773 24.5818 21.8305 25.8005 23.953 26.1094C25.3971 25.9744 26.3501 25.2244 26.8124 23.8594C26.992 21.3443 25.8201 20.1256 23.2968 20.2031Z" fill="#D3C879"/>
<path opacity="0.931" fill-rule="evenodd" clip-rule="evenodd" d="M10.3593 21.6094C13.1017 21.3702 14.8673 22.5577 15.6562 25.1719C15.971 27.9032 14.8303 29.7001 12.2343 30.5625C9.3994 30.9443 7.5713 29.7724 6.74993 27.0469C6.44653 24.2133 7.64966 22.4008 10.3593 21.6094ZM10.5468 23.2031C13.0701 23.1256 14.242 24.3443 14.0624 26.8594C13.6001 28.2244 12.6471 28.9744 11.2031 29.1094C9.08045 28.8005 8.12732 27.5818 8.34368 25.4531C8.65765 24.2798 9.39199 23.5298 10.5468 23.2031Z" fill="#D3C879"/>
<path opacity="0.931" fill-rule="evenodd" clip-rule="evenodd" d="M35.8593 21.6094C38.6017 21.3702 40.3673 22.5577 41.1562 25.1719C41.471 27.9032 40.3303 29.7001 37.7343 30.5625C34.8994 30.9443 33.0713 29.7724 32.2499 27.0469C31.9465 24.2133 33.1496 22.4008 35.8593 21.6094ZM36.0468 23.2031C38.5701 23.1256 39.742 24.3443 39.5624 26.8594C39.1001 28.2244 38.1471 28.9744 36.703 29.1094C34.5805 28.8005 33.6273 27.5818 33.8437 25.4531C34.1576 24.2798 34.892 23.5298 36.0468 23.2031Z" fill="#D3C879"/>
<path opacity="0.958" fill-rule="evenodd" clip-rule="evenodd" d="M19.9219 28.3594C22.7695 28.3161 25.6133 28.363 28.4531 28.5C30.256 28.94 31.6779 29.9243 32.7188 31.4531C35.3839 31.3442 38.0558 31.3286 40.7344 31.4062C43.8338 32.037 45.7245 33.8963 46.4063 36.9844C46.4688 38.7031 46.4688 40.4219 46.4063 42.1406C45.9003 44.3654 44.5409 45.756 42.3281 46.3125C39.4562 46.448 36.5812 46.4948 33.7031 46.4531C33.7031 45.9218 33.7031 45.3906 33.7031 44.8594C35.9531 44.8594 38.2031 44.8594 40.4531 44.8594C40.4531 42.1094 40.4531 39.3593 40.4531 36.6094C40.9531 36.6094 41.4532 36.6094 41.9531 36.6094C41.9375 39.3283 41.9531 42.047 42 44.7656C43.4367 44.3289 44.3742 43.3914 44.8125 41.9531C44.998 40.3595 44.998 38.7658 44.8125 37.1719C44.2261 34.9293 42.8043 33.5387 40.5469 33C38.1721 32.9531 35.7971 32.9375 33.4219 32.9531C33.4849 33.2989 33.563 33.6426 33.6563 33.9844C33.7188 37.1406 33.7188 40.2968 33.6563 43.4531C33.1944 45.1648 32.0851 46.1492 30.3281 46.4062C29.4537 46.4531 28.5787 46.4687 27.7031 46.4531C27.7031 42.4219 27.7031 38.3906 27.7031 34.3594C28.2031 34.3594 28.7032 34.3594 29.2031 34.3594C29.2031 37.8593 29.2031 41.3594 29.2031 44.8594C30.572 45.0427 31.5251 44.5115 32.0625 43.2656C32.2133 40.5498 32.2445 37.831 32.1563 35.1094C31.9196 32.3724 30.4665 30.6694 27.7969 30C25.2344 29.9375 22.6718 29.9375 20.1094 30C17.4458 30.664 15.9926 32.3672 15.75 35.1094C15.6618 37.831 15.693 40.5498 15.8438 43.2656C16.3811 44.5115 17.3343 45.0427 18.7031 44.8594C18.7031 41.3594 18.7031 37.8593 18.7031 34.3594C19.2031 34.3594 19.7032 34.3594 20.2031 34.3594C20.2031 38.3906 20.2031 42.4219 20.2031 46.4531C19.3276 46.4687 18.4525 46.4531 17.5781 46.4062C15.8212 46.1492 14.7118 45.1648 14.25 43.4531C14.1875 40.2968 14.1875 37.1406 14.25 33.9844C14.3191 33.6368 14.3973 33.2931 14.4844 32.9531C12.1091 32.9375 9.73416 32.9531 7.35938 33C5.04189 33.4784 3.62001 34.869 3.09375 37.1719C2.90819 38.7658 2.90819 40.3595 3.09375 41.9531C3.53207 43.3914 4.46957 44.3289 5.90625 44.7656C5.95313 42.047 5.96875 39.3283 5.95313 36.6094C6.45312 36.6094 6.95313 36.6094 7.45313 36.6094C7.45313 39.3593 7.45313 42.1094 7.45313 44.8594C9.70313 44.8594 11.9531 44.8594 14.2031 44.8594C14.2031 45.3906 14.2031 45.9218 14.2031 46.4531C11.5467 46.4688 8.89045 46.4531 6.23438 46.4062C3.67743 46.0679 2.0993 44.6461 1.5 42.1406C1.4375 40.4219 1.4375 38.7031 1.5 36.9844C2.18178 33.8963 4.0724 32.037 7.17188 31.4062C9.8505 31.3286 12.5224 31.3442 15.1875 31.4531C16.3473 29.7723 17.9255 28.741 19.9219 28.3594Z" fill="#D3C879"/>
<path opacity="0.941" fill-rule="evenodd" clip-rule="evenodd" d="M20.9531 44.8594C22.9531 44.8594 24.9532 44.8594 26.9531 44.8594C26.9531 45.3907 26.9531 45.9218 26.9531 46.4531C24.9532 46.4531 22.9531 46.4531 20.9531 46.4531C20.9531 45.9218 20.9531 45.3907 20.9531 44.8594Z" fill="#D3C879"/>
</svg>
