<svg width="48" height="48" viewBox="0 0 48 48" fill="none" xmlns="http://www.w3.org/2000/svg">
<path opacity="0.932" fill-rule="evenodd" clip-rule="evenodd" d="M14.1095 2.76562C15.7973 2.75 17.4848 2.76563 19.172 2.8125C19.4165 2.94171 19.5571 3.14484 19.5939 3.42187C19.6408 4.79652 19.6564 6.17151 19.6408 7.54687C20.4634 7.74836 21.2447 8.06086 21.9845 8.48437C22.9988 7.51696 23.9988 6.53258 24.9845 5.53125C25.2346 5.46874 25.4845 5.46874 25.7345 5.53125C26.9376 6.60937 28.0783 7.75 29.1564 8.95312C29.2305 9.24693 29.1992 9.52818 29.0626 9.79687C28.0925 10.7513 27.1395 11.7201 26.2033 12.7031C26.6072 13.4152 26.9198 14.1652 27.1408 14.9531C28.5147 15.0312 29.8897 15.0781 31.2658 15.0937C31.5428 15.1305 31.746 15.2711 31.8751 15.5156C31.9377 17.1719 31.9377 18.8281 31.8751 20.4844C31.7971 20.6875 31.6564 20.8282 31.4533 20.9062C30.0161 20.9531 28.5786 20.9688 27.1408 20.9531C26.9598 21.7842 26.6474 22.5654 26.2033 23.2969C27.1081 24.2487 28.0301 25.1862 28.9689 26.1094C29.2379 26.4617 29.2691 26.8367 29.0626 27.2344C27.9845 28.3125 26.9064 29.3906 25.8283 30.4687C25.4658 30.6675 25.1221 30.6362 24.797 30.375C23.8907 29.4687 22.9846 28.5625 22.0783 27.6562C21.9845 27.5937 21.8908 27.5937 21.797 27.6562C21.1472 28.0291 20.4598 28.3103 19.7345 28.5C19.6572 29.8523 19.6103 31.2117 19.5939 32.5781C19.5582 32.9575 19.3551 33.1919 18.9845 33.2812C17.3221 33.3712 15.6659 33.3398 14.0158 33.1875C13.9032 33.1028 13.825 32.9935 13.7814 32.8594C13.7949 31.3839 13.7167 29.9308 13.547 28.5C12.8218 28.3103 12.1343 28.0291 11.4845 27.6562C11.3908 27.5937 11.297 27.5937 11.2033 27.6562C10.2658 28.5937 9.32827 29.5312 8.39077 30.4687C8.07828 30.6562 7.76577 30.6562 7.45327 30.4687C6.37515 29.3906 5.29702 28.3125 4.2189 27.2344C4.0314 26.9219 4.0314 26.6093 4.2189 26.2969C5.20727 25.3399 6.16039 24.3555 7.07827 23.3437C6.68331 22.612 6.37081 21.8464 6.14077 21.0469C4.70429 20.9688 3.26679 20.9219 1.82827 20.9062C1.69414 20.8627 1.58476 20.7845 1.50015 20.6719C1.34647 18.9929 1.31522 17.3054 1.4064 15.6094C1.49456 15.3025 1.69769 15.1307 2.01577 15.0937C3.39184 15.0781 4.76684 15.0312 6.14077 14.9531C6.40152 14.1817 6.71402 13.4317 7.07827 12.7031C6.14211 11.7201 5.18899 10.7513 4.2189 9.79687C4.08232 9.52818 4.05108 9.24693 4.12515 8.95312C5.27085 7.80742 6.41147 6.6668 7.54702 5.53125C7.9251 5.43371 8.26885 5.49621 8.57827 5.71875C9.50012 6.64062 10.4221 7.5625 11.3439 8.48437C12.094 8.06775 12.8753 7.72399 13.6876 7.45312C13.7189 6.01562 13.7502 4.57812 13.7814 3.14062C13.9104 3.02764 14.0197 2.90265 14.1095 2.76562ZM15.2345 4.26562C16.172 4.26562 17.1095 4.26562 18.047 4.26562C18.0314 5.64098 18.047 7.01597 18.0939 8.39062C18.172 8.59375 18.3126 8.73437 18.5158 8.8125C19.7266 9.08052 20.8516 9.54928 21.8908 10.2187C22.0471 10.2813 22.2032 10.2813 22.3595 10.2187C23.3567 9.31532 24.3256 8.37782 25.2658 7.40625C25.3283 7.34374 25.3907 7.34374 25.4533 7.40625C26.0783 8.03125 26.7032 8.65624 27.3283 9.28125C26.4376 10.1719 25.547 11.0625 24.6564 11.9531C24.5386 12.1418 24.4604 12.3449 24.422 12.5625C25.0525 13.7772 25.5681 15.0428 25.9689 16.3594C26.0787 16.49 26.2193 16.5682 26.3908 16.5937C27.7341 16.6406 29.0779 16.6563 30.422 16.6406C30.422 17.5781 30.422 18.5156 30.422 19.4531C29.0154 19.4375 27.6091 19.4531 26.2033 19.5C26.0939 19.6094 25.9846 19.7187 25.8751 19.8281C25.6074 21.0378 25.1386 22.1628 24.4689 23.2031C24.4064 23.3906 24.4064 23.5781 24.4689 23.7656C25.3879 24.7785 26.3411 25.7629 27.3283 26.7187C26.7032 27.3438 26.0783 27.9687 25.4533 28.5937C25.3907 28.6563 25.3283 28.6563 25.2658 28.5937C24.3568 27.6534 23.4193 26.7472 22.4533 25.875C22.2346 25.8125 22.0157 25.8125 21.797 25.875C20.8112 26.4953 19.7488 26.9329 18.6095 27.1875C18.3751 27.2969 18.2033 27.4687 18.0939 27.7031C18.047 29.0465 18.0314 30.3903 18.047 31.7344C17.1095 31.7344 16.172 31.7344 15.2345 31.7344C15.2502 30.3591 15.2345 28.984 15.1876 27.6094C15.043 27.4333 14.8711 27.2927 14.672 27.1875C13.5328 26.9329 12.4703 26.4953 11.4845 25.875C11.2658 25.8125 11.047 25.8125 10.8283 25.875C9.86227 26.7472 8.92478 27.6534 8.01577 28.5937C7.95327 28.6563 7.89078 28.6563 7.82827 28.5937C7.20327 27.9687 6.57828 27.3438 5.95327 26.7187C6.94047 25.7629 7.8936 24.7785 8.81265 23.7656C8.87515 23.5781 8.87515 23.3906 8.81265 23.2031C8.14317 22.1639 7.67442 21.0389 7.4064 19.8281C7.32828 19.6875 7.2189 19.5781 7.07827 19.5C5.67237 19.4531 4.26612 19.4375 2.85952 19.4531C2.85952 18.5156 2.85952 17.5781 2.85952 16.6406C4.20364 16.6563 5.54738 16.6406 6.89077 16.5937C7.11087 16.5613 7.28275 16.4519 7.4064 16.2656C7.66188 15.1232 8.09937 14.0607 8.7189 13.0781C8.84251 12.8057 8.87375 12.5244 8.81265 12.2344C7.8936 11.2215 6.94047 10.2371 5.95327 9.28125C6.59524 8.62362 7.25149 7.983 7.92202 7.35937C8.87382 8.26427 9.81137 9.18615 10.7345 10.125C10.888 10.1813 11.0442 10.2282 11.2033 10.2656C12.3938 9.61331 13.6439 9.09772 14.9533 8.71875C15.0659 8.63414 15.1441 8.52476 15.1876 8.39062C15.2345 7.01597 15.2502 5.64098 15.2345 4.26562Z" fill="#D3C879"/>
<path opacity="0.93" fill-rule="evenodd" clip-rule="evenodd" d="M15.8906 9.98439C19.8421 9.89345 22.6077 11.6435 24.1875 15.2344C25.337 19.0619 24.3526 22.2025 21.2344 24.6563C18.766 26.1746 16.1723 26.4247 13.4531 25.4063C10.3892 23.9181 8.76417 21.4649 8.57812 18.0469C8.95957 13.4785 11.3971 10.7911 15.8906 9.98439ZM15.7031 11.5781C13.0511 12.1198 11.2854 13.6824 10.4062 16.2656C9.78506 19.0898 10.5819 21.4179 12.7969 23.25C15.9769 25.2047 18.8987 24.8766 21.5625 22.2656C23.3273 19.9566 23.5774 17.4879 22.3125 14.8594C20.7848 12.4315 18.5817 11.3378 15.7031 11.5781Z" fill="#D3C879"/>
<path opacity="0.932" fill-rule="evenodd" clip-rule="evenodd" d="M16.3594 12.1406C19.6214 12.2317 21.637 13.8566 22.4062 17.0156C22.7186 20.2205 21.3906 22.4236 18.4219 23.625C15.6479 24.2944 13.4135 23.4975 11.7187 21.2344C10.4251 18.8386 10.5501 16.5261 12.0937 14.2969C13.2398 13.013 14.6617 12.2942 16.3594 12.1406ZM16.0781 13.7344C13.0544 14.5928 11.9137 16.5615 12.6562 19.6406C13.9277 22.0231 15.8496 22.7887 18.4219 21.9375C20.7194 20.6079 21.4225 18.6861 20.5312 16.1719C19.5729 14.4202 18.0886 13.6077 16.0781 13.7344Z" fill="#D3C879"/>
<path opacity="0.937" fill-rule="evenodd" clip-rule="evenodd" d="M33.3282 23.0156C35.6456 22.9724 37.958 23.0193 40.2657 23.1562C40.4109 23.27 40.5202 23.4107 40.5938 23.5781C40.6407 25.5779 40.6563 27.5779 40.6407 29.5781C41.2742 29.5428 41.8992 29.5896 42.5157 29.7187C42.6283 29.8034 42.7065 29.9127 42.7501 30.0469C42.7969 32.0779 42.8126 34.1091 42.7969 36.1406C44.7996 36.305 46.0027 37.3674 46.4063 39.3281C46.4688 40.1093 46.4688 40.8906 46.4063 41.6719C46.0548 43.5858 44.9143 44.6639 42.9844 44.9062C30.2657 44.9688 17.547 44.9688 4.82818 44.9062C2.37697 44.5004 1.22072 43.0473 1.35943 40.5469C1.1705 38.2547 2.1705 36.8015 4.35943 36.1875C12.2969 36.1406 20.2344 36.125 28.1719 36.1406C28.1292 34.0731 28.1761 32.0106 28.3126 29.9531C28.4362 29.7668 28.6081 29.6574 28.8282 29.625C30.0778 29.5781 31.3278 29.5625 32.5782 29.5781C32.5625 27.5466 32.5782 25.5154 32.6251 23.4844C32.8044 23.2237 33.0388 23.0675 33.3282 23.0156ZM34.0782 24.6094C35.7657 24.6094 37.4532 24.6094 39.1407 24.6094C39.1407 26.2656 39.1407 27.9218 39.1407 29.5781C37.4532 29.5781 35.7657 29.5781 34.0782 29.5781C34.0782 27.9218 34.0782 26.2656 34.0782 24.6094ZM29.7657 31.1719C31.422 31.1719 33.0782 31.1719 34.7344 31.1719C34.7344 32.8281 34.7344 34.4843 34.7344 36.1406C33.0782 36.1406 31.422 36.1406 29.7657 36.1406C29.7657 34.4843 29.7657 32.8281 29.7657 31.1719ZM36.3282 31.1719C37.9845 31.1719 39.6407 31.1719 41.2969 31.1719C41.2969 32.8281 41.2969 34.4843 41.2969 36.1406C39.6407 36.1406 37.9845 36.1406 36.3282 36.1406C36.3282 34.4843 36.3282 32.8281 36.3282 31.1719ZM4.92193 37.6406C17.5782 37.625 30.2344 37.6406 42.8907 37.6875C44.106 37.8715 44.7779 38.5746 44.9063 39.7969C44.9888 40.5905 44.9264 41.3718 44.7188 42.1406C44.4089 42.7416 43.9246 43.1323 43.2657 43.3125C30.3594 43.375 17.4532 43.375 4.54693 43.3125C3.56755 42.9951 3.02067 42.3232 2.90631 41.2969C2.77179 40.351 2.89679 39.4447 3.28131 38.5781C3.71903 38.0551 4.26592 37.7426 4.92193 37.6406Z" fill="#D3C879"/>
<path opacity="0.93" fill-rule="evenodd" clip-rule="evenodd" d="M8.95335 38.2969C10.8455 38.2981 11.7048 39.2356 11.5315 41.1094C11.0501 42.3896 10.1281 42.9053 8.76585 42.6562C7.542 42.1811 7.02637 41.2905 7.21897 39.9844C7.48048 39.082 8.0586 38.5195 8.95335 38.2969ZM9.0471 39.8906C8.75919 40.1853 8.6967 40.5291 8.8596 40.9219C9.46063 41.372 9.86694 41.2313 10.0783 40.5C9.93406 39.966 9.59038 39.7628 9.0471 39.8906Z" fill="#D3C879"/>
<path opacity="0.929" fill-rule="evenodd" clip-rule="evenodd" d="M16.1721 38.2969C17.7597 38.2286 18.666 38.9786 18.8908 40.5469C18.5093 42.4724 17.3843 43.113 15.5158 42.4687C14.3841 41.5914 14.1497 40.5133 14.8127 39.2344C15.1888 38.7902 15.6419 38.4777 16.1721 38.2969ZM16.3596 39.8906C16.0511 40.0912 15.9417 40.3724 16.0314 40.7344C16.3904 41.3159 16.7966 41.3471 17.2502 40.8281C17.3904 40.1089 17.0936 39.7964 16.3596 39.8906Z" fill="#D3C879"/>
<path opacity="0.929" fill-rule="evenodd" clip-rule="evenodd" d="M23.4843 38.2969C25.3715 38.2934 26.2309 39.2309 26.0624 41.1094C25.3581 42.6778 24.2174 43.0997 22.6406 42.375C21.5978 41.4474 21.4258 40.3693 22.1249 39.1406C22.5049 38.7249 22.958 38.4437 23.4843 38.2969ZM23.5781 39.8906C23.3837 40.0649 23.2587 40.2836 23.2031 40.5469C23.6718 41.4219 24.1406 41.4219 24.6093 40.5469C24.486 39.9866 24.1422 39.7679 23.5781 39.8906Z" fill="#D3C879"/>
<path opacity="0.928" fill-rule="evenodd" clip-rule="evenodd" d="M30.7031 38.2969C32.268 38.2213 33.1743 38.9557 33.4219 40.5C33.3447 41.5627 32.8135 42.2814 31.8281 42.6563C30.1105 42.938 29.1418 42.2192 28.9219 40.5C29.0572 39.3815 29.6511 38.6471 30.7031 38.2969ZM30.8906 39.8906C30.5553 40.1117 30.4459 40.4242 30.5625 40.8281C31.0161 41.3471 31.4223 41.3159 31.7812 40.7344C31.8435 40.0937 31.5466 39.8124 30.8906 39.8906Z" fill="#D3C879"/>
<path opacity="0.931" fill-rule="evenodd" clip-rule="evenodd" d="M38.0154 38.2969C39.8568 38.2788 40.7162 39.1851 40.5935 41.0156C39.9422 42.6604 38.8017 43.1135 37.1717 42.375C36.2097 41.5765 35.9753 40.5921 36.4685 39.4219C36.8334 38.8266 37.349 38.4516 38.0154 38.2969ZM38.1092 39.8906C37.8417 40.1126 37.7324 40.3939 37.781 40.7344C38.1525 41.3091 38.5587 41.3404 38.9998 40.8281C39.145 40.1136 38.8481 39.8012 38.1092 39.8906Z" fill="#D3C879"/>
</svg>
