<svg width="48" height="48" viewBox="0 0 48 48" fill="none" xmlns="http://www.w3.org/2000/svg">
<g clip-path="url(#clip0_121_1937)">
<path opacity="0.93" fill-rule="evenodd" clip-rule="evenodd" d="M47.9531 15.3281C47.9531 15.8594 47.9531 16.3906 47.9531 16.9219C47.7495 17.5495 47.3745 18.0652 46.8281 18.4688C44.0874 19.648 41.3062 20.7262 38.4844 21.7031C38.4063 23.1084 38.3594 24.5146 38.3438 25.9219C38.2969 26.0937 38.1875 26.2031 38.0156 26.25C37.4342 26.4206 37.0748 26.2175 36.9375 25.6406C36.9218 24.5143 36.875 23.3893 36.7969 22.2656C36.5468 22.3594 36.2969 22.4531 36.0469 22.5469C35.9375 25.1401 35.9219 27.7338 36 30.3281C36.2248 30.201 36.4592 30.0916 36.7031 30C36.7618 29.9297 36.8087 29.8515 36.8438 29.7656C36.875 29.2657 36.9063 28.7656 36.9375 28.2656C37.2755 27.523 37.7442 27.4293 38.3438 27.9844C38.8514 30.065 38.0858 31.3775 36.0469 31.9219C35.9219 32.8282 35.9219 33.7344 36.0469 34.6406C36.8852 34.932 37.4632 35.4945 37.7812 36.3281C37.9306 37.9177 37.9619 39.5114 37.875 41.1094C37.7969 41.375 37.625 41.5469 37.3594 41.625C35.9531 41.6875 34.5469 41.6875 33.1406 41.625C32.8845 41.5877 32.7127 41.4471 32.625 41.2031C32.5625 39.6719 32.5625 38.1406 32.625 36.6094C32.8857 35.6766 33.4639 35.0203 34.3594 34.6406C34.4843 33.9532 34.4843 33.2656 34.3594 32.5781C30.9912 33.8988 27.5537 34.9926 24.0469 35.8594C19.594 34.7345 15.2503 33.2814 11.0156 31.5C10.3704 31.2578 9.94856 30.8047 9.75 30.1406C9.71878 27.3594 9.68747 24.5782 9.65625 21.7969C6.76158 20.7799 3.9022 19.6705 1.07812 18.4688C0.534799 18.0674 0.159799 17.5518 -0.046875 16.9219C-0.046875 16.3906 -0.046875 15.8594 -0.046875 15.3281C0.156752 14.7005 0.531752 14.1849 1.07812 13.7813C2.70461 13.0516 4.36087 12.3954 6.04688 11.8125C6.91782 11.6604 7.24595 12.0198 7.03125 12.8906C6.95313 12.9687 6.875 13.0469 6.79688 13.125C5.26563 13.7187 3.73437 14.3125 2.20312 14.9063C1.53095 15.2962 1.29657 15.8743 1.5 16.6406C1.63667 16.8713 1.80854 17.0744 2.01562 17.25C8.84709 20.013 15.8158 22.388 22.9219 24.375C23.7422 24.5724 24.5546 24.541 25.3594 24.2813C28.1894 23.4643 31.0019 22.5894 33.7969 21.6563C30.348 20.0412 26.9105 18.4006 23.4844 16.7344C23.0972 16.2889 23.1285 15.867 23.5781 15.4688C23.8282 15.4062 24.0781 15.4062 24.3281 15.4688C28.1922 17.268 32.0203 19.1274 35.8125 21.0469C39.1994 19.8554 42.5588 18.5898 45.8906 17.25C46.468 16.752 46.6087 16.1426 46.3125 15.4219C46.1719 15.2813 46.0312 15.1406 45.8906 15C38.7376 12.1 31.4251 9.6782 23.9531 7.73439C19.0401 8.98135 14.1964 10.4657 9.42188 12.1875C9.07087 12.2746 8.74274 12.2277 8.4375 12.0469C8.22156 11.6214 8.26843 11.2308 8.57812 10.875C13.4801 9.11594 18.4489 7.58469 23.4844 6.28126C24.1798 6.23766 24.8673 6.30016 25.5469 6.46876C32.7805 8.51534 39.8743 10.9528 46.8281 13.7813C47.3745 14.1849 47.7495 14.7005 47.9531 15.3281ZM11.2031 22.3594C15.0254 23.597 18.8692 24.7689 22.7344 25.875C23.812 26.0882 24.8745 26.0258 25.9219 25.6875C28.7758 24.8559 31.6195 23.9965 34.4531 23.1094C34.4531 25.7344 34.4531 28.3594 34.4531 30.9844C31.0361 32.2587 27.5674 33.3837 24.0469 34.3594C19.7955 33.2079 15.6392 31.786 11.5781 30.0938C11.4063 30.0469 11.2969 29.9375 11.25 29.7656C11.2031 27.2971 11.1875 24.8283 11.2031 22.3594ZM34.9219 36.0469C35.5192 35.9784 35.9724 36.1973 36.2812 36.7031C36.4162 37.8523 36.463 39.0085 36.4219 40.1719C35.6407 40.1719 34.8593 40.1719 34.0781 40.1719C34.0625 39.0777 34.0781 37.9839 34.125 36.8906C34.2857 36.4959 34.5513 36.2147 34.9219 36.0469Z" fill="#D3C879"/>
</g>
<defs>
<clipPath id="clip0_121_1937">
<rect width="48" height="48" fill="white"/>
</clipPath>
</defs>
</svg>
