<svg width="48" height="48" viewBox="0 0 48 48" fill="none" xmlns="http://www.w3.org/2000/svg">
<g clip-path="url(#clip0_121_2168)">
<path opacity="0.93" fill-rule="evenodd" clip-rule="evenodd" d="M39.7032 -0.046875C40.2345 -0.046875 40.7657 -0.046875 41.297 -0.046875C43.4385 0.798898 44.1728 2.33015 43.5001 4.54688C42.5247 6.22913 41.1028 6.776 39.2345 6.1875C38.2462 5.71523 37.6212 4.9496 37.3595 3.89062C36.359 3.87502 35.3589 3.89064 34.3595 3.9375C34.3126 3.98438 34.2657 4.03125 34.2188 4.07812C34.172 7.07797 34.1563 10.0779 34.172 13.0781C35.2344 13.0781 36.297 13.0781 37.3595 13.0781C37.9195 11.1713 39.2008 10.3431 41.2032 10.5938C43.3329 11.3058 44.1298 12.7589 43.5938 14.9531C42.5708 16.8986 41.024 17.4768 38.9532 16.6875C38.1881 16.2061 37.6568 15.5342 37.3595 14.6719C36.2988 14.5782 35.2363 14.547 34.172 14.5781C34.1563 17.5783 34.172 20.5783 34.2188 23.5781C35.2581 23.6707 36.305 23.702 37.3595 23.6719C37.9009 21.8685 39.1196 21.0404 41.0157 21.1875C42.747 21.5441 43.6845 22.6066 43.8282 24.375C43.6605 26.4021 42.5668 27.5114 40.547 27.7031C38.8701 27.6166 37.8076 26.7728 37.3595 25.1719C36.234 25.1875 35.109 25.1719 33.9845 25.125C33.4219 24.9998 33.0312 24.6716 32.8126 24.1406C32.6739 20.9589 32.6271 17.7714 32.672 14.5781C31.2969 14.5781 29.922 14.5781 28.547 14.5781C28.5232 15.3679 28.1168 15.821 27.3282 15.9375C26.9233 16.0088 26.5171 16.0713 26.1095 16.125C25.8226 16.6395 25.5882 17.1864 25.4063 17.7656C25.2152 18.1636 25.012 18.5543 24.797 18.9375C25.159 19.334 25.4872 19.7558 25.7813 20.2031C25.9847 20.7482 25.9534 21.2795 25.6876 21.7969C25.2657 22.2188 24.8438 22.6406 24.422 23.0625C23.8017 23.4985 23.1767 23.4985 22.547 23.0625C22.1885 22.7738 21.8135 22.5082 21.422 22.2656C20.5933 22.7423 19.7183 23.1173 18.797 23.3906C18.6435 24.011 18.5029 24.6359 18.3751 25.2656C18.2345 25.5312 18.0313 25.7344 17.7657 25.875C16.9291 26.0231 16.0853 26.0543 15.2345 25.9688C14.8399 25.8575 14.543 25.6231 14.3438 25.2656C14.2161 24.6359 14.0754 24.011 13.922 23.3906C13.0006 23.1173 12.1256 22.7423 11.297 22.2656C10.8097 22.6122 10.3097 22.9403 9.79696 23.25C9.26321 23.4527 8.76321 23.3902 8.29696 23.0625C7.74291 22.5713 7.25853 22.0245 6.84384 21.4219C6.78133 21.1094 6.78133 20.7968 6.84384 20.4844C7.11673 19.9921 7.42922 19.5233 7.78134 19.0781C7.84384 18.9532 7.84384 18.8281 7.78134 18.7031C7.33953 17.893 6.98016 17.0493 6.70321 16.1719C6.14008 16.0728 5.57758 15.9634 5.01571 15.8438C4.52811 15.6686 4.24686 15.3249 4.17196 14.8125C4.04069 14.0439 4.05632 13.2784 4.21884 12.5156C4.35946 12.125 4.62508 11.8594 5.01571 11.7188C5.6037 11.5924 6.19745 11.5142 6.79696 11.4844C6.99793 10.4906 7.37293 9.56878 7.92196 8.71875C7.48603 8.22068 7.12664 7.67379 6.84384 7.07812C6.73391 6.56467 6.82766 6.09592 7.12509 5.67188C7.48446 5.3125 7.84384 4.95312 8.20321 4.59375C8.76029 4.14693 9.35404 4.08443 9.98446 4.40625C10.4074 4.70451 10.8292 5.00138 11.2501 5.29688C12.0967 4.82718 12.9874 4.46781 13.922 4.21875C14.0744 3.68439 14.1838 3.13751 14.2501 2.57812C14.4006 2.02146 14.7599 1.69333 15.3282 1.59375C16.0157 1.53125 16.7032 1.53125 17.3907 1.59375C18.0001 1.70313 18.3594 2.0625 18.4688 2.67188C18.5438 3.19854 18.6532 3.71417 18.797 4.21875C19.7316 4.46781 20.6222 4.82718 21.4688 5.29688C21.8897 5.00138 22.3116 4.70451 22.7345 4.40625C23.3648 4.08443 23.9587 4.14693 24.5157 4.59375C25.0775 5.06077 25.5306 5.60765 25.8751 6.23438C25.9376 6.51562 25.9376 6.79688 25.8751 7.07812C25.5922 7.67379 25.2329 8.22068 24.797 8.71875C25.346 9.56878 25.721 10.4906 25.922 11.4844C26.5951 11.5024 27.2513 11.6118 27.8907 11.8125C28.3307 12.0982 28.5807 12.5044 28.6407 13.0312C29.9841 13.0781 31.3279 13.0938 32.672 13.0781C32.6563 9.95297 32.672 6.82797 32.7188 3.70312C32.9014 2.98929 33.3545 2.56742 34.0782 2.4375C35.1733 2.4218 36.2671 2.37492 37.3595 2.29688C37.7417 1.10212 38.5229 0.320877 39.7032 -0.046875ZM39.9845 1.45312C41.3137 1.29873 42.095 1.87686 42.3282 3.1875C42.0148 4.56366 41.1711 5.09491 39.797 4.78125C38.5867 3.91131 38.4617 2.91131 39.422 1.78125C39.6307 1.69303 39.8182 1.58365 39.9845 1.45312ZM15.7032 3.04688C16.1407 3.04688 16.5782 3.04688 17.0157 3.04688C17.1118 3.73534 17.2212 4.42283 17.3438 5.10938C17.4219 5.3125 17.5626 5.45313 17.7657 5.53125C18.9805 5.79522 20.1055 6.26397 21.1407 6.9375C21.3907 7 21.6407 7 21.8907 6.9375C22.4088 6.52878 22.9401 6.13815 23.4845 5.76562C23.8112 6.04537 24.1236 6.34225 24.422 6.65625C24.0313 7.17188 23.6407 7.6875 23.2501 8.20312C23.1423 8.41442 23.111 8.63317 23.1563 8.85938C23.8897 9.98241 24.3897 11.2012 24.6563 12.5156C24.78 12.7019 24.9518 12.8113 25.172 12.8438C25.797 12.9375 26.4219 13.0312 27.047 13.125C27.1378 13.5691 27.1691 14.0222 27.1407 14.4844C26.5436 14.5317 25.9499 14.6098 25.3595 14.7188C25.0821 14.7402 24.8478 14.8496 24.6563 15.0469C24.5294 15.6173 24.3731 16.1798 24.1876 16.7344C23.8252 17.4704 23.4659 18.2048 23.1095 18.9375C23.4517 19.6523 23.8893 20.3085 24.422 20.9062C24.1407 21.1875 23.8595 21.4688 23.5782 21.75C23.4462 21.7795 23.3212 21.7483 23.2032 21.6562C22.693 21.1752 22.1149 20.8159 21.4688 20.5781C20.7998 20.8891 20.128 21.2172 19.4532 21.5625C18.9065 21.776 18.344 21.9322 17.7657 22.0312C17.5626 22.1093 17.4219 22.25 17.3438 22.4531C17.2241 23.1402 17.1147 23.8278 17.0157 24.5156C16.5782 24.5156 16.1407 24.5156 15.7032 24.5156C15.6042 23.8278 15.4948 23.1402 15.3751 22.4531C15.297 22.25 15.1564 22.1093 14.9532 22.0312C13.7182 21.8198 12.5932 21.3511 11.5782 20.625C11.2844 20.5509 11.0032 20.5822 10.7345 20.7188C10.3113 21.0085 9.90506 21.3211 9.51571 21.6562C9.39768 21.7483 9.27269 21.7795 9.14071 21.75C8.85946 21.4688 8.57821 21.1875 8.29696 20.9062C8.84198 20.2996 9.27948 19.6277 9.60946 18.8906C9.3381 18.3168 9.04122 17.7543 8.71884 17.2031C8.4437 16.5339 8.22494 15.8465 8.06259 15.1406C8.01571 14.9688 7.90633 14.8594 7.73446 14.8125C7.02387 14.6463 6.30511 14.5369 5.57821 14.4844C5.54985 14.0222 5.5811 13.5691 5.67196 13.125C6.29697 13.0312 6.92196 12.9375 7.54696 12.8438C7.76706 12.8113 7.93894 12.7019 8.06259 12.5156C8.33089 11.1983 8.83089 9.97959 9.56259 8.85938C9.60796 8.63317 9.57665 8.41442 9.46884 8.20312C9.07821 7.6875 8.68759 7.17188 8.29696 6.65625C8.59527 6.34225 8.90778 6.04537 9.23446 5.76562C9.77887 6.13815 10.3102 6.52878 10.8282 6.9375C11.0782 7 11.3282 7 11.5782 6.9375C12.6001 6.23198 13.7251 5.76323 14.9532 5.53125C15.1564 5.45313 15.297 5.3125 15.3751 5.10938C15.4977 4.42283 15.6071 3.73534 15.7032 3.04688ZM40.0782 12.0469C41.3639 11.9429 42.1139 12.5211 42.3282 13.7812C42.0932 15.1019 41.3119 15.6644 39.9845 15.4688C38.8448 14.9256 38.5167 14.0662 39.0001 12.8906C39.2985 12.5121 39.6578 12.2308 40.0782 12.0469ZM40.172 22.6406C41.7172 22.668 42.3892 23.4493 42.1876 24.9844C41.6472 26.0598 40.819 26.3879 39.7032 25.9688C38.5328 25.0423 38.4704 24.0423 39.5157 22.9688C39.7431 22.855 39.9619 22.7457 40.172 22.6406Z" fill="#D3C879"/>
<path opacity="0.923" fill-rule="evenodd" clip-rule="evenodd" d="M15.422 8.48438C18.5319 8.23842 20.5787 9.58219 21.5626 12.5156C21.8785 13.9022 21.691 15.2147 21.0001 16.4531C20.5939 16.8281 20.1876 16.8281 19.7814 16.4531C19.6948 16.3093 19.648 16.153 19.6407 15.9844C20.5576 14.1545 20.3389 12.4825 18.9845 10.9688C17.4777 9.80616 15.884 9.68119 14.2032 10.5938C12.4992 11.9886 12.1085 13.6917 13.0314 15.7031C13.7992 16.9217 14.9085 17.5779 16.3595 17.6719C17.0351 17.5889 17.6913 17.4326 18.3282 17.2031C19.0279 17.3523 19.231 17.7586 18.9376 18.4219C16.3995 19.6589 14.1495 19.2527 12.1876 17.2031C10.698 15.0567 10.6355 12.8693 12.0001 10.6406C12.8845 9.50382 14.0251 8.78503 15.422 8.48438Z" fill="#D3C879"/>
<path opacity="0.933" fill-rule="evenodd" clip-rule="evenodd" d="M47.953 34.2656C47.953 34.7656 47.953 35.2657 47.953 35.7656C47.7494 36.3933 47.3744 36.9089 46.828 37.3125C44.4693 38.57 42.1255 39.8512 39.7968 41.1563C39.1416 41.3593 38.7666 41.1249 38.6718 40.4531C38.677 40.2083 38.7708 40.0052 38.953 39.8438C41.2656 38.5938 43.578 37.3437 45.8905 36.0938C46.4503 35.6217 46.5909 35.0436 46.3124 34.3594C45.8717 33.8053 45.3248 33.6647 44.6718 33.9375C41.9518 35.4851 39.2018 36.9851 36.4218 38.4375C32.8264 39.9743 29.0764 40.5993 25.1718 40.3125C23.1054 40.0933 21.0429 39.8433 18.9843 39.5625C18.4444 39.1976 18.3818 38.7601 18.7968 38.25C22.9434 37.6443 27.0997 37.0818 31.2655 36.5625C32.0679 36.1553 32.271 35.546 31.8749 34.7344C31.7611 34.5892 31.6205 34.4798 31.453 34.4063C28.0524 34.2831 24.6461 34.2205 21.2343 34.2188C18.0742 33.0064 14.8867 32.9282 11.6718 33.9844C10.9694 33.8296 10.7663 33.4233 11.0624 32.7656C11.6145 32.4041 12.2239 32.1698 12.8905 32.0625C15.806 31.4764 18.6653 31.6794 21.4687 32.6719C24.5049 31.1303 27.5206 29.5522 30.5155 27.9375C32.0681 27.3517 33.24 27.7735 34.0312 29.2031C34.1238 29.4773 34.1862 29.7585 34.2187 30.0469C34.7631 29.6888 35.3411 29.3918 35.953 29.1563C37.628 28.9414 38.6904 29.6445 39.1405 31.2656C39.8196 30.9104 40.507 30.5823 41.203 30.2813C42.8486 30.0566 43.8799 30.7442 44.2968 32.3438C46.0513 32.0019 47.2701 32.6426 47.953 34.2656ZM31.3593 29.2031C32.3866 29.1345 32.8085 29.6033 32.6249 30.6094C32.5197 30.8085 32.3791 30.9803 32.203 31.125C31.203 31.6563 30.2031 32.1875 29.203 32.7188C27.703 32.7813 26.203 32.7813 24.703 32.7188C26.9275 31.5442 29.1463 30.3723 31.3593 29.2031ZM36.2343 30.6094C37.2337 30.5919 37.6243 31.0607 37.4062 32.0156C37.2306 32.2227 37.0274 32.3946 36.7968 32.5313C35.6602 33.0905 34.5352 33.6685 33.4218 34.2656C33.0886 33.6983 32.6198 33.2765 32.0155 33C33.4277 32.2006 34.8339 31.4037 36.2343 30.6094ZM41.4843 31.7344C42.2076 31.645 42.6451 31.9575 42.7968 32.6719C42.7486 32.926 42.6548 33.1604 42.5155 33.375C40.3831 34.6001 38.2268 35.7877 36.0468 36.9375C32.7347 38.4218 29.2659 39.0469 25.6405 38.8125C27.8103 38.5784 29.9665 38.2659 32.1093 37.875C32.9267 37.4582 33.4268 36.8019 33.6093 35.9063C36.2549 34.5368 38.8799 33.1462 41.4843 31.7344Z" fill="#D3C879"/>
<path opacity="0.933" fill-rule="evenodd" clip-rule="evenodd" d="M24.3281 47.9531C23.2657 47.9531 22.2031 47.9531 21.1406 47.9531C16.2826 47.4703 11.4076 47.0171 6.51562 46.5938C4.48437 46.5625 2.45313 46.5312 0.421875 46.5C0.250963 46.4065 0.0947128 46.2971 -0.046875 46.1719C-0.046875 42.7969 -0.046875 39.4219 -0.046875 36.0469C0.104369 35.8809 0.291869 35.7716 0.515625 35.7188C2.20312 35.6875 3.89062 35.6562 5.57812 35.625C6.64374 34.7794 7.8 34.0763 9.04688 33.5156C9.77644 33.6938 9.9795 34.1314 9.65625 34.8281C8.41231 35.4888 7.24043 36.2544 6.14062 37.125C4.57844 37.1719 3.01594 37.1875 1.45312 37.1719C1.45312 39.7969 1.45312 42.4219 1.45312 45.0469C3.17216 45.0312 4.89091 45.0469 6.60938 45.0938C11.4844 45.5313 16.3594 45.9687 21.2344 46.4062C23.7321 46.6255 26.1383 46.2505 28.4531 45.2812C31.2652 44.0783 33.984 42.7033 36.6094 41.1562C37.2412 40.9454 37.6162 41.1642 37.7344 41.8125C37.6966 42.0832 37.5716 42.302 37.3594 42.4688C34.5264 44.1353 31.589 45.6039 28.5469 46.875C27.162 47.3696 25.7558 47.729 24.3281 47.9531Z" fill="#D3C879"/>
</g>
<defs>
<clipPath id="clip0_121_2168">
<rect width="48" height="48" fill="white"/>
</clipPath>
</defs>
</svg>
