<svg width="48" height="48" viewBox="0 0 48 48" fill="none" xmlns="http://www.w3.org/2000/svg">
<g clip-path="url(#clip0_121_2001)">
<path opacity="0.939" fill-rule="evenodd" clip-rule="evenodd" d="M47.9531 45.7969C47.9531 46.0781 47.9531 46.3594 47.9531 46.6406C47.8116 46.7659 47.6553 46.8753 47.4844 46.9687C32.3594 47.0313 17.2343 47.0313 2.10938 46.9687C1.78746 46.8254 1.63121 46.5754 1.64062 46.2187C1.63196 45.9549 1.72571 45.7362 1.92188 45.5625C2.53841 45.4334 3.16342 45.3865 3.79688 45.4219C3.82811 42.7337 3.79686 40.0462 3.70312 37.3594C3.34114 37.6432 2.96614 37.9088 2.57812 38.1562C2.22712 38.2433 1.89899 38.1965 1.59375 38.0156C1.0678 37.2426 0.520928 36.4926 -0.046875 35.7656C-0.046875 35.5156 -0.046875 35.2656 -0.046875 35.0156C1.17041 34.0502 2.42041 33.1127 3.70312 32.2031C3.78125 26.4846 3.82812 20.7659 3.84375 15.0469C3.95313 14.9375 4.0625 14.8281 4.17188 14.7187C6.89045 14.6719 9.60919 14.6562 12.3281 14.6719C12.3125 11.7654 12.3281 8.8592 12.375 5.95312C12.479 5.73611 12.6509 5.59549 12.8906 5.53124C13.421 5.48442 13.9522 5.46879 14.4844 5.48437C14.4687 4.10901 14.4844 2.73401 14.5312 1.35937C14.5748 1.22523 14.653 1.11585 14.7656 1.03124C17.5389 0.922554 20.3202 0.875679 23.1094 0.890616C25.8985 0.875679 28.6798 0.922554 31.4531 1.03124C31.6658 1.17728 31.7751 1.3804 31.7812 1.64062C31.8281 2.92148 31.8438 4.20274 31.8281 5.48437C32.4305 5.44972 33.0242 5.49659 33.6094 5.62499C33.822 5.77103 33.9313 5.97415 33.9375 6.23437C33.9532 9.95352 34 13.6723 34.0781 17.3906C37.8759 19.3677 41.6885 21.3208 45.5156 23.25C45.6608 23.3638 45.7702 23.5044 45.8438 23.6719C45.8906 30.9218 45.9063 38.1718 45.8906 45.4219C46.4227 45.4063 46.954 45.422 47.4844 45.4687C47.6553 45.5622 47.8116 45.6716 47.9531 45.7969ZM16.0781 2.48437C20.7968 2.48437 25.5157 2.48437 30.2344 2.48437C30.2344 3.48437 30.2344 4.48436 30.2344 5.48437C25.5157 5.48437 20.7968 5.48437 16.0781 5.48437C16.0781 4.48436 16.0781 3.48437 16.0781 2.48437ZM13.9219 7.07812C20.0782 7.07812 26.2343 7.07812 32.3906 7.07812C32.4063 15.047 32.3906 23.0157 32.3438 30.9844C29.8594 29.1875 27.375 27.3906 24.8906 25.5937C24.6278 25.523 24.3778 25.5542 24.1406 25.6875C22.3667 26.9729 20.601 28.2698 18.8438 29.5781C17.2427 28.3791 15.6334 27.1917 14.0156 26.0156C13.9219 19.7034 13.8907 13.391 13.9219 7.07812ZM5.39062 16.2656C7.70313 16.2656 10.0156 16.2656 12.3281 16.2656C12.3281 16.7031 12.3281 17.1406 12.3281 17.5781C10.6966 17.5352 9.07162 17.5821 7.45312 17.7187C7.30793 17.8326 7.19855 17.9732 7.125 18.1406C7.0625 19.9219 7.0625 21.7031 7.125 23.4844C7.20312 23.75 7.375 23.9219 7.64062 24C9.20281 24.0469 10.7653 24.0625 12.3281 24.0469C12.3437 24.6726 12.3281 25.2977 12.2812 25.9219C10 27.6094 7.71875 29.2969 5.4375 30.9844C5.39062 26.0782 5.375 21.1719 5.39062 16.2656ZM8.67188 19.1719C9.89062 19.1719 11.1094 19.1719 12.3281 19.1719C12.3281 20.2656 12.3281 21.3593 12.3281 22.4531C11.1094 22.4531 9.89062 22.4531 8.67188 22.4531C8.67188 21.3593 8.67188 20.2656 8.67188 19.1719ZM33.9844 19.1719C37.411 20.9087 40.8329 22.6587 44.25 24.4219C44.2969 31.4218 44.3125 38.4218 44.2969 45.4219C40.8593 45.4219 37.4219 45.4219 33.9844 45.4219C33.9687 42.7341 33.9844 40.0467 34.0312 37.3594C34.3656 37.6593 34.725 37.925 35.1094 38.1562C35.3574 38.2028 35.6075 38.2185 35.8594 38.2031C35.7884 38.7276 35.9759 39.1182 36.4219 39.375C38.2031 39.4375 39.9844 39.4375 41.7656 39.375C42.0312 39.2969 42.2032 39.125 42.2812 38.8594C42.3438 37.0781 42.3438 35.2969 42.2812 33.5156C42.1519 33.1985 41.9175 33.0266 41.5781 33C39.9218 32.9375 38.2657 32.9375 36.6094 33C36.2281 33.0411 35.9937 33.2442 35.9062 33.6094C35.298 33.1178 34.6731 32.6491 34.0312 32.2031C33.9844 27.8595 33.9687 23.5158 33.9844 19.1719ZM13.0781 27.3281C16.8527 30.0396 20.6027 32.7896 24.3281 35.5781C24.1746 35.841 24.0027 36.091 23.8125 36.3281C20.5156 33.9063 17.2188 31.4843 13.9219 29.0625C13.4393 28.6738 12.9394 28.6426 12.4219 28.9687C9.09375 31.4219 5.76562 33.875 2.4375 36.3281C2.24592 36.168 2.08968 35.9805 1.96875 35.7656C1.90208 35.5906 1.94895 35.45 2.10938 35.3437C5.7827 32.6847 9.43894 30.0128 13.0781 27.3281ZM24.4219 27.4219C24.5506 27.4071 24.6757 27.4228 24.7969 27.4687C28.4976 30.1537 32.185 32.8569 35.8594 35.5781C35.7058 35.841 35.534 36.091 35.3438 36.3281C31.8907 33.8125 28.4375 31.2968 24.9844 28.7812C24.7343 28.7187 24.4844 28.7187 24.2344 28.7812C23.1865 29.5083 22.1553 30.2583 21.1406 31.0312C21.0469 31.0938 20.9531 31.0938 20.8594 31.0312C20.6502 30.8803 20.4627 30.7085 20.2969 30.5156C21.6783 29.4824 23.0532 28.4511 24.4219 27.4219ZM13.0781 30.5156C15.6677 32.3702 18.2458 34.2452 20.8125 36.1406C20.8594 39.2342 20.875 42.3279 20.8594 45.4219C19.5157 45.4219 18.1718 45.4219 16.8281 45.4219C16.8438 43.3279 16.8281 41.2341 16.7812 39.1406C16.6674 38.9954 16.5268 38.8861 16.3594 38.8125C14.1719 38.75 11.9843 38.75 9.79688 38.8125C9.57984 38.9165 9.43922 39.0884 9.375 39.3281C9.32812 41.3591 9.31251 43.3904 9.32812 45.4219C8.01562 45.4219 6.70312 45.4219 5.39062 45.4219C5.37501 42.3279 5.39062 39.2342 5.4375 36.1406C7.98238 34.2522 10.5293 32.3772 13.0781 30.5156ZM24.5156 30.5156C27.1608 32.3315 29.7702 34.2065 32.3438 36.1406C32.3906 39.2342 32.4063 42.3279 32.3906 45.4219C29.0782 45.4219 25.7656 45.4219 22.4531 45.4219C22.4375 42.7341 22.4531 40.0467 22.5 37.3594C22.8677 37.6135 23.2271 37.8792 23.5781 38.1562C23.8594 38.2188 24.1406 38.2188 24.4219 38.1562C25.1828 37.3189 25.8078 36.3969 26.2969 35.3906C26.2741 35.0483 26.1178 34.7827 25.8281 34.5937C24.6829 33.7874 23.5579 32.9593 22.4531 32.1094C23.1471 31.5762 23.8345 31.045 24.5156 30.5156ZM12.8906 33.5156C13.5723 33.4721 13.8379 33.7846 13.6875 34.4531C13.2418 34.9641 12.8356 34.9328 12.4688 34.3594C12.4103 33.9761 12.551 33.6949 12.8906 33.5156ZM37.4531 34.5469C38.5469 34.5469 39.6406 34.5469 40.7344 34.5469C40.7344 35.6406 40.7344 36.7343 40.7344 37.8281C39.6406 37.8281 38.5469 37.8281 37.4531 37.8281C37.4376 37.2648 37.4532 36.7023 37.5 36.1406C37.6725 35.9205 37.7819 35.6705 37.8281 35.3906C37.774 35.0698 37.649 34.7886 37.4531 34.5469ZM10.9219 40.3594C12.3593 40.3594 13.7969 40.3594 15.2344 40.3594C15.2344 42.0469 15.2344 43.7344 15.2344 45.4219C13.7969 45.4219 12.3593 45.4219 10.9219 45.4219C10.9219 43.7344 10.9219 42.0469 10.9219 40.3594Z" fill="#D3C879"/>
<path opacity="0.94" fill-rule="evenodd" clip-rule="evenodd" d="M16.7343 9.89064C18.4533 9.87498 20.1721 9.89064 21.8905 9.93751C22.0387 10.0038 22.1794 10.0819 22.3124 10.1719C22.4664 12.0698 22.4976 13.976 22.4061 15.8906C22.3625 16.0248 22.2844 16.1341 22.1718 16.2188C20.3341 16.3716 18.4904 16.4028 16.6405 16.3125C16.4923 16.2462 16.3517 16.1681 16.2186 16.0781C16.0646 14.1803 16.0334 12.274 16.1249 10.3594C16.2752 10.1217 16.4782 9.96545 16.7343 9.89064ZM17.6718 11.4844C17.6718 12.5782 17.6718 13.6719 17.6718 14.7656C18.7342 14.7656 19.7968 14.7656 20.8593 14.7656C20.8593 13.6719 20.8593 12.5782 20.8593 11.4844C19.7968 11.4844 18.7342 11.4844 17.6718 11.4844Z" fill="#D3C879"/>
<path opacity="0.95" fill-rule="evenodd" clip-rule="evenodd" d="M24.4219 9.89064C26.1409 9.87498 27.8597 9.89064 29.5781 9.93751C29.7496 9.96311 29.8902 10.0413 30 10.1719C30.1541 12.101 30.1853 14.0385 30.0938 15.9844C30.0157 16.0625 29.9375 16.1407 29.8594 16.2188C28.0217 16.3716 26.178 16.4028 24.3281 16.3125C24.0626 16.2344 23.8906 16.0625 23.8125 15.7969C23.75 14.0156 23.75 12.2344 23.8125 10.4531C23.9471 10.1773 24.1503 9.98983 24.4219 9.89064ZM25.3594 11.4844C25.3594 12.5782 25.3594 13.6719 25.3594 14.7656C26.4532 14.7656 27.5469 14.7656 28.6406 14.7656C28.6406 13.6719 28.6406 12.5782 28.6406 11.4844C27.5469 11.4844 26.4532 11.4844 25.3594 11.4844Z" fill="#D3C879"/>
<path opacity="0.941" fill-rule="evenodd" clip-rule="evenodd" d="M16.7343 17.5781C18.422 17.5625 20.1095 17.5781 21.7968 17.625C21.986 17.6672 22.1579 17.7453 22.3124 17.8594C22.4664 19.7573 22.4976 21.6635 22.4061 23.5781C22.3625 23.7123 22.2844 23.8216 22.1718 23.9063C20.3341 24.0591 18.4904 24.0903 16.6405 24C16.4923 23.9337 16.3517 23.8556 16.2186 23.7656C16.0646 21.8678 16.0334 19.9615 16.1249 18.0469C16.2941 17.8288 16.4973 17.6726 16.7343 17.5781ZM17.6718 19.1719C17.6718 20.2657 17.6718 21.3594 17.6718 22.4531C18.7342 22.4531 19.7968 22.4531 20.8593 22.4531C20.8593 21.3594 20.8593 20.2657 20.8593 19.1719C19.7968 19.1719 18.7342 19.1719 17.6718 19.1719Z" fill="#D3C879"/>
<path opacity="0.951" fill-rule="evenodd" clip-rule="evenodd" d="M24.4219 17.5781C26.1097 17.5625 27.7972 17.5781 29.4844 17.625C29.6737 17.6672 29.8455 17.7453 30 17.8594C30.1541 19.7885 30.1853 21.726 30.0938 23.6719C30.0157 23.75 29.9375 23.8282 29.8594 23.9063C28.0217 24.0591 26.178 24.0903 24.3281 24C24.0626 23.9219 23.8906 23.75 23.8125 23.4844C23.75 21.7031 23.75 19.9219 23.8125 18.1406C23.9471 17.8648 24.1503 17.6773 24.4219 17.5781ZM25.3594 19.1719C25.3594 20.2657 25.3594 21.3594 25.3594 22.4531C26.4532 22.4531 27.5469 22.4531 28.6406 22.4531C28.6406 21.3594 28.6406 20.2657 28.6406 19.1719C27.5469 19.1719 26.4532 19.1719 25.3594 19.1719Z" fill="#D3C879"/>
<path opacity="0.936" fill-rule="evenodd" clip-rule="evenodd" d="M36.6093 25.2656C38.2971 25.25 39.9846 25.2656 41.6718 25.3125C41.8919 25.345 42.0638 25.4544 42.1874 25.6406C42.3414 27.476 42.3726 29.3198 42.2812 31.1719C42.2031 31.4375 42.0312 31.6094 41.7656 31.6875C39.9843 31.75 38.2031 31.75 36.4218 31.6875C36.2544 31.6139 36.1138 31.5046 35.9999 31.3594C35.8472 29.553 35.816 27.7405 35.9062 25.9219C36.0116 25.5505 36.2459 25.3317 36.6093 25.2656ZM37.4531 26.8594C37.4531 27.9532 37.4531 29.0469 37.4531 30.1406C38.5469 30.1406 39.6405 30.1406 40.7343 30.1406C40.7343 29.0469 40.7343 27.9532 40.7343 26.8594C39.6405 26.8594 38.5469 26.8594 37.4531 26.8594Z" fill="#D3C879"/>
<path opacity="0.931" fill-rule="evenodd" clip-rule="evenodd" d="M12.5157 31.9219C14.5461 31.8427 15.468 32.8115 15.2813 34.8281C14.5636 36.3593 13.4229 36.7812 11.8595 36.0937C10.6465 35.0157 10.5215 33.8282 11.4845 32.5312C11.8063 32.2771 12.1501 32.074 12.5157 31.9219ZM12.8907 33.5156C12.5511 33.6949 12.4104 33.9761 12.4688 34.3594C12.8357 34.9328 13.2419 34.9642 13.6876 34.4531C13.838 33.7846 13.5724 33.4721 12.8907 33.5156Z" fill="#D3C879"/>
</g>
<defs>
<clipPath id="clip0_121_2001">
<rect width="48" height="48" fill="white"/>
</clipPath>
</defs>
</svg>
