<svg width="48" height="48" viewBox="0 0 48 48" fill="none" xmlns="http://www.w3.org/2000/svg">
<g clip-path="url(#clip0_121_1933)">
<path opacity="0.948" fill-rule="evenodd" clip-rule="evenodd" d="M47.9531 27.5156C47.9531 28.2031 47.9531 28.8907 47.9531 29.5781C47.7332 32.0936 47.53 34.6249 47.3438 37.1719C47.1055 37.6002 46.7461 37.7408 46.2656 37.5938C45.9509 37.3413 45.8258 37.0132 45.8906 36.6094C46.1426 33.7061 46.3146 30.7999 46.4062 27.8906C46.3216 27.778 46.2123 27.6998 46.0781 27.6562C44.766 27.6094 43.4535 27.5937 42.1406 27.6094C42.1102 27.9895 42.1415 28.3645 42.2344 28.7344C43.5286 29.3853 44.0129 30.4165 43.6875 31.8281C43.0874 33.2297 42.0405 33.7453 40.5469 33.375C39.5206 32.9405 38.9581 32.1593 38.8594 31.0312C38.9383 29.9061 39.5008 29.1404 40.5469 28.7344C40.6398 28.3645 40.671 27.9895 40.6406 27.6094C36.8906 27.6094 33.1406 27.6094 29.3906 27.6094C29.3603 27.9895 29.3915 28.3645 29.4844 28.7344C30.7664 29.3294 31.282 30.3294 31.0312 31.7344C30.636 32.8239 29.8548 33.4177 28.6875 33.5156C26.6102 33.1744 25.8602 31.9868 26.4375 29.9531C26.7273 29.3666 27.1804 28.9603 27.7969 28.7344C27.8898 28.3645 27.921 27.9895 27.8906 27.6094C26.5777 27.5937 25.2652 27.6094 23.9531 27.6562C23.674 27.7636 23.5177 27.9667 23.4844 28.2656C23.9124 33.9206 24.3343 39.5768 24.75 45.2344C24.8163 45.3826 24.8944 45.5232 24.9844 45.6562C31.6017 45.8119 38.2267 45.8431 44.8594 45.75C45.0759 45.5965 45.2166 45.3934 45.2812 45.1406C45.4198 43.2012 45.576 41.2638 45.75 39.3281C46.1606 38.8741 46.5981 38.8428 47.0625 39.2344C47.1382 39.4147 47.1851 39.6022 47.2031 39.7969C47.0623 41.8001 46.8904 43.8002 46.6875 45.7969C46.3726 46.5496 45.8257 47.034 45.0469 47.25C38.3281 47.3125 31.6094 47.3125 24.8906 47.25C23.7193 46.843 23.1568 46.0149 23.2031 44.7656C16.078 44.7813 8.95306 44.7656 1.82812 44.7188C0.880439 44.4737 0.25544 43.8955 -0.046875 42.9844C-0.046875 33.2344 -0.046875 23.4844 -0.046875 13.7344C0.219316 12.9412 0.750566 12.3944 1.54688 12.0938C3.16661 11.9584 4.79162 11.9115 6.42188 11.9531C6.3169 11.1365 6.66066 10.7771 7.45312 10.875C7.65625 10.9531 7.79688 11.0937 7.875 11.2969C7.92187 12.6715 7.93749 14.0466 7.92188 15.4219C8.32812 15.4219 8.73438 15.4219 9.14062 15.4219C9.125 12.078 9.14062 8.73423 9.1875 5.39063C9.40472 4.36101 10.0141 3.68913 11.0156 3.375C14.4532 3.3125 17.8906 3.3125 21.3281 3.375C22.3647 3.71168 23.0054 4.41481 23.25 5.48438C23.2969 8.79673 23.3125 12.1092 23.2969 15.4219C23.7031 15.4219 24.1094 15.4219 24.5156 15.4219C24.5313 11.9217 24.5156 8.42173 24.4688 4.92188C24.0938 3.17177 23.0156 2.21864 21.2344 2.0625C17.8906 2 14.5469 2 11.2031 2.0625C9.66075 2.15371 8.61389 2.91934 8.0625 4.35938C7.94451 5.91771 7.882 7.48021 7.875 9.04688C7.58708 9.49678 7.19646 9.60609 6.70312 9.375C6.59049 9.29039 6.51236 9.18101 6.46875 9.04688C6.40625 7.57812 6.40625 6.10938 6.46875 4.64063C6.90035 2.52145 8.16597 1.19333 10.2656 0.65625C14.2343 0.59375 18.2032 0.59375 22.1719 0.65625C24.3533 1.21264 25.6189 2.60326 25.9688 4.82813C26.0156 7.20292 26.0313 9.57788 26.0156 11.9531C27.5159 11.9375 29.0159 11.9531 30.5156 12C31.4901 12.2556 32.1307 12.8649 32.4375 13.8281C32.5 15.1406 32.5 16.4531 32.4375 17.7656C32.1936 18.1136 31.8654 18.2229 31.4531 18.0938C31.25 18.0157 31.1093 17.875 31.0312 17.6719C31 16.4843 30.9687 15.2969 30.9375 14.1094C30.8323 13.9102 30.6917 13.7384 30.5156 13.5938C29.0223 13.4574 27.5223 13.4106 26.0156 13.4531C26.0556 14.4292 26.0087 15.3981 25.875 16.3594C25.7191 16.586 25.516 16.7578 25.2656 16.875C24.3593 16.9375 23.4532 16.9375 22.5469 16.875C22.1875 16.7656 21.9532 16.5312 21.8438 16.1719C21.7969 15.2662 21.7813 14.3599 21.7969 13.4531C18.0781 13.4531 14.3594 13.4531 10.6406 13.4531C10.6562 14.3287 10.6406 15.2037 10.5938 16.0781C10.5253 16.4902 10.2909 16.7559 9.89062 16.875C8.98437 16.9375 8.07813 16.9375 7.17188 16.875C6.8125 16.7656 6.57813 16.5312 6.46875 16.1719C6.42189 15.2662 6.40627 14.3599 6.42188 13.4531C4.98403 13.4375 3.54653 13.4531 2.10938 13.5C1.67886 13.6896 1.44448 14.0177 1.40625 14.4844C1.35938 22.7031 1.34375 30.9218 1.35938 39.1406C8.48438 39.1406 15.6094 39.1406 22.7344 39.1406C22.5354 35.4967 22.2855 31.8561 21.9844 28.2188C22.0673 27.136 22.6298 26.4486 23.6719 26.1562C25.0777 26.1094 26.484 26.0937 27.8906 26.1094C27.9984 22.3144 29.8734 19.8925 33.5156 18.8438C36.8758 18.329 39.4539 19.5008 41.25 22.3594C41.839 23.5388 42.1359 24.7888 42.1406 26.1094C43.5159 26.0937 44.891 26.1094 46.2656 26.1562C47.0674 26.3178 47.6299 26.7709 47.9531 27.5156ZM11.7656 4.73438C14.7345 4.71876 17.7033 4.73438 20.6719 4.78125C21.1994 4.87099 21.5588 5.16787 21.75 5.67188C21.7969 7.76539 21.8125 9.85913 21.7969 11.9531C18.0781 11.9531 14.3594 11.9531 10.6406 11.9531C10.625 9.82791 10.6406 7.70289 10.6875 5.57813C10.9023 5.10447 11.2616 4.82322 11.7656 4.73438ZM34.2656 20.2031C38.1922 20.2234 40.3172 22.1921 40.6406 26.1094C37.9219 26.1094 35.2031 26.1094 32.4844 26.1094C32.4999 25.1713 32.4844 24.2338 32.4375 23.2969C32.2942 23.0141 32.0598 22.8892 31.7344 22.9219C31.3897 22.9065 31.1553 23.0628 31.0312 23.3906C30.9844 24.2963 30.9688 25.2026 30.9844 26.1094C30.4531 26.1094 29.9219 26.1094 29.3906 26.1094C29.5167 22.8906 31.1417 20.9218 34.2656 20.2031ZM27.9844 30.3281C28.1548 30.5231 28.3735 30.6482 28.6406 30.7031C28.9079 30.6293 29.1578 30.5513 29.3906 30.4688C29.7546 31.2564 29.5202 31.7721 28.6875 32.0156C27.7314 31.7572 27.4971 31.1947 27.9844 30.3281ZM40.6406 30.4219C40.8713 30.5511 41.1212 30.6448 41.3906 30.7031C41.6219 30.6168 41.8407 30.5386 42.0469 30.4688C42.4042 30.8394 42.4198 31.2301 42.0938 31.6406C41.6782 32.0677 41.2251 32.1145 40.7344 31.7812C40.3358 31.3371 40.3046 30.884 40.6406 30.4219ZM1.35938 40.5469C8.54688 40.5469 15.7343 40.5469 22.9219 40.5469C22.9312 41.4278 22.9937 42.3028 23.1094 43.1719C16.1096 43.2813 9.10958 43.2968 2.10938 43.2188C1.859 43.1016 1.65587 42.9297 1.5 42.7031C1.37705 41.9902 1.33017 41.2714 1.35938 40.5469Z" fill="#D3C879"/>
</g>
<defs>
<clipPath id="clip0_121_1933">
<rect width="48" height="48" fill="white"/>
</clipPath>
</defs>
</svg>
