<svg width="48" height="48" viewBox="0 0 48 48" fill="none" xmlns="http://www.w3.org/2000/svg">
<g clip-path="url(#clip0_121_1975)">
<path opacity="0.931" fill-rule="evenodd" clip-rule="evenodd" d="M14.1094 -0.046875C15.4219 -0.046875 16.7344 -0.046875 18.0469 -0.046875C18.5057 0.114749 18.8338 0.427249 19.0313 0.890625C19.1287 1.66832 19.2068 2.44957 19.2656 3.23438C20.2877 3.5126 21.2565 3.91885 22.1719 4.45312C22.6549 4.01705 23.1236 3.56392 23.5781 3.09375C24.5841 2.62527 25.4122 2.8284 26.0625 3.70312C26.2312 4.33523 25.9968 4.71023 25.3594 4.82812C25.0565 4.71308 24.7752 4.55682 24.5156 4.35938C24.0638 4.7642 23.6264 5.18607 23.2031 5.625C22.7713 5.90936 22.3026 6.00311 21.7969 5.90625C20.7437 5.37786 19.6499 4.94035 18.5156 4.59375C18.1109 4.37671 17.8453 4.04858 17.7188 3.60938C17.6875 2.92188 17.6562 2.23437 17.625 1.54688C17.5781 1.5 17.5313 1.45312 17.4844 1.40625C16.5781 1.34375 15.6719 1.34375 14.7656 1.40625C14.6172 2.15352 14.5079 2.91915 14.4375 3.70312C14.2343 4.15625 13.9062 4.48437 13.4531 4.6875C12.4949 4.93407 11.5886 5.30907 10.7344 5.8125C10.1893 6.01582 9.65803 5.98457 9.14063 5.71875C8.70312 5.28125 8.26563 4.84375 7.82813 4.40625C7.73438 4.34375 7.64063 4.34375 7.54688 4.40625C6.85525 5.06647 6.199 5.75398 5.57813 6.46875C5.99568 6.98027 6.4488 7.46464 6.9375 7.92188C7.20332 8.43927 7.23457 8.97052 7.03125 9.51562C6.50213 10.5097 6.06462 11.5409 5.71875 12.6094C5.44429 12.9732 5.08492 13.2076 4.64063 13.3125C3.94317 13.302 3.27129 13.3801 2.625 13.5469C2.5625 14.4532 2.5625 15.3593 2.625 16.2656C2.67188 16.3125 2.71875 16.3594 2.76563 16.4062C3.45312 16.4375 4.14063 16.4688 4.82813 16.5C5.26734 16.6266 5.59546 16.8922 5.8125 17.2969C6.17386 18.4252 6.61136 19.5188 7.125 20.5781C7.22187 21.0838 7.12812 21.5526 6.84375 21.9844C6.43751 22.3906 6.03125 22.7969 5.625 23.2031C5.5625 23.2969 5.5625 23.3906 5.625 23.4844C6.2841 24.1748 6.9716 24.8311 7.6875 25.4531C8.14062 25 8.59376 24.5468 9.04688 24.0938C9.37153 23.925 9.71531 23.8157 10.0781 23.7656C11.3381 24.3264 12.6193 24.8421 13.9219 25.3125C14.2586 25.5952 14.4617 25.9546 14.5313 26.3906C14.5781 27.0461 14.5937 27.7024 14.5781 28.3594C15.5786 28.375 16.5787 28.3594 17.5781 28.3125C17.6547 27.5856 17.7016 26.8511 17.7188 26.1094C17.9949 25.4889 18.4637 25.1139 19.125 24.9844C19.7455 25.194 19.933 25.6002 19.6875 26.2031C19.5583 26.3637 19.402 26.4888 19.2188 26.5781C19.206 27.3339 19.1435 28.0839 19.0313 28.8281C18.8126 29.3591 18.422 29.6873 17.8594 29.8125C16.6718 29.875 15.4844 29.875 14.2969 29.8125C13.6997 29.6779 13.309 29.3185 13.125 28.7344C13.0938 28.0156 13.0625 27.2969 13.0313 26.5781C11.9735 26.2679 10.9735 25.8304 10.0313 25.2656C9.50897 25.8508 8.93081 26.3664 8.29688 26.8125C7.78279 27.0139 7.28279 26.9827 6.79688 26.7188C5.97156 25.9873 5.17468 25.2217 4.40625 24.4219C4.01206 23.7532 3.98081 23.0657 4.3125 22.3594C4.78267 21.9049 5.2358 21.4361 5.67188 20.9531C5.18062 20.0574 4.78999 19.1199 4.5 18.1406C3.85372 17.9738 3.18184 17.8958 2.48438 17.9062C1.84381 17.7978 1.42194 17.4384 1.21875 16.8281C1.15625 15.5156 1.15625 14.2031 1.21875 12.8906C1.43028 12.3978 1.78965 12.0697 2.29688 11.9062C2.98437 11.875 3.67188 11.8437 4.35938 11.8125C4.71434 10.7957 5.15184 9.81131 5.67188 8.85938C5.1702 8.34217 4.68583 7.81091 4.21875 7.26562C4.00664 6.6558 4.03789 6.06204 4.3125 5.48438C5.17792 4.55618 6.09979 3.69681 7.07813 2.90625C7.55525 2.82884 8.024 2.86009 8.48438 3C9.02966 3.46708 9.56091 3.95145 10.0781 4.45312C11.0301 3.93308 12.0144 3.49559 13.0313 3.14062C13.04 2.35224 13.1025 1.571 13.2188 0.796875C13.4443 0.430454 13.7411 0.149204 14.1094 -0.046875Z" fill="#D3C879"/>
<path opacity="0.94" fill-rule="evenodd" clip-rule="evenodd" d="M44.6719 47.9532C33.7969 47.9532 22.9219 47.9532 12.0469 47.9532C10.9474 47.5876 10.2443 46.8376 9.93752 45.7032C9.87499 42.7969 9.87499 39.8907 9.93752 36.9844C10.3984 34.429 11.8515 32.6946 14.2969 31.7813C14.9107 31.5558 15.5357 31.3683 16.1719 31.2188C18.672 30.7281 21.172 30.2438 23.6719 29.7657C23.7028 29.1687 23.6715 28.5748 23.5781 27.9844C21.7391 26.6843 20.661 24.903 20.3438 22.6407C19.5622 22.484 18.9997 22.0465 18.6563 21.3282C18.556 20.5832 18.4778 19.8332 18.4219 19.0782C17.5582 18.5689 17.2301 17.8189 17.4375 16.8282C17.6475 16.1493 18.0851 15.6806 18.75 15.4219C18.808 11.3494 20.6361 8.39623 24.2344 6.56253C27.0601 5.47571 29.8726 5.50697 32.6719 6.65628C36.1689 8.50663 37.9032 11.4285 37.875 15.4219C39.2931 16.0588 39.6681 17.0901 39 18.5157C38.8062 18.7566 38.5719 18.9441 38.2969 19.0782C38.219 19.6694 38.1721 20.2633 38.1563 20.8594C37.9376 21.8281 37.3437 22.4219 36.375 22.6407C36.0478 24.887 34.9697 26.6683 33.1406 27.9844C33.0473 28.5748 33.016 29.1687 33.0469 29.7657C35.5468 30.2438 38.0468 30.7281 40.5469 31.2188C42.4211 31.6009 44.0305 32.4603 45.375 33.7969C46.19 34.7719 46.6587 35.8969 46.7813 37.1719C46.8438 39.9532 46.8438 42.7344 46.7813 45.5157C46.5603 46.7518 45.8572 47.5644 44.6719 47.9532ZM27.5156 7.26565C27.5936 8.53071 27.6404 9.812 27.6563 11.1094C28.1706 11.6325 28.6393 11.6013 29.0625 11.0157C29.0937 9.76569 29.1251 8.51565 29.1563 7.26565C29.7401 7.34812 30.3183 7.47311 30.8906 7.64065C30.9685 8.20058 31.0153 8.76308 31.0313 9.32816C31.2551 9.77122 31.6146 9.91184 32.1094 9.75003C32.1953 9.71497 32.2735 9.66809 32.3438 9.60941C32.4577 9.18276 32.5201 8.74525 32.5313 8.2969C35.1492 9.93856 36.4149 12.3136 36.3281 15.4219C30.9844 15.4219 25.6406 15.4219 20.2969 15.4219C20.3005 12.3197 21.5973 9.94465 24.1875 8.2969C24.1987 8.74525 24.2611 9.18276 24.375 9.60941C24.6803 9.79025 25.0084 9.83712 25.3594 9.75003C25.5046 9.63622 25.6139 9.49559 25.6875 9.32816C25.7035 8.76308 25.7503 8.20058 25.8281 7.64065C26.3896 7.45458 26.9521 7.32958 27.5156 7.26565ZM19.0781 16.9219C25.2657 16.9062 31.4532 16.9219 37.6406 16.9688C37.8907 17.2188 37.8907 17.4687 37.6406 17.7188C31.4531 17.7813 25.2656 17.7813 19.0781 17.7188C18.8343 17.4535 18.8343 17.1879 19.0781 16.9219ZM20.0156 19.2657C25.5781 19.2657 31.1407 19.2657 36.7031 19.2657C36.7187 19.7354 36.7031 20.2042 36.6563 20.6719C36.5782 20.8751 36.4376 21.0157 36.2344 21.0938C35.9219 21.125 35.6094 21.1563 35.2969 21.1875C35.1627 21.2311 35.0534 21.3093 34.9688 21.4219C34.7862 24.823 33.0519 26.9636 29.7656 27.8438C26.4053 28.3433 23.9209 27.1089 22.3125 24.1407C22.0159 23.2193 21.7972 22.2818 21.6563 21.3282C21.2869 21.1735 20.8962 21.0954 20.4844 21.0938C20.2976 21.04 20.157 20.9306 20.0625 20.7657C20.0157 20.2666 20.0001 19.7667 20.0156 19.2657ZM25.1719 28.9219C27.2981 29.6718 29.4231 29.6718 31.5469 28.9219C31.5625 29.4229 31.5468 29.9229 31.5 30.4219C31.2043 31.3123 30.6575 32.0155 29.8594 32.5313C29.3749 32.8518 28.8748 33.1486 28.3594 33.4219C27.2952 32.9285 26.3734 32.241 25.5938 31.3594C25.4193 31.1355 25.2943 30.8856 25.2188 30.6094C25.172 30.0477 25.1563 29.4853 25.1719 28.9219ZM23.5781 31.2657C24.4283 32.4745 25.4907 33.4902 26.7656 34.3125C26.3801 34.607 25.9582 34.8414 25.5 35.0157C25.2896 34.9559 25.0864 34.8778 24.8906 34.7813C24.1094 33.6875 23.3281 32.5938 22.5469 31.5C22.9118 31.4607 23.2555 31.3827 23.5781 31.2657ZM32.8594 31.2657C33.2735 31.3235 33.6797 31.4172 34.0781 31.5469C33.4246 32.5597 32.7528 33.5597 32.0625 34.5469C31.836 34.8008 31.5548 34.9571 31.2188 35.0157C30.8116 34.8511 30.4211 34.648 30.0469 34.4063C29.9219 34.3438 29.9219 34.2813 30.0469 34.2188C31.2932 33.5196 32.2307 32.5352 32.8594 31.2657ZM20.6719 31.8282C20.8491 31.8091 20.9897 31.8716 21.0938 32.0157C23.1617 34.9901 25.193 37.9901 27.1875 41.0157C27.3701 41.4696 27.4951 41.9383 27.5625 42.4219C27.6094 43.7966 27.6251 45.1716 27.6094 46.5469C24.1406 46.5469 20.6719 46.5469 17.2031 46.5469C17.239 44.0447 17.1921 41.5448 17.0625 39.0469C16.8685 36.983 16.4466 34.9674 15.7969 33C15.9368 32.8233 16.1243 32.7296 16.3594 32.7188C17.8177 32.4616 19.2551 32.1647 20.6719 31.8282ZM35.7656 31.8282C37.2945 32.1308 38.8258 32.4277 40.3594 32.7188C40.5731 32.7406 40.7606 32.8187 40.9219 32.9532C40.0121 35.6936 39.5589 38.5061 39.5625 41.3907C39.8673 41.8301 40.2579 41.9238 40.7344 41.6719C40.836 41.5627 40.9141 41.4377 40.9688 41.2969C41.0638 38.6031 41.5326 35.9781 42.375 33.4219C43.4949 33.9479 44.3386 34.7605 44.9063 35.8594C45.0889 36.3133 45.2139 36.7821 45.2813 37.2657C45.3728 40.0527 45.3416 42.8339 45.1875 45.6094C45.0469 46.0001 44.7813 46.2657 44.3906 46.4063C43.2706 46.5367 42.1456 46.5836 41.0156 46.5469C41.0312 45.6088 41.0156 44.6713 40.9688 43.7344C40.8764 43.3438 40.6264 43.1563 40.2188 43.1719C39.9118 43.1533 39.6931 43.2782 39.5625 43.5469C39.5156 44.5464 39.5 45.5464 39.5156 46.5469C36.0469 46.5469 32.5781 46.5469 29.1094 46.5469C29.0937 45.1091 29.1094 43.6716 29.1563 42.2344C29.353 41.3098 29.728 40.4661 30.2813 39.7032C32.1334 37.0918 33.9615 34.4668 35.7656 31.8282ZM14.2969 33.4219C14.9501 35.2966 15.372 37.2342 15.5625 39.2344C15.6917 41.6698 15.7386 44.1073 15.7031 46.5469C14.5732 46.5836 13.4482 46.5367 12.3281 46.4063C11.8661 46.2256 11.5693 45.8975 11.4375 45.4219C11.3481 42.4812 11.3793 39.5437 11.5313 36.6094C12.0052 35.1516 12.9271 34.089 14.2969 33.4219ZM28.1719 35.2032C29.0096 35.622 29.8534 36.0439 30.7031 36.4688C29.8947 37.6012 29.0979 38.7418 28.3125 39.8907C27.5701 38.7494 26.8045 37.6244 26.0156 36.5157C26.7864 36.1467 27.5051 35.7092 28.1719 35.2032Z" fill="#D3C879"/>
<path opacity="0.922" fill-rule="evenodd" clip-rule="evenodd" d="M15.328 8.2031C16.566 8.09423 17.7378 8.31298 18.8436 8.85935C19.1164 9.54513 18.8977 9.95135 18.1874 10.0781C15.8873 9.29419 13.8873 9.76291 12.1874 11.4843C10.537 13.6823 10.5057 15.9011 12.0936 18.1406C13.383 19.5604 14.9924 20.2323 16.9218 20.1562C17.3133 20.6207 17.282 21.0581 16.828 21.4687C13.6353 21.6809 11.3384 20.3527 9.93738 17.4843C8.88392 14.5582 9.46207 12.0113 11.6718 9.84372C12.7458 8.96024 13.9646 8.41336 15.328 8.2031Z" fill="#D3C879"/>
</g>
<defs>
<clipPath id="clip0_121_1975">
<rect width="48" height="48" fill="white"/>
</clipPath>
</defs>
</svg>
